<svg width="1863" height="209" viewBox="0 0 1863 209" fill="none" xmlns="http://www.w3.org/2000/svg">
<g clip-path="url(#clip0_6606_16579)">
<path fill-rule="evenodd" clip-rule="evenodd" d="M202.693 2.11107L211.543 0L280.778 136.859L278.624 143.188L142.409 208.418H138.369L2.15402 143.193L0.000732422 136.863L69.2353 0.00417301L78.0849 2.11524V127.812L137.11 69.7663L143.668 69.7662L202.693 127.808V2.11107ZM209.271 143.643L164.05 187.684L256.013 143.645L209.271 143.643ZM268.997 134.293L212.047 134.29V21.7157L268.997 134.293ZM145.066 193.117L200.684 138.95L145.066 84.2583V193.117ZM135.713 84.2588V193.117L80.0947 138.954L135.713 84.2588ZM68.7317 134.294L11.7809 134.298L68.7317 21.7198V134.294ZM24.7662 143.649L116.727 187.685L71.5075 143.647L24.7662 143.649Z" fill="black"/>
</g>
<path d="M494.742 142.526L516.821 39.0625H535.219L505.998 168.284H484.136L461.409 69.1492L438.682 168.284H416.604L387.816 39.0625H406.214L427.859 142.526L451.885 39.0625H470.933L494.742 142.526Z" fill="black"/>
<path d="M611.502 168.284H593.753V39.0625H611.502V168.284Z" fill="black"/>
<path d="M754.153 139.063V39.0625H771.902V168.284H750.906L700.257 69.1492V168.284H682.508V39.0625H703.72L754.153 139.063Z" fill="black"/>
<path d="M834.691 39.0625H924.95V56.1621H888.587V168.284H870.838V56.1621H834.691V39.0625Z" fill="black"/>
<path d="M1065.82 39.0625V56.1621H1005.65V95.3397H1061.71V112.223H1005.65V151.4H1065.82V168.284H987.899V39.0625H1065.82Z" fill="black"/>
<path d="M1229.35 168.284H1209.44L1183.68 114.171H1153.6V168.284H1135.85V39.0625H1197.1C1201.65 39.0625 1205.98 40.1448 1209.87 42.9586C1212.69 44.9067 1218.75 50.7508 1220.7 53.5647C1223.29 57.4608 1224.38 62.0062 1224.38 66.5518V86.6816C1224.38 91.2271 1223.29 95.7726 1220.7 99.6687C1218.75 102.482 1212.69 108.327 1209.87 110.275C1207.49 112.006 1205.11 112.872 1202.51 113.522L1229.35 168.284ZM1195.16 56.1621H1153.6V97.0713H1195.16C1197.75 97.0713 1199.48 96.2055 1202.51 92.9587C1205.76 89.9283 1206.63 88.1967 1206.63 85.8158V67.4176C1206.63 65.0366 1205.54 63.3049 1202.51 60.0582C1199.48 57.0279 1197.75 56.1621 1195.16 56.1621Z" fill="black"/>
<path d="M1350.41 112.656L1383.97 39.0625H1406.47V168.284H1388.72V67.634L1358.42 134.301H1342.4L1312.1 67.4176V168.284H1294.35V39.0625H1316.86L1350.41 112.656Z" fill="black"/>
<path d="M1536.25 169.366H1508.33C1502.27 169.366 1497.95 167.85 1493.83 164.171C1491.02 161.79 1486.26 157.244 1484.31 155.08C1479.33 149.668 1477.6 145.773 1477.6 138.63V39.0625H1495.34V139.279C1495.34 141.01 1496.86 143.175 1500.76 147.071C1504.65 150.751 1506.81 152.483 1508.55 152.483H1535.82C1537.56 152.483 1539.72 150.968 1543.62 147.071C1547.51 143.175 1549.24 141.01 1549.24 139.279V39.0625H1566.99V138.63C1566.99 144.691 1565.48 149.02 1561.79 153.349C1559.2 156.162 1554.65 160.708 1552.49 162.655C1547.07 167.85 1543.18 169.366 1536.25 169.366Z" fill="black"/>
<path d="M1629.79 39.0625H1720.04V56.1621H1683.68V168.284H1665.93V56.1621H1629.79V39.0625Z" fill="black"/>
<path d="M1860.92 39.0625V56.1621H1800.75V95.3397H1856.81V112.223H1800.75V151.4H1860.92V168.284H1783V39.0625H1860.92Z" fill="black"/>
<defs>
<clipPath id="clip0_6606_16579">
<rect width="286.575" height="208.418" fill="white"/>
</clipPath>
</defs>
</svg>
