<svg width="1272" height="168" viewBox="0 0 1272 168" fill="none" xmlns="http://www.w3.org/2000/svg">
<g clip-path="url(#clip0_6729_17142)">
<path d="M130.712 146.435C133.752 149.771 131.442 155.217 126.987 155.217L64.8893 155.213C60.3216 155.213 55.9679 153.231 52.9073 149.757L3.48414 93.6544C-0.952396 88.6182 2.53544 80.5781 9.15666 80.5781H61.8729C67.5216 80.5781 72.9169 82.9805 76.7708 87.2118L130.712 146.435Z" fill="black"/>
<path d="M53.8224 3.39326C55.7525 1.23132 58.4806 0 61.3402 0H267.138C269.932 0 272.604 1.17622 274.528 3.25331L332.384 65.7194C335.465 69.0451 333.164 74.5326 328.69 74.5326H7.65672C1.0114 74.5326 -2.46703 66.4418 2.01835 61.4178L53.8224 3.39326Z" fill="black"/>
<path d="M141.038 150.02C143.934 153.264 148.026 155.111 152.314 155.111H353.679C357.871 155.111 361.879 153.347 364.765 150.23L417.033 93.7978C421.653 88.8093 418.202 80.5781 411.49 80.5781H90.6045C86.1743 80.5781 83.8553 85.9719 86.8456 89.3213L141.038 150.02Z" fill="black"/>
<path d="M494.437 134.639H481.594V10.4531H499.684L534.054 87.5598L544.908 114.436H545.993L556.847 87.5598L590.856 10.4531H609.126V134.639H596.101V48.6358L596.645 30.6565H595.559L588.142 48.6358L553.048 127.226H537.491L502.397 48.6358L494.98 30.6565H493.895L494.437 48.6358V134.639Z" fill="black"/>
<path d="M664.944 136.475C637.447 136.475 623.156 116.642 623.156 88.8387C623.156 61.0359 639.257 41.2031 664.763 41.2031C686.289 41.2031 704.018 54.5484 704.018 81.61C704.018 85.8731 703.656 89.9508 703.113 92.5458H635.457C636 112.749 643.779 124.612 665.125 124.612C683.215 124.612 690.451 116.271 690.451 105.15V104.038H703.295V105.335C703.295 122.944 687.737 136.475 664.944 136.475ZM664.401 52.6949C644.503 52.6949 636.543 64.3722 635.457 82.9075H691.717C692.441 61.2212 681.948 52.6949 664.401 52.6949Z" fill="black"/>
<path d="M751.501 134.839C735.04 134.839 725.452 128.166 725.452 108.704V54.5806H710.438V43.0888H725.633L728.709 19.7344H738.477V43.0888H766.697V54.5806H738.477V109.445C738.477 120.195 743.362 122.605 754.938 122.605H766.697V133.356C763.621 133.911 758.014 134.839 751.501 134.839Z" fill="black"/>
<path d="M860.742 134.639H779.156V10.4531H860.742V22.5011H792.001V66.0589H858.027V78.2922H792.001V122.591H860.742V134.639Z" fill="black"/>
<path d="M889.306 134.621H876.281V43.0566H888.04V61.9626H888.582C892.019 52.3242 902.15 41.2031 920.601 41.2031C943.575 41.2031 954.068 56.402 954.068 78.459V134.621H941.224V81.4246C941.224 61.5918 934.893 52.8803 916.622 52.8803C898.894 52.8803 889.306 61.4066 889.306 81.7953V134.621Z" fill="black"/>
<path d="M1006.68 126.466C982.078 126.466 967.969 109.784 967.969 83.8342C967.969 57.8848 981.897 41.2031 1006.86 41.2031C1022.6 41.2031 1034.54 49.1733 1038.52 60.8505H1039.24V43.0566H1050.82V130.728C1050.82 155.566 1035.26 167.984 1011.75 167.984C988.952 167.984 972.853 155.752 972.853 134.621H985.696C985.696 149.634 993.114 156.122 1011.93 156.122C1031.1 156.122 1037.79 149.078 1037.79 130.728V107.374H1037.61C1033.45 117.939 1022.24 126.466 1006.68 126.466ZM980.994 83.8342C980.994 108.115 992.39 114.973 1009.76 114.973C1025.86 114.973 1037.79 105.52 1037.79 86.6145V81.0539C1037.79 62.1479 1025.67 52.6949 1009.03 52.6949C992.028 52.6949 980.994 59.7383 980.994 83.8342Z" fill="black"/>
<path d="M1081.5 30.8419H1068.66V10.4531H1081.5V30.8419ZM1081.5 134.639H1068.66V41.9631H1081.5V134.639Z" fill="black"/>
<path d="M1112.43 134.621H1099.41V43.0566H1111.17V61.9626H1111.71C1115.14 52.3242 1125.27 41.2031 1143.73 41.2031C1166.7 41.2031 1177.19 56.402 1177.19 78.459V134.621H1164.35V81.4246C1164.35 61.5918 1158.02 52.8803 1139.75 52.8803C1122.02 52.8803 1112.43 61.4066 1112.43 81.7953V134.621Z" fill="black"/>
<path d="M1232.88 136.475C1205.38 136.475 1191.09 116.642 1191.09 88.8387C1191.09 61.0359 1207.19 41.2031 1232.7 41.2031C1254.23 41.2031 1271.95 54.5484 1271.95 81.61C1271.95 85.8731 1271.59 89.9508 1271.05 92.5458H1203.4C1203.94 112.749 1211.71 124.612 1233.06 124.612C1251.15 124.612 1258.38 116.271 1258.38 105.15V104.038H1271.23V105.335C1271.23 122.944 1255.67 136.475 1232.88 136.475ZM1232.34 52.6949C1212.43 52.6949 1204.48 64.3722 1203.4 82.9075H1259.65C1260.37 61.2212 1249.89 52.6949 1232.34 52.6949Z" fill="black"/>
</g>
<defs>
<clipPath id="clip0_6729_17142">
<rect width="1272" height="168" fill="white"/>
</clipPath>
</defs>
</svg>
