<svg width="916" height="163" viewBox="0 0 916 163" fill="none" xmlns="http://www.w3.org/2000/svg">
<path d="M0 101.504C0 134.093 27.6075 162.116 62.6877 162.116C73.274 162.116 83.2376 159.833 92.3709 155.266V162.116H125.375L125.168 42.1377H91.5406V47.5347C82.6149 43.1756 72.8588 41.0999 62.6877 41.0999C27.6075 41.0999 0 69.1225 0 101.504ZM83.4452 122.054C77.8406 127.451 70.9907 130.565 62.6877 130.565C46.2892 130.565 33.6272 116.865 33.6272 101.504C33.6272 86.3512 46.2892 72.6513 62.6877 72.6513C70.9907 72.6513 77.8406 75.5573 83.4452 80.9543C86.9739 84.483 91.5406 91.9557 91.5406 96.3148V106.901C91.5406 111.26 86.9739 118.318 83.4452 122.054ZM142.189 162.116H175.816V155.474C184.742 159.833 194.498 161.909 204.669 161.909C239.957 161.909 267.564 133.886 267.564 101.297C267.564 68.9149 239.957 40.8923 204.669 40.8923C194.29 40.8923 184.327 43.1756 175.193 47.7422V0H142.189V2.07575C142.189 35.0802 141.981 68.2922 141.981 101.297C141.981 121.016 142.189 140.528 142.189 160.248V162.116ZM233.937 101.297C233.937 116.657 221.275 130.357 204.669 130.357C196.574 130.357 189.724 127.451 184.119 122.054C179.968 117.903 175.816 110.43 175.816 105.033V97.7678C175.816 92.3709 179.968 85.1058 184.119 80.9543C189.724 75.5573 196.574 72.4437 204.669 72.4437C221.275 72.4437 233.937 86.1436 233.937 101.297ZM275.452 162.324H309.079V127.036L314.476 121.016L344.782 162.116H385.882L337.102 96.3148L388.373 41.7226H345.612L308.664 81.7846V0.207575H275.66L275.452 162.324ZM475.139 162.324H508.766L508.351 0H475.347V2.07575L475.139 162.324ZM525.372 101.504C525.372 134.093 552.98 162.116 588.06 162.116C598.646 162.116 608.61 159.833 617.743 155.266V162.116H650.748L650.54 42.1377H616.913V47.5347C607.987 43.1756 598.231 41.0999 588.06 41.0999C552.98 41.0999 525.372 69.1225 525.372 101.504ZM608.818 122.054C603.213 127.451 596.363 130.565 588.06 130.565C571.662 130.565 559 116.865 559 101.504C559 86.3512 571.662 72.6513 588.06 72.6513C596.363 72.6513 603.213 75.5573 608.818 80.9543C612.346 84.483 616.913 91.9557 616.913 96.3148V106.901C616.913 111.26 612.346 118.318 608.818 122.054ZM667.561 162.116H701.188V155.474C710.114 159.833 719.87 161.909 730.041 161.909C765.329 161.909 792.937 133.886 792.937 101.297C792.937 68.9149 765.329 40.8923 730.041 40.8923C719.663 40.8923 709.699 43.1756 700.566 47.7422V0H667.561V2.07575C667.561 35.0802 667.354 68.2922 667.354 101.297C667.354 121.016 667.561 140.528 667.561 160.248V162.116ZM759.309 101.297C759.309 116.657 746.647 130.357 730.041 130.357C721.946 130.357 715.096 127.451 709.491 122.054C705.34 117.903 701.188 110.43 701.188 105.033V97.7678C701.188 92.3709 705.34 85.1058 709.491 80.9543C715.096 75.5573 721.946 72.4437 730.041 72.4437C746.647 72.4437 759.309 86.1436 759.309 101.297ZM801.24 125.583C801.24 154.643 837.98 162.116 860.398 162.116C882.609 162.116 915.821 154.851 915.821 126.828C915.821 118.318 913.33 114.166 908.348 107.939C904.197 102.542 897.969 98.5981 892.157 95.6921C887.798 93.4088 883.024 91.5406 878.25 90.0876C873.476 88.427 868.701 87.1815 864.135 85.5209C861.644 84.6906 858.53 83.8603 855.209 82.6149C852.095 81.577 848.982 80.5391 847.114 79.5012C846.076 78.8785 845.038 78.2558 844.208 77.633C843.377 77.0103 843.17 76.3876 843.17 75.7649C843.17 74.1043 844.83 72.6513 848.151 71.4058C851.473 70.3679 855.209 69.9528 857.492 69.9528C861.021 69.9528 865.795 70.7831 869.739 72.4437C873.683 74.3119 876.174 76.8028 876.174 80.124V85.5209L913.953 85.3133V79.5012C913.953 67.2543 907.31 58.3286 897.347 51.6862C885.1 43.7983 871.192 41.3074 856.87 41.3074C834.452 41.3074 802.277 50.6483 802.277 78.0482C802.277 82.8224 803.523 87.3891 806.014 91.5406C808.089 94.8618 810.788 98.5981 814.109 101.297C820.959 106.694 831.338 111.053 839.641 113.751C844 115.204 848.774 116.242 853.133 117.903C855.624 118.733 858.945 119.563 862.267 120.601C865.588 121.847 868.494 122.884 870.777 123.922C873.06 125.168 874.513 126.621 874.513 128.281C874.513 130.15 873.06 131.395 869.324 132.433C866.003 133.263 862.059 133.263 859.776 133.263C854.586 133.263 847.944 132.64 844 130.357C842.755 129.734 841.509 128.697 840.471 127.659C839.433 126.621 838.811 125.79 838.811 124.96L838.603 117.695H801.032V118.525C801.24 120.809 801.24 123.092 801.24 125.583Z" fill="#171717"/>
</svg>
