<svg width="905" height="175" viewBox="0 0 905 175" fill="none" xmlns="http://www.w3.org/2000/svg">
<g clip-path="url(#clip0_6731_15433)">
<path d="M712.818 103.156C708.672 96.2453 699.149 91.4843 687.171 91.4843C665.362 91.4843 649.391 106.381 649.391 132.95C649.391 158.445 664.288 174.417 687.171 174.417C699.457 174.417 708.979 168.888 712.973 161.977L714.354 172.881H734.319V62.5781H712.818V103.156ZM692.085 155.22C680.105 155.22 671.505 146.926 671.505 132.95C671.505 119.282 680.105 110.682 692.085 110.682C703.603 110.682 712.358 119.128 712.358 132.95C712.358 146.926 703.603 155.22 692.085 155.22Z" fill="#9BB0C2"/>
<path d="M818.557 154.141C817.164 154.063 813.619 153.347 813.173 148.169V122.027C813.173 98.1648 794.845 90.2109 777.144 90.2109C756.806 90.2109 742.188 100.308 740.905 117.1H761.047C762.493 111.287 768.189 107.522 776.205 107.522C785.29 107.522 791.085 112.513 791.085 121.559V123.136H773.429C755.87 123.136 747.912 130.407 747.912 130.407L748.227 130.363C741.836 134.645 738.766 141.32 738.766 149.475C738.766 165.072 750.357 174.429 768.373 174.429C780.434 174.429 789.832 170.219 794.375 163.357C796.098 170.375 802.051 172.87 809.256 172.87H817.925V172.89H821.399V154.141H818.557ZM791.085 142.301C791.085 151.971 784.82 157.273 774.011 157.273C766.806 157.273 761.322 154.778 761.322 148.072C761.322 143.705 763.829 139.338 773.227 139.338H791.085V142.301Z" fill="#9BB0C2"/>
<path d="M861.323 91.3359C886.245 91.3359 903.957 108.23 903.957 132.956C903.957 157.836 886.245 174.422 861.323 174.422C836.4 174.422 818.688 157.836 818.688 132.956C818.688 108.23 836.4 91.3359 861.323 91.3359ZM861.323 156.147C873.549 156.147 881.543 146.931 881.543 132.802C881.543 118.519 873.549 109.612 861.323 109.612C849.096 109.612 841.104 118.519 841.104 132.802C841.104 146.931 849.096 156.147 861.323 156.147Z" fill="#9BB0C2"/>
<path d="M643.603 100.543V172.74H610.365V107.318C610.365 87.2248 600.7 76.9443 584.67 76.9443C567.227 76.9443 557.799 88.8602 557.799 108.487V172.74H524.797V51.2427C534.549 51.2413 544.3 51.2398 554.052 51.2384C555.144 56.0686 556.235 60.8987 557.326 65.7289C563.691 55.6822 575.949 48.9062 594.335 48.9062C625.687 48.9062 643.603 69.4675 643.603 100.543Z" fill="#808FAA"/>
<path d="M517.154 145.143C516.995 145.151 516.837 145.167 516.675 145.167H498.046C492.784 145.167 488.52 140.902 488.52 135.641V132.434C488.44 131.4 488.402 130.291 488.402 129.093V79.2401H516.453V51.2384H488.217V17.3984H455.475V51.2384H435.312V79.2248H436.543V79.2401H455.4V136.417C455.4 158.627 467.187 172.802 491.467 172.802C500.117 172.798 508.769 172.793 517.42 172.787C517.331 163.572 517.242 154.358 517.154 145.143Z" fill="#808FAA"/>
<path d="M391.283 47.874C389.256 47.6662 387.21 47.583 385.158 47.6299C370.119 47.8475 355.868 54.4609 348.682 68.599C346.182 63.8331 342.953 59.9267 339.157 56.8269C335.857 54.0781 332.196 52.072 328.336 50.6554C322.904 48.612 316.878 47.6195 310.494 47.6195C308.528 47.6195 306.625 47.7217 304.786 47.9176C304.631 47.9284 304.475 47.9367 304.322 47.9485C300.78 48.2179 297.567 49.0502 294.696 50.1899C289.579 52.0495 285.274 54.8899 281.931 58.6146C280.04 60.4645 278.805 62.0199 278.279 62.7226L277.907 61.4024L274.9 49.9768H274.694L274.689 49.9606H244.25V52.393L244.256 52.4011V172.554H277.258V103.958C277.258 85.8074 286.686 77.0853 300.594 77.0853C313.795 77.0853 322.753 85.3357 322.753 105.372V172.554H354.575V104.666C355.046 85.5716 364.947 77.0853 377.912 77.0853C391.349 77.0853 400.07 85.3357 400.07 103.722V172.79H433.308V97.1221C433.308 65.6659 413.671 50.0017 391.283 47.874Z" fill="#808FAA"/>
<path d="M124.652 120.647C157.968 120.647 184.976 93.6395 184.976 60.3236C184.976 27.0079 157.968 0 124.652 0C91.336 0 64.3281 27.0079 64.3281 60.3236C64.3281 93.6395 91.336 120.647 124.652 120.647Z" fill="url(#paint0_linear_6731_15433)"/>
<path d="M124.574 104.038C148.673 104.038 168.209 84.5013 168.209 60.4018C168.209 36.3022 148.673 16.7656 124.574 16.7656C100.474 16.7656 80.9375 36.3022 80.9375 60.4018C80.9375 84.5013 100.474 104.038 124.574 104.038Z" fill="url(#paint1_linear_6731_15433)"/>
<path d="M84.1957 165.52H80.6876H77.1795V162.012V158.504H73.6713H70.1632V154.996V151.488H66.6551H63.1468V147.98V144.471V140.963V137.455H59.6386H56.1305V133.947V130.439V126.931V123.423V119.914V116.406H52.6224H49.1142V119.914V123.423H45.6061H42.0979V126.931V130.439H38.5897H35.0815V133.947V137.455H31.5734H28.0652H24.5571H21.049V140.963V144.471H17.5408H14.0326V147.98V151.488H10.5245H7.01632V154.996V158.504V162.012V165.52H3.50815H0V169.029V172.537H3.50815H7.01632H10.5245H14.0326H17.5408H21.049V169.029V165.52H24.5571H28.0652V162.012V158.504H31.5734H35.0815V154.996V151.488H38.5897H42.0979V154.996V158.504V162.012V165.52V169.029V172.537H45.6061H49.1142V169.029V165.52V162.012V158.504H52.6224H56.1305V162.012V165.52H59.6386H63.1468V169.029V172.537H66.6551H70.1632H73.6713H77.1795H80.6876H84.1957V169.029V165.52Z" fill="#42577A"/>
<path d="M63.1421 165.524H59.6339H56.1258V162.016V158.508H52.6175H49.1094V162.016V165.524V169.033V172.541H52.6175H56.1258H59.6339H63.1421V169.033V165.524Z" fill="#667E93"/>
<path d="M105.25 137.462H108.758H112.266V133.954V130.445H108.758H105.25V133.954V137.462Z" fill="#667E93"/>
<path d="M112.266 144.469H115.774H119.282V140.961V137.453H115.774H112.266V140.961V144.469Z" fill="#667E93"/>
<path d="M224.516 144.469H228.022H231.531V140.961V137.453H228.022H224.516V140.961V144.469Z" fill="#667E93"/>
<path d="M231.531 151.493H235.04H238.548V147.985V144.477H235.04H231.531V147.985V151.493Z" fill="#667E93"/>
<path d="M245.579 130.445H242.071H238.562V133.954V137.462H242.071H245.579V133.954V130.445Z" fill="#667E93"/>
<path d="M252.595 137.453H249.086H245.578V140.961V144.469H249.086H252.595V140.961V137.453Z" fill="#667E93"/>
<path d="M252.596 165.524V162.016V158.508H249.087H245.579V162.016V165.524H242.071H238.562V169.033V172.541H242.071H245.579H249.087H252.596V169.033V165.524Z" fill="#667E93"/>
<path d="M259.61 144.477H256.102H252.594V147.985V151.493H256.102H259.61V147.985V144.477Z" fill="#667E93"/>
<path d="M294.675 165.517H291.167H287.659H284.15H280.642V162.009V158.5H277.134H273.625V154.992V151.484H270.117H266.609H263.101H259.594V154.992V158.5H263.101H266.609V162.009V165.517H270.117H273.625V169.025V172.534H277.134H280.642H284.15H287.659H291.167H294.675V169.025V165.517Z" fill="#667E93"/>
<path d="M175.407 46.2436V42.7355V39.2274V35.7192V32.2109H171.899H168.391V35.7192V39.2274V42.7355V46.2436H171.899H175.407Z" fill="#42577A"/>
<path d="M189.438 25.196V21.6878V18.1797H185.93H182.422V21.6878V25.196H185.93H189.438Z" fill="#667E93"/>
<path d="M217.51 165.514H214.001H210.493V162.006V158.497H206.985H203.476V154.989V151.481V147.973V144.465H199.968H196.46V140.957V137.449V133.94V130.432V126.924V123.416V119.908V116.4V112.892V109.383H192.951H189.443V105.875V102.367H185.935H182.428V98.8588V95.3507V91.8426V88.3344H185.935H189.443V91.8426V95.3507V98.8588V102.367H192.951H196.46V105.875V109.383H199.968H203.476V112.892V116.4H206.985H210.493V119.908V123.416V126.924V130.432H214.001H217.51V133.94V137.449H221.018H224.526V133.94V130.432V126.924V123.416H221.018H217.51V119.908V116.4V112.892V109.383H214.001H210.493V105.875V102.367V98.8588V95.3507H206.985H203.476V91.8426V88.3344H199.968H196.46V84.8263V81.318V77.8099V74.3017H192.951H189.443V70.7936V67.2854V63.7773V60.2692H185.935H182.428V56.7609V53.2527V49.7446V46.2365V42.7283V39.2202V35.7121V32.2039V28.6956V25.1875H178.92H175.412V28.6956V32.2039V35.7121V39.2202V42.7283V46.2365H171.903H168.395V49.7446V53.2527V56.7609V60.2692H164.887H161.378V63.7773V67.2854V70.7936V74.3017H157.87H154.362V77.8099V81.318V84.8263V88.3344V91.8426V95.3507H150.854H147.346V98.8588V102.367V105.875V109.383H143.838H140.33V112.892V116.4H136.821H133.313V119.908V123.416H129.805H126.297V126.924V130.432V133.94V137.449H129.805H133.313V133.94V130.432H136.821H140.33H143.838H147.346V126.924V123.416H150.854H154.362V119.908V116.4H157.87H161.378V119.908V123.416V126.924V130.432H157.87H154.362V133.94V137.449V140.957V144.465H157.87H161.378V140.957V137.449H164.887H168.395V133.94V130.432H171.903H175.412V126.924V123.416H178.92H182.428V126.924V130.432V133.94V137.449H178.92H175.412V140.957V144.465V147.973V151.481H171.903H168.395V154.989V158.497V162.006V165.514H171.903H175.412V169.022V172.53H178.92H182.428H185.935H189.443H192.951H196.46H199.968H203.476H206.985H210.493H214.001H217.51V169.022V165.514Z" fill="#667E93"/>
<path d="M119.266 151.493H122.774H126.282V147.985V144.477H122.774H119.266V147.985V151.493Z" fill="#667E93"/>
<path d="M126.297 158.5H129.805H133.313V154.992V151.484H129.805H126.297V154.992V158.5Z" fill="#667E93"/>
<path d="M133.312 165.524H136.821H140.329V162.016V158.508H136.821H133.312V162.016V165.524Z" fill="#667E93"/>
<path d="M98.2188 123.423V126.931V130.439H101.727H105.235V126.931V123.423V119.914V116.406H101.727H98.2188V119.914V123.423Z" fill="#667E93"/>
<path d="M175.399 165.52H171.891H168.383V162.011V158.503V154.995V151.487H171.891H175.399V147.979V144.471V140.962V137.454H178.908H182.415V133.946V130.438V126.93V123.422H178.908H175.399V126.93V130.438H171.891H168.383V133.946V137.454H164.875H161.366V140.962V144.471H157.858H154.35V140.962V137.454V133.946V130.438H157.858H161.366V126.93V123.422V119.914V116.405H157.858H154.35V119.914V123.422H150.842H147.334V126.93V130.438H143.825H140.317H136.809H133.301V133.946V137.454H129.793H126.285V133.946V130.438V126.93V123.422H129.793H133.301V119.914V116.405H136.809H140.317V112.897V109.389H143.825H147.334V105.881V102.373V98.8645V95.3564H150.842H154.35V91.8483V88.3401V84.832V81.3237V77.8156V74.3074H157.858H161.366V70.7993V67.2912V63.783V60.2749H164.875H168.383V56.7666V53.2585V49.7503V46.2422H164.875H161.366V49.7503V53.2585H157.858H154.35V56.7666V60.2749V63.783V67.2912H150.842H147.334V70.7993V74.3074H143.825H140.317V77.8156V81.3237H136.809H133.301V84.832V88.3401H129.793H126.285V91.8483V95.3564H122.777H119.268V91.8483V88.3401V84.832V81.3237H115.76H112.252V84.832V88.3401V91.8483V95.3564H108.744H105.236V98.8645V102.373H101.728H98.2196V105.881V109.389H94.7113H91.2031V112.897V116.405H94.7113H98.2196H101.728H105.236V119.914V123.422V126.93V130.438H108.744H112.252V133.946V137.454H115.76H119.268V140.962V144.471H122.777H126.285V147.979V151.487H129.793H133.301V154.995V158.503H136.809H140.317V162.011V165.52H136.809H133.301V162.011V158.503H129.793H126.285V154.995V151.487H122.777H119.268H115.76H112.252V147.979V144.471H108.744H105.236V147.979V151.487V154.995V158.503H108.744H112.252V162.011V165.52H115.76H119.268V169.028V172.536H122.777H126.285H129.793H133.301H136.809H140.317H143.825H147.334H150.842H154.35H157.858H161.366H164.875H168.383H171.891H175.399V169.028V165.52Z" fill="#42577A"/>
<path d="M273.642 165.517H270.134H266.625V162.009V158.5H263.119H259.61V154.992V151.484H256.102H252.594V154.992V158.5V162.009V165.517V169.025V172.534H256.102H259.61H263.119H266.625H270.134H273.642V169.025V165.517Z" fill="#42577A"/>
<path d="M119.273 165.515H115.764H112.256V162.006V158.498H108.748H105.24V154.99V151.482V147.974V144.466V140.958V137.45H101.732H98.2236H94.7155H91.2073V140.958V144.466V147.974V151.482H94.7155H98.2236V154.99V158.498H94.7155H91.2073V154.99V151.482H87.6992H84.191V147.974V144.466V140.958V137.45H80.6829H77.1746V133.941V130.433H73.6665H70.1583V126.925V123.417V119.909V116.401V112.892V109.384H66.6502H63.1421V105.876V102.368V98.8597V95.3516H59.6339H56.1258V98.8597V102.368H52.6175H49.1094V105.876V109.384V112.892V116.401H52.6175H56.1258V119.909V123.417V126.925V130.433V133.941V137.45H59.6339H63.1421V140.958V144.466V147.974V151.482H66.6502H70.1583V154.99V158.498H73.6665H77.1746V162.006V165.515H80.6829H84.191V169.023V172.531H87.6992H91.2073H94.7155H98.2236H101.732H105.24H108.748H112.256H115.764H119.273V169.023V165.515Z" fill="#667E93"/>
<path d="M77.1725 123.423V119.914V116.406H73.6644H70.1562V119.914V123.423V126.931V130.439H73.6644H77.1725V126.931V123.423Z" fill="#819DAF"/>
<path d="M98.2202 130.438V126.93V123.422H94.7121H91.2039H87.6956H84.1875V126.93V130.438V133.946V137.454V140.963V144.471V147.979V151.487H87.6956H91.2039V147.979V144.471V140.963V137.454H94.7121H98.2202H101.728H105.236V133.946V130.438H101.728H98.2202Z" fill="#819DAF"/>
<path d="M210.485 123.423V119.914V116.406H206.977H203.469V119.914V123.423H206.977H210.485Z" fill="#819DAF"/>
<path d="M245.564 109.391V105.883V102.375H242.056H238.548H235.04H231.531V105.883V109.391V112.9V116.408H235.04H238.548V119.916V123.424H242.056H245.564V126.932V130.44V133.948V137.457H249.073H252.581V140.965V144.473H256.089H259.598V140.965V137.457V133.948V130.44V126.932V123.424V119.916V116.408H256.089H252.581V112.9V109.391H249.073H245.564Z" fill="#819DAF"/>
<path d="M259.594 144.477V147.985V151.493H263.101H266.609V147.985V144.477H263.101H259.594Z" fill="#819DAF"/>
<path d="M224.531 116.407V112.899V109.391H221.024H217.516V112.899V116.407V119.915V123.423H221.024H224.531V119.915V116.407Z" fill="#819DAF"/>
<path d="M189.438 95.36V91.8519V88.3438H185.93H182.422V91.8519V95.36V98.8682V102.376H185.93H189.438V98.8682V95.36Z" fill="#819DAF"/>
<path d="M182.422 32.2039V35.7121V39.2202V42.7283V46.2365V49.7446V53.2528V56.7609V60.2692H185.93H189.438V63.7773V67.2854V70.7936V74.3017H192.947H196.455V77.8099V81.318V84.8263V88.3344H199.963H203.472V91.8426V95.3507H206.98H210.488V98.8588V102.367V105.875V109.383H213.996H217.505V105.875V102.367H221.012H224.52V98.8588V95.3507V91.8426V88.3344H221.012H217.505V84.8263V81.318H213.996H210.488V77.8099V74.3017V70.7936V67.2854H206.98H203.472V63.7773V60.2692V56.7609V53.2528H199.963H196.455V49.7446V46.2365V42.7283V39.2202V35.7121V32.2039V28.6956V25.1875H192.947H189.438H185.93H182.422V28.6956V32.2039Z" fill="#819DAF"/>
<path d="M238.551 165.52H242.059H245.568V162.012V158.503H249.076H252.584V154.995V151.487V147.979V144.471H249.076H245.568V140.963V137.454H242.059H238.551V133.946V130.438V126.93V123.422H235.043H231.534H228.026H224.518V126.93V130.438V133.946V137.454H228.026H231.534V140.963V144.471H235.043H238.551V147.979V151.487H235.043H231.534H228.026H224.518V147.979V144.471H221.01H217.503V140.963V137.454H213.995H210.486V133.946V130.438H206.978H203.47V126.93V123.422H199.961H196.453V126.93V130.438V133.946V137.454V140.963V144.471H199.961H203.47V147.979V151.487V154.995V158.503H206.978H210.486V162.012V165.52H213.995H217.503V169.028V172.536H221.01H224.518H228.026H231.534H235.043H238.551V169.028V165.52Z" fill="#819DAF"/>
<path d="M301.688 165.523H298.18H294.672V169.032V172.54H298.18H301.688V169.032V165.523Z" fill="#819DAF"/>
<path d="M105.25 137.453V140.961V144.469H108.758H112.266V140.961V137.453H108.758H105.25Z" fill="#819DAF"/>
<path d="M112.266 144.477V147.985V151.493H115.774H119.282V147.985V144.477H115.774H112.266Z" fill="#819DAF"/>
<path d="M91.2031 158.5H94.7113H98.2196V154.992V151.484H94.7113H91.2031V154.992V158.5Z" fill="#819DAF"/>
<path d="M70.1569 102.375H66.6488H63.1406V105.883V109.391H66.6488H70.1569V105.883V102.375Z" fill="#819DAF"/>
<path d="M126.297 74.3068V77.8149V81.3231V84.8312V88.3395H129.805H133.313V84.8312V81.3231H136.821H140.33V77.8149V74.3068V70.7987V67.2905V63.7824V60.2741V56.7659V53.2578H136.821H133.313V56.7659V60.2741V63.7824V67.2905H129.805H126.297V70.7987V74.3068Z" fill="#819DAF"/>
<path d="M49.11 123.423V119.914V116.406H45.6019H42.0938V119.914V123.423H45.6019H49.11Z" fill="#667E93"/>
<path d="M119.266 88.338V91.8462V95.3543H122.774H126.282V91.8462V88.338V84.8297V81.3216V77.8135V74.3053V70.7972V67.2891H122.774H119.266V70.7972V74.3053V77.8135V81.3216V84.8297V88.338Z" fill="#667E93"/>
<path d="M133.313 67.2905V63.7824V60.2741V56.7659V53.2578H129.805H126.297V56.7659V60.2741V63.7824V67.2905H129.805H133.313Z" fill="#667E93"/>
<path d="M140.329 53.2585V49.7503V46.2422H136.821H133.312V49.7503V53.2585H136.821H140.329Z" fill="#667E93"/>
<path d="M63.1406 102.376H66.6488H70.1569V105.884V109.393V112.901V116.409H73.665H77.1732V119.917V123.425V126.933V130.442V133.95V137.458H80.6813H84.1894V133.95V130.442V126.933V123.425H87.6977H91.2059H94.714H98.2221V119.917V116.409H94.714H91.2059V112.901V109.393H87.6977H84.1894V105.884V102.376H80.6813H77.1732V98.8682V95.36H73.665H70.1569V91.8519V88.3438H66.6488H63.1406V91.8519V95.36V98.8682V102.376Z" fill="#A4C2C5"/>
<path d="M140.328 60.2741V63.7824V67.2905V70.7987V74.3068H143.836H147.344V70.7987V67.2905H150.853H154.36V63.7824V60.2741H150.853H147.344V56.7659V53.2578H143.836H140.328V56.7659V60.2741Z" fill="#A4C2C5"/>
<path d="M196.454 102.375H192.946H189.438V105.883V109.391H192.946H196.454V105.883V102.375Z" fill="#A4C2C5"/>
<path d="M203.47 116.407V112.899V109.391H199.961H196.453V112.899V116.407V119.915V123.423H199.961H203.47V119.915V116.407Z" fill="#A4C2C5"/>
<path d="M210.485 123.422H206.977H203.469V126.93V130.438H206.977H210.485V126.93V123.422Z" fill="#A4C2C5"/>
<path d="M217.501 130.445H213.993H210.484V133.954V137.462H213.993H217.501V133.954V130.445Z" fill="#A4C2C5"/>
<path d="M217.516 137.453V140.961V144.469H221.024H224.531V140.961V137.453H221.024H217.516Z" fill="#A4C2C5"/>
<path d="M224.516 144.477V147.985V151.493H228.022H231.531V147.985V144.477H228.022H224.516Z" fill="#A4C2C5"/>
<path d="M245.579 130.438V126.93V123.422H242.071H238.562V126.93V130.438H242.071H245.579Z" fill="#A4C2C5"/>
<path d="M259.594 130.438V133.946V137.454V140.963V144.471H263.101H266.609V140.963V137.454V133.946V130.438V126.93V123.422H263.101H259.594V126.93V130.438Z" fill="#A4C2C5"/>
<path d="M266.609 151.493H270.118H273.626V147.985V144.477H270.118H266.609V147.985V151.493Z" fill="#A4C2C5"/>
<path d="M273.625 158.5H277.133H280.642V154.992V151.484H277.133H273.625V154.992V158.5Z" fill="#A4C2C5"/>
<path d="M280.641 165.524H284.149H287.657H291.165H294.674V162.016V158.508H291.165H287.657H284.149H280.641V162.016V165.524Z" fill="#A4C2C5"/>
<path d="M319.227 165.523H315.719H312.211H308.704H305.196H301.688V169.032V172.54H305.196H308.704H312.211H315.719H319.227H322.736V169.032V165.523H319.227Z" fill="#A4C2C5"/>
<path d="M203.469 60.2741V63.7824V67.2905H206.977H210.485V70.7986V74.3068V77.8149V81.3231H213.994H217.502V84.8312V88.3395H221.01H224.517V91.8476V95.3558V98.8639V102.372H221.01H217.502V105.88V109.388H221.01H224.517V112.897V116.405V119.913V123.421H228.025H231.534H235.042H238.55V119.913V116.405H235.042H231.534V112.897V109.388V105.88V102.372H235.042H238.55H242.058H245.567V105.88V109.388H249.075H252.583V105.88V102.372V98.8639V95.3558H249.075H245.567V91.8476V88.3395H242.058H238.55H235.042H231.534V84.8312V81.3231H228.025H224.517V77.8149V74.3068H221.01H217.502V70.7986V67.2905V63.7824V60.2741H213.994H210.485V56.7659V53.2578H206.977H203.469V56.7659V60.2741Z" fill="#A4C2C5"/>
<path d="M196.453 39.2274V42.7355V46.2436V49.7518V53.2599H199.961H203.47V49.7518V46.2436V42.7355V39.2274V35.7192V32.2109H199.961H196.453V35.7192V39.2274Z" fill="#A4C2C5"/>
<path d="M42.0957 165.517V162.009V158.5V154.992V151.484H38.5876H35.0794V154.992V158.5H31.5713H28.0631V162.009V165.517H24.555H21.0469V169.025V172.534H24.555H28.0631H31.5713H35.0794H38.5876H42.0957V169.025V165.517Z" fill="#667E93"/>
<path d="M84.2114 165.536H80.7033H77.1952V162.028V158.519H73.6869H70.1787V155.011V151.504H66.6706H63.1625V147.995V144.487V140.979V137.471H59.6543H56.1462V133.963V130.455V126.946V123.438V119.93V116.422H52.6381H49.1298V119.93V123.438H45.6216H42.1135V126.946V130.455H38.6054H35.0972V133.963V137.471H31.5891H28.0809H24.5728H21.0645V140.979V144.487H17.5564H14.0483V147.995V151.504H10.5401H7.03194V155.011V158.519V162.028V165.536H3.52378H0.015625V169.044V172.553H3.52378H7.03194H10.5401H14.0483H17.5564H21.0645V169.044V165.536H24.5728H28.0809V162.028V158.519H31.5891H35.0972V155.011V151.504H38.6054H42.1135V155.011V158.519V162.028V165.536V169.044V172.553H45.6216H49.1298V169.044V165.536V162.028V158.519H52.6381H56.1462V162.028V165.536H59.6543H63.1625V169.044V172.553H66.6706H70.1787H73.6869H77.1952H80.7033H84.2114V169.044V165.536Z" fill="#42577A"/>
<path d="M63.1575 165.54H59.6494H56.1413V162.032V158.523H52.6331H49.125V162.032V165.54V169.048V172.557H52.6331H56.1413H59.6494H63.1575V169.048V165.54Z" fill="#667E93"/>
<path d="M105.25 137.477H108.758H112.266V133.969V130.461H108.758H105.25V133.969V137.477Z" fill="#667E93"/>
<path d="M112.281 144.493H115.79H119.298V140.985V137.477H115.79H112.281V140.985V144.493Z" fill="#667E93"/>
<path d="M224.531 144.493H228.04H231.546V140.985V137.477H228.04H224.531V140.985V144.493Z" fill="#667E93"/>
<path d="M231.547 151.509H235.055H238.563V148V144.492H235.055H231.547V148V151.509Z" fill="#667E93"/>
<path d="M245.579 130.461H242.071H238.562V133.969V137.477H242.071H245.579V133.969V130.461Z" fill="#667E93"/>
<path d="M252.595 137.477H249.086H245.578V140.985V144.493H249.086H252.595V140.985V137.477Z" fill="#667E93"/>
<path d="M252.596 165.54V162.032V158.523H249.087H245.579V162.032V165.54H242.071H238.562V169.048V172.557H242.071H245.579H249.087H252.596V169.048V165.54Z" fill="#667E93"/>
<path d="M259.626 144.492H256.118H252.609V148V151.509H256.118H259.626V148V144.492Z" fill="#667E93"/>
<path d="M294.691 165.54H291.182H287.674H284.166H280.658V162.032V158.524H277.149H273.641V155.015V151.508H270.134H266.626H263.118H259.609V155.015V158.524H263.118H266.626V162.032V165.54H270.134H273.641V169.049V172.557H277.149H280.658H284.166H287.674H291.182H294.691V169.049V165.54Z" fill="#667E93"/>
<path d="M175.423 46.2593V42.7511V39.2428V35.7347V32.2266H171.915H168.406V35.7347V39.2428V42.7511V46.2593H171.915H175.423Z" fill="#42577A"/>
<path d="M189.454 25.2116V21.7034V18.1953H185.946H182.438V21.7034V25.2116H185.946H189.454Z" fill="#667E93"/>
<path d="M217.509 165.537H214.001H210.493V162.029V158.52H206.984H203.476V155.012V151.505V147.996V144.488H199.968H196.46V140.98V137.472V133.964V130.456V126.948V123.439V119.931V116.423V112.915V109.407H192.951H189.443V105.899V102.39H185.936H182.428V98.8823V95.374V91.8658V88.3577H185.936H189.443V91.8658V95.374V98.8823V102.39H192.951H196.46V105.899V109.407H199.968H203.476V112.915V116.423H206.984H210.493V119.931V123.439V126.948V130.456H214.001H217.509V133.964V137.472H221.018H224.526V133.964V130.456V126.948V123.439H221.018H217.509V119.931V116.423V112.915V109.407H214.001H210.493V105.899V102.39V98.8823V95.374H206.984H203.476V91.8658V88.3577H199.968H196.46V84.8496V81.3414V77.8333V74.3252H192.951H189.443V70.8169V67.3087V63.8006V60.2925H185.936H182.428V56.7843V53.2762V49.768V46.2599V42.7516V39.2435V35.7353V32.2272V28.7191V25.2109H178.92H175.411V28.7191V32.2272V35.7353V39.2435V42.7516V46.2599H171.903H168.395V49.768V53.2762V56.7843V60.2925H164.887H161.378V63.8006V67.3087V70.8169V74.3252H157.87H154.362V77.8333V81.3414V84.8496V88.3577V91.8658V95.374H150.854H147.346V98.8823V102.39V105.899V109.407H143.838H140.329V112.915V116.423H136.821H133.313V119.931V123.439H129.805H126.297V126.948V130.456V133.964V137.472H129.805H133.313V133.964V130.456H136.821H140.329H143.838H147.346V126.948V123.439H150.854H154.362V119.931V116.423H157.87H161.378V119.931V123.439V126.948V130.456H157.87H154.362V133.964V137.472V140.98V144.488H157.87H161.378V140.98V137.472H164.887H168.395V133.964V130.456H171.903H175.411V126.948V123.439H178.92H182.428V126.948V130.456V133.964V137.472H178.92H175.411V140.98V144.488V147.996V151.505H171.903H168.395V155.012V158.52V162.029V165.537H171.903H175.411V169.045V172.554H178.92H182.428H185.936H189.443H192.951H196.46H199.968H203.476H206.984H210.493H214.001H217.509V169.045V165.537Z" fill="#667E93"/>
<path d="M119.281 151.509H122.79H126.298V148V144.492H122.79H119.281V148V151.509Z" fill="#667E93"/>
<path d="M126.297 158.524H129.805H133.313V155.015V151.508H129.805H126.297V155.015V158.524Z" fill="#667E93"/>
<path d="M133.312 165.54H136.821H140.329V162.032V158.523H136.821H133.312V162.032V165.54Z" fill="#667E93"/>
<path d="M98.2344 123.438V126.946V130.455H101.743H105.251V126.946V123.438V119.93V116.422H101.743H98.2344V119.93V123.438Z" fill="#667E93"/>
<path d="M175.415 165.535H171.906H168.398V162.027V158.519V155.01V151.503H171.906H175.415V147.994V144.486V140.978V137.47H178.923H182.431V133.962V130.454V126.946V123.437H178.923H175.415V126.946V130.454H171.906H168.398V133.962V137.47H164.89H161.382V140.978V144.486H157.873H154.365V140.978V137.47V133.962V130.454H157.873H161.382V126.946V123.437V119.929V116.421H157.873H154.365V119.929V123.437H150.858H147.349V126.946V130.454H143.841H140.333H136.825H133.317V133.962V137.47H129.809H126.3V133.962V130.454V126.946V123.437H129.809H133.317V119.929V116.421H136.825H140.333V112.913V109.405H143.841H147.349V105.897V102.388V98.8802V95.372H150.858H154.365V91.8639V88.3558V84.8476V81.3395V77.8314V74.3232H157.873H161.382V70.8149V67.3068V63.7986V60.2905H164.89H168.398V56.7824V53.2742V49.7661V46.2578H164.89H161.382V49.7661V53.2742H157.873H154.365V56.7824V60.2905V63.7986V67.3068H150.858H147.349V70.8149V74.3232H143.841H140.333V77.8314V81.3395H136.825H133.317V84.8476V88.3558H129.809H126.3V91.8639V95.372H122.792H119.284V91.8639V88.3558V84.8476V81.3395H115.776H112.268V84.8476V88.3558V91.8639V95.372H108.76H105.251V98.8802V102.388H101.743H98.2352V105.897V109.405H94.7269H91.2188V112.913V116.421H94.7269H98.2352H101.743H105.251V119.929V123.437V126.946V130.454H108.76H112.268V133.962V137.47H115.776H119.284V140.978V144.486H122.792H126.3V147.994V151.503H129.809H133.317V155.01V158.519H136.825H140.333V162.027V165.535H136.825H133.317V162.027V158.519H129.809H126.3V155.01V151.503H122.792H119.284H115.776H112.268V147.994V144.486H108.76H105.251V147.994V151.503V155.01V158.519H108.76H112.268V162.027V165.535H115.776H119.284V169.043V172.552H122.792H126.3H129.809H133.317H136.825H140.333H143.841H147.349H150.858H154.365H157.873H161.382H164.89H168.398H171.906H175.415V169.043V165.535Z" fill="#42577A"/>
<path d="M273.658 165.54H270.149H266.643V162.032V158.524H263.134H259.626V155.015V151.508H256.118H252.609V155.015V158.524V162.032V165.54V169.049V172.557H256.118H259.626H263.134H266.643H270.149H273.658V169.049V165.54Z" fill="#42577A"/>
<path d="M119.288 165.538H115.78H112.272V162.03V158.521H108.764H105.256V155.013V151.506V147.997V144.489V140.981V137.473H101.747H98.2392H94.7311H91.223V140.981V144.489V147.997V151.506H94.7311H98.2392V155.013V158.521H94.7311H91.223V155.013V151.506H87.7147H84.2065V147.997V144.489V140.981V137.473H80.6984H77.1903V133.965V130.457H73.6821H70.174V126.949V123.44V119.932V116.424V112.916V109.408H66.6658H63.1575V105.9V102.391V98.8833V95.375H59.6494H56.1413V98.8833V102.391H52.6331H49.125V105.9V109.408V112.916V116.424H52.6331H56.1413V119.932V123.44V126.949V130.457V133.965V137.473H59.6494H63.1575V140.981V144.489V147.997V151.506H66.6658H70.174V155.013V158.521H73.6821H77.1903V162.03V165.538H80.6984H84.2065V169.046V172.555H87.7147H91.223H94.7311H98.2392H101.747H105.256H108.764H112.272H115.78H119.288V169.046V165.538Z" fill="#667E93"/>
<path d="M77.1881 123.438V119.93V116.422H73.68H70.1719V119.93V123.438V126.946V130.455H73.68H77.1881V126.946V123.438Z" fill="#819DAF"/>
<path d="M98.2357 130.454V126.946V123.438H94.7275H91.2194H87.7113H84.2031V126.946V130.454V133.962V137.47V140.978V144.486V147.995V151.503H87.7113H91.2194V147.995V144.486V140.978V137.47H94.7275H98.2357H101.744H105.252V133.962V130.454H101.744H98.2357Z" fill="#819DAF"/>
<path d="M210.501 123.438V119.93V116.422H206.993H203.484V119.93V123.438H206.993H210.501Z" fill="#819DAF"/>
<path d="M245.58 109.407V105.899V102.391H242.072H238.563H235.055H231.547V105.899V109.407V112.915V116.423H235.055H238.563V119.931V123.439H242.072H245.58V126.948V130.456V133.964V137.472H249.088H252.597V140.98V144.488H256.105H259.613V140.98V137.472V133.964V130.456V126.948V123.439V119.931V116.423H256.105H252.597V112.915V109.407H249.088H245.58Z" fill="#819DAF"/>
<path d="M259.609 144.492V148V151.509H263.118H266.626V148V144.492H263.118H259.609Z" fill="#819DAF"/>
<path d="M224.532 116.423V112.914V109.406H221.024H217.516V112.914V116.423V119.931V123.439H221.024H224.532V119.931V116.423Z" fill="#819DAF"/>
<path d="M189.454 95.3756V91.8675V88.3594H185.946H182.438V91.8675V95.3756V98.8838V102.392H185.946H189.454V98.8838V95.3756Z" fill="#819DAF"/>
<path d="M182.438 32.2272V35.7353V39.2435V42.7516V46.2599V49.768V53.2762V56.7843V60.2925H185.946H189.454V63.8006V67.3087V70.8169V74.3252H192.961H196.469V77.8333V81.3414V84.8496V88.3577H199.977H203.486V91.8658V95.374H206.994H210.502V98.8823V102.39V105.899V109.407H214.011H217.519V105.899V102.39H221.027H224.535V98.8823V95.374V91.8658V88.3577H221.027H217.519V84.8496V81.3414H214.011H210.502V77.8333V74.3252V70.8169V67.3087H206.994H203.486V63.8006V60.2925V56.7843V53.2762H199.977H196.469V49.768V46.2599V42.7516V39.2435V35.7353V32.2272V28.7191V25.2109H192.961H189.454H185.946H182.438V28.7191V32.2272Z" fill="#819DAF"/>
<path d="M238.567 165.535H242.075H245.583V162.027V158.519H249.092H252.6V155.01V151.503V147.995V144.486H249.092H245.583V140.978V137.47H242.075H238.567V133.962V130.454V126.946V123.438H235.058H231.552H228.043H224.535V126.946V130.454V133.962V137.47H228.043H231.552V140.978V144.486H235.058H238.567V147.995V151.503H235.058H231.552H228.043H224.535V147.995V144.486H221.027H217.519V140.978V137.47H214.01H210.502V133.962V130.454H206.994H203.485V126.946V123.438H199.977H196.469V126.946V130.454V133.962V137.47V140.978V144.486H199.977H203.485V147.995V151.503V155.01V158.519H206.994H210.502V162.027V165.535H214.01H217.519V169.043V172.552H221.027H224.535H228.043H231.552H235.058H238.567V169.043V165.535Z" fill="#819DAF"/>
<path d="M301.704 165.539H298.196H294.688V169.047V172.556H298.196H301.704V169.047V165.539Z" fill="#819DAF"/>
<path d="M105.25 137.477V140.985V144.493H108.758H112.266V140.985V137.477H108.758H105.25Z" fill="#819DAF"/>
<path d="M112.281 144.492V148V151.509H115.79H119.298V148V144.492H115.79H112.281Z" fill="#819DAF"/>
<path d="M91.2188 158.524H94.7269H98.2352V155.015V151.508H94.7269H91.2188V155.015V158.524Z" fill="#819DAF"/>
<path d="M70.1725 102.391H66.6644H63.1562V105.899V109.407H66.6644H70.1725V105.899V102.391Z" fill="#819DAF"/>
<path d="M126.297 74.3224V77.8306V81.3387V84.8468V88.355H129.805H133.313V84.8468V81.3387H136.821H140.329V77.8306V74.3224V70.8143V67.306V63.7978V60.2897V56.7816V53.2734H136.821H133.313V56.7816V60.2897V63.7978V67.306H129.805H126.297V70.8143V74.3224Z" fill="#819DAF"/>
<path d="M49.1102 123.438V119.93V116.422H45.602H42.0938V119.93V123.438H45.602H49.1102Z" fill="#667E93"/>
<path d="M119.281 88.3615V91.8696V95.3777H122.79H126.298V91.8696V88.3615V84.8533V81.3452V77.8371V74.3289V70.8206V67.3125H122.79H119.281V70.8206V74.3289V77.8371V81.3452V84.8533V88.3615Z" fill="#667E93"/>
<path d="M133.313 67.306V63.7978V60.2897V56.7816V53.2734H129.805H126.297V56.7816V60.2897V63.7978V67.306H129.805H133.313Z" fill="#667E93"/>
<path d="M140.329 53.2742V49.7661V46.2578H136.821H133.312V49.7661V53.2742H136.821H140.329Z" fill="#667E93"/>
<path d="M63.1562 102.392H66.6644H70.1725V105.9V109.408V112.916V116.425H73.6808H77.189V119.933V123.441V126.949V130.457V133.965V137.474H80.6971H84.2052V133.965V130.457V126.949V123.441H87.7134H91.2215H94.7296H98.2379V119.933V116.425H94.7296H91.2215V112.916V109.408H87.7134H84.2052V105.9V102.392H80.6971H77.189V98.8838V95.3756H73.6808H70.1725V91.8675V88.3594H66.6644H63.1562V91.8675V95.3756V98.8838V102.392Z" fill="#A4C2C5"/>
<path d="M140.344 60.2897V63.7978V67.306V70.8143V74.3224H143.852H147.36V70.8143V67.306H150.868H154.376V63.7978V60.2897H150.868H147.36V56.7816V53.2734H143.852H140.344V56.7816V60.2897Z" fill="#A4C2C5"/>
<path d="M196.47 102.391H192.961H189.453V105.899V109.407H192.961H196.47V105.899V102.391Z" fill="#A4C2C5"/>
<path d="M203.485 116.423V112.914V109.406H199.977H196.469V112.914V116.423V119.931V123.439H199.977H203.485V119.931V116.423Z" fill="#A4C2C5"/>
<path d="M210.501 123.438H206.993H203.484V126.946V130.454H206.993H210.501V126.946V123.438Z" fill="#A4C2C5"/>
<path d="M217.517 130.461H214.008H210.5V133.969V137.477H214.008H217.517V133.969V130.461Z" fill="#A4C2C5"/>
<path d="M217.516 137.477V140.985V144.493H221.024H224.532V140.985V137.477H221.024H217.516Z" fill="#A4C2C5"/>
<path d="M224.531 144.492V148V151.509H228.04H231.546V148V144.492H228.04H224.531Z" fill="#A4C2C5"/>
<path d="M245.579 130.454V126.946V123.438H242.071H238.562V126.946V130.454H242.071H245.579Z" fill="#A4C2C5"/>
<path d="M259.609 130.454V133.962V137.47V140.978V144.486H263.118H266.626V140.978V137.47V133.962V130.454V126.946V123.438H263.118H259.609V126.946V130.454Z" fill="#A4C2C5"/>
<path d="M266.625 151.509H270.132H273.64V148V144.492H270.132H266.625V148V151.509Z" fill="#A4C2C5"/>
<path d="M273.641 158.524H277.149H280.657V155.015V151.508H277.149H273.641V155.015V158.524Z" fill="#A4C2C5"/>
<path d="M280.656 165.54H284.165H287.673H291.181H294.689V162.032V158.523H291.181H287.673H284.165H280.656V162.032V165.54Z" fill="#A4C2C5"/>
<path d="M319.243 165.539H315.735H312.226H308.72H305.211H301.703V169.047V172.556H305.211H308.72H312.226H315.735H319.243H322.751V169.047V165.539H319.243Z" fill="#A4C2C5"/>
<path d="M203.484 60.2897V63.7978V67.306H206.993H210.501V70.8143V74.3224V77.8305V81.3387H214.009H217.518V84.8468V88.355H221.026H224.534V91.8631V95.3714V98.8795V102.388H221.026H217.518V105.896V109.404H221.026H224.534V112.912V116.42V119.928V123.437H228.041H231.549H235.057H238.566V119.928V116.42H235.057H231.549V112.912V109.404V105.896V102.388H235.057H238.566H242.074H245.582V105.896V109.404H249.091H252.599V105.896V102.388V98.8795V95.3714H249.091H245.582V91.8631V88.355H242.074H238.566H235.057H231.549V84.8468V81.3387H228.041H224.534V77.8305V74.3224H221.026H217.518V70.8143V67.306V63.7978V60.2897H214.009H210.501V56.7816V53.2734H206.993H203.484V56.7816V60.2897Z" fill="#A4C2C5"/>
<path d="M196.469 39.2428V42.7511V46.2593V49.7674V53.2755H199.977H203.485V49.7674V46.2593V42.7511V39.2428V35.7347V32.2266H199.977H196.469V35.7347V39.2428Z" fill="#A4C2C5"/>
<path d="M42.1115 165.54V162.032V158.524V155.015V151.508H38.6033H35.0952V155.015V158.524H31.5871H28.0789V162.032V165.54H24.5706H21.0625V169.049V172.557H24.5706H28.0789H31.5871H35.0952H38.6033H42.1115V169.049V165.54Z" fill="#667E93"/>
</g>
<defs>
<linearGradient id="paint0_linear_6731_15433" x1="64.3281" y1="60.3236" x2="184.976" y2="60.3236" gradientUnits="userSpaceOnUse">
<stop stop-color="#A6B8C6"/>
<stop offset="1" stop-color="#A6B8C6"/>
</linearGradient>
<linearGradient id="paint1_linear_6731_15433" x1="92.72" y1="90.2257" x2="156.427" y2="30.578" gradientUnits="userSpaceOnUse">
<stop stop-color="#9761FF"/>
<stop offset="0.511944" stop-color="#75ADC8"/>
<stop offset="1" stop-color="#95E0B2"/>
</linearGradient>
<clipPath id="clip0_6731_15433">
<rect width="904.23" height="174.42" fill="white"/>
</clipPath>
</defs>
</svg>
