<svg width="145" height="41" viewBox="0 0 145 41" fill="none" xmlns="http://www.w3.org/2000/svg">
<g clip-path="url(#clip0_6405_15341)">
<mask id="mask0_6405_15341" style="mask-type:luminance" maskUnits="userSpaceOnUse" x="0" y="0" width="145" height="40">
<path d="M144.211 0H0V39.966H144.211V0Z" fill="white"/>
</mask>
<g mask="url(#mask0_6405_15341)">
<path d="M22.034 1.27669C21.9929 1.34193 21.9555 1.40953 21.9223 1.47914C21.6248 2.02369 21.2489 2.5218 20.8064 2.95757C20.4095 3.33213 19.9772 3.66744 19.5154 3.95873L19.3781 4.03771L19.2965 4.30247C19.252 4.4493 19.1628 4.73298 19.099 4.92877C18.9652 5.34368 18.9596 5.38042 19.0388 5.35595C19.2811 5.2781 19.8311 5.13343 19.9885 5.09677C20.1861 5.05781 20.6646 4.99216 21.0007 4.96324L21.1903 4.94432L21.2561 4.73298C21.3822 4.32026 21.6187 3.44037 21.7214 3.00984C21.8844 2.32348 22.0707 1.27669 22.034 1.27669ZM25.6953 11.6222C25.606 11.3686 25.5187 11.1238 25.4955 11.0827C25.3874 10.9591 25.2665 10.8473 25.1351 10.749C24.9565 10.6077 24.6194 10.3329 24.3828 10.1382C23.778 9.63211 23.518 9.48861 23.1811 9.46411C23.0646 9.45376 22.9473 9.47213 22.8397 9.5175C22.7272 9.56002 22.6194 9.61409 22.5183 9.67882C22.381 9.77339 22.247 9.9013 22.247 9.94913C22.2848 10.0504 22.3279 10.1495 22.3765 10.2462C22.5412 10.6221 22.6781 11.0095 22.786 11.4053C22.8652 11.6834 22.9913 11.7802 23.5996 12.0327C24.2077 12.2852 24.3014 12.3175 24.509 12.3575C24.7784 12.4006 25.0525 12.4032 25.3225 12.3653C25.4869 12.3203 25.6422 12.2477 25.7821 12.1506L25.8536 12.0928L25.6953 11.6222ZM25.6953 11.6222C25.606 11.3686 25.5187 11.1238 25.4955 11.0827C25.3874 10.9591 25.2665 10.8473 25.1351 10.749C24.9565 10.6077 24.6194 10.3329 24.3828 10.1382C23.778 9.63211 23.518 9.48861 23.1811 9.46411C23.0646 9.45376 22.9473 9.47213 22.8397 9.5175C22.7272 9.56002 22.6194 9.61409 22.5183 9.67882C22.381 9.77339 22.247 9.9013 22.247 9.94913C22.2848 10.0504 22.3279 10.1495 22.3765 10.2462C22.5412 10.6221 22.6781 11.0095 22.786 11.4053C22.8652 11.6834 22.9913 11.7802 23.5996 12.0327C24.2077 12.2852 24.3014 12.3175 24.509 12.3575C24.7784 12.4006 25.0525 12.4032 25.3225 12.3653C25.4869 12.3203 25.6422 12.2477 25.7821 12.1506L25.8536 12.0928L25.6953 11.6222ZM25.6953 11.6222C25.606 11.3686 25.5187 11.1238 25.4955 11.0827C25.3874 10.9591 25.2665 10.8473 25.1351 10.749C24.9565 10.6077 24.6194 10.3329 24.3828 10.1382C23.778 9.63211 23.518 9.48861 23.1811 9.46411C23.0646 9.45376 22.9473 9.47213 22.8397 9.5175C22.7272 9.56002 22.6194 9.61409 22.5183 9.67882C22.381 9.77339 22.247 9.9013 22.247 9.94913C22.2848 10.0504 22.3279 10.1495 22.3765 10.2462C22.5412 10.6221 22.6781 11.0095 22.786 11.4053C22.8652 11.6834 22.9913 11.7802 23.5996 12.0327C24.2077 12.2852 24.3014 12.3175 24.509 12.3575C24.7784 12.4006 25.0525 12.4032 25.3225 12.3653C25.4869 12.3203 25.6422 12.2477 25.7821 12.1506L25.8536 12.0928L25.6953 11.6222ZM25.6953 11.6222C25.606 11.3686 25.5187 11.1238 25.4955 11.0827C25.3874 10.9591 25.2665 10.8473 25.1351 10.749C24.9565 10.6077 24.6194 10.3329 24.3828 10.1382C23.778 9.63211 23.518 9.48861 23.1811 9.46411C23.0646 9.45376 22.9473 9.47213 22.8397 9.5175C22.7272 9.56002 22.6194 9.61409 22.5183 9.67882C22.381 9.77339 22.247 9.9013 22.247 9.94913C22.2848 10.0504 22.3279 10.1495 22.3765 10.2462C22.5412 10.6221 22.6781 11.0095 22.786 11.4053C22.8652 11.6834 22.9913 11.7802 23.5996 12.0327C24.2077 12.2852 24.3014 12.3175 24.509 12.3575C24.7784 12.4006 25.0525 12.4032 25.3225 12.3653C25.4869 12.3203 25.6422 12.2477 25.7821 12.1506L25.8536 12.0928L25.6953 11.6222ZM25.6953 11.6222C25.606 11.3686 25.5187 11.1238 25.4955 11.0827C25.3874 10.9591 25.2665 10.8473 25.1351 10.749C24.9565 10.6077 24.6194 10.3329 24.3828 10.1382C23.778 9.63211 23.518 9.48861 23.1811 9.46411C23.0646 9.45376 22.9473 9.47213 22.8397 9.5175C22.7272 9.56002 22.6194 9.61409 22.5183 9.67882C22.381 9.77339 22.247 9.9013 22.247 9.94913C22.2848 10.0504 22.3279 10.1495 22.3765 10.2462C22.5412 10.6221 22.6781 11.0095 22.786 11.4053C22.8652 11.6834 22.9913 11.7802 23.5996 12.0327C24.2077 12.2852 24.3014 12.3175 24.509 12.3575C24.7784 12.4006 25.0525 12.4032 25.3225 12.3653C25.4869 12.3203 25.6422 12.2477 25.7821 12.1506L25.8536 12.0928L25.6953 11.6222ZM25.6953 11.6222C25.606 11.3686 25.5187 11.1238 25.4955 11.0827C25.3874 10.9591 25.2665 10.8473 25.1351 10.749C24.9565 10.6077 24.6194 10.3329 24.3828 10.1382C23.778 9.63211 23.518 9.48861 23.1811 9.46411C23.0646 9.45376 22.9473 9.47213 22.8397 9.5175C22.7272 9.56002 22.6194 9.61409 22.5183 9.67882C22.381 9.77339 22.247 9.9013 22.247 9.94913C22.2848 10.0504 22.3279 10.1495 22.3765 10.2462C22.5412 10.6221 22.6781 11.0095 22.786 11.4053C22.8652 11.6834 22.9913 11.7802 23.5996 12.0327C24.2077 12.2852 24.3014 12.3175 24.509 12.3575C24.7784 12.4006 25.0525 12.4032 25.3225 12.3653C25.4869 12.3203 25.6422 12.2477 25.7821 12.1506L25.8536 12.0928L25.6953 11.6222ZM25.6953 11.6222C25.606 11.3686 25.5187 11.1238 25.4955 11.0827C25.3874 10.9591 25.2665 10.8473 25.1351 10.749C24.9565 10.6077 24.6194 10.3329 24.3828 10.1382C23.778 9.63211 23.518 9.48861 23.1811 9.46411C23.0646 9.45376 22.9473 9.47213 22.8397 9.5175C22.7272 9.56002 22.6194 9.61409 22.5183 9.67882C22.381 9.77339 22.247 9.9013 22.247 9.94913C22.2848 10.0504 22.3279 10.1495 22.3765 10.2462C22.5412 10.6221 22.6781 11.0095 22.786 11.4053C22.8652 11.6834 22.9913 11.7802 23.5996 12.0327C24.2077 12.2852 24.3014 12.3175 24.509 12.3575C24.7784 12.4006 25.0525 12.4032 25.3225 12.3653C25.4869 12.3203 25.6422 12.2477 25.7821 12.1506L25.8536 12.0928L25.6953 11.6222ZM25.6953 11.6222C25.606 11.3686 25.5187 11.1238 25.4955 11.0827C25.3874 10.9591 25.2665 10.8473 25.1351 10.749C24.9565 10.6077 24.6194 10.3329 24.3828 10.1382C23.778 9.63211 23.518 9.48861 23.1811 9.46411C23.0646 9.45376 22.9473 9.47213 22.8397 9.5175C22.7272 9.56002 22.6194 9.61409 22.5183 9.67882C22.381 9.77339 22.247 9.9013 22.247 9.94913C22.2848 10.0504 22.3279 10.1495 22.3765 10.2462C22.5412 10.6221 22.6781 11.0095 22.786 11.4053C22.8652 11.6834 22.9913 11.7802 23.5996 12.0327C24.2077 12.2852 24.3014 12.3175 24.509 12.3575C24.7784 12.4006 25.0525 12.4032 25.3225 12.3653C25.4869 12.3203 25.6422 12.2477 25.7821 12.1506L25.8536 12.0928L25.6953 11.6222ZM25.6953 11.6222C25.606 11.3686 25.5187 11.1238 25.4955 11.0827C25.3874 10.9591 25.2665 10.8473 25.1351 10.749C24.9565 10.6077 24.6194 10.3329 24.3828 10.1382C23.778 9.63211 23.518 9.48861 23.1811 9.46411C23.0646 9.45376 22.9473 9.47213 22.8397 9.5175C22.7272 9.56002 22.6194 9.61409 22.5183 9.67882C22.381 9.77339 22.247 9.9013 22.247 9.94913C22.2848 10.0504 22.3279 10.1495 22.3765 10.2462C22.5412 10.6221 22.6781 11.0095 22.786 11.4053C22.8652 11.6834 22.9913 11.7802 23.5996 12.0327C24.2077 12.2852 24.3014 12.3175 24.509 12.3575C24.7784 12.4006 25.0525 12.4032 25.3225 12.3653C25.4869 12.3203 25.6422 12.2477 25.7821 12.1506L25.8536 12.0928L25.6953 11.6222ZM25.6953 11.6222C25.606 11.3686 25.5187 11.1238 25.4955 11.0827C25.3874 10.9591 25.2665 10.8473 25.1351 10.749C24.9565 10.6077 24.6194 10.3329 24.3828 10.1382C23.778 9.63211 23.518 9.48861 23.1811 9.46411C23.0646 9.45376 22.9473 9.47213 22.8397 9.5175C22.7272 9.56002 22.6194 9.61409 22.5183 9.67882C22.381 9.77339 22.247 9.9013 22.247 9.94913C22.2848 10.0504 22.3279 10.1495 22.3765 10.2462C22.5412 10.6221 22.6781 11.0095 22.786 11.4053C22.8652 11.6834 22.9913 11.7802 23.5996 12.0327C24.2077 12.2852 24.3014 12.3175 24.509 12.3575C24.7784 12.4006 25.0525 12.4032 25.3225 12.3653C25.4869 12.3203 25.6422 12.2477 25.7821 12.1506L25.8536 12.0928L25.6953 11.6222ZM25.6953 11.6222C25.606 11.3686 25.5187 11.1238 25.4955 11.0827C25.3874 10.9591 25.2665 10.8473 25.1351 10.749C24.9565 10.6077 24.6194 10.3329 24.3828 10.1382C23.778 9.63211 23.518 9.48861 23.1811 9.46411C23.0646 9.45376 22.9473 9.47213 22.8397 9.5175C22.7272 9.56002 22.6194 9.61409 22.5183 9.67882C22.381 9.77339 22.247 9.9013 22.247 9.94913C22.2848 10.0504 22.3279 10.1495 22.3765 10.2462C22.5412 10.6221 22.6781 11.0095 22.786 11.4053C22.8652 11.6834 22.9913 11.7802 23.5996 12.0327C24.2077 12.2852 24.3014 12.3175 24.509 12.3575C24.7784 12.4006 25.0525 12.4032 25.3225 12.3653C25.4869 12.3203 25.6422 12.2477 25.7821 12.1506L25.8536 12.0928L25.6953 11.6222ZM25.6953 11.6222C25.606 11.3686 25.5187 11.1238 25.4955 11.0827C25.3874 10.9591 25.2665 10.8473 25.1351 10.749C24.9565 10.6077 24.6194 10.3329 24.3828 10.1382C23.778 9.63211 23.518 9.48861 23.1811 9.46411C23.0646 9.45376 22.9473 9.47213 22.8397 9.5175C22.7272 9.56002 22.6194 9.61409 22.5183 9.67882C22.381 9.77339 22.247 9.9013 22.247 9.94913C22.2848 10.0504 22.3279 10.1495 22.3765 10.2462C22.5412 10.6221 22.6781 11.0095 22.786 11.4053C22.8652 11.6834 22.9913 11.7802 23.5996 12.0327C24.2077 12.2852 24.3014 12.3175 24.509 12.3575C24.7784 12.4006 25.0525 12.4032 25.3225 12.3653C25.4869 12.3203 25.6422 12.2477 25.7821 12.1506L25.8536 12.0928L25.6953 11.6222ZM25.6953 11.6222C25.606 11.3686 25.5187 11.1238 25.4955 11.0827C25.3874 10.9591 25.2665 10.8473 25.1351 10.749C24.9565 10.6077 24.6194 10.3329 24.3828 10.1382C23.778 9.63211 23.518 9.48861 23.1811 9.46411C23.0646 9.45376 22.9473 9.47213 22.8397 9.5175C22.7272 9.56002 22.6194 9.61409 22.5183 9.67882C22.381 9.77339 22.247 9.9013 22.247 9.94913C22.2848 10.0504 22.3279 10.1495 22.3765 10.2462C22.5412 10.6221 22.6781 11.0095 22.786 11.4053C22.8652 11.6834 22.9913 11.7802 23.5996 12.0327C24.2077 12.2852 24.3014 12.3175 24.509 12.3575C24.7784 12.4006 25.0525 12.4032 25.3225 12.3653C25.4869 12.3203 25.6422 12.2477 25.7821 12.1506L25.8536 12.0928L25.6953 11.6222ZM25.6953 11.6222C25.606 11.3686 25.5187 11.1238 25.4955 11.0827C25.3874 10.9591 25.2665 10.8473 25.1351 10.749C24.9565 10.6077 24.6194 10.3329 24.3828 10.1382C23.778 9.63211 23.518 9.48861 23.1811 9.46411C23.0646 9.45376 22.9473 9.47213 22.8397 9.5175C22.7272 9.56002 22.6194 9.61409 22.5183 9.67882C22.381 9.77339 22.247 9.9013 22.247 9.94913C22.2848 10.0504 22.3279 10.1495 22.3765 10.2462C22.5412 10.6221 22.6781 11.0095 22.786 11.4053C22.8652 11.6834 22.9913 11.7802 23.5996 12.0327C24.2077 12.2852 24.3014 12.3175 24.509 12.3575C24.7784 12.4006 25.0525 12.4032 25.3225 12.3653C25.4869 12.3203 25.6422 12.2477 25.7821 12.1506L25.8536 12.0928L25.6953 11.6222ZM25.6953 11.6222C25.606 11.3686 25.5187 11.1238 25.4955 11.0827C25.3874 10.9591 25.2665 10.8473 25.1351 10.749C24.9565 10.6077 24.6194 10.3329 24.3828 10.1382C23.778 9.63211 23.518 9.48861 23.1811 9.46411C23.0646 9.45376 22.9473 9.47213 22.8397 9.5175C22.7272 9.56002 22.6194 9.61409 22.5183 9.67882C22.381 9.77339 22.247 9.9013 22.247 9.94913C22.2848 10.0504 22.3279 10.1495 22.3765 10.2462C22.5412 10.6221 22.6781 11.0095 22.786 11.4053C22.8652 11.6834 22.9913 11.7802 23.5996 12.0327C24.2077 12.2852 24.3014 12.3175 24.509 12.3575C24.7784 12.4006 25.0525 12.4032 25.3225 12.3653C25.4869 12.3203 25.6422 12.2477 25.7821 12.1506L25.8536 12.0928L25.6953 11.6222ZM25.6953 11.6222C25.606 11.3686 25.5187 11.1238 25.4955 11.0827C25.3874 10.9591 25.2665 10.8473 25.1351 10.749C24.9565 10.6077 24.6194 10.3329 24.3828 10.1382C23.778 9.63211 23.518 9.48861 23.1811 9.46411C23.0646 9.45376 22.9473 9.47213 22.8397 9.5175C22.7272 9.56002 22.6194 9.61409 22.5183 9.67882C22.381 9.77339 22.247 9.9013 22.247 9.94913C22.2848 10.0504 22.3279 10.1495 22.3765 10.2462C22.5412 10.6221 22.6781 11.0095 22.786 11.4053C22.8652 11.6834 22.9913 11.7802 23.5996 12.0327C24.2077 12.2852 24.3014 12.3175 24.509 12.3575C24.7784 12.4006 25.0525 12.4032 25.3225 12.3653C25.4869 12.3203 25.6422 12.2477 25.7821 12.1506L25.8536 12.0928L25.6953 11.6222ZM25.6953 11.6222C25.606 11.3686 25.5187 11.1238 25.4955 11.0827C25.3874 10.9591 25.2665 10.8473 25.1351 10.749C24.9565 10.6077 24.6194 10.3329 24.3828 10.1382C23.778 9.63211 23.518 9.48861 23.1811 9.46411C23.0646 9.45376 22.9473 9.47213 22.8397 9.5175C22.7272 9.56002 22.6194 9.61409 22.5183 9.67882C22.381 9.77339 22.247 9.9013 22.247 9.94913C22.2848 10.0504 22.3279 10.1495 22.3765 10.2462C22.5412 10.6221 22.6781 11.0095 22.786 11.4053C22.8652 11.6834 22.9913 11.7802 23.5996 12.0327C24.2077 12.2852 24.3014 12.3175 24.509 12.3575C24.7784 12.4006 25.0525 12.4032 25.3225 12.3653C25.4869 12.3203 25.6422 12.2477 25.7821 12.1506L25.8536 12.0928L25.6953 11.6222ZM25.6953 11.6222C25.606 11.3686 25.5187 11.1238 25.4955 11.0827C25.3874 10.9591 25.2665 10.8473 25.1351 10.749C24.9565 10.6077 24.6194 10.3329 24.3828 10.1382C23.778 9.63211 23.518 9.48861 23.1811 9.46411C23.0646 9.45376 22.9473 9.47213 22.8397 9.5175C22.7272 9.56002 22.6194 9.61409 22.5183 9.67882C22.381 9.77339 22.247 9.9013 22.247 9.94913C22.2848 10.0504 22.3279 10.1495 22.3765 10.2462C22.5412 10.6221 22.6781 11.0095 22.786 11.4053C22.8652 11.6834 22.9913 11.7802 23.5996 12.0327C24.2077 12.2852 24.3014 12.3175 24.509 12.3575C24.7784 12.4006 25.0525 12.4032 25.3225 12.3653C25.4869 12.3203 25.6422 12.2477 25.7821 12.1506L25.8536 12.0928L25.6953 11.6222ZM25.6953 11.6222C25.606 11.3686 25.5187 11.1238 25.4955 11.0827C25.3874 10.9591 25.2665 10.8473 25.1351 10.749C24.9565 10.6077 24.6194 10.3329 24.3828 10.1382C23.778 9.63211 23.518 9.48861 23.1811 9.46411C23.0646 9.45376 22.9473 9.47213 22.8397 9.5175C22.7272 9.56002 22.6194 9.61409 22.5183 9.67882C22.381 9.77339 22.247 9.9013 22.247 9.94913C22.2848 10.0504 22.3279 10.1495 22.3765 10.2462C22.5412 10.6221 22.6781 11.0095 22.786 11.4053C22.8652 11.6834 22.9913 11.7802 23.5996 12.0327C24.2077 12.2852 24.3014 12.3175 24.509 12.3575C24.7784 12.4006 25.0525 12.4032 25.3225 12.3653C25.4869 12.3203 25.6422 12.2477 25.7821 12.1506L25.8536 12.0928L25.6953 11.6222ZM25.6953 11.6222C25.606 11.3686 25.5187 11.1238 25.4955 11.0827C25.3874 10.9591 25.2665 10.8473 25.1351 10.749C24.9565 10.6077 24.6194 10.3329 24.3828 10.1382C23.778 9.63211 23.518 9.48861 23.1811 9.46411C23.0646 9.45376 22.9473 9.47213 22.8397 9.5175C22.7272 9.56002 22.6194 9.61409 22.5183 9.67882C22.381 9.77339 22.247 9.9013 22.247 9.94913C22.2848 10.0504 22.3279 10.1495 22.3765 10.2462C22.5412 10.6221 22.6781 11.0095 22.786 11.4053C22.8652 11.6834 22.9913 11.7802 23.5996 12.0327C24.2077 12.2852 24.3014 12.3175 24.509 12.3575C24.7784 12.4006 25.0525 12.4032 25.3225 12.3653C25.4869 12.3203 25.6422 12.2477 25.7821 12.1506L25.8536 12.0928L25.6953 11.6222ZM25.6953 11.6222C25.606 11.3686 25.5187 11.1238 25.4955 11.0827C25.3874 10.9591 25.2665 10.8473 25.1351 10.749C24.9565 10.6077 24.6194 10.3329 24.3828 10.1382C23.778 9.63211 23.518 9.48861 23.1811 9.46411C23.0646 9.45376 22.9473 9.47213 22.8397 9.5175C22.7272 9.56002 22.6194 9.61409 22.5183 9.67882C22.381 9.77339 22.247 9.9013 22.247 9.94913C22.2848 10.0504 22.3279 10.1495 22.3765 10.2462C22.5412 10.6221 22.6781 11.0095 22.786 11.4053C22.8652 11.6834 22.9913 11.7802 23.5996 12.0327C24.2077 12.2852 24.3014 12.3175 24.509 12.3575C24.7784 12.4006 25.0525 12.4032 25.3225 12.3653C25.4869 12.3203 25.6422 12.2477 25.7821 12.1506L25.8536 12.0928L25.6953 11.6222ZM25.6953 11.6222C25.606 11.3686 25.5187 11.1238 25.4955 11.0827C25.3874 10.9591 25.2665 10.8473 25.1351 10.749C24.9565 10.6077 24.6194 10.3329 24.3828 10.1382C23.778 9.63211 23.518 9.48861 23.1811 9.46411C23.0646 9.45376 22.9473 9.47213 22.8397 9.5175C22.7272 9.56002 22.6194 9.61409 22.5183 9.67882C22.381 9.77339 22.247 9.9013 22.247 9.94913C22.2848 10.0504 22.3279 10.1495 22.3765 10.2462C22.5412 10.6221 22.6781 11.0095 22.786 11.4053C22.8652 11.6834 22.9913 11.7802 23.5996 12.0327C24.2077 12.2852 24.3014 12.3175 24.509 12.3575C24.7784 12.4006 25.0525 12.4032 25.3225 12.3653C25.4869 12.3203 25.6422 12.2477 25.7821 12.1506L25.8536 12.0928L25.6953 11.6222ZM25.6953 11.6222C25.606 11.3686 25.5187 11.1238 25.4955 11.0827C25.3874 10.9591 25.2665 10.8473 25.1351 10.749C24.9565 10.6077 24.6194 10.3329 24.3828 10.1382C23.778 9.63211 23.518 9.48861 23.1811 9.46411C23.0646 9.45376 22.9473 9.47213 22.8397 9.5175C22.7272 9.56002 22.6194 9.61409 22.5183 9.67882C22.381 9.77339 22.247 9.9013 22.247 9.94913C22.2848 10.0504 22.3279 10.1495 22.3765 10.2462C22.5412 10.6221 22.6781 11.0095 22.786 11.4053C22.8652 11.6834 22.9913 11.7802 23.5996 12.0327C24.2077 12.2852 24.3014 12.3175 24.509 12.3575C24.7784 12.4006 25.0525 12.4032 25.3225 12.3653C25.4869 12.3203 25.6422 12.2477 25.7821 12.1506L25.8536 12.0928L25.6953 11.6222ZM25.6953 11.6222C25.606 11.3686 25.5187 11.1238 25.4955 11.0827C25.3874 10.9591 25.2665 10.8473 25.1351 10.749C24.9565 10.6077 24.6194 10.3329 24.3828 10.1382C23.778 9.63211 23.518 9.48861 23.1811 9.46411C23.0646 9.45376 22.9473 9.47213 22.8397 9.5175C22.7272 9.56002 22.6194 9.61409 22.5183 9.67882C22.381 9.77339 22.247 9.9013 22.247 9.94913C22.2848 10.0504 22.3279 10.1495 22.3765 10.2462C22.5412 10.6221 22.6781 11.0095 22.786 11.4053C22.8652 11.6834 22.9913 11.7802 23.5996 12.0327C24.2077 12.2852 24.3014 12.3175 24.509 12.3575C24.7784 12.4006 25.0525 12.4032 25.3225 12.3653C25.4869 12.3203 25.6422 12.2477 25.7821 12.1506L25.8536 12.0928L25.6953 11.6222ZM25.6953 11.6222C25.606 11.3686 25.5187 11.1238 25.4955 11.0827C25.3874 10.9591 25.2665 10.8473 25.1351 10.749C24.9565 10.6077 24.6194 10.3329 24.3828 10.1382C23.778 9.63211 23.518 9.48861 23.1811 9.46411C23.0646 9.45376 22.9473 9.47213 22.8397 9.5175C22.7272 9.56002 22.6194 9.61409 22.5183 9.67882C22.381 9.77339 22.247 9.9013 22.247 9.94913C22.2848 10.0504 22.3279 10.1495 22.3765 10.2462C22.5412 10.6221 22.6781 11.0095 22.786 11.4053C22.8652 11.6834 22.9913 11.7802 23.5996 12.0327C24.2077 12.2852 24.3014 12.3175 24.509 12.3575C24.7784 12.4006 25.0525 12.4032 25.3225 12.3653C25.4869 12.3203 25.6422 12.2477 25.7821 12.1506L25.8536 12.0928L25.6953 11.6222ZM25.6953 11.6222C25.606 11.3686 25.5187 11.1238 25.4955 11.0827C25.3874 10.9591 25.2665 10.8473 25.1351 10.749C24.9565 10.6077 24.6194 10.3329 24.3828 10.1382C23.778 9.63211 23.518 9.48861 23.1811 9.46411C23.0646 9.45376 22.9473 9.47213 22.8397 9.5175C22.7272 9.56002 22.6194 9.61409 22.5183 9.67882C22.381 9.77339 22.247 9.9013 22.247 9.94913C22.2848 10.0504 22.3279 10.1495 22.3765 10.2462C22.5412 10.6221 22.6781 11.0095 22.786 11.4053C22.8652 11.6834 22.9913 11.7802 23.5996 12.0327C24.2077 12.2852 24.3014 12.3175 24.509 12.3575C24.7784 12.4006 25.0525 12.4032 25.3225 12.3653C25.4869 12.3203 25.6422 12.2477 25.7821 12.1506L25.8536 12.0928L25.6953 11.6222ZM25.6953 11.6222C25.606 11.3686 25.5187 11.1238 25.4955 11.0827C25.3874 10.9591 25.2665 10.8473 25.1351 10.749C24.9565 10.6077 24.6194 10.3329 24.3828 10.1382C23.778 9.63211 23.518 9.48861 23.1811 9.46411C23.0646 9.45376 22.9473 9.47213 22.8397 9.5175C22.7272 9.56002 22.6194 9.61409 22.5183 9.67882C22.381 9.77339 22.247 9.9013 22.247 9.94913C22.2848 10.0504 22.3279 10.1495 22.3765 10.2462C22.5412 10.6221 22.6781 11.0095 22.786 11.4053C22.8652 11.6834 22.9913 11.7802 23.5996 12.0327C24.2077 12.2852 24.3014 12.3175 24.509 12.3575C24.7784 12.4006 25.0525 12.4032 25.3225 12.3653C25.4869 12.3203 25.6422 12.2477 25.7821 12.1506L25.8536 12.0928L25.6953 11.6222ZM25.6953 11.6222C25.606 11.3686 25.5187 11.1238 25.4955 11.0827C25.3874 10.9591 25.2665 10.8473 25.1351 10.749C24.9565 10.6077 24.6194 10.3329 24.3828 10.1382C23.778 9.63211 23.518 9.48861 23.1811 9.46411C23.0646 9.45376 22.9473 9.47213 22.8397 9.5175C22.7272 9.56002 22.6194 9.61409 22.5183 9.67882C22.381 9.77339 22.247 9.9013 22.247 9.94913C22.2848 10.0504 22.3279 10.1495 22.3765 10.2462C22.5412 10.6221 22.6781 11.0095 22.786 11.4053C22.8652 11.6834 22.9913 11.7802 23.5996 12.0327C24.2077 12.2852 24.3014 12.3175 24.509 12.3575C24.7784 12.4006 25.0525 12.4032 25.3225 12.3653C25.4869 12.3203 25.6422 12.2477 25.7821 12.1506L25.8536 12.0928L25.6953 11.6222ZM25.6953 11.6222C25.606 11.3686 25.5187 11.1238 25.4955 11.0827C25.3874 10.9591 25.2665 10.8473 25.1351 10.749C24.9565 10.6077 24.6194 10.3329 24.3828 10.1382C23.778 9.63211 23.518 9.48861 23.1811 9.46411C23.0646 9.45376 22.9473 9.47213 22.8397 9.5175C22.7272 9.56002 22.6194 9.61409 22.5183 9.67882C22.381 9.77339 22.247 9.9013 22.247 9.94913C22.2848 10.0504 22.3279 10.1495 22.3765 10.2462C22.5412 10.6221 22.6781 11.0095 22.786 11.4053C22.8652 11.6834 22.9913 11.7802 23.5996 12.0327C24.2077 12.2852 24.3014 12.3175 24.509 12.3575C24.7784 12.4006 25.0525 12.4032 25.3225 12.3653C25.4869 12.3203 25.6422 12.2477 25.7821 12.1506L25.8536 12.0928L25.6953 11.6222ZM25.6953 11.6222C25.606 11.3686 25.5187 11.1238 25.4955 11.0827C25.3874 10.9591 25.2665 10.8473 25.1351 10.749C24.9565 10.6077 24.6194 10.3329 24.3828 10.1382C23.778 9.63211 23.518 9.48861 23.1811 9.46411C23.0646 9.45376 22.9473 9.47213 22.8397 9.5175C22.7272 9.56002 22.6194 9.61409 22.5183 9.67882C22.381 9.77339 22.247 9.9013 22.247 9.94913C22.2848 10.0504 22.3279 10.1495 22.3765 10.2462C22.5412 10.6221 22.6781 11.0095 22.786 11.4053C22.8652 11.6834 22.9913 11.7802 23.5996 12.0327C24.2077 12.2852 24.3014 12.3175 24.509 12.3575C24.7784 12.4006 25.0525 12.4032 25.3225 12.3653C25.4869 12.3203 25.6422 12.2477 25.7821 12.1506L25.8536 12.0928L25.6953 11.6222ZM25.6953 11.6222C25.606 11.3686 25.5187 11.1238 25.4955 11.0827C25.3874 10.9591 25.2665 10.8473 25.1351 10.749C24.9565 10.6077 24.6194 10.3329 24.3828 10.1382C23.778 9.63211 23.518 9.48861 23.1811 9.46411C23.0646 9.45376 22.9473 9.47213 22.8397 9.5175C22.7272 9.56002 22.6194 9.61409 22.5183 9.67882C22.381 9.77339 22.247 9.9013 22.247 9.94913C22.2848 10.0504 22.3279 10.1495 22.3765 10.2462C22.5412 10.6221 22.6781 11.0095 22.786 11.4053C22.8652 11.6834 22.9913 11.7802 23.5996 12.0327C24.2077 12.2852 24.3014 12.3175 24.509 12.3575C24.7784 12.4006 25.0525 12.4032 25.3225 12.3653C25.4869 12.3203 25.6422 12.2477 25.7821 12.1506L25.8536 12.0928L25.6953 11.6222ZM25.6953 11.6222C25.606 11.3686 25.5187 11.1238 25.4955 11.0827C25.3874 10.9591 25.2665 10.8473 25.1351 10.749C24.9565 10.6077 24.6194 10.3329 24.3828 10.1382C23.778 9.63211 23.518 9.48861 23.1811 9.46411C23.0646 9.45376 22.9473 9.47213 22.8397 9.5175C22.7272 9.56002 22.6194 9.61409 22.5183 9.67882C22.381 9.77339 22.247 9.9013 22.247 9.94913C22.2848 10.0504 22.3279 10.1495 22.3765 10.2462C22.5412 10.6221 22.6781 11.0095 22.786 11.4053C22.8652 11.6834 22.9913 11.7802 23.5996 12.0327C24.2077 12.2852 24.3014 12.3175 24.509 12.3575C24.7784 12.4006 25.0525 12.4032 25.3225 12.3653C25.4869 12.3203 25.6422 12.2477 25.7821 12.1506L25.8536 12.0928L25.6953 11.6222ZM25.6953 11.6222C25.606 11.3686 25.5187 11.1238 25.4955 11.0827C25.3874 10.9591 25.2665 10.8473 25.1351 10.749C24.9565 10.6077 24.6194 10.3329 24.3828 10.1382C23.778 9.63211 23.518 9.48861 23.1811 9.46411C23.0646 9.45376 22.9473 9.47213 22.8397 9.5175C22.7272 9.56002 22.6194 9.61409 22.5183 9.67882C22.381 9.77339 22.247 9.9013 22.247 9.94913C22.2848 10.0504 22.3279 10.1495 22.3765 10.2462C22.5412 10.6221 22.6781 11.0095 22.786 11.4053C22.8652 11.6834 22.9913 11.7802 23.5996 12.0327C24.2077 12.2852 24.3014 12.3175 24.509 12.3575C24.7784 12.4006 25.0525 12.4032 25.3225 12.3653C25.4869 12.3203 25.6422 12.2477 25.7821 12.1506L25.8536 12.0928L25.6953 11.6222ZM25.6953 11.6222C25.606 11.3686 25.5187 11.1238 25.4955 11.0827C25.3874 10.9591 25.2665 10.8473 25.1351 10.749C24.9565 10.6077 24.6194 10.3329 24.3828 10.1382C23.778 9.63211 23.518 9.48861 23.1811 9.46411C23.0646 9.45376 22.9473 9.47213 22.8397 9.5175C22.7272 9.56002 22.6194 9.61409 22.5183 9.67882C22.381 9.77339 22.247 9.9013 22.247 9.94913C22.2848 10.0504 22.3279 10.1495 22.3765 10.2462C22.5412 10.6221 22.6781 11.0095 22.786 11.4053C22.8652 11.6834 22.9913 11.7802 23.5996 12.0327C24.2077 12.2852 24.3014 12.3175 24.509 12.3575C24.7784 12.4006 25.0525 12.4032 25.3225 12.3653C25.4869 12.3203 25.6422 12.2477 25.7821 12.1506L25.8536 12.0928L25.6953 11.6222ZM33.4406 18.3624C33.2329 18.016 33.0002 17.6852 32.7442 17.3724C32.529 17.0998 31.9923 16.4535 31.4141 15.7704C31.2111 15.5323 30.9677 15.2498 30.8818 15.1431C30.7959 15.0363 30.6822 14.9061 30.6375 14.856C30.5929 14.8061 30.4712 14.6647 30.3662 14.5422L29.8852 13.9783C29.0116 12.9527 28.1156 11.8748 27.8331 11.5166C27.4985 11.0916 27.4894 11.0627 27.0966 9.79676C27.0162 9.52863 26.9316 9.26613 26.9103 9.21494C26.8918 9.17372 26.866 9.13609 26.8345 9.10371C26.6872 8.93129 26.3334 8.63761 25.753 8.20707C25.4184 7.95457 25.116 7.72318 25.0838 7.69203C24.77 7.4384 24.4354 7.17922 24.0939 6.93114C23.8607 6.76095 23.6251 6.5974 23.3919 6.44057C22.8635 6.07264 22.3033 5.75212 21.7181 5.48276C21.669 5.46166 21.6198 5.44161 21.5731 5.42493C21.3789 5.33844 21.1686 5.29338 20.956 5.29253H20.9114L20.8567 5.30034H20.8142C20.7339 5.31034 20.6524 5.32145 20.571 5.33481C20.4895 5.34814 20.427 5.35595 20.3545 5.36928C20.282 5.38264 20.2205 5.39155 20.1535 5.40488C20.1111 5.41156 20.0687 5.42047 20.0264 5.42938H20.0018C19.9192 5.44494 19.8367 5.46275 19.7553 5.48054L19.6247 5.50946L19.5299 5.53169L19.4294 5.55616C19.3178 5.58289 19.2174 5.60958 19.1147 5.6374L18.8781 5.70634L18.7555 5.74417C18.6712 5.77628 18.5835 5.79872 18.4943 5.81092C18.5325 5.63569 18.5801 5.46265 18.6372 5.29253C19.1628 3.55382 19.3391 2.66721 19.3781 1.51029C19.397 0.846175 19.3189 0.0296556 19.2331 0.000732422C19.214 0.000732422 19.1571 0.0608033 19.1025 0.14646C19.0478 0.232116 18.8993 0.466838 18.7756 0.668185C18.414 1.21709 18.0216 1.74521 17.6004 2.25005C16.9744 2.97201 15.9534 3.85528 15.2482 4.28246C14.756 4.57947 14.4068 4.71629 13.4627 4.95656V4.9655C13.247 5.02557 13.0238 5.08896 12.7932 5.15571L12.8011 6.20473L12.8234 8.45518L11.636 6.54179L11.126 5.72084C10.4811 5.97375 9.85333 6.26846 9.24688 6.60299L9.45781 7.84222L9.83606 10.0604L8.3564 8.36061L7.68686 7.59194C7.10299 8.01447 6.5517 8.47999 6.03759 8.98468L6.51966 10.0604L7.43913 12.1162L5.58227 10.8369L4.8391 10.324C4.38201 10.9028 3.96836 11.5145 3.60159 12.154L4.20863 12.9327L5.59012 14.7125L3.48218 13.9071L2.83495 13.6602C2.50465 14.4047 2.22649 15.1711 2.00249 15.9541L2.77582 16.5103L4.60254 17.834L2.35178 17.6493L1.60302 17.5881C1.46688 18.2711 1.36421 18.9631 1.29503 19.6583L2.30714 20.1756L4.31577 21.2025L2.06723 21.3749L1.18567 21.4383C1.16893 22.1135 1.17897 22.7887 1.21692 23.4596L2.42989 23.8788L4.56238 24.6176L2.35512 25.0916L1.38318 25.2996C1.48027 26.0782 1.61306 26.8568 1.77709 27.6043L2.60397 27.651L4.85695 27.778L2.86509 28.8381L2.17881 29.2043C2.46688 30.2239 2.82444 31.2229 3.24896 32.1941C3.24896 32.1941 14.1445 31.1486 25.6961 39.9657C26.5024 37.6617 26.7598 35.2022 26.4483 32.7816C26.2393 31.1526 25.7724 29.567 25.0647 28.0839C23.8595 25.1271 22.9892 24.3571 22.8162 24.227L22.7848 24.2051C22.7848 24.2472 22.7848 25.335 21.5575 24.4029C19.3344 22.6739 17.6185 20.3809 16.5894 17.7639C16.214 16.8122 15.9983 15.8053 15.9511 14.7838V14.7749L15.9445 14.7481C16.2656 15.4332 16.6567 16.0834 17.1117 16.6883C17.4554 17.1161 17.8447 17.505 18.2733 17.8484C19.089 18.4502 20.0443 18.8496 21.2036 19.09C21.3868 19.1255 21.6645 19.1845 21.8285 19.219C22.1534 19.2891 22.7011 19.3836 23.2793 19.4671C23.4847 19.4961 23.7959 19.556 23.9712 19.5994C25.1048 19.8776 26.7608 20.5929 27.1392 20.9755C27.2507 21.0867 27.3278 21.257 27.5854 21.9378C27.8088 22.5195 27.8958 22.732 27.9717 22.8111C27.976 22.8161 27.981 22.8209 27.9862 22.8254C28.0978 22.929 29.7402 23.1437 30.614 23.1758C31.0752 23.2108 31.5375 23.1213 31.9518 22.9167C32.1469 22.8348 32.3219 22.7123 32.4653 22.5575C32.5807 22.447 32.681 22.3215 32.7632 22.1846C32.8841 21.8765 32.9867 21.5615 33.0711 21.2414C33.2453 20.6272 33.3523 20.2914 33.5177 19.8298C33.5421 19.7597 33.569 19.6862 33.597 19.6073C33.7429 19.2013 33.7195 18.8642 33.4406 18.3657V18.3624ZM13.0253 10.0604C9.81598 14.0395 9.43547 18.6538 15.3687 23.7721C13.5864 23.5157 11.8426 23.0415 10.1764 22.3605C10.365 22.5896 14.0743 27.0014 20.0153 28.9239H20.022C20.0822 28.9449 20.1425 28.9638 20.2004 28.9806C20.9973 29.2152 21.5205 29.0662 21.5519 28.3564C21.6187 28.4509 23.9176 31.7505 23.5304 35.0209C21.7601 33.0915 19.7326 31.4135 17.5045 30.034C18.0007 30.7545 18.3352 31.5735 18.4854 32.4347C17.8895 31.9773 13.1715 28.46 7.62659 27.2251C5.2375 14.9562 13.0253 10.0604 13.0253 10.0604ZM32.7186 19.2791C32.5837 19.7007 32.1965 20.7563 32.1608 20.7952C32.1479 20.8092 32.1317 20.8198 32.1139 20.8258C32.0959 20.8319 32.0767 20.8332 32.0582 20.8298C32.0347 20.8247 32.0133 20.8134 31.9958 20.7974C31.9779 20.7814 31.9649 20.7611 31.9576 20.7386C31.9418 20.6973 31.8683 20.4193 31.7923 20.1155L31.6552 19.566L31.7231 19.368C31.74 19.3191 31.7545 19.2768 31.7655 19.2401C31.7655 19.2278 31.7736 19.2167 31.7768 19.2056C31.7958 19.1653 31.8062 19.1215 31.808 19.0771C31.8098 19.0325 31.8025 18.9882 31.7869 18.9465C31.7873 18.942 31.7873 18.9375 31.7869 18.9331C31.742 18.8285 31.6932 18.7707 30.8516 17.8375C30.5392 17.4903 29.9592 16.8362 29.5493 16.3823C29.1398 15.9284 28.6734 15.4011 28.4984 15.2143C28.3231 15.0274 28.0118 14.6847 27.8109 14.4623C27.2909 13.8882 26.5244 13.1274 26.3445 13.0095C26.2573 12.9385 26.1552 12.8883 26.0457 12.8626C25.9733 12.8606 25.9015 12.875 25.8359 12.9048C25.5379 13.0179 25.2202 13.0686 24.9019 13.054C24.4854 13.063 24.0709 12.9944 23.6798 12.8515C23.0695 12.6479 22.2917 12.2775 22.0595 12.0817C21.91 11.9526 21.8007 11.7012 21.6132 11.0649C21.5387 10.7932 21.4493 10.5258 21.3454 10.264C21.2885 10.1282 21.2337 9.98587 21.2248 9.94913C21.178 9.69218 21.7527 9.23608 22.3007 9.0959L22.4791 9.05029V8.86677C22.4791 8.40067 22.3274 8.04914 21.9714 7.68203C21.8475 7.55521 21.7783 7.48514 21.7941 7.474C21.8096 7.46287 21.9658 7.53517 22.3084 7.7054C23.3161 8.22215 24.2858 8.80989 25.2099 9.46411C25.4304 9.61628 25.6397 9.78435 25.8359 9.96695C25.9833 10.1069 26.1029 10.2733 26.1883 10.4575L26.1953 10.472C26.2544 10.5943 26.3179 10.7479 26.3981 10.9525C26.4071 10.977 26.4172 11.0015 26.4272 11.0282C26.5198 11.2846 26.6267 11.5357 26.7474 11.7802C26.862 11.9715 27.2422 12.4425 27.888 13.193L28.4515 13.8504L28.466 13.8683L28.8967 14.3711C29.1666 14.6859 29.7481 15.3544 30.1901 15.8517C31.5637 17.4024 32.3314 18.288 32.5489 18.5693C32.6431 18.6807 32.7091 18.8132 32.7409 18.9554C32.7604 19.0634 32.7525 19.1746 32.7186 19.2791ZM25.5009 11.086C25.3929 10.9625 25.2722 10.8506 25.1406 10.7523C24.9621 10.6111 24.625 10.3363 24.3885 10.1416C23.7838 9.63547 23.5236 9.49194 23.1867 9.46747C23.0702 9.45712 22.9529 9.47546 22.8452 9.52086C22.7309 9.56194 22.6213 9.61488 22.5183 9.67882C22.381 9.77339 22.247 9.9013 22.247 9.94913C22.2848 10.0504 22.3279 10.1495 22.3765 10.2462C22.5412 10.6221 22.6781 11.0095 22.786 11.4053C22.8652 11.6834 22.9913 11.7802 23.5996 12.0327C24.2077 12.2852 24.3014 12.3175 24.509 12.3575C24.7784 12.4006 25.0525 12.4032 25.3225 12.3653C25.4869 12.3203 25.6422 12.2477 25.7821 12.1506L25.8536 12.0928L25.6953 11.6255C25.606 11.372 25.5187 11.125 25.5009 11.086ZM25.7007 11.6255C25.6116 11.372 25.5243 11.1272 25.5009 11.086C25.3929 10.9625 25.2722 10.8506 25.1406 10.7523C24.9621 10.6111 24.625 10.3363 24.3885 10.1416C23.7838 9.63547 23.5236 9.49194 23.1867 9.46747C23.0702 9.45712 22.9529 9.47546 22.8452 9.52086C22.7309 9.56194 22.6213 9.61488 22.5183 9.67882C22.381 9.77339 22.247 9.9013 22.247 9.94913C22.2848 10.0504 22.3279 10.1495 22.3765 10.2462C22.5412 10.6221 22.6781 11.0095 22.786 11.4053C22.8652 11.6834 22.9913 11.7802 23.5996 12.0327C24.2077 12.2852 24.3014 12.3175 24.509 12.3575C24.7784 12.4006 25.0525 12.4032 25.3225 12.3653C25.4869 12.3203 25.6422 12.2477 25.7821 12.1506L25.8536 12.0928L25.7007 11.6255ZM25.7007 11.6255C25.6116 11.372 25.5243 11.1272 25.5009 11.086C25.3929 10.9625 25.2722 10.8506 25.1406 10.7523C24.9621 10.6111 24.625 10.3363 24.3885 10.1416C23.7838 9.63547 23.5236 9.49194 23.1867 9.46747C23.0702 9.45712 22.9529 9.47546 22.8452 9.52086C22.7309 9.56194 22.6213 9.61488 22.5183 9.67882C22.381 9.77339 22.247 9.9013 22.247 9.94913C22.2848 10.0504 22.3279 10.1495 22.3765 10.2462C22.5412 10.6221 22.6781 11.0095 22.786 11.4053C22.8652 11.6834 22.9913 11.7802 23.5996 12.0327C24.2077 12.2852 24.3014 12.3175 24.509 12.3575C24.7784 12.4006 25.0525 12.4032 25.3225 12.3653C25.4869 12.3203 25.6422 12.2477 25.7821 12.1506L25.8536 12.0928L25.7007 11.6255ZM25.7007 11.6255C25.6116 11.372 25.5243 11.1272 25.5009 11.086C25.3929 10.9625 25.2722 10.8506 25.1406 10.7523C24.9621 10.6111 24.625 10.3363 24.3885 10.1416C23.7838 9.63547 23.5236 9.49194 23.1867 9.46747C23.0702 9.45712 22.9529 9.47546 22.8452 9.52086C22.7309 9.56194 22.6213 9.61488 22.5183 9.67882C22.381 9.77339 22.247 9.9013 22.247 9.94913C22.2848 10.0504 22.3279 10.1495 22.3765 10.2462C22.5412 10.6221 22.6781 11.0095 22.786 11.4053C22.8652 11.6834 22.9913 11.7802 23.5996 12.0327C24.2077 12.2852 24.3014 12.3175 24.509 12.3575C24.7784 12.4006 25.0525 12.4032 25.3225 12.3653C25.4869 12.3203 25.6422 12.2477 25.7821 12.1506L25.8536 12.0928L25.7007 11.6255ZM25.7007 11.6255C25.6116 11.372 25.5243 11.1272 25.5009 11.086C25.3929 10.9625 25.2722 10.8506 25.1406 10.7523C24.9621 10.6111 24.625 10.3363 24.3885 10.1416C23.7838 9.63547 23.5236 9.49194 23.1867 9.46747C23.0702 9.45712 22.9529 9.47546 22.8452 9.52086C22.7309 9.56194 22.6213 9.61488 22.5183 9.67882C22.381 9.77339 22.247 9.9013 22.247 9.94913C22.2848 10.0504 22.3279 10.1495 22.3765 10.2462C22.5412 10.6221 22.6781 11.0095 22.786 11.4053C22.8652 11.6834 22.9913 11.7802 23.5996 12.0327C24.2077 12.2852 24.3014 12.3175 24.509 12.3575C24.7784 12.4006 25.0525 12.4032 25.3225 12.3653C25.4869 12.3203 25.6422 12.2477 25.7821 12.1506L25.8536 12.0928L25.7007 11.6255ZM25.6953 11.6255C25.606 11.372 25.5187 11.1272 25.4955 11.086C25.3874 10.9625 25.2665 10.8506 25.1351 10.7523C24.9565 10.6111 24.6194 10.3363 24.3828 10.1416C23.778 9.63547 23.518 9.49194 23.1811 9.46747C23.0646 9.45712 22.9473 9.47546 22.8397 9.52086C22.7274 9.56228 22.6196 9.61522 22.5183 9.67882C22.381 9.77339 22.247 9.9013 22.247 9.94913C22.2848 10.0504 22.3279 10.1495 22.3765 10.2462C22.5412 10.6221 22.6781 11.0095 22.786 11.4053C22.8652 11.6834 22.9913 11.7802 23.5996 12.0327C24.2077 12.2852 24.3014 12.3175 24.509 12.3575C24.7784 12.4006 25.0525 12.4032 25.3225 12.3653C25.4869 12.3203 25.6422 12.2477 25.7821 12.1506L25.8536 12.0928L25.6953 11.6255ZM25.6953 11.6255C25.606 11.372 25.5187 11.1272 25.4955 11.086C25.3874 10.9625 25.2665 10.8506 25.1351 10.7523C24.9565 10.6111 24.6194 10.3363 24.3828 10.1416C23.778 9.63547 23.518 9.49194 23.1811 9.46747C23.0646 9.45712 22.9473 9.47546 22.8397 9.52086C22.7274 9.56228 22.6196 9.61522 22.5183 9.67882C22.381 9.77339 22.247 9.9013 22.247 9.94913C22.2848 10.0504 22.3279 10.1495 22.3765 10.2462C22.5412 10.6221 22.6781 11.0095 22.786 11.4053C22.8652 11.6834 22.9913 11.7802 23.5996 12.0327C24.2077 12.2852 24.3014 12.3175 24.509 12.3575C24.7784 12.4006 25.0525 12.4032 25.3225 12.3653C25.4869 12.3203 25.6422 12.2477 25.7821 12.1506L25.8536 12.0928L25.6953 11.6255ZM25.6953 11.6255C25.606 11.372 25.5187 11.1272 25.4955 11.086C25.3874 10.9625 25.2665 10.8506 25.1351 10.7523C24.9565 10.6111 24.6194 10.3363 24.3828 10.1416C23.778 9.63547 23.518 9.49194 23.1811 9.46747C23.0646 9.45712 22.9473 9.47546 22.8397 9.52086C22.7274 9.56228 22.6196 9.61522 22.5183 9.67882C22.381 9.77339 22.247 9.9013 22.247 9.94913C22.2848 10.0504 22.3279 10.1495 22.3765 10.2462C22.5412 10.6221 22.6781 11.0095 22.786 11.4053C22.8652 11.6834 22.9913 11.7802 23.5996 12.0327C24.2077 12.2852 24.3014 12.3175 24.509 12.3575C24.7784 12.4006 25.0525 12.4032 25.3225 12.3653C25.4869 12.3203 25.6422 12.2477 25.7821 12.1506L25.8536 12.0928L25.6953 11.6255ZM25.6953 11.6255C25.606 11.372 25.5187 11.1272 25.4955 11.086C25.3874 10.9625 25.2665 10.8506 25.1351 10.7523C24.9565 10.6111 24.6194 10.3363 24.3828 10.1416C23.778 9.63547 23.518 9.49194 23.1811 9.46747C23.0646 9.45712 22.9473 9.47546 22.8397 9.52086C22.7274 9.56228 22.6196 9.61522 22.5183 9.67882C22.381 9.77339 22.247 9.9013 22.247 9.94913C22.2848 10.0504 22.3279 10.1495 22.3765 10.2462C22.5412 10.6221 22.6781 11.0095 22.786 11.4053C22.8652 11.6834 22.9913 11.7802 23.5996 12.0327C24.2077 12.2852 24.3014 12.3175 24.509 12.3575C24.7784 12.4006 25.0525 12.4032 25.3225 12.3653C25.4869 12.3203 25.6422 12.2477 25.7821 12.1506L25.8536 12.0928L25.6953 11.6255ZM25.6953 11.6255C25.606 11.372 25.5187 11.1272 25.4955 11.086C25.3874 10.9625 25.2665 10.8506 25.1351 10.7523C24.9565 10.6111 24.6194 10.3363 24.3828 10.1416C23.778 9.63547 23.518 9.49194 23.1811 9.46747C23.0646 9.45712 22.9473 9.47546 22.8397 9.52086C22.7274 9.56228 22.6196 9.61522 22.5183 9.67882C22.381 9.77339 22.247 9.9013 22.247 9.94913C22.2848 10.0504 22.3279 10.1495 22.3765 10.2462C22.5412 10.6221 22.6781 11.0095 22.786 11.4053C22.8652 11.6834 22.9913 11.7802 23.5996 12.0327C24.2077 12.2852 24.3014 12.3175 24.509 12.3575C24.7784 12.4006 25.0525 12.4032 25.3225 12.3653C25.4869 12.3203 25.6422 12.2477 25.7821 12.1506L25.8536 12.0928L25.6953 11.6255ZM25.6953 11.6255C25.606 11.372 25.5187 11.1272 25.4955 11.086C25.3874 10.9625 25.2665 10.8506 25.1351 10.7523C24.9565 10.6111 24.6194 10.3363 24.3828 10.1416C23.778 9.63547 23.518 9.49194 23.1811 9.46747C23.0646 9.45712 22.9473 9.47546 22.8397 9.52086C22.7274 9.56228 22.6196 9.61522 22.5183 9.67882C22.381 9.77339 22.247 9.9013 22.247 9.94913C22.2848 10.0504 22.3279 10.1495 22.3765 10.2462C22.5412 10.6221 22.6781 11.0095 22.786 11.4053C22.8652 11.6834 22.9913 11.7802 23.5996 12.0327C24.2077 12.2852 24.3014 12.3175 24.509 12.3575C24.7784 12.4006 25.0525 12.4032 25.3225 12.3653C25.4869 12.3203 25.6422 12.2477 25.7821 12.1506L25.8536 12.0928L25.6953 11.6255ZM25.6953 11.6255C25.606 11.372 25.5187 11.1272 25.4955 11.086C25.3874 10.9625 25.2665 10.8506 25.1351 10.7523C24.9565 10.6111 24.6194 10.3363 24.3828 10.1416C23.778 9.63547 23.518 9.49194 23.1811 9.46747C23.0646 9.45712 22.9473 9.47546 22.8397 9.52086C22.7274 9.56228 22.6196 9.61522 22.5183 9.67882C22.381 9.77339 22.247 9.9013 22.247 9.94913C22.2848 10.0504 22.3279 10.1495 22.3765 10.2462C22.5412 10.6221 22.6781 11.0095 22.786 11.4053C22.8652 11.6834 22.9913 11.7802 23.5996 12.0327C24.2077 12.2852 24.3014 12.3175 24.509 12.3575C24.7784 12.4006 25.0525 12.4032 25.3225 12.3653C25.4869 12.3203 25.6422 12.2477 25.7821 12.1506L25.8536 12.0928L25.6953 11.6255ZM25.6953 11.6255C25.606 11.372 25.5187 11.1272 25.4955 11.086C25.3874 10.9625 25.2665 10.8506 25.1351 10.7523C24.9565 10.6111 24.6194 10.3363 24.3828 10.1416C23.778 9.63547 23.518 9.49194 23.1811 9.46747C23.0646 9.45712 22.9473 9.47546 22.8397 9.52086C22.7274 9.56228 22.6196 9.61522 22.5183 9.67882C22.381 9.77339 22.247 9.9013 22.247 9.94913C22.2848 10.0504 22.3279 10.1495 22.3765 10.2462C22.5412 10.6221 22.6781 11.0095 22.786 11.4053C22.8652 11.6834 22.9913 11.7802 23.5996 12.0327C24.2077 12.2852 24.3014 12.3175 24.509 12.3575C24.7784 12.4006 25.0525 12.4032 25.3225 12.3653C25.4869 12.3203 25.6422 12.2477 25.7821 12.1506L25.8536 12.0928L25.6953 11.6255ZM25.6953 11.6255C25.606 11.372 25.5187 11.1272 25.4955 11.086C25.3874 10.9625 25.2665 10.8506 25.1351 10.7523C24.9565 10.6111 24.6194 10.3363 24.3828 10.1416C23.778 9.63547 23.518 9.49194 23.1811 9.46747C23.0646 9.45712 22.9473 9.47546 22.8397 9.52086C22.7274 9.56228 22.6196 9.61522 22.5183 9.67882C22.381 9.77339 22.247 9.9013 22.247 9.94913C22.2848 10.0504 22.3279 10.1495 22.3765 10.2462C22.5412 10.6221 22.6781 11.0095 22.786 11.4053C22.8652 11.6834 22.9913 11.7802 23.5996 12.0327C24.2077 12.2852 24.3014 12.3175 24.509 12.3575C24.7784 12.4006 25.0525 12.4032 25.3225 12.3653C25.4869 12.3203 25.6422 12.2477 25.7821 12.1506L25.8536 12.0928L25.6953 11.6255ZM25.6953 11.6255C25.606 11.372 25.5187 11.1272 25.4955 11.086C25.3874 10.9625 25.2665 10.8506 25.1351 10.7523C24.9565 10.6111 24.6194 10.3363 24.3828 10.1416C23.778 9.63547 23.518 9.49194 23.1811 9.46747C23.0646 9.45712 22.9473 9.47546 22.8397 9.52086C22.7274 9.56228 22.6196 9.61522 22.5183 9.67882C22.381 9.77339 22.247 9.9013 22.247 9.94913C22.2848 10.0504 22.3279 10.1495 22.3765 10.2462C22.5412 10.6221 22.6781 11.0095 22.786 11.4053C22.8652 11.6834 22.9913 11.7802 23.5996 12.0327C24.2077 12.2852 24.3014 12.3175 24.509 12.3575C24.7784 12.4006 25.0525 12.4032 25.3225 12.3653C25.4869 12.3203 25.6422 12.2477 25.7821 12.1506L25.8536 12.0928L25.6953 11.6255ZM25.6953 11.6255C25.606 11.372 25.5187 11.1272 25.4955 11.086C25.3874 10.9625 25.2665 10.8506 25.1351 10.7523C24.9565 10.6111 24.6194 10.3363 24.3828 10.1416C23.778 9.63547 23.518 9.49194 23.1811 9.46747C23.0646 9.45712 22.9473 9.47546 22.8397 9.52086C22.7274 9.56228 22.6196 9.61522 22.5183 9.67882C22.381 9.77339 22.247 9.9013 22.247 9.94913C22.2848 10.0504 22.3279 10.1495 22.3765 10.2462C22.5412 10.6221 22.6781 11.0095 22.786 11.4053C22.8652 11.6834 22.9913 11.7802 23.5996 12.0327C24.2077 12.2852 24.3014 12.3175 24.509 12.3575C24.7784 12.4006 25.0525 12.4032 25.3225 12.3653C25.4869 12.3203 25.6422 12.2477 25.7821 12.1506L25.8536 12.0928L25.6953 11.6255ZM25.6953 11.6255C25.606 11.372 25.5187 11.1272 25.4955 11.086C25.3874 10.9625 25.2665 10.8506 25.1351 10.7523C24.9565 10.6111 24.6194 10.3363 24.3828 10.1416C23.778 9.63547 23.518 9.49194 23.1811 9.46747C23.0646 9.45712 22.9473 9.47546 22.8397 9.52086C22.7274 9.56228 22.6196 9.61522 22.5183 9.67882C22.381 9.77339 22.247 9.9013 22.247 9.94913C22.2848 10.0504 22.3279 10.1495 22.3765 10.2462C22.5412 10.6221 22.6781 11.0095 22.786 11.4053C22.8652 11.6834 22.9913 11.7802 23.5996 12.0327C24.2077 12.2852 24.3014 12.3175 24.509 12.3575C24.7784 12.4006 25.0525 12.4032 25.3225 12.3653C25.4869 12.3203 25.6422 12.2477 25.7821 12.1506L25.8536 12.0928L25.6953 11.6255ZM25.6953 11.6255C25.606 11.372 25.5187 11.1272 25.4955 11.086C25.3874 10.9625 25.2665 10.8506 25.1351 10.7523C24.9565 10.6111 24.6194 10.3363 24.3828 10.1416C23.778 9.63547 23.518 9.49194 23.1811 9.46747C23.0646 9.45712 22.9473 9.47546 22.8397 9.52086C22.7274 9.56228 22.6196 9.61522 22.5183 9.67882C22.381 9.77339 22.247 9.9013 22.247 9.94913C22.2848 10.0504 22.3279 10.1495 22.3765 10.2462C22.5412 10.6221 22.6781 11.0095 22.786 11.4053C22.8652 11.6834 22.9913 11.7802 23.5996 12.0327C24.2077 12.2852 24.3014 12.3175 24.509 12.3575C24.7784 12.4006 25.0525 12.4032 25.3225 12.3653C25.4869 12.3203 25.6422 12.2477 25.7821 12.1506L25.8536 12.0928L25.6953 11.6255ZM31.6552 19.566L31.7231 19.368C31.74 19.3191 31.7545 19.2768 31.7655 19.2401L31.6552 19.566ZM25.6953 11.6255C25.606 11.372 25.5187 11.1272 25.4955 11.086C25.3874 10.9625 25.2665 10.8506 25.1351 10.7523C24.9565 10.6111 24.6194 10.3363 24.3828 10.1416C23.778 9.63547 23.518 9.49194 23.1811 9.46747C23.0646 9.45712 22.9473 9.47546 22.8397 9.52086C22.7274 9.56228 22.6196 9.61522 22.5183 9.67882C22.381 9.77339 22.247 9.9013 22.247 9.94913C22.2848 10.0504 22.3279 10.1495 22.3765 10.2462C22.5412 10.6221 22.6781 11.0095 22.786 11.4053C22.8652 11.6834 22.9913 11.7802 23.5996 12.0327C24.2077 12.2852 24.3014 12.3175 24.509 12.3575C24.7784 12.4006 25.0525 12.4032 25.3225 12.3653C25.4869 12.3203 25.6422 12.2477 25.7821 12.1506L25.8536 12.0928L25.6953 11.6255ZM25.6953 11.6255C25.606 11.372 25.5187 11.1272 25.4955 11.086C25.3874 10.9625 25.2665 10.8506 25.1351 10.7523C24.9565 10.6111 24.6194 10.3363 24.3828 10.1416C23.778 9.63547 23.518 9.49194 23.1811 9.46747C23.0646 9.45712 22.9473 9.47546 22.8397 9.52086C22.7274 9.56228 22.6196 9.61522 22.5183 9.67882C22.381 9.77339 22.247 9.9013 22.247 9.94913C22.2848 10.0504 22.3279 10.1495 22.3765 10.2462C22.5412 10.6221 22.6781 11.0095 22.786 11.4053C22.8652 11.6834 22.9913 11.7802 23.5996 12.0327C24.2077 12.2852 24.3014 12.3175 24.509 12.3575C24.7784 12.4006 25.0525 12.4032 25.3225 12.3653C25.4869 12.3203 25.6422 12.2477 25.7821 12.1506L25.8536 12.0928L25.6953 11.6255ZM25.6953 11.6255C25.606 11.372 25.5187 11.1272 25.4955 11.086C25.3874 10.9625 25.2665 10.8506 25.1351 10.7523C24.9565 10.6111 24.6194 10.3363 24.3828 10.1416C23.778 9.63547 23.518 9.49194 23.1811 9.46747C23.0646 9.45712 22.9473 9.47546 22.8397 9.52086C22.7274 9.56228 22.6196 9.61522 22.5183 9.67882C22.381 9.77339 22.247 9.9013 22.247 9.94913C22.2848 10.0504 22.3279 10.1495 22.3765 10.2462C22.5412 10.6221 22.6781 11.0095 22.786 11.4053C22.8652 11.6834 22.9913 11.7802 23.5996 12.0327C24.2077 12.2852 24.3014 12.3175 24.509 12.3575C24.7784 12.4006 25.0525 12.4032 25.3225 12.3653C25.4869 12.3203 25.6422 12.2477 25.7821 12.1506L25.8536 12.0928L25.6953 11.6255ZM25.6953 11.6255C25.606 11.372 25.5187 11.1272 25.4955 11.086C25.3874 10.9625 25.2665 10.8506 25.1351 10.7523C24.9565 10.6111 24.6194 10.3363 24.3828 10.1416C23.778 9.63547 23.518 9.49194 23.1811 9.46747C23.0646 9.45712 22.9473 9.47546 22.8397 9.52086C22.7274 9.56228 22.6196 9.61522 22.5183 9.67882C22.381 9.77339 22.247 9.9013 22.247 9.94913C22.2848 10.0504 22.3279 10.1495 22.3765 10.2462C22.5412 10.6221 22.6781 11.0095 22.786 11.4053C22.8652 11.6834 22.9913 11.7802 23.5996 12.0327C24.2077 12.2852 24.3014 12.3175 24.509 12.3575C24.7784 12.4006 25.0525 12.4032 25.3225 12.3653C25.4869 12.3203 25.6422 12.2477 25.7821 12.1506L25.8536 12.0928L25.6953 11.6255ZM25.6953 11.6255C25.606 11.372 25.5187 11.1272 25.4955 11.086C25.3874 10.9625 25.2665 10.8506 25.1351 10.7523C24.9565 10.6111 24.6194 10.3363 24.3828 10.1416C23.778 9.63547 23.518 9.49194 23.1811 9.46747C23.0646 9.45712 22.9473 9.47546 22.8397 9.52086C22.7274 9.56228 22.6196 9.61522 22.5183 9.67882C22.381 9.77339 22.247 9.9013 22.247 9.94913C22.2848 10.0504 22.3279 10.1495 22.3765 10.2462C22.5412 10.6221 22.6781 11.0095 22.786 11.4053C22.8652 11.6834 22.9913 11.7802 23.5996 12.0327C24.2077 12.2852 24.3014 12.3175 24.509 12.3575C24.7784 12.4006 25.0525 12.4032 25.3225 12.3653C25.4869 12.3203 25.6422 12.2477 25.7821 12.1506L25.8536 12.0928L25.6953 11.6255ZM25.6953 11.6255C25.606 11.372 25.5187 11.1272 25.4955 11.086C25.3874 10.9625 25.2665 10.8506 25.1351 10.7523C24.9565 10.6111 24.6194 10.3363 24.3828 10.1416C23.778 9.63547 23.518 9.49194 23.1811 9.46747C23.0646 9.45712 22.9473 9.47546 22.8397 9.52086C22.7274 9.56228 22.6196 9.61522 22.5183 9.67882C22.381 9.77339 22.247 9.9013 22.247 9.94913C22.2848 10.0504 22.3279 10.1495 22.3765 10.2462C22.5412 10.6221 22.6781 11.0095 22.786 11.4053C22.8652 11.6834 22.9913 11.7802 23.5996 12.0327C24.2077 12.2852 24.3014 12.3175 24.509 12.3575C24.7784 12.4006 25.0525 12.4032 25.3225 12.3653C25.4869 12.3203 25.6422 12.2477 25.7821 12.1506L25.8536 12.0928L25.6953 11.6255ZM25.6953 11.6255C25.606 11.372 25.5187 11.1272 25.4955 11.086C25.3874 10.9625 25.2665 10.8506 25.1351 10.7523C24.9565 10.6111 24.6194 10.3363 24.3828 10.1416C23.778 9.63547 23.518 9.49194 23.1811 9.46747C23.0646 9.45712 22.9473 9.47546 22.8397 9.52086C22.7274 9.56228 22.6196 9.61522 22.5183 9.67882C22.381 9.77339 22.247 9.9013 22.247 9.94913C22.2848 10.0504 22.3279 10.1495 22.3765 10.2462C22.5412 10.6221 22.6781 11.0095 22.786 11.4053C22.8652 11.6834 22.9913 11.7802 23.5996 12.0327C24.2077 12.2852 24.3014 12.3175 24.509 12.3575C24.7784 12.4006 25.0525 12.4032 25.3225 12.3653C25.4869 12.3203 25.6422 12.2477 25.7821 12.1506L25.8536 12.0928L25.6953 11.6255ZM25.6953 11.6255C25.606 11.372 25.5187 11.1272 25.4955 11.086C25.3874 10.9625 25.2665 10.8506 25.1351 10.7523C24.9565 10.6111 24.6194 10.3363 24.3828 10.1416C23.778 9.63547 23.518 9.49194 23.1811 9.46747C23.0646 9.45712 22.9473 9.47546 22.8397 9.52086C22.7274 9.56228 22.6196 9.61522 22.5183 9.67882C22.381 9.77339 22.247 9.9013 22.247 9.94913C22.2848 10.0504 22.3279 10.1495 22.3765 10.2462C22.5412 10.6221 22.6781 11.0095 22.786 11.4053C22.8652 11.6834 22.9913 11.7802 23.5996 12.0327C24.2077 12.2852 24.3014 12.3175 24.509 12.3575C24.7784 12.4006 25.0525 12.4032 25.3225 12.3653C25.4869 12.3203 25.6422 12.2477 25.7821 12.1506L25.8536 12.0928L25.6953 11.6255ZM25.6953 11.6255C25.606 11.372 25.5187 11.1272 25.4955 11.086C25.3874 10.9625 25.2665 10.8506 25.1351 10.7523C24.9565 10.6111 24.6194 10.3363 24.3828 10.1416C23.778 9.63547 23.518 9.49194 23.1811 9.46747C23.0646 9.45712 22.9473 9.47546 22.8397 9.52086C22.7274 9.56228 22.6196 9.61522 22.5183 9.67882C22.381 9.77339 22.247 9.9013 22.247 9.94913C22.2848 10.0504 22.3279 10.1495 22.3765 10.2462C22.5412 10.6221 22.6781 11.0095 22.786 11.4053C22.8652 11.6834 22.9913 11.7802 23.5996 12.0327C24.2077 12.2852 24.3014 12.3175 24.509 12.3575C24.7784 12.4006 25.0525 12.4032 25.3225 12.3653C25.4869 12.3203 25.6422 12.2477 25.7821 12.1506L25.8536 12.0928L25.6953 11.6255ZM25.6953 11.6255C25.606 11.372 25.5187 11.1272 25.4955 11.086C25.3874 10.9625 25.2665 10.8506 25.1351 10.7523C24.9565 10.6111 24.6194 10.3363 24.3828 10.1416C23.778 9.63547 23.518 9.49194 23.1811 9.46747C23.0646 9.45712 22.9473 9.47546 22.8397 9.52086C22.7274 9.56228 22.6196 9.61522 22.5183 9.67882C22.381 9.77339 22.247 9.9013 22.247 9.94913C22.2848 10.0504 22.3279 10.1495 22.3765 10.2462C22.5412 10.6221 22.6781 11.0095 22.786 11.4053C22.8652 11.6834 22.9913 11.7802 23.5996 12.0327C24.2077 12.2852 24.3014 12.3175 24.509 12.3575C24.7784 12.4006 25.0525 12.4032 25.3225 12.3653C25.4869 12.3203 25.6422 12.2477 25.7821 12.1506L25.8536 12.0928L25.6953 11.6255ZM25.6953 11.6255C25.606 11.372 25.5187 11.1272 25.4955 11.086C25.3874 10.9625 25.2665 10.8506 25.1351 10.7523C24.9565 10.6111 24.6194 10.3363 24.3828 10.1416C23.778 9.63547 23.518 9.49194 23.1811 9.46747C23.0646 9.45712 22.9473 9.47546 22.8397 9.52086C22.7274 9.56228 22.6196 9.61522 22.5183 9.67882C22.381 9.77339 22.247 9.9013 22.247 9.94913C22.2848 10.0504 22.3279 10.1495 22.3765 10.2462C22.5412 10.6221 22.6781 11.0095 22.786 11.4053C22.8652 11.6834 22.9913 11.7802 23.5996 12.0327C24.2077 12.2852 24.3014 12.3175 24.509 12.3575C24.7784 12.4006 25.0525 12.4032 25.3225 12.3653C25.4869 12.3203 25.6422 12.2477 25.7821 12.1506L25.8536 12.0928L25.6953 11.6255ZM25.6953 11.6255C25.606 11.372 25.5187 11.1272 25.4955 11.086C25.3874 10.9625 25.2665 10.8506 25.1351 10.7523C24.9565 10.6111 24.6194 10.3363 24.3828 10.1416C23.778 9.63547 23.518 9.49194 23.1811 9.46747C23.0646 9.45712 22.9473 9.47546 22.8397 9.52086C22.7274 9.56228 22.6196 9.61522 22.5183 9.67882C22.381 9.77339 22.247 9.9013 22.247 9.94913C22.2848 10.0504 22.3279 10.1495 22.3765 10.2462C22.5412 10.6221 22.6781 11.0095 22.786 11.4053C22.8652 11.6834 22.9913 11.7802 23.5996 12.0327C24.2077 12.2852 24.3014 12.3175 24.509 12.3575C24.7784 12.4006 25.0525 12.4032 25.3225 12.3653C25.4869 12.3203 25.6422 12.2477 25.7821 12.1506L25.8536 12.0928L25.6953 11.6255ZM25.6953 11.6255C25.606 11.372 25.5187 11.1272 25.4955 11.086C25.3874 10.9625 25.2665 10.8506 25.1351 10.7523C24.9565 10.6111 24.6194 10.3363 24.3828 10.1416C23.778 9.63547 23.518 9.49194 23.1811 9.46747C23.0646 9.45712 22.9473 9.47546 22.8397 9.52086C22.7274 9.56228 22.6196 9.61522 22.5183 9.67882C22.381 9.77339 22.247 9.9013 22.247 9.94913C22.2848 10.0504 22.3279 10.1495 22.3765 10.2462C22.5412 10.6221 22.6781 11.0095 22.786 11.4053C22.8652 11.6834 22.9913 11.7802 23.5996 12.0327C24.2077 12.2852 24.3014 12.3175 24.509 12.3575C24.7784 12.4006 25.0525 12.4032 25.3225 12.3653C25.4869 12.3203 25.6422 12.2477 25.7821 12.1506L25.8536 12.0928L25.6953 11.6255ZM25.6953 11.6255C25.606 11.372 25.5187 11.1272 25.4955 11.086C25.3874 10.9625 25.2665 10.8506 25.1351 10.7523C24.9565 10.6111 24.6194 10.3363 24.3828 10.1416C23.778 9.63547 23.518 9.49194 23.1811 9.46747C23.0646 9.45712 22.9473 9.47546 22.8397 9.52086C22.7274 9.56228 22.6196 9.61522 22.5183 9.67882C22.381 9.77339 22.247 9.9013 22.247 9.94913C22.2848 10.0504 22.3279 10.1495 22.3765 10.2462C22.5412 10.6221 22.6781 11.0095 22.786 11.4053C22.8652 11.6834 22.9913 11.7802 23.5996 12.0327C24.2077 12.2852 24.3014 12.3175 24.509 12.3575C24.7784 12.4006 25.0525 12.4032 25.3225 12.3653C25.4869 12.3203 25.6422 12.2477 25.7821 12.1506L25.8536 12.0928L25.6953 11.6255ZM25.6953 11.6255C25.606 11.372 25.5187 11.1272 25.4955 11.086C25.3874 10.9625 25.2665 10.8506 25.1351 10.7523C24.9565 10.6111 24.6194 10.3363 24.3828 10.1416C23.778 9.63547 23.518 9.49194 23.1811 9.46747C23.0646 9.45712 22.9473 9.47546 22.8397 9.52086C22.7274 9.56228 22.6196 9.61522 22.5183 9.67882C22.381 9.77339 22.247 9.9013 22.247 9.94913C22.2848 10.0504 22.3279 10.1495 22.3765 10.2462C22.5412 10.6221 22.6781 11.0095 22.786 11.4053C22.8652 11.6834 22.9913 11.7802 23.5996 12.0327C24.2077 12.2852 24.3014 12.3175 24.509 12.3575C24.7784 12.4006 25.0525 12.4032 25.3225 12.3653C25.4869 12.3203 25.6422 12.2477 25.7821 12.1506L25.8536 12.0928L25.6953 11.6255Z" fill="black"/>
<path d="M138.609 11.5559H143.9V11.8117H143.412C142.564 11.8117 141.871 12.5025 141.82 13.3467V26.5736C141.82 28.211 142.076 29.8484 142.076 29.8484H141.845L127.819 14.9586V27.6993C127.845 28.5435 128.538 29.2344 129.412 29.2344H129.874V29.4902H124.583L124.608 29.2344H125.071C125.944 29.2344 126.637 28.5435 126.663 27.6737V14.3701C126.663 12.6304 126.432 11.1978 126.432 11.1978H126.663L140.664 26.062V13.3724C140.638 12.5281 139.945 11.8117 139.071 11.8117H138.609V11.5559Z" fill="black"/>
<path d="M114.385 11.1978L121.243 27.6225C121.757 28.7482 122.708 29.2087 123.503 29.2087H123.709V29.4645H117.93V29.2344H118.161C118.828 29.2344 119.522 28.6459 119.137 27.6225L117.493 23.2477H110.583L108.862 27.6225C108.502 28.6459 109.17 29.2344 109.838 29.2344H110.069V29.4645H104.88V29.2087H105.111C105.908 29.2087 106.858 28.7482 107.372 27.6225L113.203 13.8329C113.203 13.8329 114.153 11.7606 114.153 11.1978H114.385ZM110.891 22.4802H117.21L114.102 14.2934L110.891 22.4802Z" fill="black"/>
<path d="M98.3773 11.5551H104.003L103.977 11.8109H103.669C102.77 11.8109 102.025 12.5272 102.025 13.4226V29.4637C102.025 32.3546 99.97 34.6059 97.3497 34.6059V34.376C99.0198 33.7873 100.33 31.6128 100.33 29.4126V13.4226C100.33 12.5272 99.5848 11.8109 98.6857 11.8109H98.3773V11.5551Z" fill="black"/>
<path d="M86.3312 11.1978C91.803 11.1978 95.5533 14.9329 95.5533 20.5102C95.5533 26.1132 91.803 29.8227 86.3312 29.8227C80.8598 29.8227 77.1095 26.1132 77.1095 20.5102C77.1095 14.9329 80.8598 11.1978 86.3312 11.1978ZM86.3312 29.0809C90.6983 29.0809 93.6009 25.6526 93.6009 20.5359C93.6009 15.3934 90.6983 11.9653 86.3312 11.9653C81.9645 11.9653 79.0619 15.3934 79.0619 20.5359C79.0619 25.6526 81.9645 29.0809 86.3312 29.0809Z" fill="black"/>
<path d="M60.6222 11.5551H67.5321C70.6402 11.5551 72.567 13.3971 72.567 16.3648C72.567 18.8464 70.6663 21.2512 68.2002 21.2512C68.7396 21.5071 69.5359 22.3514 70.0238 23.0421C70.0238 23.0421 72.2589 26.2145 73.2348 27.289C74.2881 28.4147 75.2386 29.2079 76.7284 29.2079V29.4637H75.3153C72.9267 29.4637 71.6421 28.1845 70.8458 27.2379C70.5635 26.8797 67.6606 22.6839 67.455 22.4537C66.7871 21.6094 66.0422 20.714 65.0917 20.714V20.4837C65.0917 20.4837 65.6828 20.4837 66.4534 20.4837C67.7891 20.4326 69.7415 20.1255 70.4607 17.823C70.5888 17.4648 70.6402 16.8508 70.6402 16.288C70.5635 13.9599 69.356 12.4761 67.455 12.3737C66.145 12.3226 64.5781 12.3737 64.2443 12.3737V27.6217C64.2697 28.4915 64.9889 29.2334 65.8884 29.2334H66.2221V29.4892H60.6222V29.2334H60.9306C61.8297 29.2334 62.5489 28.517 62.5743 27.6217V13.4226C62.5743 12.5272 61.8297 11.8109 60.9306 11.8109H60.6222V11.5551Z" fill="black"/>
<path d="M46.7996 11.5297H55.482C56.5867 11.5297 58.0766 11.2739 58.5645 11.0692V14.2928H58.3079V13.8323C58.3079 13.0136 57.6654 12.3484 56.8434 12.2972H51.9887V27.6219C52.0141 28.5174 52.7333 29.2338 53.6324 29.2338H53.9408V29.4896H48.3152L48.3409 29.2338H48.6493C49.548 29.2338 50.2673 28.5174 50.2933 27.6476V12.2972H45.4383C44.6163 12.3484 43.9742 13.0136 43.9742 13.8323V14.2928H43.7172V11.0692C44.1794 11.2739 45.6949 11.5297 46.7996 11.5297Z" fill="black"/>
</g>
</g>
<defs>
<clipPath id="clip0_6405_15341">
<rect width="144.255" height="40.09" fill="white"/>
</clipPath>
</defs>
</svg>
