<svg xmlns="http://www.w3.org/2000/svg" width="202" height="35" fill="none"><path fill-rule="evenodd" clip-rule="evenodd" d="M180.789 13.127a11.8 11.8 0 0 1 5.046 9.679c0 6.517-5.293 11.809-11.812 11.809-3.886 0-7.336-1.88-9.489-4.78 7.359 3.122 16.274.828 17.183-10.115.003-.033.986.136 1.548.235a.21.21 0 0 0 .204-.077.21.21 0 0 0 .028-.216 2604 2604 0 0 0-2.708-6.535" fill="#171717"/><path d="m12.725 33.68.053-1.482-1.368-.784c-1.025-.61-1.226-1.09-1.16-2.963l.343-9.847c1.086-1.133 2.333-1.874 3.596-1.874 2.353 0 3.38 1.787 3.27 4.968l-.236 6.753c-.066 1.873-.3 2.353-1.368 2.963l-1.422.784-.051 1.481H26.41l.052-1.481-1.367-.784c-.855-.48-1.012-1.003-.943-2.963l.283-8.104a15 15 0 0 0-.036-1.482c1.005-1.307 2.167-2.135 3.43-2.135 2.354 0 3.432 1.57 3.314 4.968l-.236 6.753c-.066 1.873-.3 2.353-1.41 2.963l-1.423.784-.052 1.481h12.726l.052-1.481-1.453-.828c-1.326-.74-1.569-1.263-1.511-2.92l.284-8.103c.199-5.708-2.386-9.063-6.919-9.063-3.443 0-6.156 2.832-7.343 4.357-.952-2.658-2.986-4.357-6.34-4.357-3.487 0-5.852 2.832-7.404 4.836l.14-4.009-1.323-.827-8.095 3.442-.051 1.481 1.374.566c1.204.48 1.53 1.09 1.453 3.313l-.291 8.365c-.057 1.611-.425 2.179-1.715 2.919l-1.554.828L0 33.679zm39.731.435c6.45 0 11.941-5.01 12.164-11.372.242-6.928-4.35-11.46-11.367-11.46-6.494 0-11.987 5.055-12.208 11.372-.242 6.929 4.394 11.46 11.411 11.46m.096-2.745c-2.702 0-4.159-3.224-3.967-8.715s1.87-8.626 4.572-8.626c2.659 0 4.115 3.224 3.924 8.714-.193 5.49-1.87 8.627-4.53 8.627Zm24.439 2.745c6.451 0 11.942-5.01 12.165-11.372.242-6.928-4.35-11.46-11.367-11.46-6.494 0-11.987 5.055-12.207 11.372-.242 6.929 4.393 11.46 11.41 11.46Zm.097-2.745c-2.703 0-4.159-3.224-3.966-8.715.19-5.49 1.869-8.626 4.571-8.626 2.66 0 4.115 3.224 3.923 8.714-.191 5.49-1.87 8.627-4.528 8.627m24.89 2.31.053-1.482-1.497-.828c-1.11-.653-1.31-1.133-1.249-2.92l.346-9.89c1.039-1.045 2.461-1.83 3.768-1.83 2.528 0 3.819 1.7 3.706 4.924l-.237 6.797c-.063 1.786-.297 2.266-1.453 2.919l-1.554.828-.052 1.481h12.944l.051-1.481-1.496-.828c-1.282-.74-1.567-1.308-1.51-2.92l.284-8.147c.198-5.664-2.387-9.02-6.92-9.02-2.614 0-5.555 1.83-8.011 4.794l.139-3.966-1.323-.827-8.095 3.442-.052 1.481 1.375.566c1.246.523 1.529 1.133 1.453 3.313l-.293 8.365c-.056 1.611-.38 2.179-1.713 2.919l-1.555.828-.051 1.481z" fill="#171717"/><path d="M124.8 34.115c5.491 0 9.561-2.963 9.711-7.277.097-2.788-1.274-4.705-5.607-6.665-4.59-2.092-5.523-2.833-5.471-4.315.038-1.089 1.023-1.83 2.81-1.83 1.263 0 2.464.567 3.343 1.613.752.915 1.461 1.83 1.995 2.745h1.657l.804-5.577c-1.929-.915-5.002-1.525-7.878-1.525-5.099 0-8.589 2.614-8.734 6.754-.106 3.05 1.693 5.184 5.599 6.884 4.466 1.916 5.259 2.92 5.219 4.052-.056 1.611-1.26 2.396-2.96 2.396-2.179 0-3.45-1.046-5.019-3.529l-1.239-1.96h-1.569l-.907 6.012c2.214 1.482 5.413 2.222 8.246 2.222m22.502-.435.053-1.483-1.497-.827c-1.11-.653-1.312-1.133-1.249-2.92l.35-10.02c.993-1.003 2.457-1.7 3.763-1.7 2.529 0 3.822 1.656 3.712 4.793l-.242 6.927c-.063 1.787-.297 2.267-1.453 2.92l-1.554.827-.052 1.482h12.944l.051-1.482-1.496-.827c-1.282-.74-1.567-1.308-1.51-2.92l.288-8.277c.195-5.578-2.391-8.89-6.924-8.89-2.353 0-5.016 1.395-7.414 3.922l.465-13.332-1.32-.872-8.662 3.442-.053 1.481 1.374.61c1.202.524 1.53 1.134 1.455 3.268l-.652 18.648c-.056 1.612-.38 2.18-1.714 2.92l-1.554.827-.052 1.482zm47.052.436c2.703 0 5.566-.872 7.22-2.048l-.532-2.267c-.838.306-1.76.48-2.457.48-2.048 0-2.782-1.438-2.633-5.708l.331-9.499h5.535l.117-3.354h-5.534l.19-5.447-1.495-.871-4.923 6.187-4.08.784-.094 2.701h3.356l-.378 10.807c-.217 6.187 1.107 8.235 5.377 8.235" fill="#171717"/><path fill-rule="evenodd" clip-rule="evenodd" d="m162.212 22.94-.001-.134c0-6.518 5.293-11.81 11.812-11.81 2.434 0 4.696.738 6.577 2.001l-4.473 5.724a.21.21 0 0 0-.03.211c.029.07.093.12.168.13.572.08 1.609.228 1.607.254-.803 9.844-11.417 9.825-15.66 3.623Z" fill="url(#a)"/><defs><linearGradient id="a" x1="176.318" y1="10.997" x2="167.831" y2="26.413" gradientUnits="userSpaceOnUse"><stop stop-color="#ff88fe"/><stop offset="1" stop-color="#ff67ff"/></linearGradient></defs></svg>
