<svg width="1358" height="224" viewBox="0 0 1358 224" fill="none" xmlns="http://www.w3.org/2000/svg">
<g clip-path="url(#clip0_6739_17390)">
<path d="M1357.01 127.539H1268.43C1271.91 144.698 1284.2 154.206 1302.29 154.206C1315.51 154.206 1323.39 151.655 1336.14 142.843L1349.59 162.321C1334.75 174.611 1321.07 179.481 1301.36 179.481C1264.72 179.481 1238.75 151.886 1238.75 116.408C1238.75 80.9303 1265.88 53.3359 1300.2 53.3359C1337.53 53.3359 1357.01 82.3215 1357.01 116.872V127.539ZM1268.2 106.669H1328.49C1327.1 92.0606 1318.52 78.1474 1300.43 78.1474C1283.97 78.1474 1271.45 88.3503 1268.2 106.669Z" fill="#03111C"/>
<path d="M1111.61 214.727L1119.03 190.379C1129.93 195.481 1142.22 198.727 1154.75 198.727C1183.96 198.727 1191.61 186.669 1191.61 166.263V156.988C1185.12 165.336 1171.67 176.003 1151.5 176.003C1119.03 176.003 1096.08 150.031 1096.08 115.017C1096.08 79.7707 1119.03 53.3359 1151.5 53.3359C1173.3 53.3359 1188.14 63.075 1196.71 73.9737L1201.82 55.8867H1220.6V160.93C1220.6 205.452 1196.95 224.003 1157.06 224.003C1134.11 224.003 1118.8 218.437 1111.61 214.727ZM1158.69 149.568C1178.16 149.568 1191.61 135.423 1191.61 115.017C1191.61 94.6114 1178.16 79.7707 1158.69 79.7707C1138.74 79.7707 1125.3 93.9156 1125.3 115.017C1125.3 135.887 1138.74 149.568 1158.69 149.568Z" fill="#03111C"/>
<path d="M1059.16 176.929L1054.06 158.611C1045.48 169.509 1030.64 179.48 1008.84 179.48C976.378 179.48 953.422 151.422 953.422 116.408C953.422 81.1612 976.378 53.3352 1008.84 53.3352C1029.02 53.3352 1042.47 64.2338 1048.96 72.5817V15.2031H1077.94V176.929H1059.16ZM1016.03 153.045C1035.51 153.045 1048.96 136.813 1048.96 116.408C1048.96 95.7699 1035.51 79.77 1016.03 79.77C996.09 79.77 982.64 95.3061 982.64 116.408C982.64 137.277 996.09 153.045 1016.03 153.045Z" fill="#03111C"/>
<path d="M903.055 17.6232C903.055 7.88407 910.475 0 920.446 0C930.187 0 938.069 7.88407 938.069 17.6232C938.069 27.3623 930.187 35.2464 920.446 35.2464C910.475 35.2464 903.055 27.3623 903.055 17.6232ZM935.286 176.927H906.303V55.8841H935.286V176.927Z" fill="#03111C"/>
<path d="M847.409 176.932H818.422V55.889H836.972L843.93 77.2222C850.422 65.6281 861.09 51.7149 892.163 53.5699L888.219 84.4105C857.146 82.3238 847.409 98.5554 847.409 118.034V176.932Z" fill="#03111C"/>
<path d="M741.021 176.936H672.383V14.6172H735.225C761.661 14.6172 793.427 25.5158 793.427 59.139C793.427 78.3855 781.138 88.3563 770.936 93.6896V93.9216C781.835 98.5591 799.223 108.762 799.223 132.646C799.223 165.342 771.629 176.936 741.021 176.936ZM702.066 40.3562V82.3275H735.918C753.775 82.3275 763.516 74.2114 763.516 61.9215C763.516 46.3853 753.31 40.3562 733.832 40.3562H702.066ZM702.066 107.603V151.197H739.397C760.268 151.197 769.312 144.24 769.312 130.096C769.312 116.646 758.413 107.603 740.094 107.603H702.066Z" fill="#03111C"/>
<path d="M652.938 127.539H564.36C567.839 144.698 580.127 154.206 598.215 154.206C611.431 154.206 619.317 151.655 632.071 142.843L645.518 162.321C630.678 174.611 616.996 179.481 597.288 179.481C560.65 179.481 534.68 151.886 534.68 116.408C534.68 80.9303 561.808 53.3359 596.126 53.3359C633.46 53.3359 652.938 82.3215 652.938 116.872V127.539ZM564.129 106.669H624.416C623.027 92.0606 614.445 78.1474 596.36 78.1474C579.896 78.1474 567.373 88.3503 564.129 106.669Z" fill="#03111C"/>
<path d="M497.738 176.929L492.639 158.611C484.057 169.509 469.217 179.48 447.419 179.48C414.957 179.48 392 151.422 392 116.408C392 81.1612 414.957 53.3352 447.419 53.3352C467.593 53.3352 481.044 64.2338 487.536 72.5817V15.2031H516.523V176.929H497.738ZM454.608 153.045C474.086 153.045 487.536 136.813 487.536 116.408C487.536 95.7699 474.086 79.77 454.608 79.77C434.665 79.77 421.218 95.3061 421.218 116.408C421.218 137.277 434.665 153.045 454.608 153.045Z" fill="#03111C"/>
<path fill-rule="evenodd" clip-rule="evenodd" d="M275.022 182.003H317.333C317.333 180.233 317.304 178.47 317.247 176.714H284.238L316.902 170.216C316.628 166.484 316.225 162.788 315.697 159.132L284.732 165.291L314.669 152.891C313.947 148.998 313.083 145.156 312.082 141.368L282.786 153.503L310.294 135.123C309.054 131.107 307.658 127.158 306.114 123.286L278.277 141.886L303.361 116.802C301.522 112.727 299.516 108.744 297.351 104.86L271.22 130.992L293.281 97.9742C290.761 93.9457 288.065 90.0383 285.204 86.2629L261.735 121.388L279.314 78.9479C276.044 75.1234 272.596 71.4565 268.981 67.9596L251.049 111.253C266.085 130.857 275.022 155.386 275.022 182.003ZM42.3111 182.003C42.3111 178.798 42.4406 175.623 42.6947 172.483H0.28085C0.0944972 175.633 0 178.806 0 182.003H42.3111ZM45.4846 154.899L3.95559 146.638C5.34142 140.55 7.07735 134.595 9.14112 128.796L51.2606 137.174C48.8817 142.867 46.9423 148.789 45.4846 154.899ZM59.332 121.38L19.8828 105.039C22.848 99.7039 26.1119 94.5572 29.652 89.6222L70.2013 106.418C66.1987 111.099 62.5607 116.1 59.332 121.38ZM82.2087 94.2915L46.1104 70.1716C50.343 65.9118 54.8152 61.891 59.5059 58.1313L97.1005 83.2511C91.8404 86.5376 86.8616 90.2326 82.2087 94.2915ZM111.029 75.8143L79.6149 44.4001C84.749 41.4443 90.0641 38.7675 95.5399 36.3903L128.694 69.5441C122.594 71.1656 116.691 73.2702 111.029 75.8143ZM142.339 66.7836L117.001 28.8631C122.64 27.3327 128.403 26.1053 134.272 25.1997L161.318 65.6766C160.437 65.657 159.553 65.6472 158.667 65.6472C153.125 65.6472 147.674 66.0343 142.339 66.7836ZM172.752 66.491L154.895 23.3799C156.149 23.3506 157.406 23.3359 158.667 23.3359C163.256 23.3359 167.799 23.5307 172.29 23.9126L191.525 70.3512C185.458 68.569 179.186 67.2673 172.752 66.491ZM199.702 73.0896L190.438 26.5176C196.049 27.658 201.552 29.0943 206.931 30.8098L216.971 81.2866C211.483 78.1027 205.711 75.3548 199.702 73.0896ZM221.781 84.2353V36.3851C226.861 38.5897 231.803 41.0523 236.59 43.7568V95.5921C231.974 91.4268 227.023 87.6261 221.781 84.2353ZM238.705 97.5479L247.993 50.8509C252.373 53.8396 256.595 57.0421 260.645 60.443L250.643 110.727C247.001 106.034 243.009 101.628 238.705 97.5479Z" fill="#03111C"/>
<path fill-rule="evenodd" clip-rule="evenodd" d="M232.697 181.996H275.008C275.008 179.971 274.956 177.958 274.854 175.958L253.807 175.591L274.571 171.836C274.134 166.797 273.377 161.85 272.32 157.015L248.479 161.326L271.204 152.374C269.969 147.669 268.447 143.081 266.657 138.628L240.651 148.872L264.473 133.549C262.523 129.296 260.323 125.181 257.894 121.222L230.839 138.624L254.403 115.868C251.842 112.168 249.073 108.622 246.111 105.25L219.582 130.869L241.083 99.8752C238.031 96.8116 234.809 93.9171 231.433 91.2074L207.462 125.762L224.675 86.173C221.262 83.8172 217.718 81.6388 214.054 79.6515L197.079 118.691C218.434 131.681 232.697 155.173 232.697 181.996ZM84.608 181.996H42.2969C42.2969 180.03 42.3455 178.075 42.4418 176.133L84.7823 176.872C84.6668 178.565 84.608 180.274 84.608 181.996ZM205.462 75.4396C201.832 73.8429 198.106 72.4264 194.295 71.2011L185.247 112.871C189.055 114.338 192.712 116.109 196.187 118.157L205.462 75.4396ZM183.907 68.3888C180.22 67.573 176.466 66.9318 172.656 66.4747L171.911 109.135C175.768 109.833 179.521 110.829 183.145 112.098L183.907 68.3888ZM158.652 65.6406C155.686 65.6406 152.746 65.7516 149.836 65.9696L157.43 107.962C157.836 107.955 158.244 107.952 158.652 107.952C161.982 107.952 165.26 108.172 168.473 108.597L160.709 65.6585C160.025 65.6466 159.339 65.6406 158.652 65.6406ZM136.573 111.3L113.145 74.8761C110.136 76.156 107.192 77.5592 104.319 79.0789L127.345 114.877C130.319 113.487 133.4 112.289 136.573 111.3ZM121.046 118.199L91.1331 87.2234C88.6278 89.0115 86.1963 90.8963 83.8443 92.8727L113.348 123.425C115.797 121.528 118.367 119.781 121.046 118.199ZM71.9695 104.375C70.0414 106.527 68.192 108.752 66.4262 111.043L101.26 135.209C103.101 132.954 105.071 130.81 107.16 128.788L71.9695 104.375ZM56.8327 125.637C55.5216 128 54.2907 130.414 53.143 132.875L91.9745 149.76C93.1631 147.306 94.4829 144.928 95.9253 142.635L56.8327 125.637ZM46.7531 149.994C46.0618 152.415 45.4472 154.869 44.9117 157.352L86.2681 166.331C86.8046 163.84 87.4668 161.395 88.2473 159.003L46.7531 149.994ZM152.703 108.187C149.17 108.468 145.707 108.997 142.331 109.756L126.703 70.0818C129.996 69.1434 133.349 68.3465 136.754 67.6983L152.703 108.187Z" fill="#03111C"/>
<path fill-rule="evenodd" clip-rule="evenodd" d="M226.808 181.998L232.714 181.791C232.711 180.61 232.68 179.435 232.622 178.266L196.729 179.52L196.101 179.418L231.901 170.988C231.701 169.643 231.464 168.309 231.192 166.989L197.194 174.995L229.479 160.281C229.027 158.808 228.531 157.354 227.992 155.922L197.756 169.701L225.375 149.818C224.624 148.265 223.821 146.742 222.967 145.252L196.969 163.968L219.515 139.791C218.424 138.22 217.273 136.694 216.067 135.216L194.693 158.136L211.825 130.451C210.363 128.943 208.836 127.497 207.251 126.117L190.872 152.585L202.257 122.135C200.408 120.787 198.494 119.522 196.521 118.346L185.547 147.7L190.826 115.281C188.602 114.207 186.315 113.241 183.974 112.39L178.848 143.863L177.68 110.416C175.126 109.74 172.517 109.196 169.862 108.793L171.001 141.422L163.152 108.086C161.669 107.998 160.175 107.953 158.67 107.953C157.315 107.953 155.97 107.99 154.633 108.061L162.315 140.683L147.762 108.751C144.754 109.195 141.804 109.82 138.925 110.615L153.169 141.871L132.246 112.807C129.263 113.947 126.372 115.274 123.589 116.775L144.004 145.132L117.517 120.433C114.739 122.294 112.093 124.338 109.598 126.548L135.286 150.502L104.539 131.475C102.154 134.029 99.9484 136.752 97.9408 139.624L127.507 157.92L94.2402 145.482C92.4419 148.649 90.87 151.961 89.547 155.397L121.142 167.21L87.4359 161.72C86.4016 165.361 85.639 169.116 85.171 172.962L116.622 178.084L84.6772 179.199C84.6425 180.128 84.625 181.061 84.625 181.998H126.936C126.936 164.472 141.144 150.264 158.67 150.264C176.196 150.264 190.403 164.472 190.403 181.998H226.808Z" fill="#03111C"/>
</g>
<defs>
<clipPath id="clip0_6739_17390">
<rect width="1358" height="224" fill="white"/>
</clipPath>
</defs>
</svg>
