<svg width="132" height="38" viewBox="0 0 132 38" fill="none" xmlns="http://www.w3.org/2000/svg">
<g clip-path="url(#clip0_6397_15417)">
<path d="M0.932212 24.3609C0.201436 21.7722 0.297911 16.992 0.297911 16.992C0.297911 16.992 2.97242 21.3054 7.58484 22.6547C10.983 23.6489 15.66 23.7249 18.6033 22.3943C22.1683 21.2249 24.3804 17.5887 23.337 14.9892C21.8033 11.1682 17.3395 9.65498 12.6863 10.017C9.11995 10.2944 6.17975 12.0035 4.42221 13.6855C2.68378 15.3493 2.24432 16.6871 2.24432 16.6871C2.24432 16.6871 0.888205 15.2414 0.722782 13.6855C0.343422 10.1176 3.55121 7.33958 8.12166 6.37878C14.3145 5.07691 21.5882 7.60591 25.5582 12.5508C28.3048 15.9719 29.0672 20.6091 26.7978 24.6017C23.399 30.5811 15.832 31.7636 10.9317 31.1939C6.03123 30.6243 1.76007 27.2936 0.932212 24.3609Z" fill="black"/>
<path d="M56.7115 29.7795V13.5162H61.8357V29.7795H56.7115Z" fill="black"/>
<path d="M59.2848 11.6176C58.5626 11.6176 57.9493 11.3835 57.4315 10.9016C56.9137 10.4196 56.6548 9.82745 56.6548 9.13892C56.6548 8.46415 56.9137 7.88578 57.4315 7.4038C57.9493 6.92182 58.5626 6.67395 59.2848 6.67395C60.0071 6.67395 60.6342 6.92182 61.1382 7.4038C61.656 7.88578 61.9152 8.46415 61.9152 9.13892C61.9152 9.82745 61.656 10.4058 61.1382 10.9016C60.6203 11.3835 60.0071 11.6176 59.2848 11.6176Z" fill="black"/>
<path fill-rule="evenodd" clip-rule="evenodd" d="M44.7639 29.7802H36.8328V8.09131H44.7502C46.9306 8.09131 48.8247 8.53197 50.3919 9.39953C51.9727 10.2671 53.1991 11.5065 54.0577 13.1314C54.9162 14.7426 55.3523 16.6842 55.3523 18.9289C55.3523 21.1873 54.9162 23.129 54.0577 24.7539C53.1991 26.3788 51.9863 27.6182 50.4056 28.4858C48.8247 29.3395 46.9442 29.7802 44.7639 29.7802ZM42.0248 25.3048H44.573C45.7723 25.3048 46.7943 25.0982 47.6256 24.6851C48.4704 24.2719 49.0973 23.5972 49.5197 22.6608C49.9558 21.7243 50.1739 20.4712 50.1739 18.9151C50.1739 17.359 49.9558 16.1196 49.5197 15.1832C49.0837 14.2468 48.4432 13.5858 47.5983 13.1727C46.7534 12.7596 45.7314 12.553 44.4913 12.553H42.0248V25.3048Z" fill="black"/>
<path fill-rule="evenodd" clip-rule="evenodd" d="M65.4039 29.5327C66.1941 29.8769 67.1071 30.056 68.1427 30.056C68.8927 30.056 69.5602 29.9596 70.1598 29.7667C70.7595 29.574 71.2773 29.2848 71.7271 28.913C72.1764 28.5274 72.5445 28.0592 72.8307 27.5221H72.9534V29.7943H77.7774V18.7227C77.7774 17.8551 77.6006 17.0977 77.2457 16.4229C76.8915 15.7482 76.4013 15.1836 75.7608 14.7291C75.1203 14.2609 74.3571 13.9167 73.4983 13.6688C72.6263 13.4209 71.6862 13.297 70.6638 13.297C69.2192 13.297 67.9929 13.5173 66.9711 13.9717C65.9487 14.4124 65.1453 15.0321 64.5589 15.817C63.9731 16.5882 63.6189 17.4695 63.4823 18.461L68.2113 18.6263C68.3201 18.103 68.5793 17.6899 69.0015 17.4007C69.4105 17.0977 69.9554 16.96 70.6368 16.96C71.2634 16.96 71.768 17.1115 72.1355 17.4007C72.536 17.7304 72.6942 18.1993 72.6942 18.7089C72.6942 19.0394 72.5721 19.301 72.3129 19.48C72.0675 19.6591 71.6586 19.7968 71.0999 19.8931C70.5411 19.9895 69.8056 20.0722 68.8927 20.1548C68.0747 20.2237 67.3115 20.3614 66.5892 20.5679C65.867 20.7607 65.2403 21.0637 64.6816 21.4492C64.1228 21.8349 63.7007 22.3444 63.3873 22.964C63.0734 23.5837 62.9098 24.3411 62.9098 25.25C62.9098 26.3241 63.1419 27.2192 63.5912 27.9353C63.9869 28.6514 64.6136 29.1747 65.4039 29.5327ZM71.2093 26.3241C70.7733 26.5444 70.2687 26.6684 69.7238 26.6684C69.138 26.6684 68.6473 26.5307 68.2654 26.2415C67.8841 25.9523 67.6934 25.5529 67.6934 25.0159C67.6934 24.6578 67.7752 24.3549 67.9521 24.107C68.1295 23.8453 68.3881 23.6388 68.7291 23.4735C69.0695 23.3083 69.4784 23.1844 69.9692 23.1155C70.2007 23.0742 70.4594 23.0467 70.7186 23.0053C70.9772 22.964 71.2226 22.9089 71.4679 22.8538C71.7133 22.7988 71.9316 22.7437 72.1355 22.6749C72.34 22.606 72.5174 22.5371 72.6671 22.4683V24.0106C72.6671 24.5339 72.5312 25.0021 72.272 25.4014C72.0134 25.7871 71.6586 26.1038 71.2093 26.3241Z" fill="black"/>
<path d="M84.3319 8.09131V29.7802H79.2079V8.09131H84.3319Z" fill="black"/>
<path d="M106.325 29.0232C107.538 29.7255 108.996 30.0835 110.699 30.0835C112.212 30.0835 113.506 29.8081 114.611 29.2573C115.714 28.6927 116.572 27.9215 117.172 26.9162C117.785 25.911 118.113 24.7405 118.167 23.4047H113.384C113.316 23.9831 113.166 24.465 112.934 24.8644C112.702 25.2638 112.389 25.5529 112.021 25.7595C111.653 25.966 111.244 26.0625 110.767 26.0625C110.168 26.0625 109.65 25.8972 109.2 25.5667C108.75 25.2225 108.41 24.7267 108.151 24.0795C107.905 23.4185 107.783 22.606 107.783 21.6421C107.783 20.6781 107.905 19.8794 108.151 19.2322C108.396 18.5712 108.75 18.0754 109.2 17.7449C109.65 17.4007 110.168 17.2354 110.767 17.2354C111.503 17.2354 112.089 17.4696 112.552 17.9515C113.016 18.4197 113.289 19.0807 113.397 19.907H118.181C118.14 18.5712 117.812 17.4145 117.186 16.423C116.559 15.4315 115.7 14.6603 114.583 14.1094C113.479 13.5724 112.184 13.297 110.699 13.297C109.01 13.297 107.565 13.655 106.352 14.3574C105.139 15.0596 104.213 16.0511 103.558 17.3181C102.905 18.5712 102.577 20.0309 102.577 21.6971C102.577 23.3497 102.905 24.8231 103.558 26.0762C104.186 27.3432 105.112 28.3209 106.325 29.0232Z" fill="black"/>
<path fill-rule="evenodd" clip-rule="evenodd" d="M93.6884 30.0835C91.999 30.0835 90.5544 29.753 89.3281 29.0782C88.115 28.4035 87.175 27.4395 86.5207 26.1864C85.8664 24.9332 85.5392 23.4322 85.5392 21.7109C85.5392 20.0309 85.8664 18.5574 86.5207 17.3043C87.175 16.0373 88.1012 15.0596 89.3004 14.3574C90.4997 13.655 91.9034 13.297 93.5248 13.297C94.6699 13.297 95.7193 13.476 96.6732 13.8341C97.627 14.1921 98.4443 14.7291 99.1396 15.4315C99.8342 16.1338 100.366 17.0151 100.748 18.0479C101.129 19.0807 101.32 20.265 101.32 21.6007V22.8952H90.5953V23.0329C90.5953 23.6939 90.718 24.2723 90.9766 24.7818C91.2358 25.2775 91.6039 25.6631 92.0808 25.9385C92.5577 26.214 93.1164 26.3517 93.784 26.3517C94.2338 26.3517 94.656 26.2828 95.0241 26.1589C95.3922 26.0349 95.7055 25.8422 95.978 25.5942C96.2372 25.3464 96.441 25.0434 96.5776 24.6854L101.279 24.8231C101.088 25.8834 100.652 26.8199 99.9846 27.6048C99.3302 28.3897 98.472 28.9956 97.3955 29.4363C96.319 29.8632 95.0921 30.0835 93.6884 30.0835ZM96.5637 19.8657C96.5505 19.3148 96.4687 18.8879 96.2233 18.461C95.9779 18.0341 95.5828 17.6348 95.1468 17.4007C94.7108 17.1528 94.22 17.0288 93.6475 17.0288C93.0755 17.0288 92.5577 17.1528 92.1078 17.4145C91.658 17.6623 91.2899 18.0203 91.0313 18.461C90.7859 18.8742 90.6362 19.3424 90.6091 19.8657H96.5637Z" fill="black"/>
<path d="M128.696 13.5175V17.332H125.794V24.6717C125.794 24.9885 125.849 25.2501 125.944 25.4429C126.053 25.6357 126.203 25.7734 126.394 25.8561C126.584 25.9387 126.83 25.9662 127.102 25.9662C127.293 25.9662 127.498 25.9525 127.716 25.9111C127.934 25.8698 128.111 25.8285 128.22 25.801L128.997 29.5328C128.751 29.6017 128.411 29.6981 127.961 29.7945C127.525 29.9047 126.993 29.9735 126.38 30.0011C125.181 30.0561 124.145 29.9184 123.287 29.5741C122.428 29.2299 121.788 28.6928 121.324 27.963C120.874 27.2331 120.657 26.3243 120.671 25.2226V17.3182H118.545V13.5175H120.671V9.62036H125.794V13.5175H128.696Z" fill="black"/>
</g>
<defs>
<clipPath id="clip0_6397_15417">
<rect width="131.108" height="37.8891" fill="white"/>
</clipPath>
</defs>
</svg>
