<svg width="115" height="48" viewBox="0 0 115 48" fill="none" xmlns="http://www.w3.org/2000/svg">
<path d="M106.636 6.07791L81.8396 41.602H89.452L114.377 6.07791H106.636Z" fill="#171717"/>
<path d="M90.2436 6.07791L97.5394 16.5457L93.7332 22.2554L82.4722 6.07791H90.2436Z" fill="url(#paint0_linear_150_1089)"/>
<path d="M107.374 41.6048L99.2854 30.0268L103.092 24.4757L114.987 41.6048H107.374Z" fill="url(#paint1_linear_150_1089)"/>
<path fill-rule="evenodd" clip-rule="evenodd" d="M72.9567 6.07791H79.6181V41.602H72.9567V40.2752C71.0329 41.325 68.8241 41.9221 66.4753 41.9221C59.018 41.9221 52.9728 35.9041 52.9728 28.4805C52.9728 21.057 59.018 15.039 66.4753 15.039C68.8241 15.039 71.0329 15.636 72.9567 16.6858V6.07791ZM66.4042 36.0226C70.6278 36.0226 74.0517 32.6142 74.0517 28.4097C74.0517 24.2052 70.6278 20.7968 66.4042 20.7968C62.1806 20.7968 58.7568 24.2052 58.7568 28.4097C58.7568 32.6142 62.1806 36.0226 66.4042 36.0226Z" fill="#171717"/>
<path d="M53.6355 6.07791L28.8652 41.602H36.6308L61.377 6.07791H53.6355Z" fill="#171717"/>
<path d="M36.6374 6.07791L44.4089 16.8629L40.1267 22.8898L28.5487 6.07791H36.6374Z" fill="url(#paint2_linear_150_1089)"/>
<path fill-rule="evenodd" clip-rule="evenodd" d="M19.9839 6.07791H26.6452V41.602H19.9839V40.2752C18.0601 41.325 15.8513 41.9221 13.5026 41.9221C6.0453 41.9221 0 35.9041 0 28.4805C0 21.057 6.0453 15.039 13.5026 15.039C15.8513 15.039 18.0601 15.636 19.9839 16.6858V6.07791ZM13.4314 36.0226C17.655 36.0226 21.0789 32.6142 21.0789 28.4097C21.0789 24.2052 17.655 20.7968 13.4314 20.7968C9.20784 20.7968 5.78397 24.2052 5.78397 28.4097C5.78397 32.6142 9.20784 36.0226 13.4314 36.0226Z" fill="#171717"/>
<defs>
<linearGradient id="paint0_linear_150_1089" x1="88.4992" y1="8.29834" x2="98.9433" y2="20.9067" gradientUnits="userSpaceOnUse">
<stop stop-color="#171717"/>
<stop offset="1" stop-color="#171717" stop-opacity="0.55"/>
</linearGradient>
<linearGradient id="paint1_linear_150_1089" x1="109.119" y1="38.9086" x2="96.2864" y2="21.6098" gradientUnits="userSpaceOnUse">
<stop stop-color="#6966FF"/>
<stop offset="1" stop-color="#6966FF" stop-opacity="0.36"/>
</linearGradient>
<linearGradient id="paint2_linear_150_1089" x1="34.8927" y1="8.38542" x2="45.7198" y2="21.6247" gradientUnits="userSpaceOnUse">
<stop stop-color="#171717"/>
<stop offset="1" stop-color="#171717" stop-opacity="0.55"/>
</linearGradient>
</defs>
</svg>
