<svg width="1286" height="160" viewBox="0 0 1286 160" fill="none" xmlns="http://www.w3.org/2000/svg">
<path d="M341.235 111.591C343.957 111.591 345.864 111.156 346.953 110.285C348.15 109.414 348.913 107.944 349.24 105.874L350.546 98.5232C350.655 98.0871 350.71 97.543 350.71 96.8898C350.71 95.3645 350.22 94.3302 349.24 93.786C348.368 93.1319 346.789 92.8058 344.502 92.8058H291.575C283.407 92.8058 277.418 91.3895 273.606 88.5584C269.903 85.618 268.052 80.9351 268.052 74.5098C268.052 73.3119 268.106 72.1139 268.216 70.916C268.434 69.6092 268.651 68.1935 268.869 66.6688L271.972 49.6799C272.735 45.1059 273.661 41.1854 274.749 37.9182C275.947 34.6511 277.69 31.9831 279.977 29.9138C282.264 27.7358 285.259 26.1567 288.962 25.1766C292.774 24.0875 297.728 23.543 303.826 23.543H367.862C376.029 23.543 381.911 24.741 385.505 27.1369C389.099 29.5327 390.895 33.8344 390.895 40.0419C390.895 42.7644 390.568 45.8138 389.915 49.1897L388.771 55.8873C388.444 58.2832 386.975 59.4812 384.361 59.4812H359.857C357.462 59.4812 356.427 58.2832 356.754 55.8873L356.918 54.9073C357.027 54.3627 357.081 53.8182 357.081 53.2737C357.081 50.9867 355.556 49.8432 352.507 49.8432H311.994C309.272 49.8432 307.311 50.2788 306.114 51.15C305.025 52.0212 304.262 53.4915 303.826 55.5606L302.683 61.9315C302.574 62.3671 302.52 62.9661 302.52 63.7284C302.52 65.1441 302.955 66.1788 303.826 66.8321C304.807 67.3767 306.44 67.6489 308.728 67.6489H361.655C369.823 67.6489 375.757 69.1191 379.46 72.0595C383.272 74.891 385.178 79.465 385.178 85.7813C385.178 86.9793 385.069 88.2316 384.851 89.5389C384.742 90.8453 384.578 92.2607 384.361 93.786L381.258 111.755C380.386 116.329 379.351 120.304 378.154 123.679C377.065 126.947 375.376 129.67 373.09 131.847C370.911 133.917 367.916 135.441 364.105 136.422C360.293 137.402 355.392 137.892 349.403 137.892H281.611C273.334 137.892 267.398 136.694 263.804 134.298C260.211 131.902 258.414 127.654 258.414 121.556C258.414 118.833 258.741 115.73 259.394 112.245L260.538 105.547C261.082 103.151 262.552 101.953 264.949 101.953H289.452C290.649 101.953 291.52 102.28 292.065 102.933C292.61 103.478 292.773 104.35 292.556 105.547L292.392 106.364C292.283 106.799 292.229 107.344 292.229 107.998C292.229 110.393 293.753 111.591 296.803 111.591H341.235Z" fill="black"/>
<path d="M515.115 134.298C514.789 136.694 513.373 137.892 510.868 137.892H485.385C482.88 137.892 481.791 136.694 482.118 134.298L489.469 93.2959H433.765L426.414 134.298C426.087 136.694 424.617 137.892 422.003 137.892H396.683C394.178 137.892 393.089 136.694 393.416 134.298L412.366 27.1369C412.91 24.741 414.38 23.543 416.776 23.543H442.096C444.819 23.543 445.908 24.741 445.363 27.1369L438.339 66.9955H494.043L501.067 27.1369C501.612 24.741 503.082 23.543 505.478 23.543H530.961C533.575 23.543 534.609 24.741 534.065 27.1369L515.115 134.298Z" fill="black"/>
<path d="M613.799 111.591C616.522 111.591 618.7 111.482 620.333 111.264C622.076 110.938 623.437 110.393 624.417 109.631C625.506 108.869 626.323 107.834 626.867 106.527C627.412 105.112 627.847 103.314 628.174 101.137L641.243 27.1369C641.787 24.741 643.257 23.543 645.653 23.543H671.137C672.334 23.543 673.206 23.8697 673.751 24.5231C674.295 25.0676 674.458 25.9389 674.241 27.1369L659.375 111.755C658.504 116.329 657.47 120.304 656.271 123.679C655.182 126.947 653.495 129.67 651.207 131.847C648.921 133.917 645.871 135.441 642.06 136.422C638.357 137.402 633.511 137.892 627.521 137.892H562.179C554.011 137.892 548.022 136.476 544.21 133.645C540.398 130.704 538.492 126.021 538.492 119.595C538.492 118.398 538.547 117.2 538.655 116.002C538.873 114.695 539.091 113.28 539.309 111.755L554.174 27.1369C554.719 24.741 556.189 23.543 558.585 23.543H584.069C586.682 23.543 587.716 24.741 587.172 27.1369L574.104 101.137C573.777 102.988 573.614 104.459 573.614 105.547C573.614 108.053 574.43 109.686 576.064 110.448C577.698 111.21 580.638 111.591 584.885 111.591H613.799Z" fill="black"/>
<path d="M806.169 72.3862C805.298 76.9601 804.263 80.9896 803.065 84.4745C801.976 87.9594 800.233 90.8453 797.838 93.1319C795.551 95.4194 792.501 97.1619 788.69 98.3601C784.878 99.5575 779.977 100.157 773.988 100.157H773.498L798.818 134.298C799.362 135.06 799.417 135.877 798.981 136.748C798.546 137.511 797.893 137.892 797.021 137.892H767.127C765.603 137.892 764.404 137.728 763.533 137.402C762.771 136.966 762.009 136.204 761.247 135.114L739.193 101.79H713.873L708.155 134.298C707.829 136.694 706.359 137.892 703.745 137.892H678.425C675.92 137.892 674.831 136.694 675.158 134.298L694.107 27.1369C694.652 24.741 696.122 23.543 698.518 23.543H787.546C795.714 23.543 801.65 25.0132 805.353 27.9536C809.055 30.7851 810.906 35.4135 810.906 41.8388C810.906 44.5614 810.688 47.175 810.253 49.6799L806.169 72.3862ZM723.184 49.8432L718.611 75.49H761.737C764.132 75.49 766.038 75.3811 767.454 75.1633C768.979 74.9454 770.176 74.5098 771.048 73.8565C771.919 73.0941 772.572 72.1139 773.008 70.916C773.553 69.7181 773.988 68.139 774.315 66.1788L775.458 59.1544C775.785 57.412 775.948 55.9418 775.948 54.7439C775.948 52.6747 775.24 51.3679 773.825 50.8233C772.517 50.1699 770.013 49.8432 766.31 49.8432H723.184Z" fill="black"/>
<path d="M845.945 134.298C845.618 136.694 844.148 137.892 841.534 137.892H816.215C813.709 137.892 812.621 136.694 812.947 134.298L831.897 27.1369C832.441 24.741 833.911 23.543 836.307 23.543H861.627C864.35 23.543 865.439 24.741 864.894 27.1369L845.945 134.298Z" fill="black"/>
<path d="M954.148 80.2273L992.533 134.298C993.083 135.06 993.136 135.877 992.702 136.748C992.259 137.511 991.559 137.892 990.575 137.892H960.352C959.05 137.892 958.013 137.728 957.25 137.402C956.488 136.966 955.726 136.204 954.964 135.114L925.885 92.8058H907.105L899.748 134.298C899.42 136.694 897.949 137.892 895.335 137.892H870.019C867.514 137.892 866.425 136.694 866.752 134.298L885.701 27.1369C886.245 24.741 887.713 23.543 890.114 23.543H915.436C918.156 23.543 919.247 24.741 918.697 27.1369L911.678 66.9955H928.012L970.155 26.3201C971.245 25.231 972.229 24.5231 973.097 24.1964C973.966 23.7608 975.056 23.543 976.359 23.543H1009.68C1010.56 23.543 1011.1 23.9242 1011.32 24.6865C1011.54 25.4488 1011.22 26.2656 1010.34 27.1369L954.148 80.2273Z" fill="black"/>
<path d="M1136.06 23.543C1138.67 23.543 1139.7 24.741 1139.16 27.1369L1135.73 46.2494C1135.4 48.6453 1133.98 49.8432 1131.49 49.8432H1053.39L1050.13 67.6489H1115.47C1116.67 67.6489 1117.54 67.9756 1118.08 68.6291C1118.63 69.1736 1118.79 70.0448 1118.57 71.2427L1115.47 89.2119C1115.26 90.4101 1114.76 91.3354 1114 91.9886C1113.24 92.5337 1112.26 92.8058 1111.07 92.8058H1045.72L1042.45 111.591H1120.54C1122.93 111.591 1123.97 112.79 1123.64 115.185L1120.21 134.298C1119.88 136.694 1118.47 137.892 1115.97 137.892H1008.64C1006.14 137.892 1005.05 136.694 1005.37 134.298L1024.32 27.1369C1024.86 24.741 1026.34 23.543 1028.73 23.543H1136.06Z" fill="black"/>
<path d="M1216.67 137.892C1213.95 137.892 1212.37 136.912 1211.93 134.951L1182.69 49.6799L1167.66 134.298C1167.34 136.694 1165.92 137.892 1163.41 137.892H1140.55C1138.04 137.892 1136.95 136.694 1137.28 134.298L1156.22 27.1369C1156.77 24.741 1158.25 23.543 1160.64 23.543H1202.13C1204.63 23.543 1206.21 24.5231 1206.87 26.4834L1236.11 111.918L1250.97 27.1369C1251.52 24.741 1253.04 23.543 1255.55 23.543H1278.26C1280.86 23.543 1281.9 24.741 1281.36 27.1369L1262.41 134.298C1262.08 136.694 1260.66 137.892 1258.16 137.892H1216.67Z" fill="black"/>
<path d="M66.0252 30.7308C77.8949 25.1592 90.4912 19.4637 102.119 18.3765C112.114 17.442 123.878 16.7132 133.558 18.94C148.645 22.4115 155.548 35.1113 152.876 50.3846C149.908 67.3407 140.089 80.4932 128.206 91.9807C106.487 112.979 81.1674 127.799 50.7996 131.946C42.2102 133.121 34.8434 132.419 26.2977 130.776C13.2168 128.262 2.80042 116.484 4.4961 99.2845C-6.64696 125.447 3.76937 147.975 29.9156 155.206C48.9269 159.302 67.4856 156.67 85.4638 150.577C128.988 135.83 165.718 111.576 188.829 70.7064C194.294 61.0438 197.889 48.9756 198.043 37.955C198.309 18.2939 184.646 5.72187 161.838 2.9147C131.328 -0.841569 92.4295 13.7739 66.0252 30.7308Z" fill="black"/>
</svg>
