<svg width="1128" height="240" viewBox="0 0 1128 240" fill="none" xmlns="http://www.w3.org/2000/svg">
<g clip-path="url(#clip0_6694_16136)">
<path d="M59.2214 0.523843C54.3129 -0.174614 49.3318 -0.174614 44.4234 0.523843C33.3484 2.17613 23.0954 7.39632 15.186 15.4096C7.27674 23.4228 2.13287 33.8021 0.517938 45.0065C0.172548 47.4858 -0.00052805 49.9865 1.21015e-06 52.4902V187.48C-0.00052805 189.984 0.172548 192.485 0.517938 194.964C2.12702 206.173 7.26829 216.559 15.1781 224.579C23.0878 232.597 33.3441 237.822 44.4234 239.476C49.3318 240.175 54.3129 240.175 59.2214 239.476C70.3097 237.839 80.5794 232.625 88.5033 224.61C96.4271 216.596 101.582 206.209 103.201 194.994C103.546 192.515 103.719 190.014 103.719 187.51V52.4902C103.719 49.9865 103.546 47.4858 103.201 45.0065C101.582 33.7913 96.4271 23.404 88.5033 15.3895C80.5794 7.37496 70.3097 2.16131 59.2214 0.523843ZM59.2214 15.7156C66.3508 17.2001 72.8937 20.7659 78.0407 25.9718C83.1878 31.1777 86.7131 37.7954 88.1808 45.0065H59.2214V15.7156ZM44.4234 15.7156V45.0065H15.4786C16.9417 37.7958 20.4638 31.1776 25.6086 25.9712C30.7534 20.7648 37.2949 17.1991 44.4234 15.7156ZM14.7388 59.9738H44.4234V89.9981H14.7388V59.9738ZM14.7388 104.965H44.4234V135.005H14.7388V104.965ZM14.7388 149.972H44.4234V179.996H14.7388V149.972ZM44.4234 224.255C37.2949 222.77 30.7534 219.205 25.6086 213.998C20.4638 208.793 16.9417 202.175 15.4786 194.964H44.4234V224.255ZM59.2214 224.255V194.964H88.1808C86.7131 202.175 83.1878 208.793 78.0407 213.998C72.8937 219.204 66.3508 222.77 59.2214 224.255ZM88.9207 179.996H59.2214V149.972H88.9207V179.996ZM88.9207 135.005H59.2214V104.965H88.9207V135.005ZM88.9207 89.9981H59.2214V59.9738H88.9207V89.9981ZM310.756 45.0065C309.138 33.7913 303.982 23.404 296.059 15.3895C288.135 7.37496 277.866 2.16131 266.776 0.523843C261.868 -0.174614 256.887 -0.174614 251.979 0.523843C240.894 2.16427 230.626 7.37923 222.706 15.3935C214.785 23.4078 209.632 33.7934 208.015 45.0065C207.669 47.4858 207.496 49.9865 207.496 52.4902V187.48C207.496 189.984 207.669 192.485 208.015 194.964C209.626 206.182 214.777 216.575 222.698 224.594C230.619 232.615 240.889 237.834 251.979 239.476C256.887 240.175 261.868 240.175 266.776 239.476C277.869 237.838 288.142 232.619 296.067 224.599C303.991 216.578 309.144 206.184 310.756 194.964C311.102 192.485 311.275 189.984 311.275 187.48V52.4902C311.275 49.9865 311.102 47.4858 310.756 45.0065ZM266.776 15.7156C273.907 17.2001 280.449 20.7659 285.596 25.9718C290.743 31.1777 294.268 37.7954 295.736 45.0065H266.776V15.7156ZM251.979 15.7156V45.0065H223.034C224.497 37.7958 228.019 31.1776 233.164 25.9712C238.309 20.7648 244.85 17.1991 251.979 15.7156ZM222.295 59.9738H251.979V89.9981H222.295V59.9738ZM222.295 104.965H251.979V135.005H222.295V104.965ZM222.295 149.972H251.979V179.996H222.295V149.972ZM251.979 224.255C244.85 222.77 238.309 219.205 233.164 213.998C228.019 208.793 224.497 202.175 223.034 194.964H251.979V224.255ZM266.776 224.255V194.964H295.736C294.268 202.175 290.743 208.793 285.596 213.998C280.449 219.204 273.907 222.77 266.776 224.255ZM296.476 179.996H266.776V149.972H296.476V179.996ZM296.476 135.005H266.776V104.965H296.476V135.005ZM296.476 89.9981H266.776V59.9738H296.476V89.9981ZM118.546 82.5145H148.142V112.449H118.546V82.5145ZM163.044 82.5145H192.639V112.449H163.044V82.5145ZM118.546 127.522H148.142V157.456H118.546V127.522ZM163.044 127.522H192.639V157.456H163.044V127.522Z" fill="url(#paint0_linear_6694_16136)"/>
<path d="M481.507 103.823H400.668V33.1406H371.156V203.861H400.668V132.928H481.507V203.861H511.044V33.1406H481.507V103.823Z" fill="black"/>
<path d="M620.996 147.134C621.091 151.174 620.372 155.191 618.882 158.946C617.393 162.701 615.163 166.116 612.326 168.988C609.489 171.858 606.104 174.127 602.373 175.657C598.643 177.187 594.642 177.947 590.611 177.892C586.887 178.04 583.177 177.385 579.728 175.973C576.279 174.559 573.173 172.421 570.619 169.702C565.297 164.117 562.723 156.828 562.723 147.36V72.219H533.286V147.835C532.91 158.872 535.499 169.806 540.783 179.495C545.523 187.892 552.541 194.771 561.024 199.332C569.011 203.642 577.941 205.897 587.012 205.895C596.525 206.244 605.936 203.844 614.125 198.982C616.543 197.46 618.864 195.786 621.072 193.973V203.992H650.609V72.0938H620.996V147.134Z" fill="black"/>
<path d="M770.691 79.3538C760.573 73.1202 748.881 69.9296 737.007 70.1616C727.191 69.9185 717.469 72.1308 708.72 76.5986C705.578 78.2953 702.608 80.2916 699.849 82.5598V24H670.312V203.887H699.849V193.442C710.326 201.948 723.535 206.338 737.007 205.79C748.61 206.09 760.056 203.044 769.982 197.014C779.91 190.985 787.901 182.225 793.007 171.778C798.266 161.274 800.948 149.664 800.828 137.914C800.977 126.112 798.294 114.446 793.007 103.9C787.916 93.8482 780.205 85.366 770.691 79.3538ZM771.316 137.989C771.379 144.979 769.849 151.892 766.844 158.202C764.033 164.324 759.464 169.468 753.722 172.974C747.98 176.48 741.325 178.192 734.609 177.888C727.776 178.13 721.032 176.287 715.267 172.603C709.944 169.098 705.738 164.134 703.147 158.302C700.329 151.885 698.874 144.95 698.874 137.939C698.874 130.927 700.329 123.992 703.147 117.576C705.827 111.531 710.262 106.438 715.875 102.961C721.488 99.4848 728.017 97.7866 734.609 98.089C741.314 97.7804 747.96 99.478 753.699 102.966C759.439 106.454 764.015 111.574 766.844 117.676C769.875 124.01 771.406 130.963 771.316 137.989Z" fill="black"/>
<path d="M913.38 79.3538C903.26 73.1227 891.569 69.9325 879.695 70.1616C869.879 69.9154 860.155 72.1278 851.407 76.5986C848.258 78.2952 845.28 80.2914 842.512 82.5598V24H813V203.887H842.512V193.442C853.006 201.936 866.218 206.323 879.695 205.79C891.299 206.09 902.743 203.044 912.671 197.014C922.597 190.985 930.588 182.225 935.694 171.778C940.954 161.274 943.636 149.664 943.516 137.914C943.664 126.112 940.982 114.446 935.694 103.9C930.604 93.8482 922.892 85.366 913.38 79.3538ZM914.004 137.989C914.054 144.978 912.526 151.889 909.532 158.202C906.72 164.324 902.152 169.468 896.41 172.974C890.668 176.48 884.014 178.192 877.296 177.888C870.463 178.134 863.718 176.291 857.954 172.603C852.66 169.087 848.48 164.124 845.91 158.302C843.04 151.92 841.582 144.99 841.637 137.989C841.538 130.951 842.998 123.979 845.91 117.576C848.588 111.531 853.025 106.438 858.637 102.961C864.251 99.4848 870.78 97.7866 877.37 98.089C884.076 97.7804 890.722 99.478 896.462 102.966C902.202 106.454 906.778 111.574 909.606 117.676C912.613 124.018 914.118 130.969 914.004 137.989Z" fill="black"/>
<path d="M985.199 24H955.688V203.887H985.199V24Z" fill="black"/>
<path d="M1128.01 138C1128.16 126.198 1125.48 114.532 1120.19 103.986C1115.09 93.8599 1107.31 85.334 1097.7 79.3398C1087.09 73.33 1075.12 70.1719 1062.93 70.1719C1050.75 70.1719 1038.77 73.33 1028.16 79.3398C1018.45 85.2841 1010.57 93.817 1005.42 103.986C1000.14 114.536 997.462 126.199 997.599 138C997.499 149.842 1000.34 161.522 1005.87 171.989C1011.26 182.192 1019.32 190.732 1029.18 196.685C1039.78 202.908 1051.89 206.064 1064.17 205.802C1079.61 205.802 1092.51 201.97 1102.53 194.43C1112.34 187.058 1119.86 177.055 1124.24 165.576L1127.26 157.711H1095.55L1093.9 160.742C1091.2 165.841 1087.24 170.155 1082.38 173.266C1076.91 176.584 1070.59 178.22 1064.19 177.974C1057.79 178.115 1051.46 176.56 1045.85 173.466C1040.72 170.647 1036.42 166.538 1033.36 161.544C1031.33 158.258 1029.77 154.71 1028.71 151H1127.89L1128.01 138ZM1029.31 122.596C1031.24 116.571 1034.6 111.105 1039.1 106.666C1045 100.83 1052.72 97.9996 1062.77 97.9996C1072.81 97.9996 1080.59 100.83 1086.56 106.691C1091.07 111.064 1094.42 116.496 1096.3 122.496L1029.31 122.596Z" fill="black"/>
</g>
<defs>
<linearGradient id="paint0_linear_6694_16136" x1="-45.7757" y1="256.975" x2="233.108" y2="-152.024" gradientUnits="userSpaceOnUse">
<stop stop-color="#FF00FF"/>
<stop offset="0.462607" stop-color="#7A84FF"/>
<stop offset="1" stop-color="#05FAFF"/>
</linearGradient>
<clipPath id="clip0_6694_16136">
<rect width="1128" height="240" fill="white"/>
</clipPath>
</defs>
</svg>
