<svg width="867" height="201" viewBox="0 0 867 201" fill="none" xmlns="http://www.w3.org/2000/svg">
<g clip-path="url(#clip0_6705_17128)">
<path d="M441.288 58.0547C415.628 58.0547 403.052 71.9087 397.254 78.1971C387.794 66.0555 376.48 58.1387 356.52 58.1387C341.655 58.1387 323.169 66.8275 318.256 78.3235V60.1179H281.438V197.733H319.154V119.746C319.154 104.853 331.169 92.7675 346.02 92.7675C360.871 92.7675 372.886 104.825 372.886 119.746V197.761H410.492L410.532 119.718C410.532 104.825 422.548 92.7391 437.4 92.7391C452.248 92.7391 464.264 104.797 464.264 119.718L464.224 197.733H501.94V123.353C501.94 96.0519 491.748 58.0547 441.288 58.0547Z" fill="black"/>
<path d="M540.781 45.6812C553.389 45.6812 563.621 35.463 563.621 22.8406C563.621 10.2182 553.401 0 540.781 0C528.157 0 517.938 10.2182 517.938 22.8406C517.938 35.463 528.157 45.6812 540.781 45.6812Z" fill="black"/>
<path d="M559.831 60.1172H521.219V197.733H559.831V60.1172Z" fill="black"/>
<path d="M41.0512 11.125H0V197.862H41.0512V11.125Z" fill="black"/>
<path d="M795.844 200.007C775.744 200.007 758.76 193.985 745.34 180.384C731.952 166.811 725.156 149.616 725.156 129.319C725.156 109.022 731.952 91.8127 745.34 78.1971C758.748 64.5675 775.744 58.0547 795.844 58.0547C815.944 58.0547 832.944 64.5395 846.308 78.1971C859.656 91.8267 866.408 109.022 866.408 129.319C866.408 149.616 859.628 166.811 846.28 180.384C832.916 193.985 815.944 200.007 795.844 200.007ZM795.844 93.2587C786.188 93.2587 778.484 96.6135 772.292 103.491C765.976 110.523 762.888 118.945 762.888 129.291C762.888 139.636 765.96 148.029 772.276 155.02C778.456 161.884 786.188 165.182 795.844 165.182C805.504 165.182 813.236 161.87 819.412 155.02C825.728 148.043 828.804 139.621 828.804 129.291C828.804 118.96 825.716 110.509 819.4 103.491C813.224 96.6135 805.516 93.2587 795.844 93.2587Z" fill="black"/>
<path d="M225.463 60.1209V71.8837C218.824 65.2581 212.058 57.9453 192.702 57.9453C180.265 57.9453 168.98 60.4717 159.182 66.3389C148.627 72.5993 140.064 81.4005 133.691 92.4333C127.305 103.508 124.062 115.875 124.062 129.195C124.062 142.516 127.249 154.812 133.551 165.761C139.84 176.695 148.36 185.398 158.915 191.673C169.064 197.694 180.644 199.884 193.347 199.884C205.362 199.884 217.561 193.638 225.477 185.945V197.708H262.253V60.1209H225.463ZM196.351 167.052C176.433 167.052 160.291 150.082 160.291 129.153C160.291 108.225 176.447 91.2541 196.351 91.2541C216.255 91.2541 232.425 108.225 232.425 129.153C232.425 150.082 216.269 167.052 196.351 167.052Z" fill="black"/>
<path d="M659.008 58.0609C641.14 58.0609 624.588 67.7881 616.196 81.1089V60.1101H579V197.726H617.096V119.26C617.096 104.368 628.704 92.2821 645.548 92.2821C662.392 92.2821 674 104.34 674 119.26V197.726H712.096V115.457C712.096 94.5141 703.14 58.0469 658.992 58.0469L659.008 58.0609Z" fill="black"/>
<path d="M133.385 195.502C114.043 182.168 100.975 157.365 100.975 128.941C100.975 100.516 114.043 75.7136 133.385 62.3788V60.1328H79.8774C67.3566 79.5316 59.875 103.254 59.875 128.941C59.875 154.628 67.3426 178.336 79.8774 197.748H133.385V195.502Z" fill="black"/>
</g>
<defs>
<clipPath id="clip0_6705_17128">
<rect width="866.4" height="200.01" fill="white"/>
</clipPath>
</defs>
</svg>
