<svg width="290" height="290" viewBox="0 0 290 290" fill="none" xmlns="http://www.w3.org/2000/svg">
<g clip-path="url(#clip0_6694_15942)">
<mask id="mask0_6694_15942" style="mask-type:luminance" maskUnits="userSpaceOnUse" x="0" y="0" width="290" height="290">
<path d="M289.078 0H0V289.078H289.078V0Z" fill="white"/>
</mask>
<g mask="url(#mask0_6694_15942)">
<path d="M6.55014 0.00794312C2.8257 0.358952 -0.0154048 3.49388 0.000725812 7.2347V57.822C-0.0361336 60.4282 1.3332 62.8524 3.58437 64.1663C5.83554 65.4802 8.61981 65.4802 10.871 64.1663C13.1222 62.8524 14.4915 60.4282 14.4546 57.822V24.6241L55.8966 66.065C59.1256 62.4701 62.5753 59.1292 66.1724 55.9023L24.7304 14.4614H57.8162C60.4225 14.4983 62.8467 13.129 64.1606 10.8779C65.4745 8.62675 65.4745 5.84261 64.1606 3.5915C62.8467 1.34038 60.4225 -0.0289154 57.8162 0.00794312H7.22766C7.00194 -0.00264771 6.77585 -0.00264771 6.55014 0.00794312ZM66.1724 55.9023L135.167 124.895C137.943 127.535 137.975 132.56 135.28 135.284C132.585 138.008 127.675 137.918 125.004 135.17L55.8966 66.065C34.6311 89.7389 21.6815 121.055 21.6815 155.383C21.6815 229.221 81.5403 289.078 155.379 289.078C229.219 289.078 289.078 229.221 289.078 155.383C289.078 81.5455 229.219 21.6882 155.379 21.6882C121.082 21.6882 89.8397 34.6706 66.1724 55.9023Z" fill="url(#paint0_linear_6694_15942)"/>
</g>
</g>
<defs>
<linearGradient id="paint0_linear_6694_15942" x1="144.539" y1="0" x2="144.539" y2="289.078" gradientUnits="userSpaceOnUse">
<stop stop-color="#FF7B7B"/>
<stop offset="1" stop-color="#FF4949"/>
</linearGradient>
<clipPath id="clip0_6694_15942">
<rect width="289.078" height="289.078" fill="white"/>
</clipPath>
</defs>
</svg>
