<svg width="49" height="18" viewBox="0 0 49 18" fill="none" xmlns="http://www.w3.org/2000/svg">
<g clip-path="url(#clip0_4767_9390)">
<path d="M18.1765 4.60408H23.3888V5.35098H19.1688V6.12455H23.154V6.82874H19.1688V8.33854H18.1765V4.60408ZM23.7095 4.60408H24.7017V7.41024H28.5376V8.33854H23.7095V4.60408ZM30.9761 4.60408H32.2512L34.5772 8.33858H33.3716L32.9981 7.71436H30.2239L29.8504 8.33858H28.6447L30.9761 4.60408ZM32.4966 6.86612L31.611 5.38832L30.7307 6.86612H32.4966ZM35.9208 7.1702C35.9208 7.22001 35.9439 7.27158 35.9901 7.32493C36.0364 7.37827 36.1253 7.42629 36.2569 7.46898C36.3885 7.51164 36.5717 7.5472 36.8064 7.57565C37.0411 7.60057 37.347 7.61303 37.724 7.61303C38.0477 7.61303 38.3198 7.60235 38.5403 7.58099C38.7608 7.55968 38.9387 7.53123 39.0739 7.49564C39.2127 7.46009 39.3121 7.41917 39.3725 7.37294C39.4329 7.32313 39.4633 7.27157 39.4633 7.21822C39.4633 7.16131 39.4313 7.10975 39.367 7.06349C39.3066 7.01372 39.2037 6.97104 39.0579 6.93546C38.9155 6.89988 38.7287 6.87321 38.4976 6.85544C38.2664 6.83413 37.9801 6.82347 37.6386 6.82344C37.0447 6.82344 36.5592 6.79321 36.1822 6.73275C35.8087 6.67229 35.5153 6.59048 35.3019 6.48733C35.0885 6.38417 34.9409 6.26503 34.8591 6.12989C34.7809 5.99473 34.7417 5.85068 34.7417 5.69774C34.7417 5.51989 34.7898 5.35983 34.8858 5.21757C34.9818 5.07532 35.1383 4.95619 35.3553 4.86018C35.5758 4.76056 35.8657 4.68408 36.2249 4.63073C36.5841 4.57739 37.0269 4.55072 37.5533 4.55072C38.0975 4.55072 38.5563 4.57917 38.9297 4.63607C39.3066 4.68947 39.609 4.7659 39.8366 4.86548C40.0678 4.96506 40.2334 5.0842 40.3328 5.22295C40.4361 5.35808 40.4875 5.50747 40.4875 5.67108L39.4687 5.73508C39.4687 5.6924 39.4418 5.64797 39.3884 5.60171C39.335 5.55192 39.2372 5.50747 39.095 5.46834C38.9564 5.42565 38.7626 5.39187 38.5136 5.367C38.2682 5.34206 37.9517 5.3296 37.564 5.32963C37.219 5.32963 36.9309 5.34031 36.6997 5.36166C36.4685 5.38297 36.2836 5.41142 36.1449 5.44702C36.0062 5.48256 35.9066 5.52524 35.8461 5.57505C35.7892 5.62481 35.7607 5.67638 35.7607 5.72978C35.7607 5.78668 35.791 5.8418 35.8514 5.89515C35.9155 5.94493 36.0204 5.98939 36.1662 6.02852C36.312 6.06411 36.5041 6.09257 36.7424 6.11387C36.9807 6.13523 37.2741 6.1459 37.6227 6.14587C38.206 6.14587 38.6826 6.17611 39.0525 6.2366C39.4259 6.29351 39.7174 6.37352 39.9275 6.47669C40.1406 6.57623 40.2864 6.69536 40.3648 6.83408C40.4431 6.96925 40.4821 7.1133 40.4821 7.26623C40.4821 7.45117 40.4306 7.61478 40.3273 7.75704C40.228 7.89575 40.0678 8.01314 39.8472 8.10917C39.627 8.20162 39.3386 8.27279 38.9831 8.32256C38.631 8.36881 38.2006 8.39193 37.692 8.39193C37.162 8.39193 36.7104 8.36703 36.3369 8.31722C35.9635 8.26388 35.6576 8.18741 35.4193 8.08782C35.181 7.98822 35.0067 7.8673 34.8965 7.72504C34.7898 7.58278 34.7364 7.42096 34.7364 7.23957L35.9208 7.1702ZM40.8087 4.60408H41.801V6.00186H45.3059V4.60408H46.2928V8.33858H45.3059V6.91948H41.801V8.33858H40.8087V4.60408ZM20.0651 10.8948H18.0164V9.98256H23.0953V10.8948H21.052V13.7171H20.0651V10.8948ZM23.2964 9.98256H26.7267C27.1535 9.98256 27.5021 10.0146 27.7724 10.0786C28.0428 10.1426 28.2544 10.2298 28.4073 10.34C28.5638 10.4503 28.6705 10.5801 28.7274 10.7295C28.7878 10.8753 28.8181 11.0318 28.8181 11.199C28.8181 11.3412 28.7967 11.4764 28.754 11.6044C28.7149 11.7325 28.642 11.848 28.5353 11.9512C28.4322 12.0543 28.2899 12.1432 28.1085 12.2179C27.9271 12.2926 27.6977 12.346 27.4203 12.378L29.0421 13.7171H27.5537L25.9959 12.4153H24.2833V13.7171H23.2964V9.98256ZM24.2833 11.6364H26.7267C26.9579 11.6364 27.1429 11.6257 27.2816 11.6044C27.4238 11.5795 27.5323 11.5475 27.607 11.5084C27.6853 11.4692 27.7369 11.423 27.7618 11.3697C27.7866 11.3163 27.7991 11.2594 27.7991 11.199C27.7995 11.14 27.7867 11.0817 27.7618 11.0282C27.7369 10.9749 27.6853 10.9286 27.607 10.8895C27.5323 10.8504 27.4238 10.8201 27.2816 10.7988C27.1429 10.7739 26.9579 10.7615 26.7267 10.7615H24.2833V11.6364ZM31.5336 9.98256H32.8086L35.1347 13.7171H33.929L33.5556 13.0928H30.7813L30.4079 13.7171H29.2022L31.5336 9.98256ZM33.0541 12.2446L32.1684 10.7668L31.2882 12.2446H33.0541ZM35.4006 9.98256H38.3455C38.8363 9.98256 39.2454 10.0324 39.5724 10.132C39.9033 10.228 40.1683 10.3614 40.3675 10.5321C40.5702 10.6992 40.7124 10.8966 40.7943 11.1242C40.8796 11.3519 40.9225 11.5937 40.9225 11.8498C40.9225 12.1059 40.8796 12.3477 40.7943 12.5754C40.7124 12.803 40.5702 13.0022 40.3675 13.1729C40.1683 13.3401 39.9033 13.4734 39.5724 13.573C39.2454 13.669 38.8363 13.7171 38.3455 13.7171H35.4006V9.98256ZM38.3455 12.7674C38.6585 12.7674 38.9145 12.7443 39.1137 12.6981C39.3163 12.6483 39.4765 12.5825 39.5938 12.5007C39.7112 12.4153 39.793 12.3175 39.8394 12.2073C39.8854 12.0934 39.9088 11.9725 39.9088 11.8445C39.9088 11.72 39.8854 11.6026 39.8394 11.4924C39.793 11.3786 39.7112 11.2808 39.5938 11.199C39.4765 11.1136 39.3163 11.0478 39.1137 11.0016C38.9145 10.9517 38.6585 10.9268 38.3455 10.9268H36.3929V12.7674H38.3455ZM41.2409 9.98256H46.4534V10.7295H42.2332V11.503H46.2183V12.1966H42.2332V12.9702H46.4534V13.7171H41.2409V9.98256Z" fill="#171717"/>
<path d="M12.3235 3.7094C12.3235 3.99384 12.3418 5.82946 12.3418 6.22154H12.0259C10.3578 6.22154 8.68961 6.22154 7.02146 6.21161C6.81294 6.21161 6.67392 6.2712 6.525 6.42012C5.18451 7.77055 3.82418 9.111 2.48373 10.4714C2.33477 10.6203 2.19575 10.6799 1.98719 10.6699C1.45102 10.66 0.914849 10.6699 0.378638 10.6699H0C0 10.5459 0.000272822 10.5294 0.000272822 10.4698C-0.000116924 9.93734 -0.000116924 9.40483 0.00132513 8.85287C0.00187078 8.69713 0.0311407 8.58477 0.150286 8.46562C1.68935 6.93645 3.21848 5.39739 4.75754 3.86826C4.85685 3.75905 4.95612 3.69946 5.10508 3.69946C7.4782 3.7094 9.85136 3.7094 12.2146 3.7094H12.3235Z" fill="url(#paint0_linear_4767_9390)"/>
<path d="M15.7927 7.21472C15.8423 7.21472 15.892 7.22462 15.9714 7.22462V9.39921C15.8523 9.4091 15.753 9.4091 15.6537 9.4091C14.9785 9.41904 14.3033 9.41904 13.638 9.4091C13.4295 9.4091 13.2904 9.4687 13.1415 9.61766C11.6719 11.0971 10.1925 12.5667 8.7229 14.0561C8.56404 14.205 8.41508 14.2746 8.19662 14.2646H3.98656C3.87735 14.2646 4.1057 14.2646 3.98656 14.2646C3.86741 14.2646 4.09576 14.2646 3.98656 14.2646C4.12558 14.2746 6.70721 11.7425 6.81646 11.6333C7.50159 10.9383 8.18672 10.2531 8.88176 9.55807C8.91157 9.52829 8.93141 9.49847 8.991 9.41904C7.57108 9.41904 6.17439 9.42025 4.74457 9.42025C4.86173 9.30309 4.92031 9.23996 4.99935 9.16088C5.59511 8.56511 6.19088 7.97929 6.78664 7.38352C6.89589 7.27427 7.00509 7.21472 7.17389 7.21472H15.7927Z" fill="url(#paint1_linear_4767_9390)"/>
</g>
<defs>
<linearGradient id="paint0_linear_4767_9390" x1="5.20115" y1="3.37757" x2="7.98577" y2="14.5122" gradientUnits="userSpaceOnUse">
<stop stop-color="white"/>
<stop offset="0.438" stop-color="#FFEB00"/>
<stop offset="1" stop-color="#3AFFE1"/>
</linearGradient>
<linearGradient id="paint1_linear_4767_9390" x1="5.20116" y1="3.37756" x2="7.98577" y2="14.5122" gradientUnits="userSpaceOnUse">
<stop stop-color="white"/>
<stop offset="0.438" stop-color="#FFEB00"/>
<stop offset="1" stop-color="#3AFFE1"/>
</linearGradient>
<clipPath id="clip0_4767_9390">
<rect width="48.913" height="18" fill="white"/>
</clipPath>
</defs>
</svg>
