<svg width="101" height="26" viewBox="0 0 101 26" fill="none" xmlns="http://www.w3.org/2000/svg">
<path d="M11.771 0.139993H11.7112H11.6364C5.75837 -0.847155 0.32905 3.50527 0 9.44312V9.51791V9.54782V10.5499C0.0448704 10.9089 0.0448706 11.2529 0.0598274 11.7016C0.0598274 12.1054 0.104698 12.5691 0.194439 13.0477V13.0926C0.254266 13.3169 0.32905 13.5562 0.37392 13.7208C0.433747 13.9152 0.463661 14.0498 0.493575 14.1844C0.523489 14.319 0.538446 14.4686 0.553402 14.6481C0.568359 14.8126 0.598273 15.022 0.628186 15.2164V15.3062C0.70297 15.7698 0.837581 16.398 1.03202 16.9963C1.22646 17.6095 1.51064 18.3275 1.92943 18.8061C2.39309 19.3296 3.12597 20.0625 3.91868 20.4214H3.96355C4.09816 20.4962 4.23278 20.5411 4.33747 20.5859C4.45713 20.6308 4.53191 20.6458 4.6067 20.6757C4.75626 20.7355 4.81609 20.7654 4.86096 20.7953H4.89088C5.14514 21.0346 5.32462 21.3039 5.69854 21.7376C5.95281 22.0368 6.29682 22.3957 6.74552 22.6649C6.71561 22.8743 6.76048 23.0538 6.79039 23.1136C6.83526 23.2483 6.88013 23.353 6.925 23.4277C6.98483 23.5324 7.04465 23.6371 7.08953 23.682L7.11944 23.7269C7.70275 24.5495 8.46555 24.9085 9.36296 25.0132C10.5296 25.1627 11.9355 24.9982 12.8479 23.7269L12.8778 23.697C12.8778 23.682 12.9077 23.6521 12.9376 23.6222C12.9825 23.5623 13.0423 23.4726 13.0872 23.3679C13.1321 23.2632 13.2218 23.0837 13.2218 22.8295C13.2218 22.7846 13.2218 22.7248 13.2218 22.6649C13.506 22.5004 13.7603 22.291 14.0145 22.0368C14.2538 21.7825 14.5829 21.3487 14.7624 21.1393C15.0017 20.8552 15.1512 20.7355 15.241 20.6906H15.2859C15.4803 20.5859 15.5999 20.556 15.8841 20.4513C16.1533 20.3466 16.4525 20.227 16.7815 19.9727C17.0956 19.7484 17.4396 19.4343 17.7388 19.1052C18.0379 18.7762 18.352 18.3723 18.5315 17.9835L18.5614 17.9236C19.1597 16.6373 19.2943 15.4707 19.4588 14.2443V14.1994C19.5037 13.9601 19.5785 13.7208 19.6682 13.3917C19.7579 13.0627 19.8776 12.6439 19.8925 12.2101C19.9225 11.6268 19.9524 11.0285 19.9673 10.4303C20.1169 5.44966 16.7367 1.05236 11.771 0.169907V0.139993ZM18.5614 7.10986C18.4717 6.8556 18.3819 6.60133 18.2772 6.36202C18.3819 6.60133 18.4866 6.8556 18.5614 7.10986ZM10.7689 22.2162C10.6193 22.1414 10.4698 22.0517 10.3352 21.947C10.4698 22.0368 10.6193 22.1265 10.7689 22.2162C11.0082 22.3359 11.2924 22.4705 11.5467 22.5303C11.6962 22.5602 12.0253 22.5752 12.1748 22.65C12.0103 22.5752 11.6962 22.5602 11.5467 22.5303C11.2774 22.4705 11.0082 22.3359 10.7689 22.2162ZM11.412 23.7867C11.3821 23.7867 11.3522 23.8166 11.3373 23.8316C11.3672 23.8316 11.3971 23.8017 11.412 23.7867ZM11.2475 23.8615C11.2176 23.8615 11.1877 23.8914 11.1727 23.8914C11.2026 23.8914 11.2326 23.8615 11.2475 23.8615ZM11.0979 23.9363C11.068 23.9363 11.0381 23.9512 11.0082 23.9662C11.0381 23.9662 11.068 23.9512 11.0979 23.9363ZM10.9334 23.9811C10.9035 23.9811 10.8736 23.9961 10.8437 24.011C10.8736 24.011 10.9035 24.011 10.9334 23.9811ZM10.7539 24.026C10.724 24.026 10.6941 24.026 10.6642 24.041C10.6941 24.041 10.724 24.041 10.7539 24.026ZM17.6191 14.1844C17.5742 14.3041 17.5144 14.4088 17.4695 14.5284C17.5144 14.4237 17.5742 14.3041 17.6191 14.1844ZM4.66652 4.16337C4.66652 4.16337 4.66652 4.16337 4.65157 4.17833C4.65157 4.17833 4.68148 4.16337 4.68148 4.14842C4.68148 4.14842 4.68148 4.14842 4.68148 4.16337H4.66652ZM2.5277 11.2828C2.51274 11.208 2.49779 11.1332 2.48283 11.0585C2.48283 11.1332 2.51274 11.208 2.5277 11.2828ZM3.57468 13.8105C3.52981 13.7507 3.49989 13.6909 3.45502 13.6161C3.49989 13.6759 3.52981 13.7507 3.57468 13.8105ZM3.33537 13.4067C3.30545 13.3468 3.26058 13.2721 3.23067 13.2122C3.26058 13.2721 3.2905 13.3468 3.33537 13.4067ZM3.12597 13.0028C3.09606 12.943 3.06615 12.8682 3.03623 12.7934C3.06615 12.8682 3.09606 12.9281 3.12597 13.0028ZM2.93153 12.5841C2.90162 12.5093 2.87171 12.4494 2.85675 12.3747C2.88666 12.4494 2.90162 12.5093 2.93153 12.5841ZM2.78197 12.1503C2.75205 12.0755 2.7371 12.0157 2.72214 11.9409C2.7371 12.0157 2.76701 12.0905 2.78197 12.1503ZM2.6324 11.7315C2.61744 11.6567 2.60248 11.5819 2.57257 11.5072C2.58753 11.5819 2.60248 11.6567 2.6324 11.7315ZM2.37813 10.176C2.37813 10.2508 2.37813 10.3256 2.39309 10.4004C2.39309 10.3256 2.39309 10.2508 2.37813 10.176ZM2.423 10.6247C2.423 10.6995 2.43796 10.7743 2.45292 10.8491C2.45292 10.7743 2.43796 10.6995 2.423 10.6247ZM2.36318 14.349C2.36318 14.5584 2.39309 14.7677 2.45292 15.0071C2.40805 14.7827 2.36318 14.5584 2.34822 14.349H2.36318ZM2.49779 8.15684C2.49779 8.08206 2.5277 8.00727 2.54266 7.93249C2.5277 8.00727 2.51274 8.08206 2.49779 8.15684ZM2.72214 7.28934C2.75205 7.21456 2.76701 7.13978 2.79692 7.07995C2.76701 7.15473 2.75205 7.21456 2.72214 7.28934ZM3.05119 6.43681C3.0811 6.36202 3.11102 6.3022 3.15589 6.22741C3.12597 6.3022 3.0811 6.36202 3.05119 6.43681ZM3.24563 6.03297C3.27554 5.95819 3.32041 5.89836 3.36528 5.83853C3.32041 5.89836 3.2905 5.97315 3.24563 6.03297ZM3.46998 5.62914C3.51485 5.56931 3.55972 5.49453 3.58963 5.4347C3.54476 5.49453 3.49989 5.56931 3.46998 5.62914ZM3.72424 5.25522C3.76911 5.19539 3.81399 5.13556 3.85886 5.06078C3.81399 5.12061 3.76911 5.18044 3.72424 5.25522ZM4.32252 4.52234C4.38234 4.46251 4.42721 4.40268 4.48704 4.35781C4.42721 4.41764 4.38234 4.47747 4.32252 4.52234ZM2.37813 9.05425C2.37813 8.97946 2.39309 8.90468 2.40805 8.8299C2.40805 8.90468 2.39309 8.97946 2.37813 9.05425ZM7.85232 22.635C7.82241 22.635 7.79249 22.65 7.76258 22.6649C7.79249 22.6649 7.82241 22.635 7.85232 22.635ZM7.91215 22.6201C8.09163 22.5752 8.31598 22.5602 8.40572 22.5303C8.85443 22.4256 9.22835 22.1714 9.63218 21.962C9.22835 22.1564 8.85443 22.4256 8.40572 22.5303C8.31598 22.5453 8.09163 22.5752 7.91215 22.6201ZM8.39077 22.1265C8.57025 22.1265 8.74973 22.1265 8.91426 22.0966C8.74973 22.1115 8.57025 22.1265 8.39077 22.1265ZM9.48261 20.0176C9.54244 20.0475 9.61722 20.0625 9.67705 20.0924C9.61722 20.0625 9.54244 20.0325 9.48261 20.0176ZM8.48051 19.6736C8.43564 19.6736 8.40572 19.6437 8.36085 19.6287C8.40572 19.6287 8.43564 19.6586 8.48051 19.6736ZM7.88224 19.4642C7.83737 19.4492 7.79249 19.4193 7.76258 19.4044C7.80745 19.4193 7.85232 19.4492 7.88224 19.4642ZM9.93132 20.227H9.96123C10.051 20.1971 10.1557 20.1522 10.2604 20.1073C10.1557 20.1522 10.0659 20.1971 9.96123 20.2419C9.90141 20.212 9.84158 20.1821 9.76679 20.1522C9.81166 20.1821 9.87149 20.1971 9.91636 20.227H9.93132ZM10.7539 19.9278C10.7988 19.9278 10.8437 19.8979 10.8736 19.883C10.8287 19.883 10.7839 19.9129 10.7539 19.9278ZM11.9355 19.524C11.8907 19.539 11.8458 19.5539 11.8009 19.5838C11.8458 19.5689 11.8907 19.5539 11.9355 19.524ZM11.6214 19.6437C11.5766 19.6437 11.5467 19.6736 11.5018 19.6885C11.5467 19.6885 11.5766 19.6586 11.6214 19.6437ZM11.2774 19.7633C11.2475 19.7633 11.2176 19.7783 11.1877 19.7932C11.2176 19.7932 11.2475 19.7783 11.2774 19.7633ZM14.3884 20.1522C14.3735 20.1672 14.3436 20.1821 14.3286 20.212C14.3436 20.1971 14.3585 20.1821 14.3884 20.1522ZM14.4782 20.0774C14.4632 20.0924 14.4483 20.1073 14.4184 20.1223C14.4333 20.1073 14.4483 20.0924 14.4782 20.0774ZM14.5829 18.4022C14.538 18.4621 14.4782 18.5369 14.4333 18.5967C14.4782 18.5369 14.5231 18.4621 14.5829 18.4022ZM15.944 3.14631C15.7495 2.96683 15.5401 2.8023 15.3158 2.65274C15.5252 2.81726 15.7346 2.98179 15.944 3.14631ZM11.5616 1.05236C12.5488 1.21688 13.4761 1.54593 14.2987 1.99464C13.4611 1.54593 12.5488 1.21688 11.5616 1.05236C10.5745 0.887833 9.60227 0.872876 8.65999 1.02244C9.58731 0.887833 10.5745 0.887833 11.5616 1.05236ZM7.05961 1.41132C6.8203 1.50106 6.56604 1.5908 6.34168 1.6955C6.58099 1.5908 6.8203 1.50106 7.05961 1.41132ZM3.64946 3.52023C3.64946 3.52023 3.64946 3.52023 3.6345 3.53519C3.6345 3.53519 3.6345 3.53519 3.64946 3.52023ZM4.42721 2.84717C4.38234 2.89204 4.32252 2.92196 4.27765 2.96683C4.32252 2.92196 4.36739 2.89204 4.42721 2.84717ZM9.67705 24.0858C9.61722 24.0858 9.5574 24.0858 9.48261 24.0709C9.54244 24.0709 9.60227 24.0709 9.67705 24.0858ZM9.73688 24.0858C9.78175 24.0858 9.82662 24.0858 9.85653 24.0858C9.81166 24.0858 9.78175 24.0858 9.73688 24.0858ZM10.2305 24.1008C10.2005 24.1008 10.1706 24.1008 10.1258 24.1008C10.1557 24.1008 10.1856 24.1008 10.2305 24.1008ZM11.6214 23.6371C11.6514 23.6222 11.6663 23.6072 11.6962 23.5773C11.6663 23.5923 11.6514 23.6222 11.6214 23.6371ZM12.0701 23.1884C12.0552 23.2034 12.0402 23.2333 12.0253 23.2483C12.0552 23.2183 12.0851 23.1884 12.1001 23.1436L12.0701 23.1884ZM11.8907 23.3978C11.9206 23.3679 11.9355 23.353 11.9505 23.323C11.9355 23.353 11.9056 23.3679 11.8907 23.3978ZM12.2945 22.7995C12.2945 22.7846 12.2945 22.7547 12.2945 22.7397C12.2945 22.7547 12.2945 22.7696 12.2945 22.7995ZM11.5467 22.1265C12.2347 22.1265 12.818 21.8872 13.3265 21.3637C12.818 21.8872 12.2197 22.1265 11.5467 22.1265ZM13.9397 20.6458C13.9547 20.6159 13.9846 20.5859 13.9996 20.571C13.9697 20.6009 13.9547 20.6308 13.9397 20.6458ZM13.4462 21.259C13.4761 21.2291 13.491 21.1992 13.521 21.1842C13.491 21.2141 13.4761 21.244 13.4462 21.259ZM13.521 21.1543C13.6556 21.0047 13.7902 20.8253 13.9248 20.6458C13.7902 20.8253 13.6406 20.9898 13.521 21.1543ZM14.7325 19.883C14.7474 19.883 14.7773 19.868 14.7923 19.8531C14.7773 19.8531 14.7474 19.868 14.7325 19.883ZM14.5231 20.0325C14.538 20.0325 14.553 20.0026 14.5829 19.9877C14.5679 19.9877 14.553 20.0176 14.5231 20.0325ZM14.6278 19.9578C14.6427 19.9578 14.6577 19.9278 14.6876 19.9278C14.6726 19.9278 14.6577 19.9578 14.6278 19.9578ZM15.2111 19.6885C15.2709 19.6736 15.3158 19.6437 15.3756 19.6287C15.3158 19.6437 15.2709 19.6586 15.2111 19.6885ZM15.0465 19.7484C15.0765 19.7484 15.1064 19.7334 15.1363 19.7184C15.1064 19.7184 15.0765 19.7334 15.0465 19.7484ZM15.4055 19.6138C15.4504 19.6138 15.4952 19.5838 15.5252 19.5689C15.4803 19.5838 15.4354 19.5988 15.4055 19.6138ZM15.5999 19.539C15.6299 19.539 15.6598 19.5091 15.7046 19.4941C15.6747 19.4941 15.6448 19.524 15.5999 19.539ZM15.7645 19.4791C15.7944 19.4791 15.8243 19.4492 15.8542 19.4343C15.8243 19.4492 15.7944 19.4642 15.7645 19.4791ZM16.1833 19.2548C16.1533 19.2697 16.1384 19.2847 16.1085 19.2997C16.1533 19.2697 16.1833 19.2548 16.2281 19.2249C16.3777 19.1052 16.5572 18.9706 16.7367 18.7911C16.5572 18.9557 16.3777 19.1052 16.2281 19.2249L16.1833 19.2548ZM16.7367 18.7762C16.7666 18.7463 16.7965 18.7163 16.8414 18.6864C16.8114 18.7163 16.7815 18.7463 16.7367 18.7762ZM16.961 18.5518C16.9909 18.5219 17.0208 18.492 17.0358 18.4621C17.0059 18.492 16.9909 18.5219 16.961 18.5518ZM17.0657 18.4322C17.0956 18.4022 17.1106 18.3723 17.1405 18.3574C17.1106 18.3873 17.0956 18.4172 17.0657 18.4322ZM17.4546 17.9685C17.4546 17.9535 17.4845 17.9236 17.4995 17.9087C17.4995 17.9236 17.4695 17.9535 17.4546 17.9685ZM17.6789 17.5946C17.6789 17.5946 17.6789 17.6245 17.664 17.6395C17.664 17.6245 17.6939 17.5946 17.6939 17.5796V17.6095L17.6789 17.5946ZM17.5892 17.7441C17.5892 17.7292 17.6042 17.7142 17.6191 17.6843C17.6191 17.6993 17.6042 17.7142 17.5892 17.7441ZM18.1426 16.3532C18.1426 16.3681 18.1426 16.3831 18.1276 16.413C18.1276 16.398 18.1276 16.3831 18.1426 16.3532ZM18.008 16.742C18.008 16.757 18.008 16.772 17.993 16.7869C17.993 16.772 17.993 16.757 18.008 16.742ZM17.8584 17.1608C17.8584 17.1608 17.8584 17.1758 17.8584 17.1907C17.8584 17.1907 17.8584 17.1758 17.8584 17.1608ZM18.5016 14.334C18.5016 14.334 18.5016 14.349 18.5016 14.3639C18.5016 14.2742 18.5315 14.1844 18.5315 14.1096L18.5016 14.349V14.334ZM18.3819 15.1865C18.3819 15.1716 18.3819 15.1566 18.3819 15.1267C18.3819 15.1417 18.3819 15.1566 18.3819 15.1865ZM19.0251 10.5948C19.0251 10.7593 19.0251 10.9238 19.0101 11.0884C19.0101 10.8491 19.0251 10.6098 19.04 10.3704V10.5948H19.0251ZM18.9652 12.1353C18.9652 11.8661 18.9951 11.5819 19.0101 11.3127C19.0101 11.5819 18.9802 11.8661 18.9652 12.1353Z" fill="#19140C"/>
<path d="M10.3202 21.9471C10.4548 22.0368 10.6044 22.1266 10.7539 22.2163C10.9932 22.336 11.2774 22.4706 11.5317 22.5304C11.7112 22.5753 12.1 22.5902 12.2197 22.68C12.3693 22.7996 12.1599 23.0389 12.0851 23.1436C11.4569 24.0111 10.4997 24.1756 9.46764 24.056C8.77963 23.9663 8.2711 23.7269 7.86727 23.1586C7.80744 23.0688 7.62796 22.8295 7.67283 22.7248C7.73266 22.6052 8.24119 22.5603 8.3758 22.5304C8.8245 22.4257 9.19842 22.1714 9.60225 21.962C9.61721 21.962 9.64713 21.962 9.63217 21.9321C9.3779 21.9321 9.13859 22.0518 8.89928 22.0817C8.46554 22.1415 7.91214 22.1116 7.49335 21.962C6.59594 21.618 6.14723 20.6309 5.45922 20.0476C5.13017 19.7634 4.72634 19.7185 4.33746 19.554C3.72423 19.2848 3.08109 18.6715 2.63239 18.163C2.06403 17.5049 1.66019 15.9045 1.52558 15.037C1.46575 14.693 1.4508 14.3341 1.39097 14.005C1.33114 13.6161 1.18158 13.2422 1.10679 12.8534C0.92731 12.0606 1.01705 11.2081 0.912354 10.4004V9.53294C1.16662 4.10362 6.14723 0.110155 11.5167 1.05243C16.0337 1.83019 19.1297 5.8087 18.9951 10.3705C18.9802 10.9538 18.9503 11.5521 18.9203 12.1354C18.8904 12.7935 18.5763 13.4367 18.5016 14.1097C18.337 15.3661 18.2024 16.4131 17.649 17.5797C17.3947 18.1331 16.6768 18.866 16.1832 19.2249C15.7046 19.569 15.3158 19.6138 14.8222 19.8382C14.2389 20.0924 13.7453 20.9151 13.2966 21.3787C12.6684 22.0368 11.9206 22.2462 11.0232 22.1116C10.7838 22.0817 10.5445 21.962 10.2903 21.962L10.3202 21.9471ZM12.2347 16.9366C12.6983 16.8319 13.1321 16.6374 13.5509 16.428C17.32 14.4537 18.7558 9.71242 16.6918 5.97322C14.5679 2.11437 9.54243 0.828081 5.81818 3.25108C1.28627 6.18262 1.18158 12.7487 5.54896 15.8896C6.1921 16.3532 6.9549 16.787 7.74761 16.9366V17.834C7.34378 18.0434 6.8502 17.9686 6.46133 17.7741C6.10236 17.5947 5.83314 17.3853 5.44426 17.2507C5.30965 17.2058 5.01052 17.146 4.92078 17.1011C4.86095 17.0712 4.78617 16.9366 4.72634 16.8767C4.38233 16.5028 4.03832 16.3682 3.6644 16.0541C3.39518 15.8447 3.14092 15.5306 2.94648 15.2614C2.70717 14.9473 2.49777 14.6033 2.36316 14.2294V14.364C2.40803 15.2315 2.84178 16.4879 3.51484 17.0861C4.06824 17.5797 4.80112 17.7293 5.2947 18.3126C5.38444 18.4173 5.44426 18.522 5.534 18.6267C5.534 18.5369 5.48913 18.4472 5.45922 18.3724C5.38444 18.1929 5.26478 17.9985 5.16008 17.834C5.13017 17.8041 4.99556 17.6395 4.99556 17.6395C4.99556 17.6246 5.01052 17.6096 5.02547 17.6096C5.14513 17.6096 5.41435 17.7293 5.534 17.7891C6.28184 18.1929 6.82029 18.9408 7.56813 19.3596C8.31597 19.7634 9.19842 19.883 9.94626 20.2869C10.724 19.898 11.6364 19.7634 12.3992 19.3446C13.147 18.9258 13.6705 18.1929 14.4183 17.7891C14.5829 17.6994 14.7624 17.6096 14.9418 17.6395C14.7624 17.8788 14.5829 18.1181 14.4782 18.4023L14.4034 18.6416C14.5679 18.4173 14.7324 18.2079 14.9418 18.0434C15.3905 17.6844 15.9739 17.5049 16.4076 17.116C16.976 16.6075 17.3648 15.6503 17.4994 14.9024C17.5443 14.6781 17.5742 14.4537 17.5742 14.2294C17.4546 14.4836 17.3648 14.723 17.2153 14.9772C16.976 15.3661 16.5721 15.8597 16.2132 16.1438C15.8542 16.428 15.5401 16.5477 15.2111 16.9066C15.0764 17.0562 15.0914 17.116 14.882 17.1908C14.7624 17.2357 14.6277 17.2507 14.5081 17.2955C13.9547 17.475 13.5209 17.9088 12.9376 17.9985C12.6684 18.0434 12.4141 18.0134 12.1748 17.8938V16.9964L12.2347 16.9366ZM9.63217 15.5755C9.692 15.6054 10.051 15.4857 10.1407 15.4857C10.2604 15.4857 10.5445 15.6054 10.6343 15.5755L10.8736 15.1118C10.8885 15.0969 11.2176 15.3063 11.2625 15.3362C11.7112 15.6802 11.8159 16.2037 11.8009 16.7421C11.4868 16.6973 11.1877 16.5926 10.8885 16.5028L10.4249 16.3084C10.8586 16.6823 11.412 16.9066 11.9654 17.0712V18.1481C11.9654 18.7912 11.1727 19.4792 10.5296 19.8531L10.6044 18.4322C10.6044 18.4322 11.2774 18.0284 11.412 17.9985C11.4719 17.9835 11.6364 18.1032 11.6513 18.0733L11.6214 17.2357C11.2924 17.4152 10.9185 17.5348 10.5445 17.6096L10.4548 17.9237L10.1557 18.1032L9.82661 17.9237L9.73687 17.6096C9.36295 17.5199 9.00398 17.4002 8.65998 17.2207V18.0733C8.7198 18.0434 8.76467 17.9387 8.85442 17.9686C8.95911 18.0134 9.67704 18.4173 9.67704 18.4173L9.76678 19.8382C9.13859 19.5091 8.28606 18.7762 8.28606 18.1331V17.1011C8.8245 16.9066 9.39286 16.7122 9.82661 16.3233C9.55738 16.443 9.52747 16.443 9.49756 16.4579C9.16851 16.5926 8.79459 16.6823 8.45058 16.7421C8.48049 16.1887 8.55528 15.6652 9.01894 15.3212C9.06381 15.2764 9.34799 15.0969 9.39286 15.1118L9.63217 15.5755ZM10.5894 15.3362V13.9751C10.6044 13.9751 10.3052 15.2165 10.3052 15.2165L10.1257 13.4068L9.93131 15.2165L9.66208 13.9602V15.3212C9.67704 15.3212 8.86937 12.7786 8.86937 12.7786C8.9292 12.7487 8.97407 12.7038 9.0339 12.6589C9.3779 12.4196 9.87148 12.285 10.2903 12.3149C10.6941 12.3598 11.083 12.5243 11.3821 12.7786L10.5894 15.3063V15.3362Z" fill="#FFFDF7"/>
<path d="M99.9116 19.7183C99.762 19.3594 99.7022 18.8957 99.7022 18.3274V5.38973C99.7022 5.35982 99.7171 5.3299 99.7321 5.29999C99.8816 4.94103 100.076 4.55215 100.33 4.14832H99.7022H99.6423H97.0249H96.0228C96.292 4.55215 96.4865 4.92607 96.6211 5.29999C96.7706 5.65895 96.8305 6.12261 96.8305 6.69097L96.8005 12.4194C96.8005 12.4194 89.4418 4.37267 89.3969 4.14832H85.5979C85.8671 4.56711 86.0765 4.95598 86.2111 5.31495C86.3607 5.65895 86.4205 6.12261 86.4205 6.67602V18.3274C86.4205 18.8808 86.3457 19.3444 86.2111 19.7183C86.0765 20.0624 85.8821 20.4512 85.6129 20.87H89.9055C89.6362 20.4512 89.4268 20.0773 89.2922 19.7183C89.1576 19.3594 89.0978 18.8957 89.0978 18.3274V9.23363L96.8005 17.759V19.7333C96.6659 20.0923 96.4565 20.4662 96.2172 20.8551H96.8005H99.5077H99.6423H100.51C100.256 20.4512 100.061 20.0773 99.9116 19.7183Z" fill="#19140C"/>
<path d="M70.0287 18.6714C69.8941 19.1051 69.8941 19.509 69.9988 19.8829C70.1035 20.2717 70.2829 20.5858 70.5222 20.8551H65.5117C65.9006 20.541 66.1997 20.2119 66.439 19.8978C66.6933 19.5688 66.9177 19.0902 67.1271 18.4919L71.2252 6.39184C71.3598 5.97305 71.3897 5.58417 71.315 5.19529C71.2701 4.79146 71.0756 4.44745 70.7466 4.14832H76.0712L80.992 18.5667C81.1715 19.0602 81.3809 19.479 81.6052 19.8081C81.8445 20.1371 82.1736 20.4961 82.5774 20.8551H76.5648C76.834 20.5858 77.0135 20.2718 77.1182 19.9277C77.2229 19.5837 77.193 19.15 77.0285 18.6415L76.2208 16.1287H70.8214L70.0137 18.6564L70.0287 18.6714ZM75.443 13.7506L73.5286 7.76786L71.5991 13.7506H75.443Z" fill="#19140C"/>
<path d="M54.9967 20.8552C55.2659 20.4364 55.4753 20.0475 55.6099 19.6886C55.7595 19.2997 55.8193 18.836 55.8193 18.2826V6.85562H53.2916C52.7831 6.85562 52.3494 6.9304 52.0054 7.09493C51.6763 7.2445 51.3173 7.43893 50.9285 7.70816V4.14844H64.4045V7.70816C64.0007 7.43893 63.6417 7.22954 63.3127 7.09493C62.9836 6.9304 62.5499 6.85562 62.0414 6.85562H59.5137V18.2826C59.5137 18.5668 59.5286 18.8211 59.5585 19.0454C59.5885 19.2698 59.6333 19.4792 59.7081 19.6586C59.7829 19.8531 59.8726 20.0475 59.9773 20.227C60.082 20.4214 60.2166 20.6308 60.3662 20.8402H54.9967V20.8552Z" fill="#19140C"/>
<path d="M47.0851 18.3275C47.0851 18.8809 47.1599 19.3445 47.2945 19.7185C47.444 20.0625 47.6385 20.4514 47.9077 20.8701H42.5382C42.8074 20.4514 43.0168 20.0774 43.1514 19.7185C43.301 19.3595 43.3608 18.8958 43.3608 18.3275V6.67614C43.3608 6.12274 43.2861 5.65908 43.1215 5.31507C42.972 4.95611 42.7775 4.55227 42.5083 4.14844H47.9227C47.6534 4.56723 47.444 4.95611 47.2795 5.31507C47.13 5.65908 47.0701 6.12274 47.0701 6.67614V18.3275H47.0851Z" fill="#19140C"/>
<path d="M30.063 20.8552C30.3322 20.4364 30.5416 20.0475 30.6762 19.6886C30.8258 19.2997 30.8856 18.836 30.8856 18.2826V6.85562H28.3579C27.8494 6.85562 27.4156 6.9304 27.0716 7.09493C26.7426 7.2445 26.3836 7.43893 25.9948 7.70816V4.14844H39.4708V7.70816C39.067 7.43893 38.708 7.22954 38.379 7.09493C38.0499 6.9304 37.6162 6.85562 37.1077 6.85562H34.58V18.2826C34.58 18.5668 34.5949 18.8211 34.6248 19.0454C34.6547 19.2698 34.6996 19.4792 34.7744 19.6586C34.8492 19.8531 34.9389 20.0475 35.0436 20.227C35.1483 20.4214 35.2829 20.6308 35.4325 20.8402H30.063V20.8552Z" fill="#19140C"/>
</svg>
