<svg width="50" height="18" viewBox="0 0 50 18" fill="none" xmlns="http://www.w3.org/2000/svg">
<g clip-path="url(#clip0_4767_7818)">
<path d="M27.3369 13.3057C27.9203 13.3057 28.4298 13.1985 28.8656 12.9841C29.3087 12.762 29.656 12.4595 29.9069 12.0766C30.1581 11.686 30.2837 11.2418 30.2837 10.744C30.2837 9.59532 29.6227 8.79887 28.3007 8.3547L26.7165 7.82627C26.2141 7.65013 25.9632 7.35913 25.9632 6.95324C25.9632 6.67754 26.0702 6.45547 26.2843 6.28698C26.4986 6.11085 26.7793 6.02278 27.1264 6.02278C27.5252 6.02278 27.8797 6.13765 28.1898 6.3674C28.5 6.58948 28.7326 6.89965 28.8877 7.29786L30.2837 6.64309C30.0547 5.96916 29.656 5.44076 29.0873 5.05785C28.5259 4.66726 27.8723 4.47198 27.1264 4.47198C26.565 4.47198 26.0664 4.5792 25.6307 4.79362C25.2024 5.00807 24.8664 5.30672 24.6227 5.68963C24.3863 6.07256 24.2682 6.51671 24.2682 7.02216C24.2682 8.18621 24.9292 8.99415 26.2513 9.44598L27.8687 9.99737C28.3561 10.1659 28.5997 10.4492 28.5997 10.8474C28.5997 11.1231 28.4926 11.3452 28.2786 11.5137C28.0716 11.6745 27.7947 11.7549 27.4477 11.7549C27.0046 11.7549 26.5983 11.6209 26.2289 11.3529C25.8671 11.0848 25.5829 10.7172 25.376 10.2501L23.9691 10.9049C24.1315 11.395 24.3752 11.82 24.7002 12.18C25.0326 12.5399 25.424 12.8194 25.8745 13.0185C26.3324 13.21 26.8197 13.3057 27.3369 13.3057Z" fill="black"/>
<path d="M34.2992 13.2368C34.5725 13.2368 34.8308 13.2177 35.0746 13.1794V11.709C34.9195 11.732 34.7903 11.7435 34.6869 11.7435C33.9999 11.7435 33.6564 11.4257 33.6564 10.79V8.38919H35.0746V6.89585H33.6564V5.47144H31.9947V5.93092C31.9947 6.57422 31.6736 6.89585 31.0309 6.89585H30.9755V8.38919H31.9947V10.9049C31.9947 11.6401 32.1943 12.2145 32.593 12.628C32.9992 13.0339 33.568 13.2368 34.2992 13.2368Z" fill="black"/>
<path d="M38.9619 13.3058C39.5822 13.3058 40.125 13.1679 40.5905 12.8922C41.0558 12.6089 41.3807 12.2374 41.5653 11.7779L40.2358 11.1232C40.1176 11.3376 39.9516 11.5061 39.7373 11.6286C39.5306 11.7511 39.2794 11.8124 38.984 11.8124C38.578 11.8124 38.2454 11.6937 37.9871 11.4563C37.7286 11.2189 37.577 10.9049 37.5328 10.5143H41.7646C41.7943 10.4301 41.8126 10.3305 41.82 10.2157C41.8347 10.0931 41.8421 9.97061 41.8421 9.84807C41.8421 9.26605 41.7241 8.74529 41.4877 8.28581C41.2589 7.81865 40.9228 7.44723 40.4797 7.17154C40.0365 6.89584 39.4937 6.758 38.851 6.758C38.2752 6.758 37.758 6.89968 37.3002 7.18303C36.8423 7.46638 36.4767 7.85312 36.2034 8.34324C35.9375 8.83336 35.8045 9.3924 35.8045 10.0204C35.8045 10.6254 35.9339 11.1768 36.1925 11.6746C36.4508 12.1723 36.8164 12.5706 37.289 12.8692C37.7619 13.1603 38.3194 13.3058 38.9619 13.3058ZM38.851 8.13647C39.1909 8.13647 39.4716 8.23984 39.693 8.44661C39.9147 8.65339 40.0439 8.92143 40.0808 9.25074H37.5661C37.6472 8.89079 37.7987 8.6151 38.0202 8.42366C38.2492 8.23219 38.5261 8.13647 38.851 8.13647Z" fill="black"/>
<path d="M42.8207 15.4653H44.4824V12.6854C44.6967 12.8922 44.9514 13.0492 45.2469 13.1564C45.5497 13.256 45.871 13.3057 46.2107 13.3057C46.8015 13.3057 47.3296 13.1602 47.7948 12.8692C48.2601 12.5782 48.6257 12.1838 48.8916 11.686C49.1649 11.1883 49.3014 10.6369 49.3014 10.0319C49.3014 9.41922 49.1649 8.86783 48.8916 8.37769C48.6183 7.87992 48.2492 7.48552 47.7839 7.19452C47.3184 6.9035 46.7977 6.758 46.2219 6.758C45.4167 6.758 44.8002 7.0222 44.3718 7.55061V6.89584H42.8207V15.4653ZM46.0114 11.755C45.5608 11.755 45.1914 11.598 44.9034 11.284C44.6227 10.9623 44.4824 10.545 44.4824 10.0319C44.4824 9.52644 44.6227 9.11289 44.9034 8.79123C45.1914 8.4696 45.5608 8.30877 46.0114 8.30877C46.4692 8.30877 46.8458 8.47344 47.1412 8.80272C47.4366 9.12439 47.5843 9.53409 47.5843 10.0319C47.5843 10.5373 47.4366 10.9509 47.1412 11.2725C46.8458 11.5941 46.4692 11.755 46.0114 11.755Z" fill="black"/>
<path d="M0.00784681 4.52295L7.79306 0.027771L7.79273 9.01756L0.00750732 13.5127L0.00784681 4.52295Z" fill="#118AB2"/>
<path d="M7.79385 0.0192261L15.5794 4.51381L12.9842 6.01201L5.19867 1.51742L7.79385 0.0192261Z" fill="#00F8B7"/>
<path d="M12.9785 6.00929L12.9786 9.00589L5.19338 4.51069L5.19328 1.5141L12.9785 6.00929Z" fill="#09BD8E"/>
<path d="M5.18807 4.5152L12.9736 9.00981L10.3784 10.508L2.59286 6.01342L5.18807 4.5152Z" fill="#FFE3A3"/>
<path d="M10.4094 10.5235L10.4095 13.5201L2.62426 9.02491L2.62416 6.02832L10.4094 10.5235Z" fill="#FFBB1D"/>
<path d="M2.60059 9.01099L10.3862 13.5056L7.79097 15.0038L0.00541687 10.5092L2.60059 9.01099Z" fill="#FF965E"/>
<path d="M7.7852 15.0011L7.78533 17.9977L0.000113039 13.5025L0 10.5059L7.7852 15.0011Z" fill="#D94C00"/>
<path d="M12.9818 6.01015L15.5769 4.51178L15.5765 13.5016L12.9815 14.9999L12.9818 6.01015Z" fill="#06D6A0"/>
<path d="M10.3813 10.5062L12.9764 9.00781L12.9761 15.001L10.3811 16.4994L10.3813 10.5062Z" fill="#FFD166"/>
<path d="M7.7808 15.002L10.3759 13.5036L10.3758 16.5002L7.7807 17.9986L7.7808 15.002Z" fill="#F3722C"/>
</g>
<defs>
<clipPath id="clip0_4767_7818">
<rect width="49.322" height="18" fill="white"/>
</clipPath>
</defs>
</svg>
