<svg width="1395" height="162" viewBox="0 0 1395 162" fill="none" xmlns="http://www.w3.org/2000/svg">
<g clip-path="url(#clip0_6694_16004)">
<path d="M1171.16 158.365H1238.02L1179.37 3.60547H1100.16L1041.5 158.365H1108.37L1119.28 127.771H1160.24L1171.16 158.365ZM1125.69 109.824L1139.78 70.3558L1153.86 109.824H1125.71H1125.69Z" fill="#184623"/>
<path d="M1313.09 0C1258.62 0 1232.25 20.9201 1232.25 81.0001C1232.25 141.08 1258.62 162 1313.09 162C1367.57 162 1393.93 141.08 1393.93 81.0001C1393.93 20.9201 1367.57 0 1313.09 0ZM1323.61 135.257C1323.61 140.602 1322.89 146.102 1313.09 146.102C1303.3 146.102 1302.58 140.602 1302.58 135.257V26.7433C1302.58 21.3977 1303.3 15.8981 1313.09 15.8981C1322.89 15.8981 1323.61 21.3977 1323.61 26.7433V135.257Z" fill="#184623"/>
<path fill-rule="evenodd" clip-rule="evenodd" d="M1048.5 81.0078C1048.5 23.1426 1021.75 3 966.48 3H888V159H966.48C1021.75 159 1048.5 138.857 1048.5 80.9922V81.0078ZM973.839 28.4517C973.839 23.2957 973.107 18 963.169 18V18.0156H952.5V143.421H963.169C973.107 143.421 973.839 138.125 973.839 132.969V28.4517Z" fill="#184623"/>
<path d="M794.453 105.741V88.9191H852.541V70.9722H794.453V56.2449H865.948V3.62109H731.047V158.365H869.899V105.741H794.453Z" fill="#184623"/>
<path d="M723.721 3.62109H661.451L619.047 70.926V3.62109H555.625V158.365H619.047V88.9962L655.225 158.365H723.29L673.951 76.4564L723.721 3.62109Z" fill="#184623"/>
<path d="M475.246 3.62109V104.894L441.345 3.62109H377.922V158.365H441.345V57.0767L475.246 158.35V158.365H538.653V3.62109H475.246Z" fill="#184623"/>
<path d="M285.005 0C230.533 0 204.164 20.9201 204.164 81C204.164 141.08 230.533 162 285.005 162C339.479 162 365.848 141.08 365.848 81C365.848 20.9201 339.479 0 285.005 0ZM295.523 135.257C295.523 140.602 294.8 146.102 285.005 146.102C275.212 146.102 274.489 140.602 274.489 135.257V26.7279C274.489 21.3822 275.212 15.8826 285.005 15.8826C294.8 15.8826 295.523 21.3822 295.523 26.7279V135.257Z" fill="#184623"/>
<path d="M151.521 1.05078C127.613 1.05078 117.404 14.977 96.2169 14.977C75.0302 14.977 64.8212 1.05078 40.8977 1.05078C16.974 1.05078 0 14.977 0 14.977V158.367H63.4066V69.8345C63.4066 64.489 64.1292 58.9894 73.9231 58.9894C83.7171 58.9894 84.4397 64.489 84.4397 69.8345V158.384H107.994V69.8345C107.994 64.489 108.717 58.9894 118.511 58.9894C128.305 58.9894 129.027 64.489 129.027 69.8345V158.384H192.434V14.977C192.434 14.977 175.43 1.05078 151.521 1.05078Z" fill="#184623"/>
</g>
<defs>
<clipPath id="clip0_6694_16004">
<rect width="1395" height="162" fill="white"/>
</clipPath>
</defs>
</svg>
