<svg width="68" height="18" viewBox="0 0 68 18" fill="none" xmlns="http://www.w3.org/2000/svg">
<g clip-path="url(#clip0_4321_2462)">
<mask id="mask0_4321_2462" style="mask-type:luminance" maskUnits="userSpaceOnUse" x="0" y="0" width="68" height="18">
<path d="M67.5 0H0V18H67.5V0Z" fill="white"/>
</mask>
<g mask="url(#mask0_4321_2462)">
<path d="M1.72336 14.0312C2.4771 15.0796 3.44396 15.9568 4.5605 16.6054C5.67704 17.254 6.91806 17.6592 8.2022 17.7945C7.54153 16.8003 6.58121 15.8856 5.38232 15.1893C4.18343 14.4929 2.91378 14.1125 1.72336 14.0312Z" fill="url(#paint0_linear_4321_2462)"/>
<path d="M6.99304 12.4166C4.68324 11.0747 2.18326 10.7327 0.394455 11.3369C0.567142 11.9076 0.794888 12.4602 1.07448 12.9869C2.62865 12.9509 4.32554 13.373 5.9045 14.2901C7.48348 15.2072 8.69114 16.4729 9.43013 17.8411C10.0265 17.8228 10.6197 17.7468 11.2014 17.6143C10.8398 15.7614 9.30222 13.7588 6.99304 12.4166Z" fill="url(#paint1_linear_4321_2462)"/>
<path d="M17.9998 6.96962C17.7061 5.77512 17.1748 4.65205 16.4374 3.66746C15.7001 2.68286 14.7719 1.85695 13.7083 1.23903C12.6447 0.621106 11.4675 0.22385 10.247 0.0709788C9.02643 -0.0818927 7.78759 0.0127558 6.60445 0.349274C8.58103 0.591169 10.775 1.33318 12.9267 2.58316C15.0783 3.83315 16.8112 5.37131 17.9998 6.96962Z" fill="url(#paint2_linear_4321_2462)"/>
<path d="M15.1241 11.3505C14.1124 9.67028 12.3793 8.06138 10.2442 6.82106C8.1092 5.58075 5.85353 4.87231 3.89448 4.82543C2.17098 4.78461 0.877465 5.28564 0.346506 6.1997C0.343482 6.20513 0.339249 6.21028 0.335922 6.21572C0.288149 6.38717 0.247026 6.55891 0.209534 6.73126C0.950939 6.43858 1.80996 6.27559 2.76514 6.25744C4.88927 6.21754 7.26649 6.89696 9.46017 8.17144C11.6539 9.44593 13.423 11.1752 14.4402 13.0396C14.8962 13.8795 15.1807 14.7065 15.2935 15.4966C15.4247 15.3793 15.5535 15.258 15.6784 15.132C15.6817 15.1262 15.6838 15.1202 15.6871 15.1141C16.2181 14.1992 16.0128 12.8276 15.1241 11.3505Z" fill="url(#paint3_linear_4321_2462)"/>
<path d="M8.61991 9.61676C5.35041 7.71729 1.73741 7.41975 0 8.74534C0.00341264 9.16024 0.0351337 9.57444 0.0949432 9.98504C0.606028 9.83011 1.13277 9.73255 1.66544 9.69416C3.60695 9.54812 5.74742 10.0891 7.68983 11.2181C9.63225 12.3471 11.1634 13.9394 11.9986 15.6971C12.2294 16.1786 12.4055 16.6845 12.5235 17.2053C12.9099 17.0538 13.2856 16.8763 13.648 16.674C13.9389 14.5079 11.8903 11.5165 8.61991 9.61676Z" fill="url(#paint4_linear_4321_2462)"/>
<path d="M16.8057 8.53807C15.7825 6.85962 14.0342 5.24619 11.8841 3.99771C9.73392 2.74923 7.4695 2.02959 5.5041 1.97185C4.00587 1.92861 2.84537 2.29174 2.24367 2.97781C4.74212 2.55451 8.03763 3.26597 11.2319 5.12161C14.4261 6.97725 16.6775 9.48811 17.5465 11.868C17.8443 11.006 17.5852 9.81799 16.8057 8.53807Z" fill="url(#paint5_linear_4321_2462)"/>
<path d="M27.2146 10.9667C27.2146 11.567 27.1408 12.1081 26.9932 12.5903C26.8456 13.0725 26.6242 13.4833 26.329 13.8228C26.0386 14.1622 25.6747 14.423 25.2367 14.6051C24.7988 14.7871 24.2896 14.8781 23.7091 14.8781C23.4434 14.8781 23.1826 14.8609 22.9268 14.8265C22.671 14.7969 22.4028 14.7477 22.1224 14.6789C22.1371 14.4821 22.1544 14.2852 22.174 14.0885C22.1936 13.8917 22.2109 13.6948 22.2257 13.4981C22.2404 13.3898 22.2822 13.3037 22.3511 13.2397C22.4249 13.1709 22.5283 13.1364 22.6611 13.1364C22.7448 13.1364 22.853 13.1537 22.9858 13.1881C23.1235 13.2225 23.2958 13.2397 23.5024 13.2397C23.7829 13.2397 24.0313 13.2004 24.2478 13.1217C24.4643 13.038 24.6438 12.9077 24.7865 12.7305C24.9341 12.5534 25.0448 12.3246 25.1186 12.0442C25.1924 11.7588 25.2293 11.4144 25.2293 11.011V4.08855H27.2146V10.9667ZM35.5246 7.18815V14.76H34.4102C34.1692 14.76 34.0168 14.6493 33.9527 14.4279L33.8272 13.8228C33.5173 14.1376 33.1754 14.3935 32.8014 14.5903C32.4275 14.7822 31.9873 14.8781 31.4804 14.8781C31.0671 14.8781 30.7006 14.8092 30.3808 14.6715C30.0659 14.5288 29.8003 14.3295 29.5837 14.0737C29.3674 13.8179 29.2025 13.5153 29.0893 13.166C28.9811 12.8117 28.9269 12.423 28.9269 11.9999V7.18815H30.7498V11.9999C30.7498 12.4624 30.8556 12.8216 31.0671 13.0774C31.2836 13.3283 31.6058 13.4538 32.0339 13.4538C32.3489 13.4538 32.6441 13.3849 32.9195 13.2471C33.1951 13.1044 33.4559 12.9101 33.7018 12.6641V7.18815H35.5246ZM39.1549 12.797C39.3615 13.0479 39.5854 13.225 39.8264 13.3283C40.0725 13.4316 40.3382 13.4833 40.6235 13.4833C40.8991 13.4833 41.1475 13.4316 41.3689 13.3283C41.5903 13.225 41.7773 13.0675 41.9297 12.856C42.0872 12.6444 42.2078 12.3788 42.2914 12.059C42.3751 11.7342 42.4168 11.3529 42.4168 10.9151C42.4168 10.4723 42.3799 10.0983 42.3061 9.79329C42.2374 9.48333 42.1364 9.23241 42.0035 9.04053C41.8707 8.84865 41.7083 8.70843 41.5165 8.61987C41.3296 8.53131 41.1156 8.48703 40.8744 8.48703C40.4957 8.48703 40.1733 8.56821 39.9076 8.73057C39.6419 8.88802 39.391 9.11186 39.1549 9.40215V12.797ZM39.0589 8.22135C39.3689 7.87202 39.7208 7.58914 40.1143 7.37265C40.5079 7.15616 40.9703 7.04793 41.5017 7.04793C41.915 7.04793 42.2914 7.13402 42.6308 7.30623C42.9754 7.47844 43.2706 7.72936 43.5164 8.05899C43.7674 8.38371 43.9592 8.78714 44.0921 9.26931C44.23 9.74654 44.2987 10.2951 44.2987 10.9151C44.2987 11.4808 44.2226 12.0048 44.0699 12.487C43.9175 12.9692 43.6986 13.3874 43.4131 13.7416C43.1327 14.0958 42.7909 14.3738 42.3873 14.5755C41.9888 14.7723 41.5411 14.8707 41.0441 14.8707C40.6211 14.8707 40.2595 14.8068 39.9593 14.6789C39.6592 14.546 39.391 14.364 39.1549 14.1327V17.2323H37.332V7.18815H38.4464C38.6825 7.18815 38.8375 7.29885 38.9113 7.52025L39.0589 8.22135ZM47.6104 7.18815V14.76H45.7801V7.18815H47.6104ZM47.8613 4.98153C47.8613 5.13898 47.8292 5.28658 47.7653 5.42433C47.7014 5.56208 47.6152 5.68263 47.507 5.78595C47.4037 5.88927 47.2808 5.97292 47.138 6.03687C46.9953 6.09591 46.8428 6.12543 46.6805 6.12543C46.523 6.12543 46.373 6.09591 46.2303 6.03687C46.0926 5.97292 45.972 5.88927 45.8687 5.78595C45.7654 5.68263 45.6817 5.56208 45.6178 5.42433C45.5587 5.28658 45.5292 5.13898 45.5292 4.98153C45.5292 4.81917 45.5587 4.66666 45.6178 4.52397C45.6817 4.38128 45.7654 4.25829 45.8687 4.15497C45.972 4.05165 46.0926 3.97047 46.2303 3.91143C46.373 3.84748 46.523 3.81549 46.6805 3.81549C46.8428 3.81549 46.9953 3.84748 47.138 3.91143C47.2808 3.97047 47.4037 4.05165 47.507 4.15497C47.6152 4.25829 47.7014 4.38128 47.7653 4.52397C47.8292 4.66666 47.8613 4.81917 47.8613 4.98153ZM51.9926 14.8781C51.3335 14.8781 50.8266 14.6936 50.4724 14.3246C50.1232 13.9507 49.9484 13.4365 49.9484 12.7822V8.55345H49.1735C49.0752 8.55345 48.9915 8.52146 48.9226 8.45751C48.8538 8.39356 48.8192 8.29762 48.8192 8.16969V7.44645L50.0369 7.24719L50.4207 5.18079C50.4454 5.08238 50.4922 5.00614 50.5609 4.95201C50.6299 4.89788 50.7184 4.87083 50.8266 4.87083H51.7712V7.25457H53.7934V8.55345H51.7712V12.6567C51.7712 12.8929 51.8279 13.0774 51.941 13.2102C52.0591 13.3431 52.2191 13.4095 52.4207 13.4095C52.5339 13.4095 52.6273 13.3972 52.7011 13.3726C52.78 13.3431 52.8464 13.3135 52.9004 13.284C52.9594 13.2545 53.0111 13.2275 53.0554 13.2028C53.0996 13.1733 53.1439 13.1586 53.1882 13.1586C53.2424 13.1586 53.2867 13.1733 53.321 13.2028C53.3556 13.2275 53.3925 13.2668 53.4317 13.3209L53.9779 14.2065C53.7122 14.4279 53.4073 14.5952 53.0627 14.7084C52.7184 14.8215 52.3616 14.8781 51.9926 14.8781ZM59.7811 10.1033C59.7811 9.86709 59.7465 9.64569 59.6777 9.43905C59.6137 9.2275 59.5154 9.043 59.3825 8.88555C59.2497 8.7281 59.08 8.60511 58.8733 8.51655C58.6715 8.42308 58.4354 8.37633 58.1648 8.37633C57.6383 8.37633 57.2225 8.5264 56.9176 8.82651C56.6174 9.12662 56.4255 9.55222 56.342 10.1033H59.7811ZM56.3051 11.2029C56.3346 11.5915 56.4034 11.9286 56.5117 12.2139C56.6199 12.4944 56.7626 12.7281 56.9398 12.915C57.1169 13.0971 57.3259 13.2348 57.5671 13.3283C57.8129 13.4169 58.0837 13.4612 58.3789 13.4612C58.6741 13.4612 58.9273 13.4267 59.139 13.3578C59.3554 13.2889 59.5424 13.2127 59.6999 13.1291C59.8622 13.0454 60.0025 12.9692 60.1205 12.9003C60.2435 12.8314 60.3616 12.797 60.4748 12.797C60.6272 12.797 60.7405 12.8535 60.8143 12.9667L61.3382 13.6309C61.1365 13.8671 60.9102 14.0663 60.6593 14.2287C60.4084 14.3861 60.145 14.514 59.8696 14.6124C59.5989 14.7059 59.321 14.7723 59.0357 14.8117C58.7552 14.8511 58.4822 14.8707 58.2165 14.8707C57.69 14.8707 57.2004 14.7846 56.7479 14.6124C56.2952 14.4353 55.9015 14.177 55.5671 13.8375C55.2325 13.4931 54.9693 13.07 54.7774 12.5682C54.5855 12.0614 54.4896 11.4759 54.4896 10.8117C54.4896 10.2951 54.5731 9.81052 54.7405 9.35787C54.9077 8.90031 55.1464 8.50426 55.4564 8.16969C55.7712 7.83021 56.1524 7.56206 56.6003 7.36527C57.0528 7.16848 57.562 7.07007 58.1279 7.07007C58.6051 7.07007 59.0454 7.14634 59.449 7.29885C59.8523 7.45136 60.1992 7.67523 60.4895 7.97043C60.7797 8.26072 61.0061 8.61987 61.1685 9.04791C61.3357 9.47104 61.4194 9.95565 61.4194 10.5018C61.4194 10.7773 61.3899 10.9642 61.3309 11.0627C61.2718 11.1561 61.1586 11.2029 60.9914 11.2029H56.3051ZM64.5068 8.50179C64.7429 8.04914 65.0234 7.6949 65.3481 7.43907C65.6728 7.1783 66.0566 7.04793 66.4994 7.04793C66.8488 7.04793 67.1292 7.1242 67.3407 7.27671L67.2226 8.64201C67.1981 8.73057 67.1612 8.79452 67.1119 8.83389C67.0676 8.86832 67.0063 8.88555 66.9274 8.88555C66.8536 8.88555 66.7429 8.87326 66.5953 8.84865C66.4528 8.82404 66.3125 8.81175 66.1747 8.81175C65.9731 8.81175 65.7934 8.84127 65.6359 8.90031C65.4786 8.95935 65.3359 9.04544 65.2079 9.15861C65.0849 9.26684 64.9742 9.39968 64.8758 9.55713C64.7824 9.71458 64.6938 9.89414 64.6101 10.0959V14.76H62.7872V7.18815H63.8573C64.0444 7.18815 64.1747 7.22258 64.2485 7.29147C64.3223 7.35542 64.3716 7.4735 64.3961 7.64571L64.5068 8.50179Z" fill="black"/>
</g>
</g>
<defs>
<linearGradient id="paint0_linear_4321_2462" x1="14.5802" y1="2.34005" x2="2.70018" y2="17.82" gradientUnits="userSpaceOnUse">
<stop stop-color="#F9A43A"/>
<stop offset="0.25" stop-color="#FFC45E"/>
<stop offset="0.53125" stop-color="#93EEEF"/>
<stop offset="0.760417" stop-color="#81F4FE"/>
<stop offset="1" stop-color="#3BDBFB"/>
</linearGradient>
<linearGradient id="paint1_linear_4321_2462" x1="14.5799" y1="2.34013" x2="2.69991" y2="17.8201" gradientUnits="userSpaceOnUse">
<stop stop-color="#F9A43A"/>
<stop offset="0.25" stop-color="#FFC45E"/>
<stop offset="0.53125" stop-color="#93EEEF"/>
<stop offset="0.760417" stop-color="#81F4FE"/>
<stop offset="1" stop-color="#3BDBFB"/>
</linearGradient>
<linearGradient id="paint2_linear_4321_2462" x1="14.5798" y1="2.34" x2="2.69981" y2="17.82" gradientUnits="userSpaceOnUse">
<stop stop-color="#F9A43A"/>
<stop offset="0.25" stop-color="#FFC45E"/>
<stop offset="0.53125" stop-color="#93EEEF"/>
<stop offset="0.760417" stop-color="#81F4FE"/>
<stop offset="1" stop-color="#3BDBFB"/>
</linearGradient>
<linearGradient id="paint3_linear_4321_2462" x1="14.58" y1="2.34016" x2="2.69998" y2="17.8202" gradientUnits="userSpaceOnUse">
<stop stop-color="#F9A43A"/>
<stop offset="0.25" stop-color="#FFC45E"/>
<stop offset="0.53125" stop-color="#93EEEF"/>
<stop offset="0.760417" stop-color="#81F4FE"/>
<stop offset="1" stop-color="#3BDBFB"/>
</linearGradient>
<linearGradient id="paint4_linear_4321_2462" x1="14.58" y1="2.34019" x2="2.7" y2="17.8202" gradientUnits="userSpaceOnUse">
<stop stop-color="#F9A43A"/>
<stop offset="0.25" stop-color="#FFC45E"/>
<stop offset="0.53125" stop-color="#93EEEF"/>
<stop offset="0.760417" stop-color="#81F4FE"/>
<stop offset="1" stop-color="#3BDBFB"/>
</linearGradient>
<linearGradient id="paint5_linear_4321_2462" x1="14.5798" y1="2.34" x2="2.69984" y2="17.82" gradientUnits="userSpaceOnUse">
<stop stop-color="#F9A43A"/>
<stop offset="0.25" stop-color="#FFC45E"/>
<stop offset="0.53125" stop-color="#93EEEF"/>
<stop offset="0.760417" stop-color="#81F4FE"/>
<stop offset="1" stop-color="#3BDBFB"/>
</linearGradient>
<clipPath id="clip0_4321_2462">
<rect width="67.5" height="18" fill="white"/>
</clipPath>
</defs>
</svg>
