<svg width="136" height="34" viewBox="0 0 136 34" fill="none" xmlns="http://www.w3.org/2000/svg">
<path d="M39.5337 7.5874L39.5433 7.59142L39.5489 7.59705L39.538 7.61632C39.5372 7.61177 39.5366 7.60749 39.5361 7.60293L39.5348 7.59517L39.5337 7.5874Z" fill="#0A1928"/>
<path d="M39.5315 7.58737C37.3084 6.67339 35.0486 5.89218 32.6543 5.61043C29.7291 5.26674 26.8278 5.30411 24.0542 6.47397C22.3462 7.19324 20.8773 8.21908 20.4704 10.2467C20.2733 11.2352 20.3517 12.2349 20.5964 13.2067C20.7166 13.6849 20.6309 13.9147 20.1565 14.0867C15.4687 15.7889 12.1384 19.2256 9.17485 23.1327C8.90774 23.4852 8.93675 23.8362 8.96759 24.21C8.97177 24.2623 8.97621 24.3148 8.97961 24.3679C9.14401 26.9391 8.425 29.2038 6.54006 31.3585C6.87931 25.3919 4.18597 21.1372 0 17.6015C2.1369 17.269 4.28816 18.1602 7.35394 20.6082C7.89391 18.9509 8.5928 17.396 9.42315 15.8955C9.86485 15.0958 9.40302 13.8998 8.51256 13.3036C8.20232 13.0953 7.86098 12.9348 7.50344 12.7668C7.3414 12.6905 7.17622 12.6128 7.00894 12.5282C8.33745 11.7172 9.73155 11.2182 11.2516 11.3285C12.0344 11.3847 12.2077 11.0632 12.1695 10.385C12.0655 8.53873 11.9176 6.85137 8.70597 5.16768C10.2752 4.31747 11.8828 3.85956 13.5655 3.69517C15.4339 3.51195 17.2734 3.70823 19.0068 4.48369C19.4529 4.68285 19.7684 4.54564 20.1217 4.39196H20.122L20.1223 4.3917C20.1735 4.36948 20.2255 4.347 20.2788 4.32479C26.6984 1.67144 32.8224 1.91059 38.4882 6.34302C38.5532 6.39399 38.6212 6.44417 38.6899 6.49488C39.0592 6.76748 39.4495 7.0555 39.5315 7.58737Z" fill="#0A1928"/>
<path d="M39.7213 13.5743L39.7216 13.5653L39.7236 13.5634L39.7295 13.5696L39.7213 13.5743Z" fill="#0A1928"/>
<path d="M39.7199 13.5736C39.6886 14.8522 39.1423 15.9632 38.5887 17.0542C37.0396 20.1037 34.6492 22.3049 31.7567 23.9643C31.2351 24.2633 30.8501 24.6033 30.5597 25.1603C29.7333 26.7449 28.4612 27.8659 26.8319 28.6471C26.8523 28.2935 26.914 27.9517 26.9754 27.6121C27.0723 27.0761 27.1683 26.545 27.1 25.9786C26.9871 26.0048 26.875 26.0296 26.7637 26.0544C25.6432 26.3032 24.614 26.5319 23.8173 27.6419C22.6349 29.288 20.8229 30.0823 18.7571 30.5961L18.8107 30.468V30.4678C19.2158 29.4989 19.5744 28.6414 19.8156 27.7407C19.9871 27.0999 19.8922 26.8328 19.1259 26.799C16.5564 26.6887 14.1023 26.0236 11.7738 24.895C11.6295 24.8255 11.4928 24.739 11.3501 24.6488L11.3499 24.6486L11.3493 24.6483L11.3491 24.648C11.2809 24.6049 11.2111 24.561 11.1387 24.5174C13.0273 21.6398 15.3923 19.3711 18.3084 17.695C18.8538 17.3811 19.06 17.5325 19.3465 18.0314C20.4688 19.984 22.0145 21.479 24.0745 22.3724C24.1035 22.3849 24.1325 22.3988 24.1618 22.4129C24.3236 22.4913 24.499 22.576 24.7972 22.4732C22.861 20.8661 21.6493 18.8965 21.4761 16.331C21.7589 16.3143 21.8686 16.4909 21.9719 16.6572C22.0066 16.7128 22.0406 16.7675 22.0801 16.8132C23.2991 18.2219 24.6438 19.4665 26.3264 20.2681C28.9029 21.4978 31.3919 21.225 33.7933 19.7543C35.8664 18.4854 37.432 16.6804 38.8425 14.709C38.9246 14.594 38.9972 14.4709 39.0699 14.3478C39.2432 14.0543 39.4167 13.76 39.7199 13.5736Z" fill="#0A1928"/>
<path d="M24.536 13.2103C24.536 11.5227 25.5773 10.0708 26.784 10.0708C27.987 10.0708 29.0317 11.5305 29.0335 13.2124C29.0335 14.9 27.9925 16.3482 26.7822 16.3464C25.5626 16.3424 24.5344 14.9057 24.536 13.2103Z" fill="#0A1928"/>
<path fill-rule="evenodd" clip-rule="evenodd" d="M81.5575 17.3844H84.8624V25.0379H87.9169V14.5408H81.5575V13.7068C81.5575 12.8477 81.7611 12.3182 82.1071 11.998C82.456 11.6749 82.991 11.5262 83.7438 11.5262C84.6167 11.5262 85.2612 12.0181 85.5947 12.5746L85.71 12.7667L87.9386 11.0362L87.8398 10.8833C87.1234 9.77433 85.79 8.68262 83.2668 8.68262C81.8829 8.68262 80.6863 9.04486 79.8348 9.84176C78.981 10.6407 78.5029 11.8498 78.5029 13.4823V14.5408H76.8448V17.3844H78.5029V25.0379H81.5575V17.3844Z" fill="#0A1928"/>
<path fill-rule="evenodd" clip-rule="evenodd" d="M102.747 8.9292H89.2445V11.9074H94.4004V25.0375H97.5911V11.9074H102.747V8.9292Z" fill="#0A1928"/>
<path fill-rule="evenodd" clip-rule="evenodd" d="M130.345 25.2845C131.358 25.2845 132.27 24.9594 132.963 24.451V25.0375H135.972V15.5932L135.878 15.5352C134.754 14.8415 132.969 14.2935 131.185 14.2935C127.638 14.2935 125.127 16.7249 125.127 19.7889C125.127 21.4119 125.628 22.788 126.54 23.76C127.454 24.7333 128.764 25.2845 130.345 25.2845ZM130.822 22.4858C131.657 22.4858 132.464 22.0551 132.963 21.5497V17.5367C132.401 17.2824 131.808 17.1146 131.162 17.1146C130.212 17.1146 129.506 17.4439 129.036 17.9465C128.565 18.4517 128.317 19.1469 128.317 19.9012C128.317 20.7454 128.581 21.3868 129.014 21.8168C129.447 22.2475 130.069 22.4858 130.822 22.4858Z" fill="#0A1928"/>
<path fill-rule="evenodd" clip-rule="evenodd" d="M116.375 14.54H113.366V25.0374H116.375V18.0323C116.944 17.4916 117.605 17.1816 118.402 17.1816C119.096 17.1816 119.611 17.3635 119.954 17.707C120.296 18.0504 120.498 18.587 120.498 19.3622V25.0374H123.507V18.9134C123.507 17.2966 123.071 16.1471 122.28 15.4046C121.491 14.6644 120.384 14.3605 119.106 14.3605C118.027 14.3605 117.046 14.7585 116.375 15.2972V14.54Z" fill="#0A1928"/>
<path fill-rule="evenodd" clip-rule="evenodd" d="M107.835 24.1059V25.0371H110.844V14.54H107.835V21.3804C107.277 22.0735 106.51 22.4852 105.74 22.4852C105.073 22.4852 104.65 22.2635 104.385 21.9133C104.112 21.5529 103.985 21.0252 103.985 20.3721V14.54H100.976V20.9107C100.976 22.3942 101.384 23.4922 102.075 24.2206C102.767 24.9496 103.721 25.2841 104.763 25.2841C106.153 25.2841 107.164 24.7402 107.835 24.1059Z" fill="#0A1928"/>
<path fill-rule="evenodd" clip-rule="evenodd" d="M75.5006 23.9814L75.6125 23.8881L74.7069 21.6908L74.5002 21.8557C73.945 22.2987 72.944 22.7326 71.7394 22.7326C70.9663 22.7326 70.3006 22.5337 69.8053 22.1657C69.3665 21.84 69.0513 21.3751 68.9128 20.7731H76.2029L76.2453 20.6312C76.3663 20.2243 76.4125 19.8218 76.4125 19.183C76.4125 16.2322 74.1068 14.2935 71.3761 14.2935C69.6469 14.2935 68.2424 14.9009 67.2704 15.8995C66.2994 16.8969 65.772 18.2724 65.772 19.7889C65.772 21.4299 66.3402 22.8081 67.3462 23.7757C68.3511 24.7427 69.7773 25.2845 71.4671 25.2845C72.9302 25.2845 74.4335 24.8721 75.5006 23.9814ZM73.5979 18.6477C73.6 18.6822 73.6013 18.7167 73.6019 18.7518C73.6024 18.7831 73.6024 18.8145 73.6019 18.8464C73.6032 18.7792 73.6019 18.7131 73.5979 18.6477ZM73.3988 18.6477H68.8338C68.9768 18.1261 69.2201 17.7029 69.5675 17.3995C69.9647 17.0524 70.5173 16.8454 71.2624 16.8454C71.9686 16.8454 72.506 17.0717 72.8633 17.4248C73.1792 17.7372 73.3669 18.1606 73.3988 18.6477Z" fill="#0A1928"/>
<path fill-rule="evenodd" clip-rule="evenodd" d="M50.6328 8.92887V25.0374H51.1493C51.9506 25.0374 52.8492 25.051 53.6552 25.0633H53.6563C54.3078 25.0732 54.8998 25.0821 55.3284 25.0821C58.4008 25.0821 60.7308 24.1603 62.294 22.6559C63.8572 21.1517 64.6348 19.083 64.6348 16.8259C64.6348 14.7097 63.9801 12.7126 62.4976 11.2451C61.0146 9.77646 58.7275 8.86169 55.5101 8.86169C54.9009 8.86169 53.9864 8.88025 53.1189 8.89776H53.1168C52.3272 8.91371 51.5779 8.92887 51.1265 8.92887H50.6328ZM53.8235 11.8943V22.0696C54.5052 22.1039 55.0655 22.1039 55.4191 22.1039C57.3023 22.1039 58.7656 21.5759 59.7564 20.6638C60.7452 19.7534 61.2849 18.4409 61.2849 16.8259C61.2849 15.293 60.7475 14.0544 59.7658 13.1964C58.781 12.3357 57.3276 11.8399 55.4646 11.8399C54.8758 11.8399 54.3787 11.8579 53.8235 11.8943Z" fill="#0A1928"/>
</svg>
