<svg width="1080" height="152" viewBox="0 0 1080 152" fill="none" xmlns="http://www.w3.org/2000/svg">
<g clip-path="url(#clip0_6739_17403)">
<mask id="mask0_6739_17403" style="mask-type:luminance" maskUnits="userSpaceOnUse" x="0" y="0" width="1080" height="152">
<path d="M1080 0H0V152H1080V0Z" fill="white"/>
</mask>
<g mask="url(#mask0_6739_17403)">
<path fill-rule="evenodd" clip-rule="evenodd" d="M45.8031 0C20.5067 0 0 20.4182 0 45.5978H136.793C161.976 45.5978 182.391 25.183 182.391 1.3408e-05L45.8031 0Z" fill="#193DF9"/>
<path fill-rule="evenodd" clip-rule="evenodd" d="M45.8032 106.395C20.5067 106.395 0 126.813 0 151.993H45.5977C70.7807 151.993 91.1955 131.578 91.1955 106.395H45.8032Z" fill="#193DF9"/>
<path fill-rule="evenodd" clip-rule="evenodd" d="M138.122 53.1992H0C0 77.9625 19.8163 98.7969 44.2653 98.7969H182.391C182.391 74.0337 162.571 53.1992 138.122 53.1992Z" fill="#193DF9"/>
<path d="M287.534 50.7954C286.984 45.6478 284.665 41.6398 280.579 38.7713C276.531 35.9028 271.266 34.4686 264.782 34.4686C260.224 34.4686 256.314 35.1562 253.053 36.5315C249.791 37.9068 247.296 39.7733 245.567 42.131C243.838 44.4886 242.954 47.1803 242.915 50.206C242.915 52.7208 243.485 54.9016 244.624 56.7485C245.803 58.5953 247.394 60.1671 249.398 61.4638C251.403 62.7212 253.623 63.7822 256.059 64.6466C258.495 65.5111 260.951 66.2381 263.427 66.8275L274.743 69.6567C279.302 70.7176 283.683 72.1519 287.887 73.9594C292.131 75.767 295.923 78.046 299.263 80.7966C302.642 83.5472 305.314 86.8676 307.279 90.7578C309.244 94.6479 310.226 99.2061 310.226 104.432C310.226 111.505 308.419 117.733 304.804 123.116C301.188 128.46 295.962 132.645 289.125 135.671C282.327 138.657 274.095 140.15 264.429 140.15C255.037 140.15 246.884 138.697 239.968 135.789C233.091 132.881 227.708 128.637 223.818 123.057C219.967 117.478 217.884 110.68 217.57 102.664H239.084C239.398 106.868 240.695 110.365 242.974 113.155C245.253 115.945 248.22 118.028 251.874 119.403C255.568 120.778 259.694 121.466 264.252 121.466C269.006 121.466 273.172 120.759 276.747 119.344C280.362 117.89 283.192 115.886 285.235 113.332C287.278 110.739 288.32 107.713 288.359 104.255C288.32 101.111 287.396 98.5184 285.589 96.4751C283.781 94.3925 281.247 92.6635 277.985 91.2882C274.763 89.8736 270.991 88.6162 266.668 87.516L252.935 83.9795C242.994 81.4253 235.135 77.5549 229.358 72.368C223.621 67.1418 220.753 60.2064 220.753 51.5616C220.753 44.4493 222.678 38.2212 226.529 32.8771C230.419 27.5331 235.704 23.3875 242.384 20.4405C249.064 17.4541 256.629 15.9609 265.077 15.9609C273.643 15.9609 281.148 17.4541 287.593 20.4405C294.076 23.3875 299.165 27.4938 302.859 32.7592C306.552 37.9854 308.458 43.9974 308.576 50.7954H287.534Z" fill="#193DF9"/>
<path d="M369.007 47.7921V64.2957H316.961V47.7921H369.007ZM329.811 26.1016H351.148V111.095C351.148 113.964 351.58 116.164 352.444 117.697C353.348 119.19 354.527 120.212 355.981 120.762C357.435 121.312 359.046 121.587 360.814 121.587C362.15 121.587 363.368 121.489 364.468 121.292C365.608 121.096 366.472 120.919 367.062 120.762L370.657 137.442C369.518 137.835 367.887 138.267 365.765 138.739C363.682 139.21 361.128 139.485 358.103 139.564C352.759 139.721 347.945 138.916 343.662 137.147C339.379 135.34 335.98 132.55 333.465 128.778C330.99 125.005 329.771 120.29 329.811 114.632V26.1016Z" fill="#193DF9"/>
<path d="M381.875 138.327V47.7929H402.564V62.8819H403.507C405.157 57.6557 407.986 53.6281 411.994 50.7989C416.042 47.9304 420.659 46.4961 425.845 46.4961C427.024 46.4961 428.341 46.5551 429.795 46.673C431.288 46.7516 432.525 46.8891 433.508 47.0856V66.7131C432.604 66.3987 431.17 66.1237 429.205 65.8879C427.28 65.6129 425.413 65.4753 423.606 65.4753C419.716 65.4753 416.218 66.3202 413.114 68.0098C410.049 69.6602 407.633 71.9589 405.864 74.906C404.096 77.8531 403.212 81.252 403.212 85.1029V138.327H381.875Z" fill="#193DF9"/>
<path d="M479.056 140.094C469.979 140.094 462.14 138.208 455.538 134.436C448.976 130.625 443.927 125.241 440.39 118.286C436.854 111.292 435.086 103.06 435.086 93.5898C435.086 84.277 436.854 76.1038 440.39 69.0701C443.966 61.9971 448.957 56.4959 455.362 52.5664C461.767 48.5977 469.291 46.6133 477.936 46.6133C483.516 46.6133 488.781 47.5171 493.733 49.3246C498.723 51.0929 503.124 53.8435 506.936 57.5765C510.786 61.3094 513.812 66.064 516.012 71.8403C518.213 77.5773 519.313 84.4145 519.313 92.352V98.8945H445.106V84.5128H498.861C498.821 80.4261 497.937 76.7914 496.208 73.6086C494.479 70.3864 492.063 67.8519 488.958 66.0051C485.893 64.1583 482.318 63.2348 478.231 63.2348C473.869 63.2348 470.038 64.2958 466.737 66.4177C463.437 68.5003 460.863 71.2509 459.016 74.6695C457.208 78.0488 456.285 81.7621 456.246 85.8095V98.364C456.246 103.629 457.208 108.148 459.134 111.92C461.059 115.653 463.751 118.522 467.209 120.526C470.667 122.491 474.714 123.473 479.351 123.473C482.455 123.473 485.265 123.041 487.779 122.176C490.294 121.272 492.475 119.956 494.322 118.227C496.169 116.498 497.564 114.357 498.507 111.803L518.429 114.042C517.172 119.308 514.775 123.905 511.238 127.835C507.741 131.725 503.261 134.75 497.8 136.912C492.338 139.034 486.09 140.094 479.056 140.094Z" fill="#193DF9"/>
<path d="M558.437 140.153C552.7 140.153 547.533 139.132 542.935 137.088C538.377 135.006 534.762 131.941 532.09 127.894C529.457 123.846 528.141 118.856 528.141 112.922C528.141 107.814 529.084 103.59 530.97 100.25C532.856 96.9101 535.43 94.2381 538.691 92.2341C541.953 90.2301 545.627 88.7173 549.714 87.6956C553.839 86.6347 558.103 85.8684 562.504 85.3969C567.809 84.8468 572.111 84.3556 575.412 83.9233C578.713 83.4518 581.11 82.7445 582.603 81.8014C584.135 80.8191 584.902 79.3063 584.902 77.2629V76.9093C584.902 72.469 583.585 69.0308 580.953 66.5945C578.32 64.1583 574.528 62.9401 569.577 62.9401C564.351 62.9401 560.205 64.0797 557.14 66.3588C554.114 68.6378 552.071 71.3295 551.01 74.4338L531.088 71.6046C532.66 66.1033 535.253 61.5059 538.868 57.8122C542.483 54.0793 546.904 51.2894 552.13 49.4425C557.356 47.5564 563.133 46.6133 569.459 46.6133C573.821 46.6133 578.163 47.1242 582.485 48.1458C586.807 49.1675 590.757 50.8571 594.332 53.2148C597.908 55.5331 600.777 58.6963 602.938 62.7044C605.138 66.7124 606.239 71.7224 606.239 77.7345V138.326H585.727V125.89H585.02C583.723 128.404 581.896 130.762 579.538 132.963C577.22 135.124 574.292 136.872 570.756 138.208C567.258 139.505 563.152 140.153 558.437 140.153ZM563.977 124.475C568.26 124.475 571.974 123.63 575.117 121.94C578.261 120.212 580.678 117.932 582.367 115.103C584.096 112.274 584.961 109.189 584.961 105.849V95.1812C584.293 95.7313 583.153 96.2421 581.542 96.7137C579.97 97.1852 578.202 97.5978 576.237 97.9514C574.273 98.3051 572.327 98.6194 570.402 98.8945C568.477 99.1696 566.807 99.4053 565.392 99.6018C562.209 100.034 559.36 100.741 556.845 101.724C554.331 102.706 552.346 104.081 550.892 105.849C549.438 107.578 548.712 109.818 548.712 112.569C548.712 116.498 550.146 119.465 553.014 121.469C555.883 123.473 559.537 124.475 563.977 124.475Z" fill="#193DF9"/>
<path d="M622.711 138.326V47.7922H643.105V63.1759H644.166C646.052 57.989 649.176 53.9417 653.537 51.0339C657.899 48.0869 663.105 46.6133 669.157 46.6133C675.287 46.6133 680.454 48.1065 684.658 51.0929C688.902 54.04 691.889 58.0676 693.618 63.1759H694.561C696.565 58.1462 699.944 54.1382 704.699 51.1518C709.492 48.1262 715.171 46.6133 721.733 46.6133C730.063 46.6133 736.861 49.246 742.127 54.5115C747.392 59.7769 750.025 67.459 750.025 77.5577V138.326H728.629V80.8584C728.629 75.2393 727.136 71.133 724.149 68.5396C721.163 65.9069 717.509 64.5905 713.186 64.5905C708.039 64.5905 704.011 66.2016 701.103 69.4237C698.235 72.6066 696.8 76.7521 696.8 81.8604V138.326H675.876V79.9743C675.876 75.2982 674.462 71.5653 671.632 68.7754C668.842 65.9855 665.188 64.5905 660.669 64.5905C657.604 64.5905 654.814 65.3764 652.3 66.9482C649.785 68.4807 647.781 70.6615 646.287 73.4907C644.794 76.2806 644.048 79.542 644.048 83.275V138.326H622.711Z" fill="#193DF9"/>
<path d="M812.55 47.7896V64.2932H759.031V47.7896H812.55ZM772.411 138.324V39.243C772.411 33.1524 773.668 28.0834 776.183 24.0361C778.737 19.9888 782.156 16.9631 786.439 14.9591C790.722 12.9551 795.477 11.9531 800.703 11.9531C804.397 11.9531 807.678 12.2478 810.546 12.8372C813.415 13.4266 815.536 13.9571 816.912 14.4286L812.668 30.9323C811.764 30.6572 810.625 30.3821 809.249 30.1071C807.874 29.7927 806.342 29.6355 804.652 29.6355C800.683 29.6355 797.874 30.5983 796.223 32.5237C794.612 34.4098 793.807 37.1211 793.807 40.6576V138.324H772.411Z" fill="#193DF9"/>
<path d="M845.617 17.6133V138.325H824.281V17.6133H845.617Z" fill="#193DF9"/>
<path d="M902.068 140.094C893.227 140.094 885.564 138.149 879.081 134.259C872.597 130.369 867.567 124.927 863.992 117.932C860.455 110.938 858.688 102.765 858.688 93.4129C858.688 84.0609 860.455 75.868 863.992 68.8343C867.567 61.8006 872.597 56.3387 879.081 52.4485C885.564 48.5584 893.227 46.6133 902.068 46.6133C910.909 46.6133 918.573 48.5584 925.056 52.4485C931.54 56.3387 936.55 61.8006 940.086 68.8343C943.662 75.868 945.45 84.0609 945.45 93.4129C945.45 102.765 943.662 110.938 940.086 117.932C936.55 124.927 931.54 130.369 925.056 134.259C918.573 138.149 910.909 140.094 902.068 140.094ZM902.187 123.001C906.981 123.001 910.989 121.685 914.211 119.052C917.433 116.38 919.829 112.805 921.401 108.325C923.012 103.845 923.818 98.8552 923.818 93.354C923.818 87.8135 923.012 82.8035 921.401 78.3239C919.829 73.805 917.433 70.2096 914.211 67.5376C910.989 64.8656 906.981 63.5296 902.187 63.5296C897.275 63.5296 893.188 64.8656 889.927 67.5376C886.705 70.2096 884.288 73.805 882.677 78.3239C881.105 82.8035 880.32 87.8135 880.32 93.354C880.32 98.8552 881.105 103.845 882.677 108.325C884.288 112.805 886.705 116.38 889.927 119.052C893.188 121.685 897.275 123.001 902.187 123.001Z" fill="#193DF9"/>
<path d="M974.674 138.323L949.094 47.7891H970.843L986.757 111.446H987.583L1003.85 47.7891H1025.36L1041.63 111.092H1042.51L1058.19 47.7891H1080L1054.36 138.323H1032.14L1015.16 77.142H1013.93L996.954 138.323H974.674Z" fill="#193DF9"/>
</g>
</g>
<defs>
<clipPath id="clip0_6739_17403">
<rect width="1080" height="152" fill="white"/>
</clipPath>
</defs>
</svg>
