<svg width="800" height="144" viewBox="0 0 800 144" fill="none" xmlns="http://www.w3.org/2000/svg">
<g clip-path="url(#clip0_6744_15424)">
<path fill-rule="evenodd" clip-rule="evenodd" d="M86.6897 0L75.2052 6.51669V61.8798L81.4769 65.4434V23.2807L103.006 35.5014L103.027 35.4916L107.207 37.8608L110.697 35.893V32.5652L81.4769 16.0019V10.2375L86.6897 7.28022L116.951 24.4597V39.75L102.424 47.9495L101.933 47.7067C101.049 47.2716 100.133 47.0498 99.2123 47.0498C95.7556 47.0498 92.942 49.899 92.942 53.3995C92.942 56.9 95.7556 59.7506 99.2123 59.7506C102.42 59.7506 105.086 57.2986 105.415 54.0479L105.47 53.5006L120.131 45.2252L133.728 52.9448V87.0988L120.116 94.8183L64.7934 63.4026V6.5209L53.3089 0L16.7791 20.7389V39.6644L0 49.1776V90.7761L16.7791 100.302V119.261L53.3089 140L64.7934 133.48V77.9981L58.5217 74.4387V116.721L32.7931 102.139L29.3017 104.107V107.436L58.5217 124.001V129.76L53.3089 132.72L23.0494 115.54V100.247L37.5763 92.0519L38.0641 92.2933C38.9526 92.7284 39.866 92.9502 40.7849 92.9502C44.243 92.9502 47.0566 90.1024 47.0566 86.6005C47.0566 83.0972 44.243 80.2508 40.7849 80.2508C37.5804 80.2508 34.9165 82.7014 34.5839 85.9535L34.5312 86.4994L19.8671 94.7762L6.27033 87.0553V52.9012L19.8838 45.1831L75.2052 76.5946V133.48L86.6897 140L123.221 119.261V100.336L140 90.8238V49.2239L123.221 39.7008V20.7389L86.6897 0ZM23.0494 24.4597L53.3089 7.28022L58.5217 10.2389V15.9991L23.0494 36.1078V24.4597ZM26.3024 41.5465L58.5217 23.2779V59.8404L26.3024 41.5465ZM81.4769 80.1568L113.699 98.4549L81.4769 116.724V80.1568ZM81.4769 129.76V124.002L116.951 103.891V115.54L86.6897 132.72L81.4769 129.76Z" fill="url(#paint0_linear_6744_15424)"/>
<path fill-rule="evenodd" clip-rule="evenodd" d="M562.626 101.636C567.029 101.636 570.621 100.277 573.398 97.5551C576.175 94.8342 577.567 91.4856 577.567 87.5078C577.567 83.5313 576.175 80.1841 573.398 77.4604C570.621 74.741 567.029 73.3799 562.626 73.3799H540.61V101.636H562.626ZM540.61 59.2505H561.053C564.617 59.2505 567.603 58.0738 570.017 55.7189C572.427 53.364 573.635 50.6178 573.635 47.4761C573.635 44.3372 572.427 41.591 570.017 39.2361C567.603 36.8798 564.617 35.7031 561.053 35.7031H540.61V59.2505ZM580.711 65.5312C583.644 66.8909 586.268 68.6687 588.574 70.8673C590.565 72.7507 592.372 75.2632 594 78.4021C595.624 81.5424 596.438 85.364 596.438 89.8627C596.438 93.6308 595.651 97.2159 594.079 100.615C592.505 104.017 590.276 107.001 587.395 109.563C584.511 112.129 581.103 114.196 577.172 115.765C573.241 117.334 568.917 118.12 564.198 118.12H521.738V19.2203H562.626C566.923 19.2203 570.907 19.9536 574.579 21.4189C578.246 22.8856 581.419 24.8717 584.092 27.3828C586.766 29.8954 588.835 32.8006 590.304 36.0944C591.772 39.3923 592.505 42.924 592.505 46.6921C592.505 50.0435 591.876 52.9206 590.618 55.3262C589.361 57.736 587.997 59.67 586.529 61.1353C584.747 62.9159 582.808 64.3798 580.711 65.5312ZM302.661 74.537L289.368 117.463H273.73L250.275 45.659H268.259L282.332 91.7053L297.187 45.659H308.133L322.988 91.7053L337.062 45.659H355.045L331.588 117.463H315.952L302.661 74.537ZM362.081 117.463V45.6595H380.063V117.463H362.081ZM675.685 81.5611C675.685 86.6594 674.719 91.4227 672.791 95.8425C670.861 100.267 668.256 104.143 664.972 107.472C661.688 110.804 657.883 113.432 653.557 115.354C649.23 117.281 644.618 118.243 639.72 118.243C634.817 118.243 630.204 117.281 625.878 115.354C621.552 113.432 617.748 110.804 614.465 107.472C611.181 104.143 608.574 100.267 606.646 95.8425C604.716 91.4227 603.753 86.6594 603.753 81.5611C603.753 76.4615 604.716 71.701 606.646 67.2784C608.574 62.8572 611.181 58.9807 614.465 55.6489C617.748 52.32 621.552 49.6921 625.878 47.7651C630.204 45.8409 634.817 44.8767 639.72 44.8767C644.618 44.8767 649.23 45.8409 653.557 47.7651C657.883 49.6921 661.688 52.32 664.972 55.6489C668.256 58.9807 670.861 62.8572 672.791 67.2784C674.719 71.701 675.685 76.4615 675.685 81.5611ZM621.736 81.5611C621.736 87.4913 623.456 92.2278 626.895 95.7651C630.337 99.3037 634.609 101.072 639.72 101.072C644.825 101.072 649.101 99.3037 652.541 95.7651C655.98 92.2278 657.702 87.4913 657.702 81.5611C657.702 75.6282 655.98 70.8959 652.541 67.3558C649.101 63.8186 644.825 62.0492 639.72 62.0492C634.609 62.0492 630.337 63.8186 626.895 67.3558C623.456 70.8959 621.736 75.6282 621.736 81.5611ZM718.658 44.8774C719.49 44.8774 720.221 44.9323 720.847 45.0337C721.471 45.1392 722.043 45.2434 722.566 45.3447C723.087 45.4503 723.608 45.5545 724.131 45.66V64.3893C723.608 64.288 723.035 64.1824 722.411 64.0783C721.887 63.9741 721.237 63.8713 720.455 63.7658C719.675 63.663 718.813 63.6109 717.876 63.6109C713.498 63.6109 709.926 65.041 707.165 67.9027C704.401 70.7657 703.019 74.5366 703.019 79.2168V117.462H685.037V45.66H698.329L701.457 53.4637C702.708 51.9013 704.218 50.4965 705.992 49.248C707.45 48.105 709.248 47.0901 711.387 46.2034C713.521 45.3208 715.945 44.8774 718.658 44.8774ZM241.677 37.1508C242.774 39.8181 243.465 42.6601 243.792 45.6596H225.622C225.055 43.0964 223.901 40.9555 222.13 39.2579C219.523 36.7623 215.875 35.5123 211.184 35.5123C206.493 35.5123 202.842 36.6581 200.238 38.9454C197.632 41.2356 196.329 43.734 196.329 46.4394C196.329 49.3531 197.58 51.5898 200.081 53.1508C202.583 54.7132 205.712 56.1165 209.464 57.3651C213.216 58.615 217.307 59.917 221.738 61.2669C226.169 62.6224 230.261 64.4438 234.013 66.7311C237.768 69.0213 240.894 72.0138 243.397 75.7073C245.898 79.4022 247.149 84.2147 247.149 90.1463C247.149 93.6835 246.289 97.1194 244.57 100.447C242.849 103.78 240.426 106.768 237.298 109.425C234.171 112.075 230.391 114.21 225.96 115.825C221.528 117.438 216.604 118.242 211.184 118.242C205.657 118.242 200.733 117.463 196.408 115.901C192.08 114.34 188.406 112.131 185.383 109.267C182.358 106.407 180.038 103.023 178.425 99.1196C176.807 95.2192 176 90.9261 176 86.2431H194.764C194.764 90.6136 196.223 94.1804 199.143 96.9365C202.059 99.6939 206.075 101.072 211.184 101.072C216.709 101.072 220.825 99.9022 223.538 97.56C226.248 95.2192 227.604 92.4871 227.604 89.3651C227.604 86.3472 226.352 84.0064 223.849 82.3398C221.348 80.6775 218.22 79.1953 214.467 77.8919C210.714 76.5927 206.622 75.316 202.193 74.0689C197.759 72.8189 193.67 71.1017 189.917 68.9171C186.165 66.7311 183.036 63.8977 180.535 60.4083C178.032 56.9231 176.783 52.3189 176.783 46.5942C176.783 42.8487 177.589 39.2579 179.206 35.8248C180.821 32.3889 183.115 29.3992 186.086 26.8487C189.059 24.2995 192.653 22.2431 196.877 20.682C201.098 19.1224 205.867 18.3412 211.184 18.3412C216.084 18.3412 220.54 19.1224 224.553 20.682C228.566 22.2431 232.033 24.4304 234.952 27.2386C237.871 30.0481 240.113 33.3545 241.677 37.1508ZM507.896 86.0093C509.718 88.6626 510.631 92.1252 510.631 96.3888C510.631 99.3039 510.007 102.087 508.755 104.74C507.504 107.393 505.73 109.712 503.439 111.686C501.145 113.665 498.355 115.252 495.073 116.448C491.789 117.643 488.114 118.242 484.049 118.242C474.666 118.242 467.552 116.112 462.703 111.844C459.968 109.434 457.91 106.561 456.485 103.256L471.54 94.8306C471.956 97.2249 473.102 99.2518 474.979 100.917C476.855 102.581 479.358 103.413 482.485 103.413C485.611 103.413 488.087 102.609 489.912 100.994C491.735 99.3813 492.649 97.588 492.649 95.609C492.649 93.9452 491.735 92.6432 489.912 91.7057C488.087 90.7697 485.82 89.9111 483.111 89.1327C480.398 88.3501 477.454 87.5463 474.276 86.7116C471.093 85.8798 468.15 84.658 465.442 83.0435C462.729 81.4304 460.46 79.3514 458.638 76.7994C456.812 74.2503 455.902 70.896 455.902 66.731C455.902 63.8173 456.5 61.0345 457.699 58.3798C458.897 55.7265 460.643 53.4124 462.939 51.4348C465.23 49.4571 467.943 47.8694 471.071 46.6743C474.198 45.4779 477.739 44.8769 481.704 44.8769C490.355 44.8769 497 46.9615 501.639 51.1223C504.063 53.297 505.954 55.7631 507.339 58.5065L492.649 66.7296C492.23 65.17 491.109 63.609 489.289 62.0494C487.463 60.487 485.194 59.7057 482.485 59.7057C479.773 59.7057 477.663 60.3842 476.152 61.7369C474.639 63.0896 473.885 64.7547 473.885 66.731C473.885 68.3962 474.796 69.6968 476.621 70.6342C478.442 71.5689 480.711 72.4289 483.424 73.2101C486.132 73.9899 489.076 74.8246 492.258 75.7072C495.437 76.5925 498.382 77.8678 501.094 79.5316C503.804 81.1967 506.07 83.3546 507.896 86.0093ZM444.565 86.0093C446.387 88.6626 447.301 92.1252 447.301 96.3888C447.301 99.3039 446.676 102.087 445.426 104.74C444.175 107.393 442.401 109.712 440.108 111.686C437.814 113.665 435.026 115.252 431.742 116.448C428.458 117.643 424.784 118.242 420.718 118.242C411.337 118.242 404.222 116.112 399.373 111.844C396.637 109.434 394.58 106.561 393.154 103.256L408.21 94.8306C408.626 97.2249 409.772 99.2518 411.649 100.917C413.526 102.581 416.027 103.413 419.155 103.413C422.281 103.413 424.757 102.609 426.581 100.994C428.405 99.3813 429.318 97.588 429.318 95.609C429.318 93.9452 428.405 92.6432 426.581 91.7057C424.757 90.7697 422.489 89.9111 419.781 89.1327C417.068 88.3501 414.123 87.5463 410.945 86.7116C407.764 85.8798 404.82 84.658 402.111 83.0435C399.398 81.4304 397.129 79.3514 395.307 76.7994C393.481 74.2503 392.572 70.896 392.572 66.731C392.572 63.8173 393.17 61.0345 394.368 58.3798C395.567 55.7265 397.314 53.4124 399.608 51.4348C401.9 49.4571 404.613 47.8694 407.74 46.6743C410.868 45.4779 414.408 44.8769 418.373 44.8769C427.024 44.8769 433.67 46.9615 438.31 51.1223C440.733 53.297 442.624 55.7631 444.008 58.5065L429.318 66.7296C428.9 65.17 427.779 63.609 425.958 62.0494C424.132 60.487 421.863 59.7057 419.155 59.7057C416.443 59.7057 414.332 60.3842 412.822 61.7369C411.309 63.0896 410.555 64.7547 410.555 66.731C410.555 68.3962 411.465 69.6968 413.29 70.6342C415.112 71.5689 417.381 72.4289 420.094 73.2101C422.801 73.9899 425.747 74.8246 428.928 75.7072C432.106 76.5925 435.052 77.8678 437.763 79.5316C440.473 81.1967 442.739 83.3546 444.565 86.0093ZM786.709 45.6592H800V112.78C800 122.146 797.001 129.689 791.007 135.414C785.012 141.136 776.544 144 765.597 144C758.925 144 753.53 142.801 749.412 140.409C745.294 138.014 742.038 135.308 739.641 132.29C738.723 131.13 737.915 129.897 737.153 128.631L751.525 120.586C752.252 121.936 753.244 123.133 754.494 124.176C755.641 125.005 757.099 125.787 758.873 126.516C760.645 127.243 762.886 127.609 765.597 127.609C770.704 127.609 774.72 126.229 777.638 123.473C780.555 120.716 782.016 117.15 782.016 112.78V107.316C780.555 108.775 778.89 110.076 777.013 111.217C775.344 112.26 773.362 113.17 771.071 113.951C768.777 114.732 766.168 115.122 763.252 115.122C758.768 115.122 754.518 114.238 750.508 112.467C746.494 110.699 743.001 108.253 740.03 105.131C737.06 102.009 734.714 98.3155 732.994 94.0477C731.273 89.7813 730.415 85.1011 730.415 80C730.415 74.9031 731.273 70.2201 732.994 65.9509C734.714 61.6845 737.06 57.9882 740.03 54.8676C743.001 51.747 746.494 49.302 750.508 47.5313C754.518 45.7634 758.768 44.878 763.252 44.878C766.38 44.878 769.194 45.2946 771.696 46.1265C774.197 46.9612 776.333 47.8438 778.107 48.7798C780.086 49.9284 781.912 51.2248 783.58 52.6816L786.709 45.6592ZM371.071 36.2917C368.36 36.2917 365.989 35.2769 363.956 33.2485C361.924 31.2188 360.907 28.8541 360.907 26.1473C360.907 23.4419 361.924 21.0715 363.956 19.0432C365.989 17.0149 368.36 16 371.071 16C373.781 16 376.153 17.0149 378.186 19.0432C380.22 21.0715 381.236 23.4419 381.236 26.1473C381.236 28.8541 380.22 31.2188 378.186 33.2485C376.153 35.2769 373.781 36.2917 371.071 36.2917ZM781.391 87.0238C782.329 84.8393 782.799 82.4956 782.799 80C782.799 77.5001 782.329 75.1593 781.391 72.9762C780.452 70.7902 779.202 68.8928 777.638 67.2769C776.074 65.6652 774.249 64.3899 772.164 63.4539C770.08 62.5164 767.89 62.0491 765.597 62.0491C763.199 62.0491 760.958 62.5164 758.873 63.4539C756.787 64.3899 754.965 65.6652 753.4 67.2769C751.836 68.8928 750.611 70.7902 749.725 72.9762C748.839 75.1593 748.397 77.5001 748.397 80C748.397 82.4956 748.839 84.8393 749.725 87.0238C750.611 89.2098 751.836 91.1072 753.4 92.7217C754.965 94.3348 756.787 95.6101 758.873 96.5461C760.958 97.4836 763.199 97.9509 765.597 97.9509C767.89 97.9509 770.08 97.4836 772.164 96.5461C774.249 95.6101 776.074 94.3348 777.638 92.7217C779.202 91.1072 780.452 89.2098 781.391 87.0238Z" fill="#191E29"/>
</g>
<defs>
<linearGradient id="paint0_linear_6744_15424" x1="7000" y1="77.7" x2="7000" y2="13931.4" gradientUnits="userSpaceOnUse">
<stop offset="0.03967" stop-color="#01C38C"/>
<stop offset="1" stop-color="#23A185"/>
</linearGradient>
<clipPath id="clip0_6744_15424">
<rect width="800" height="144" fill="white"/>
</clipPath>
</defs>
</svg>
