<svg width="1276" height="145" viewBox="0 0 1276 145" fill="none" xmlns="http://www.w3.org/2000/svg">
<g clip-path="url(#clip0_6771_15417)">
<path d="M171.063 36.9164L185.203 53.531C186.822 55.3971 188.258 56.9321 188.839 57.805C193.067 62.0079 195.438 67.688 195.435 73.6071C195.038 80.5896 190.487 85.3456 186.273 90.4322L176.377 102.05L171.216 108.07C171.03 108.278 170.911 108.534 170.872 108.808C170.833 109.082 170.877 109.36 170.997 109.611C171.117 109.86 171.309 110.07 171.549 110.213C171.789 110.357 172.066 110.428 172.346 110.418H223.931C231.81 110.418 241.736 117.04 241.156 127.093C241.14 131.662 239.291 136.04 236.012 139.27C232.734 142.502 228.292 144.324 223.655 144.34H142.874C137.559 144.34 123.265 144.912 119.265 132.721C118.414 130.174 118.298 127.444 118.929 124.836C120.092 120.978 121.931 117.351 124.365 114.12C128.427 108.1 132.825 102.081 137.162 96.2416C142.751 88.5965 148.493 81.192 154.143 73.3961C154.344 73.1423 154.453 72.8299 154.453 72.508C154.453 72.1867 154.344 71.8742 154.143 71.6204L133.619 47.5413C133.486 47.3667 133.312 47.2251 133.114 47.1277C132.915 47.0302 132.696 46.9794 132.474 46.9794C132.252 46.9794 132.033 47.0302 131.834 47.1277C131.635 47.2251 131.462 47.3667 131.329 47.5413C125.831 54.8553 101.765 87.2414 96.6331 93.8034C91.5023 100.365 78.8583 100.726 71.8642 93.8034L39.7651 62.049C39.56 61.8462 39.2985 61.708 39.0136 61.652C38.7288 61.5959 38.4335 61.6246 38.1652 61.7342C37.8968 61.8439 37.6676 62.0296 37.5066 62.2678C37.3455 62.506 37.2599 62.7861 37.2607 63.0723V124.143C37.3362 128.477 36.034 132.725 33.5365 136.293C31.0391 139.86 27.4715 142.569 23.3337 144.039C20.6898 144.945 17.8642 145.216 15.0925 144.828C12.3209 144.44 9.68346 143.405 7.40015 141.809C5.11691 140.212 3.25397 138.101 1.96669 135.651C0.679421 133.201 0.00511358 130.483 0 127.725V17.924C0.184015 13.9671 1.62874 10.1679 4.1289 7.06639C6.62905 3.96489 10.0574 1.71877 13.927 0.647228C17.2461 -0.224232 20.7401 -0.215513 24.0547 0.6725C27.3693 1.56051 30.3869 3.29626 32.8016 5.70384L82.157 54.4039C82.3042 54.5518 82.4832 54.6659 82.6805 54.7381C82.8784 54.8102 83.0893 54.8387 83.2989 54.8215C83.5091 54.8043 83.7121 54.7417 83.8948 54.6383C84.0775 54.5349 84.2348 54.3933 84.3559 54.2233L119.418 6.39612C121.037 4.45452 123.069 2.88546 125.369 1.79883C127.67 0.712186 130.182 0.134237 132.734 0.105453H223.931C226.426 0.109508 228.893 0.638694 231.164 1.65763C233.436 2.67656 235.46 4.16175 237.103 6.01387C238.745 7.86596 239.966 10.0423 240.687 12.3974C241.407 14.7524 241.608 17.2317 241.278 19.6698C240.635 23.8989 238.458 27.7548 235.15 30.5223C231.842 33.2898 227.628 34.7809 223.289 34.7192H172.224C171.967 34.7253 171.717 34.7992 171.499 34.933C171.281 35.0669 171.104 35.2558 170.985 35.4802C170.867 35.7046 170.811 35.9562 170.825 36.2087C170.839 36.4613 170.921 36.7057 171.063 36.9164Z" fill="black"/>
<path d="M941.731 101.169H916.581C914.638 101.12 912.782 100.336 911.404 98.98C910.027 97.6228 909.236 95.7972 909.186 93.8789V88.0463C909.236 86.1286 910.027 84.3024 911.404 82.9459C912.782 81.5894 914.638 80.805 916.581 80.7564H938.084C940.049 80.7564 941.927 79.9879 943.319 78.6205C944.703 77.2532 945.479 75.3994 945.479 73.4658C945.479 71.5321 944.703 69.6777 943.319 68.3105C941.927 66.9432 940.049 66.1751 938.084 66.1751H916.385C914.435 66.1259 912.586 65.342 911.208 63.9853C909.831 62.6286 909.033 60.8027 908.983 58.8846V53.0522C909.033 51.1341 909.831 49.3082 911.208 47.9515C912.586 46.5948 914.435 45.8109 916.385 45.7617H941.042C943.007 45.7617 944.885 44.9936 946.277 43.6264C947.661 42.2591 948.444 40.4048 948.444 38.4712C948.444 36.5376 947.661 34.6832 946.277 33.316C944.885 31.9488 943.007 31.1807 941.042 31.1807H911.455C910.295 31.1578 909.171 31.5343 908.272 32.2448C907.373 32.9552 906.75 33.9546 906.518 35.0689L890.734 108.46V109.918C891.017 111.622 891.931 113.162 893.294 114.241C894.664 115.319 896.389 115.857 898.137 115.751H941.535C943.5 115.751 945.378 114.982 946.77 113.615C948.154 112.248 948.937 110.394 948.937 108.46C948.937 106.527 948.154 104.672 946.77 103.305C945.378 101.937 943.5 101.169 941.535 101.169H941.731Z" fill="black"/>
<path d="M394.3 31.6641H384.436C382.985 31.6822 381.568 32.102 380.348 32.8754C379.127 33.6488 378.151 34.7448 377.532 36.0383L355.831 87.5579C355.831 87.6869 355.779 87.8102 355.687 87.9015C355.594 87.9929 355.468 88.0436 355.338 88.0436C354.845 88.0436 354.845 88.0436 354.845 87.5579L333.144 36.0383C332.615 34.7236 331.769 33.5558 330.679 32.6361C328.706 31.178 326.239 33.1222 325.746 35.5524L309.471 109.915C309.342 110.757 309.517 111.617 309.964 112.346C310.555 113.521 311.47 114.508 312.604 115.196C313.737 115.884 315.045 116.243 316.376 116.234H319.335C321.246 116.137 323.05 115.331 324.386 113.98C325.72 112.628 326.488 110.829 326.535 108.943V61.3121C326.535 61.1832 326.587 61.0596 326.68 60.9684C326.772 60.8773 326.898 60.8261 327.029 60.8261C327.159 60.8261 327.285 60.8773 327.378 60.9684C327.47 61.0596 327.522 61.1832 327.522 61.3121L347.743 111.373C348.28 112.726 349.237 113.877 350.477 114.662C351.717 115.447 353.176 115.828 354.647 115.748H356.62C358.071 115.73 359.488 115.31 360.709 114.537C361.93 113.763 362.905 112.667 363.525 111.373L383.746 61.7982C383.746 61.6693 383.798 61.5457 383.89 61.4545C383.983 61.3633 384.108 61.3121 384.239 61.3121C384.37 61.3121 384.495 61.3633 384.587 61.4545C384.68 61.5457 384.732 61.6693 384.732 61.7982V108.943C384.782 110.862 385.578 112.687 386.954 114.044C388.331 115.401 390.184 116.184 392.13 116.234H395.089C397.036 116.184 398.888 115.401 400.265 114.044C401.642 112.687 402.437 110.862 402.487 108.943V38.9546C402.149 37.0109 401.158 35.2356 399.673 33.9134C398.188 32.5913 396.296 31.7991 394.3 31.6641Z" fill="black"/>
<path d="M620.182 71.05H598.481C596.65 71.05 594.894 71.7669 593.599 73.0432C592.304 74.3192 591.577 76.0498 591.577 77.8543C591.577 79.6588 592.304 81.3901 593.599 82.6661C594.894 83.9421 596.65 84.6591 598.481 84.6591H602.427C606.373 84.6591 610.318 88.0608 608.346 91.9497C605.386 98.2681 599.468 101.67 590.097 101.67C576.288 101.67 567.904 91.4633 567.904 73.9661C567.904 56.469 576.781 46.2623 590.097 46.2623C593.185 46.105 596.262 46.7385 599.028 48.1014C601.794 49.4642 604.154 51.5098 605.879 54.0388C606.651 55.4561 607.785 56.65 609.169 57.5025C610.553 58.355 612.14 58.8365 613.77 58.8992H618.209C619.207 58.9791 620.21 58.8183 621.13 58.4307C622.051 58.0432 622.862 57.4405 623.493 56.6748C624.125 55.9091 624.557 55.0035 624.753 54.0361C624.95 53.0687 624.904 52.0687 624.62 51.1226C621.542 44.7503 616.624 39.4146 610.484 35.7835C604.343 32.1524 597.251 30.3873 590.097 30.7092C567.411 30.7092 550.148 46.7483 550.148 73.9661C550.148 101.184 566.424 117.223 590.59 117.223C612.291 117.223 627.58 103.614 627.58 81.7425V78.3408C627.6 77.378 627.423 76.421 627.058 75.5271C626.693 74.6339 626.149 73.8219 625.458 73.1411C624.767 72.4602 623.943 71.9239 623.036 71.5645C622.13 71.2051 621.159 71.0302 620.182 71.05Z" fill="black"/>
<path d="M491.942 36.5244C491.436 35.114 490.502 33.8912 489.267 33.0218C488.032 32.1523 486.555 31.6783 485.037 31.6641H472.215C470.697 31.6783 469.22 32.1523 467.984 33.0218C466.75 33.8912 465.816 35.114 465.31 36.5244L440.65 106.513C440.28 107.608 440.175 108.771 440.344 109.913C440.513 111.054 440.95 112.14 441.62 113.086C442.292 114.031 443.178 114.807 444.209 115.354C445.239 115.901 446.385 116.202 447.555 116.234H451.501C453.018 116.22 454.495 115.746 455.73 114.877C456.965 114.007 457.899 112.784 458.405 111.373L461.364 102.139C461.87 100.728 462.804 99.5059 464.039 98.6366C465.274 97.7666 466.751 97.2924 468.269 97.2787H488.489C490.008 97.2924 491.484 97.7666 492.719 98.6366C493.955 99.5059 494.888 100.728 495.394 102.139L498.354 111.373C498.859 112.784 499.794 114.007 501.028 114.877C502.264 115.746 503.741 116.22 505.258 116.234H509.203C510.374 116.202 511.52 115.901 512.55 115.354C513.58 114.807 514.467 114.031 515.138 113.086C515.809 112.14 516.246 111.054 516.415 109.913C516.583 108.771 516.479 107.608 516.108 106.513L491.942 36.5244ZM479.415 82.6975H477.936C476.766 82.6656 475.619 82.3647 474.589 81.8173C473.559 81.2707 472.672 80.4942 472.002 79.5495C471.33 78.6041 470.893 77.5181 470.724 76.3769C470.556 75.235 470.661 74.0714 471.031 72.9767L478.429 50.6194C478.429 50.4905 478.481 50.3669 478.573 50.2757C478.666 50.1845 478.791 50.1334 478.922 50.1334C479.053 50.1334 479.178 50.1845 479.27 50.2757C479.363 50.3669 479.415 50.4905 479.415 50.6194L486.813 72.9767C487.082 74.1048 487.095 75.2771 486.855 76.411C486.613 77.5449 486.123 78.6128 485.418 79.5401C484.712 80.4666 483.809 81.2301 482.772 81.7753C481.735 82.3212 480.589 82.6358 479.415 82.6975Z" fill="black"/>
<path d="M677.397 31.6641H673.945C671.998 31.7133 670.146 32.4972 668.769 33.8539C667.392 35.2106 666.597 37.0365 666.547 38.9546V108.943C666.597 110.862 667.392 112.687 668.769 114.044C670.146 115.401 671.998 116.184 673.945 116.234H677.397C679.343 116.184 681.196 115.401 682.573 114.044C683.95 112.687 684.745 110.862 684.795 108.943V38.9546C684.668 37.0623 683.848 35.2799 682.487 33.9389C681.126 32.5979 679.317 31.7895 677.397 31.6641Z" fill="black"/>
<path d="M763.686 46.2579C767.006 46.168 770.298 46.9263 773.234 48.4592C776.177 49.9921 778.657 52.2475 780.455 55.0065C781.093 56.6989 782.231 58.1618 783.725 59.2029C785.225 60.2438 787.009 60.8142 788.836 60.8389H792.287C793.287 60.9187 794.288 60.7579 795.209 60.3704C796.129 59.9828 796.941 59.3802 797.572 58.6145C798.203 57.8489 798.638 56.9432 798.834 55.9758C799.029 55.0085 798.986 54.0085 798.703 53.0623C793.766 38.4814 780.455 30.2188 763.193 30.2188C740.507 30.2188 723.242 45.7718 723.242 73.4759C723.242 101.18 740.014 116.733 763.193 116.733C781.441 116.733 793.766 107.012 798.21 94.8613C798.493 93.9151 798.536 92.9154 798.341 91.9475C798.145 90.9804 797.71 90.0748 797.079 89.3092C796.448 88.5436 795.636 87.9404 794.716 87.5533C793.795 87.1654 792.794 87.0052 791.794 87.0849H787.85C786.052 87.2408 784.334 87.8629 782.862 88.8873C781.39 89.9117 780.216 91.3022 779.469 92.9168C777.823 95.7001 775.438 97.9867 772.567 99.5288C769.696 101.072 766.455 101.81 763.193 101.665C750.367 101.665 741.493 91.9453 741.493 73.9617C741.493 55.9785 750.367 46.2579 763.686 46.2579Z" fill="black"/>
<path d="M1019.19 31.6641H996.004C994.061 31.7133 992.205 32.4972 990.828 33.8539C989.45 35.2106 988.66 37.0365 988.609 38.9546V108.943C988.66 110.862 989.45 112.687 990.828 114.044C992.205 115.401 994.061 116.184 996.004 116.234H1019.19C1045.33 116.234 1061.11 100.195 1061.11 73.9489C1061.11 47.7032 1044.83 31.6641 1019.19 31.6641ZM1018.2 100.681H1014.25C1012.31 100.632 1010.45 99.8481 1009.08 98.4909C1007.7 97.1344 1006.91 95.3081 1006.86 93.3905V54.0216C1006.91 52.1036 1007.7 50.2776 1009.08 48.9209C1010.45 47.5643 1012.31 46.7803 1014.25 46.7312H1018.2C1034.47 46.7312 1042.86 54.9937 1042.86 73.4631C1042.86 91.9325 1034.47 100.681 1018.2 100.681Z" fill="black"/>
<path d="M1149.86 101.169H1124.7C1122.75 101.119 1120.9 100.335 1119.52 98.979C1118.14 97.6218 1117.35 95.7963 1117.3 93.8779V88.0453C1117.35 86.1277 1118.14 84.3014 1119.52 82.9449C1120.9 81.5884 1122.75 80.804 1124.7 80.7554H1146.4C1148.36 80.7554 1150.25 79.9869 1151.63 78.6196C1153.02 77.2522 1153.8 75.3984 1153.8 73.4648C1153.8 71.531 1153.02 69.6767 1151.63 68.3094C1150.25 66.9422 1148.36 66.1741 1146.4 66.1741H1124.7C1122.75 66.1249 1120.9 65.341 1119.52 63.9843C1118.14 62.6276 1117.35 60.8017 1117.3 58.8836V53.0512C1117.35 51.1331 1118.14 49.3072 1119.52 47.9505C1120.9 46.5938 1122.75 45.8099 1124.7 45.7607H1149.36C1151.32 45.7607 1153.2 44.9926 1154.59 43.6253C1155.97 42.2581 1156.76 40.4037 1156.76 38.4701C1156.76 36.5366 1155.97 34.6822 1154.59 33.315C1153.2 31.9478 1151.32 31.1797 1149.36 31.1797H1106.45C1104.51 31.2288 1102.65 32.0128 1101.27 33.3695C1099.9 34.7262 1099.11 36.5522 1099.05 38.4701V108.459C1099.11 110.377 1099.9 112.203 1101.27 113.559C1102.65 114.917 1104.51 115.7 1106.45 115.75H1149.86C1151.8 115.7 1153.65 114.917 1155.02 113.559C1156.4 112.203 1157.2 110.377 1157.25 108.459C1157.27 107.496 1157.09 106.539 1156.73 105.645C1156.37 104.752 1155.82 103.941 1155.13 103.259C1154.44 102.579 1153.61 102.042 1152.7 101.683C1151.8 101.324 1150.83 101.149 1149.86 101.169Z" fill="black"/>
<path d="M1261.3 31.6641H1257.84C1255.9 31.7133 1254.04 32.4972 1252.66 33.8539C1251.29 35.2106 1250.5 37.0365 1250.45 38.9546V84.1554C1250.45 84.6419 1250.45 84.6419 1249.95 84.6419H1249.46L1214.94 35.0663C1214.27 34.1403 1213.38 33.3902 1212.35 32.8818C1211.31 32.3733 1210.17 32.1221 1209.02 32.1501H1204.38C1202.44 32.1993 1200.58 32.9832 1199.2 34.34C1197.83 35.6967 1197.04 37.5226 1196.98 39.4406V109.43C1197.04 111.347 1197.83 113.174 1199.2 114.53C1200.58 115.887 1202.44 116.671 1204.38 116.72H1207.83C1209.78 116.671 1211.63 115.887 1213.01 114.53C1214.38 113.174 1215.18 111.347 1215.23 109.43V63.7423C1215.23 63.6134 1215.28 63.4897 1215.38 63.3986C1215.47 63.3075 1215.6 63.2562 1215.73 63.2562H1216.22L1251.24 112.831C1251.9 113.758 1252.79 114.508 1253.82 115.017C1254.85 115.525 1256 115.776 1257.15 115.748H1261.59C1263.54 115.699 1265.39 114.915 1266.77 113.558C1268.14 112.201 1268.94 110.376 1268.99 108.457V38.4685C1268.66 36.6538 1267.72 35.0003 1266.32 33.7684C1264.93 32.5365 1263.16 31.7962 1261.3 31.6641Z" fill="black"/>
</g>
<defs>
<clipPath id="clip0_6771_15417">
<rect width="1276" height="145" fill="white"/>
</clipPath>
</defs>
</svg>
