<svg width="71" height="18" viewBox="0 0 71 18" fill="none" xmlns="http://www.w3.org/2000/svg">
<g clip-path="url(#clip0_4330_3007)">
<path d="M28.7139 13.7358C27.8364 13.7358 27.0451 13.5472 26.3399 13.1699C25.6346 12.7845 25.0811 12.2556 24.6793 11.5831C24.2774 10.9025 24.0765 10.144 24.0765 9.30752C24.0765 8.47107 24.2774 7.71663 24.6793 7.04419C25.0811 6.36356 25.6346 5.83463 26.3399 5.4574C27.0451 5.07198 27.8364 4.87927 28.7139 4.87927C29.5913 4.87927 30.3827 5.07198 31.0879 5.4574C31.7932 5.83463 32.3467 6.35945 32.7485 7.03189C33.1503 7.70433 33.3513 8.46287 33.3513 9.30752C33.3513 10.1522 33.1503 10.9107 32.7485 11.5831C32.3467 12.2556 31.7932 12.7845 31.0879 13.1699C30.3827 13.5472 29.5913 13.7358 28.7139 13.7358ZM28.7139 12.3335C29.2879 12.3335 29.8046 12.2064 30.2638 11.9522C30.723 11.6898 31.0838 11.3289 31.3462 10.8697C31.6087 10.4023 31.7399 9.88155 31.7399 9.30752C31.7399 8.73349 31.6087 8.21686 31.3462 7.75763C31.0838 7.29021 30.723 6.92939 30.2638 6.67517C29.8046 6.41276 29.2879 6.28155 28.7139 6.28155C28.1399 6.28155 27.6232 6.41276 27.164 6.67517C26.7048 6.92939 26.344 7.29021 26.0815 7.75763C25.8191 8.21686 25.6879 8.73349 25.6879 9.30752C25.6879 9.88155 25.8191 10.4023 26.0815 10.8697C26.344 11.3289 26.7048 11.6898 27.164 11.9522C27.6232 12.2064 28.1399 12.3335 28.7139 12.3335ZM43.8782 13.6128L42.1192 11.0911C42.0454 11.0993 41.9347 11.1034 41.7871 11.1034H39.8435V13.6128H38.2444V5.00228H41.7871C42.5333 5.00228 43.1811 5.12529 43.7306 5.3713C44.2882 5.61731 44.7146 5.96993 45.0098 6.42916C45.3051 6.88838 45.4527 7.43371 45.4527 8.06515C45.4527 8.71299 45.2928 9.27062 44.9729 9.73804C44.6613 10.2055 44.2103 10.554 43.6199 10.7836L45.6003 13.6128H43.8782ZM43.8413 8.06515C43.8413 7.51572 43.6609 7.0934 43.3 6.79818C42.9392 6.50296 42.4103 6.35535 41.7133 6.35535H39.8435V9.78725H41.7133C42.4103 9.78725 42.9392 9.63964 43.3 9.34442C43.6609 9.041 43.8413 8.61458 43.8413 8.06515ZM54.4252 13.7358C53.5559 13.7358 52.7687 13.5472 52.0635 13.1699C51.3664 12.7845 50.817 12.2556 50.4152 11.5831C50.0215 10.9107 49.8247 10.1522 49.8247 9.30752C49.8247 8.46287 50.0257 7.70433 50.4275 7.03189C50.8293 6.35945 51.3787 5.83463 52.0758 5.4574C52.781 5.07198 53.5683 4.87927 54.4375 4.87927C55.1427 4.87927 55.7865 5.00228 56.3687 5.24829C56.9509 5.49431 57.443 5.85103 57.8448 6.31845L56.8115 7.29021C56.1883 6.61777 55.4216 6.28155 54.5113 6.28155C53.9209 6.28155 53.3919 6.41276 52.9245 6.67517C52.4571 6.92939 52.0922 7.28611 51.8298 7.74533C51.5673 8.20456 51.4361 8.72529 51.4361 9.30752C51.4361 9.88975 51.5673 10.4105 51.8298 10.8697C52.0922 11.3289 52.4571 11.6898 52.9245 11.9522C53.3919 12.2064 53.9209 12.3335 54.5113 12.3335C55.4216 12.3335 56.1883 11.9932 56.8115 11.3125L57.8448 12.2966C57.443 12.764 56.9468 13.1207 56.3564 13.3667C55.7742 13.6128 55.1304 13.7358 54.4252 13.7358ZM66.3269 4.87927C67.0978 4.87927 67.7702 5.03098 68.3442 5.3344C68.9183 5.63781 69.3611 6.08884 69.6727 6.68747C69.9925 7.27791 70.1524 7.99545 70.1524 8.84009V13.6128H68.5534V11.3986H64.0759V13.6128H62.5014V8.84009C62.5014 7.99545 62.6572 7.27791 62.9688 6.68747C63.2887 6.08884 63.7356 5.63781 64.3096 5.3344C64.8836 5.03098 65.5561 4.87927 66.3269 4.87927ZM68.5534 10.0579V8.69248C68.5534 7.89704 68.3565 7.29841 67.9629 6.89658C67.5693 6.48656 67.0199 6.28155 66.3146 6.28155C65.6094 6.28155 65.06 6.48656 64.6663 6.89658C64.2727 7.29841 64.0759 7.89704 64.0759 8.69248V10.0579H68.5534Z" fill="black"/>
<path d="M18 9C18 13.9705 13.9705 18 9 18C4.02946 18 0 13.9705 0 9C0 4.02946 4.02946 0 9 0C13.9705 0 18 4.02946 18 9Z" fill="#FFD15C"/>
<path d="M15.623 7.62252C15.1677 6.98497 14.6845 6.65072 14.382 6.48839C14.2758 6.29326 14.1582 6.10109 14.029 5.91223C13.6566 5.36788 13.2686 4.89591 12.876 4.50938C12.5088 4.14786 12.1256 3.8496 11.7373 3.62281C11.0614 3.22805 10.3604 3.03549 9.59428 3.03406C9.59132 3.03406 9.58845 3.03406 9.5855 3.03406C8.88408 3.03406 8.24346 3.19364 7.70903 3.34988C7.55564 3.39469 7.39988 3.44321 7.2489 3.4903C6.86311 3.61041 6.49864 3.72395 6.19113 3.77457C5.98161 3.80908 5.81735 3.88811 5.70312 4.00946C5.59524 4.12404 5.53095 4.27722 5.51217 4.46477C5.47711 4.81546 5.60152 5.28535 5.87197 5.82366C6.41295 6.90043 7.44916 8.0858 8.5119 8.84377C8.62096 8.92155 8.72441 9.00737 8.82163 9.09991C8.82019 9.10032 8.81876 9.10061 8.81724 9.1009C7.99084 9.2189 7.56024 10.1071 7.38589 10.587C7.34042 10.7121 7.46413 10.8242 7.59045 10.7816C8.09121 10.6128 9.10049 10.3426 9.69133 10.6646C9.80171 11.1925 9.75517 11.7101 9.55594 12.1146C9.43375 12.3627 9.25966 12.561 9.03849 12.704C8.79998 12.8584 8.5119 12.9447 8.18208 12.9606C7.82466 12.9778 7.41952 12.9121 6.97796 12.765C6.4975 12.6051 5.96988 12.3475 5.40979 11.9993L5.39942 11.993L5.38863 11.9873C5.38228 11.9838 5.37559 11.98 5.36891 11.976C6.17063 11.0098 5.6818 9.55073 5.48618 9.06969C5.46006 9.00557 5.37157 9.00602 5.33631 9.06572C4.87824 9.84131 3.93869 9.78371 3.95538 10.7074C3.95499 10.7067 3.95461 10.706 3.95423 10.7054C3.23593 10.1213 2.70275 10.8983 1.80895 10.7816C1.74022 10.7727 1.6854 10.8422 1.71991 10.9022C1.97768 11.3511 2.82191 12.628 4.07034 12.5994C4.1199 12.6534 4.17722 12.7159 4.22162 12.765L4.37227 12.9313C4.98406 13.6064 5.65412 14.1422 6.36387 14.5237C7.02495 14.8791 7.72076 15.1015 8.43202 15.1849C8.64507 15.2098 8.85869 15.2222 9.07215 15.2222C10.3106 15.2222 11.5416 14.8058 12.5961 14.0204C13.1877 13.5797 13.6933 13.048 14.0988 12.44C14.5139 11.8177 14.8045 11.1442 14.9624 10.4383C15.0677 9.96801 15.1113 9.49366 15.0935 9.02053C15.4851 8.90404 15.9175 9.24932 16.1292 9.452C16.1808 9.50145 16.266 9.47078 16.2637 9.39927C16.2527 9.07515 16.1598 8.37438 15.623 7.62252ZM12.0544 13.5182C10.9902 14.2726 9.73897 14.6084 8.51649 14.4651C7.89617 14.3923 7.28741 14.1973 6.70706 13.8852C6.153 13.5874 5.62304 13.1817 5.12839 12.677C6.23381 13.3484 7.22152 13.6879 8.06834 13.6879C8.1184 13.6879 8.16797 13.6868 8.21697 13.6844C8.67615 13.6622 9.08495 13.5371 9.43211 13.3124C9.76472 13.0973 10.025 12.8019 10.206 12.4348C10.3671 12.1078 10.4567 11.74 10.4723 11.3415C10.4869 10.9694 10.4368 10.5892 10.3232 10.2113C10.0845 9.41825 9.59075 8.72302 8.93279 8.25371C8.44547 7.90613 7.9566 7.45551 7.51936 6.95074C7.16559 6.54243 6.86471 6.12204 6.639 5.72186L6.63908 5.72136C6.63908 5.72136 6.63727 5.71862 6.6344 5.71366C6.63211 5.70956 6.62981 5.70545 6.62756 5.70135C6.59008 5.6314 6.49159 5.39925 6.8019 5.35493C9.73327 4.93625 15.6978 10.5052 12.0544 13.5182Z" fill="black"/>
<path d="M6.8019 5.35492C6.49151 5.39924 6.59008 5.63127 6.62755 5.70134C6.62981 5.70544 6.63211 5.70954 6.6344 5.71365C6.63735 5.71861 6.63908 5.72135 6.63908 5.72135L6.63899 5.72185C6.86471 6.12203 7.16559 6.54242 7.51935 6.95073C7.95672 7.4555 8.44547 7.90612 8.93278 8.2537C9.59083 8.72301 10.0846 9.41824 10.3231 10.2113C10.4368 10.5891 10.4869 10.9694 10.4723 11.3415C10.4567 11.74 10.3671 12.1078 10.206 12.4348C10.025 12.8019 9.76472 13.0973 9.43211 13.3124C9.0849 13.537 8.67607 13.6622 8.21697 13.6844C8.16797 13.6868 8.11827 13.6879 8.06833 13.6879C7.22151 13.6879 6.23381 13.3484 5.12839 12.677C5.62304 13.1817 6.15299 13.5874 6.70706 13.8852C7.2874 14.1973 7.89616 14.3923 8.51649 14.465C9.73897 14.6083 10.9902 14.2725 12.0544 13.5181C15.6978 10.5052 9.73327 4.93624 6.8019 5.35492Z" fill="white"/>
<path d="M4.74369 12.0145C4.74369 12.0146 4.74509 12.0149 4.7475 12.0151C4.74484 12.0145 4.74357 12.0144 4.74369 12.0145Z" fill="black"/>
<path d="M4.86282 11.9617C4.86377 11.9603 4.86426 11.9595 4.86426 11.9595C4.86414 11.9594 4.86368 11.9601 4.86282 11.9617Z" fill="black"/>
<path d="M9.85546 5.15139C9.75373 5.00891 9.55012 4.62213 10.1812 4.62213C10.8124 4.62213 11.7766 5.33672 11.9727 5.60106C11.9116 5.7622 11.5044 5.7982 11.301 5.78258C11.0973 5.76696 10.7513 5.7335 10.4866 5.60106C10.2219 5.46866 9.95727 5.29391 9.85546 5.15139Z" fill="white"/>
<path d="M18 9C18 13.9705 13.9705 18 9 18C4.02946 18 0 13.9705 0 9C0 4.02946 4.02946 0 9 0C13.9705 0 18 4.02946 18 9Z" fill="#FFD15C"/>
<path d="M15.623 7.62252C15.1677 6.98497 14.6845 6.65072 14.382 6.48839C14.2758 6.29326 14.1582 6.10109 14.029 5.91223C13.6566 5.36788 13.2686 4.89591 12.876 4.50938C12.5088 4.14786 12.1256 3.8496 11.7373 3.62281C11.0614 3.22805 10.3604 3.03549 9.59428 3.03406C9.59132 3.03406 9.58845 3.03406 9.5855 3.03406C8.88408 3.03406 8.24346 3.19364 7.70903 3.34988C7.55564 3.39469 7.39988 3.44321 7.2489 3.4903C6.86311 3.61041 6.49864 3.72395 6.19113 3.77457C5.98161 3.80908 5.81735 3.88811 5.70312 4.00946C5.59524 4.12404 5.53095 4.27722 5.51217 4.46477C5.47711 4.81546 5.60152 5.28535 5.87197 5.82366C6.41295 6.90043 7.44916 8.0858 8.5119 8.84377C8.62096 8.92155 8.72441 9.00737 8.82163 9.09991C8.82019 9.10032 8.81876 9.10061 8.81724 9.1009C7.99084 9.2189 7.56024 10.1071 7.38589 10.587C7.34042 10.7121 7.46413 10.8242 7.59045 10.7816C8.09121 10.6128 9.10049 10.3426 9.69133 10.6646C9.80171 11.1925 9.75517 11.7101 9.55594 12.1146C9.43375 12.3627 9.25966 12.561 9.03849 12.704C8.79998 12.8584 8.5119 12.9447 8.18208 12.9606C7.82466 12.9778 7.41952 12.9121 6.97796 12.765C6.4975 12.6051 5.96988 12.3475 5.40979 11.9993L5.39942 11.993L5.38863 11.9873C5.38228 11.9838 5.37559 11.98 5.36891 11.976C6.17063 11.0098 5.6818 9.55073 5.48618 9.06969C5.46006 9.00557 5.37157 9.00602 5.33631 9.06572C4.87824 9.84131 3.93869 9.78371 3.95538 10.7074C3.95499 10.7067 3.95461 10.706 3.95423 10.7054C3.23593 10.1213 2.70275 10.8983 1.80895 10.7816C1.74022 10.7727 1.6854 10.8422 1.71991 10.9022C1.97768 11.3511 2.82191 12.628 4.07034 12.5994C4.1199 12.6534 4.17722 12.7159 4.22162 12.765L4.37227 12.9313C4.98406 13.6064 5.65412 14.1422 6.36387 14.5237C7.02495 14.8791 7.72076 15.1015 8.43202 15.1849C8.64507 15.2098 8.85869 15.2222 9.07215 15.2222C10.3106 15.2222 11.5416 14.8058 12.5961 14.0204C13.1877 13.5797 13.6933 13.048 14.0988 12.44C14.5139 11.8177 14.8045 11.1442 14.9624 10.4383C15.0677 9.96801 15.1113 9.49366 15.0935 9.02053C15.4851 8.90404 15.9175 9.24932 16.1292 9.452C16.1808 9.50145 16.266 9.47078 16.2637 9.39927C16.2527 9.07515 16.1598 8.37438 15.623 7.62252ZM12.0544 13.5182C10.9902 14.2726 9.73897 14.6084 8.51649 14.4651C7.89617 14.3923 7.28741 14.1973 6.70706 13.8852C6.153 13.5874 5.62304 13.1817 5.12839 12.677C6.23381 13.3484 7.22152 13.6879 8.06834 13.6879C8.1184 13.6879 8.16797 13.6868 8.21697 13.6844C8.67615 13.6622 9.08495 13.5371 9.43211 13.3124C9.76472 13.0973 10.025 12.8019 10.206 12.4348C10.3671 12.1078 10.4567 11.74 10.4723 11.3415C10.4869 10.9694 10.4368 10.5892 10.3232 10.2113C10.0845 9.41825 9.59075 8.72302 8.93279 8.25371C8.44547 7.90613 7.9566 7.45551 7.51936 6.95074C7.16559 6.54243 6.86471 6.12204 6.639 5.72186L6.63908 5.72136C6.63908 5.72136 6.63727 5.71862 6.6344 5.71366C6.63211 5.70956 6.62981 5.70545 6.62756 5.70135C6.59008 5.6314 6.49159 5.39925 6.8019 5.35493C9.73327 4.93625 15.6978 10.5052 12.0544 13.5182Z" fill="black"/>
<path d="M6.8019 5.35492C6.49151 5.39924 6.59008 5.63127 6.62755 5.70134C6.62981 5.70544 6.63211 5.70954 6.6344 5.71365C6.63735 5.71861 6.63908 5.72135 6.63908 5.72135L6.63899 5.72185C6.86471 6.12203 7.16559 6.54242 7.51935 6.95073C7.95672 7.4555 8.44547 7.90612 8.93278 8.2537C9.59083 8.72301 10.0846 9.41824 10.3231 10.2113C10.4368 10.5891 10.4869 10.9694 10.4723 11.3415C10.4567 11.74 10.3671 12.1078 10.206 12.4348C10.025 12.8019 9.76472 13.0973 9.43211 13.3124C9.0849 13.537 8.67607 13.6622 8.21697 13.6844C8.16797 13.6868 8.11827 13.6879 8.06833 13.6879C7.22151 13.6879 6.23381 13.3484 5.12839 12.677C5.62304 13.1817 6.15299 13.5874 6.70706 13.8852C7.2874 14.1973 7.89616 14.3923 8.51649 14.465C9.73897 14.6083 10.9902 14.2725 12.0544 13.5181C15.6978 10.5052 9.73327 4.93624 6.8019 5.35492Z" fill="white"/>
<path d="M4.74369 12.0145C4.74369 12.0146 4.74509 12.0149 4.7475 12.0151C4.74484 12.0145 4.74357 12.0144 4.74369 12.0145Z" fill="black"/>
<path d="M4.86282 11.9617C4.86377 11.9603 4.86426 11.9595 4.86426 11.9595C4.86414 11.9594 4.86368 11.9601 4.86282 11.9617Z" fill="black"/>
<path d="M9.85546 5.15139C9.75373 5.00891 9.55012 4.62213 10.1812 4.62213C10.8124 4.62213 11.7766 5.33672 11.9727 5.60106C11.9116 5.7622 11.5044 5.7982 11.301 5.78258C11.0973 5.76696 10.7513 5.7335 10.4866 5.60106C10.2219 5.46866 9.95727 5.29391 9.85546 5.15139Z" fill="white"/>
</g>
<defs>
<clipPath id="clip0_4330_3007">
<rect width="70.1549" height="18" fill="white"/>
</clipPath>
</defs>
</svg>
