<svg width="190" height="190" viewBox="0 0 190 190" fill="none" xmlns="http://www.w3.org/2000/svg">
<g clip-path="url(#clip0_6694_15896)">
<path d="M141.798 172.3C99.4922 172.3 65.1969 137.555 65.1969 94.6925C65.1969 51.83 99.4922 17.0842 141.798 17.0842H144.302C145.13 17.0842 145.458 15.9908 144.767 15.5309C129.755 5.52546 111.732 -0.219215 92.3688 0.00640638C40.3352 0.610957 -0.934632 43.7451 0.0161018 96.4563C0.943994 147.941 42.4279 189.387 93.4648 189.387C112.411 189.387 130.038 183.674 144.765 173.856C145.456 173.393 145.13 172.3 144.299 172.3H141.798Z" fill="url(#paint0_linear_6694_15896)"/>
<path d="M135.955 39.7329C120.76 39.5015 106.976 45.6049 96.9977 55.6016C96.7178 55.8823 96.9179 56.3682 97.3115 56.3682C118.193 56.3682 135.124 73.5212 135.124 94.6771C135.124 115.834 118.193 132.987 97.3115 132.987H97.2999C96.9088 132.987 96.712 133.467 96.9887 133.745C106.787 143.562 120.254 149.628 135.124 149.628C165.207 149.628 189.57 124.813 189.362 94.2844C189.158 65.0228 164.834 40.1697 135.955 39.7329Z" fill="url(#paint1_linear_6694_15896)"/>
</g>
<defs>
<linearGradient id="paint0_linear_6694_15896" x1="72.571" y1="-1.51258e-09" x2="72.571" y2="189.387" gradientUnits="userSpaceOnUse">
<stop stop-color="#30B0FF"/>
<stop offset="1" stop-color="#00629E"/>
</linearGradient>
<linearGradient id="paint1_linear_6694_15896" x1="143.111" y1="39.7266" x2="143.111" y2="149.628" gradientUnits="userSpaceOnUse">
<stop stop-color="#30B0FF"/>
<stop offset="1" stop-color="#00629E"/>
</linearGradient>
<clipPath id="clip0_6694_15896">
<rect width="189.387" height="189.387" fill="white"/>
</clipPath>
</defs>
</svg>
