<svg width="35" height="18" viewBox="0 0 35 18" fill="none" xmlns="http://www.w3.org/2000/svg">
<g clip-path="url(#clip0_4767_7660)">
<mask id="mask0_4767_7660" style="mask-type:luminance" maskUnits="userSpaceOnUse" x="0" y="0" width="35" height="18">
<path d="M34.3033 0.00866699H0V17.9349H34.3033V0.00866699Z" fill="white"/>
</mask>
<g mask="url(#mask0_4767_7660)">
<path d="M29.9626 11.1223C29.9626 11.6107 29.8549 12.0171 29.6432 12.3307C29.4337 12.6449 29.1703 12.881 28.8598 13.0329C28.5521 13.1849 28.2452 13.2624 27.9487 13.2624C27.4559 13.2624 27.0443 13.0927 26.727 12.7585C26.4113 12.4229 26.252 11.9648 26.252 11.3967V6.26306H24.8607V11.4816C24.8607 12.1787 24.9765 12.7659 25.2059 13.2277C25.4361 13.6888 25.7584 14.0399 26.1634 14.2708C26.5662 14.4973 27.0325 14.6124 27.5489 14.6124C28.173 14.6124 28.6982 14.4641 29.1098 14.172C29.4816 13.9049 29.7679 13.5811 29.9626 13.2085V14.5069H31.3539V6.26306H29.9626V11.123V11.1223Z" fill="#011829"/>
<path d="M22.7856 9.30679C22.4654 9.07958 22.1246 8.89736 21.7727 8.76531C21.4297 8.63622 21.1139 8.53294 20.8329 8.45843L19.7307 8.16187C19.533 8.11023 19.3132 8.04163 19.0786 7.95826C18.8455 7.87269 18.619 7.76277 18.4073 7.63294C18.1993 7.50163 18.0259 7.33716 17.8916 7.14314C17.7633 6.94913 17.6984 6.71306 17.6984 6.44085C17.6984 6.11405 17.7928 5.81823 17.9794 5.56224C18.1705 5.30331 18.4412 5.09675 18.782 4.94847C19.1295 4.79872 19.5419 4.72274 20.0074 4.72274C20.6433 4.72274 21.1862 4.86733 21.6222 5.15355C22.0508 5.43462 22.2987 5.83519 22.3592 6.34421L22.3666 6.40913H23.7734L23.7704 6.33315C23.7527 5.77544 23.5771 5.27011 23.2503 4.83192C22.9279 4.39519 22.4853 4.047 21.9357 3.79692C21.3876 3.54388 20.7525 3.41626 20.0494 3.41626C19.3464 3.41626 18.7134 3.5461 18.1476 3.80208C17.5833 4.05585 17.1266 4.41806 16.7902 4.87987C16.4553 5.34019 16.2857 5.88683 16.2857 6.50429C16.2857 7.25011 16.5424 7.86236 17.0477 8.32417C17.5457 8.77933 18.2295 9.13417 19.0801 9.37908L20.4087 9.759C20.7827 9.86302 21.1361 9.98622 21.4584 10.1249C21.7734 10.2606 22.0309 10.4384 22.2234 10.6546C22.4101 10.8641 22.5052 11.1422 22.5052 11.4808C22.5052 11.8556 22.3938 12.1875 22.1733 12.4679C21.9505 12.7482 21.6429 12.971 21.26 13.1303C20.8742 13.2874 20.4308 13.3671 19.9439 13.3671C19.5257 13.3671 19.1288 13.3044 18.7666 13.1812C18.411 13.0558 18.1122 12.864 17.8798 12.611C17.6526 12.3572 17.5206 12.0311 17.4874 11.6416L17.4815 11.5745H15.9854L15.9913 11.6534C16.0341 12.2547 16.2215 12.791 16.5483 13.2461C16.878 13.7013 17.3347 14.0606 17.9064 14.3143C18.4788 14.5666 19.1649 14.695 19.9447 14.695C20.7812 14.695 21.5034 14.5526 22.0899 14.2715C22.683 13.989 23.1404 13.6024 23.448 13.1222C23.7601 12.6412 23.9187 12.0961 23.9187 11.5007C23.9187 10.9836 23.8102 10.5402 23.597 10.1824C23.3853 9.82687 23.1124 9.53253 22.7856 9.30605V9.30679Z" fill="#011829"/>
<path d="M34.2606 4.14329C34.2606 3.89099 34.164 3.67263 33.9744 3.49411C33.7885 3.31632 33.5628 3.22632 33.3016 3.22632C33.0405 3.22632 32.8133 3.31632 32.6237 3.49484C32.437 3.67337 32.3426 3.89173 32.3426 4.14402C32.3426 4.39632 32.437 4.61394 32.6244 4.7932C32.8133 4.97099 33.0412 5.06099 33.3024 5.06099C33.5635 5.06099 33.7679 4.97911 33.9479 4.81829L33.956 4.81091C33.9626 4.80501 33.9692 4.79911 33.9759 4.79247L34.0024 4.76665C34.1751 4.59255 34.2621 4.38304 34.2621 4.14329H34.2606Z" fill="#011829"/>
<path d="M33.9861 6.26215H32.5948V14.506H33.9861V6.26215Z" fill="#011829"/>
<path fill-rule="evenodd" clip-rule="evenodd" d="M11.2087 7.47565C11.939 8.39261 12.3757 9.55229 12.3757 10.8138C12.3757 12.0752 11.9257 13.2703 11.1762 14.1924L11.1113 14.2721L11.0943 14.1711C11.0796 14.0855 11.0626 13.9984 11.0427 13.9114C10.6672 12.2619 9.4441 10.8477 7.4309 9.70204C6.07131 8.9304 5.29303 8.00237 5.08869 6.94672C4.95664 6.26434 5.05475 5.57901 5.24434 4.9918C5.43393 4.40532 5.71574 3.91328 5.95549 3.61746L6.73893 2.65992C6.87615 2.49172 7.13361 2.49172 7.27082 2.65992L11.2094 7.47565H11.2087ZM12.4473 6.51885L7.19779 0.100816C7.09746 -0.0216425 6.91008 -0.0216425 6.80975 0.100816L1.56098 6.51885L1.54402 6.54024C0.578361 7.73901 0 9.26237 0 10.9207C0 14.7826 3.13598 17.9134 7.00377 17.9134C10.8716 17.9134 14.0075 14.7826 14.0075 10.9207C14.0075 9.26237 13.4292 7.73901 12.4635 6.54098L12.4466 6.51959L12.4473 6.51885ZM2.8173 7.45499L3.28648 6.88032L3.30049 6.98655C3.31156 7.07065 3.32557 7.15475 3.3418 7.23959C3.64574 8.83376 4.7309 10.1624 6.54492 11.1915C8.12213 12.0893 9.04057 13.1213 9.30467 14.2529C9.41533 14.7251 9.43451 15.1898 9.38656 15.5963L9.38361 15.6214L9.36074 15.6324C8.64885 15.9799 7.84844 16.1754 7.00303 16.1754C4.03672 16.1754 1.6318 13.7749 1.6318 10.813C1.6318 9.54122 2.07516 8.37343 2.81582 7.45351L2.8173 7.45499Z" fill="#011829"/>
</g>
</g>
<defs>
<clipPath id="clip0_4767_7660">
<rect width="34.3033" height="18" fill="white"/>
</clipPath>
</defs>
</svg>
