<svg width="660" height="130" viewBox="0 0 660 130" fill="none" xmlns="http://www.w3.org/2000/svg">
<g clip-path="url(#clip0_6749_15417)">
<path d="M81.5205 69.0973C81.5205 85.7618 75.9315 99.7418 64.7535 111.004C53.576 122.3 39.9572 127.931 23.8972 127.931H0V103.769H23.8972C33.4048 103.769 41.4025 100.462 47.8907 93.8158C54.379 87.2023 57.623 78.9518 57.623 69.1298L57.4305 1.81641H81.5205V69.0973Z" fill="black"/>
<path d="M98.7086 2.94922H122.606L122.22 26.7186H98.5156L98.7086 2.94922ZM98.7086 36.3441H122.606V127.885H98.5156L98.7086 36.3441Z" fill="black"/>
<path d="M164.278 27.8953H205.327V52.254H163.893V85.976C163.893 90.9855 165.435 95.176 168.55 98.581C171.666 101.986 175.552 103.722 180.21 103.722H205.103V127.884H180.434C169.128 127.884 159.589 123.791 151.816 115.574C144.043 107.356 140.156 97.37 140.156 85.5505V2.12891H163.861L164.246 27.8625L164.278 27.8953Z" fill="black"/>
<path d="M299.26 113.546C289.753 123.139 278.125 127.919 264.378 127.919C250.631 127.919 238.843 123.106 229.399 113.448C219.956 103.79 215.234 91.9706 215.234 77.9251C215.234 63.8796 219.988 52.0276 229.496 42.3037C239.003 32.5799 250.631 27.7344 264.378 27.7344C278.125 27.7344 289.753 32.5799 299.26 42.3037C308.768 52.0276 313.521 63.8796 313.521 77.9251C313.521 91.9706 308.768 103.986 299.26 113.546ZM282.012 59.2961C277.322 54.4831 271.444 52.0931 264.378 52.0931C257.312 52.0931 251.337 54.5811 246.455 59.5906C241.573 64.5996 239.132 70.6896 239.132 77.9251C239.132 85.1606 241.573 91.2826 246.455 96.2591C251.337 101.269 257.312 103.757 264.378 103.757C271.444 103.757 277.579 101.302 282.397 96.3576C287.215 91.4141 289.624 85.2916 289.624 77.9251L289.046 76.9426C289.046 69.9691 286.701 64.1086 282.012 59.2961Z" fill="black"/>
<path d="M399.52 117.407C400.32 117.407 400.95 117.64 401.408 118.107C401.865 118.574 402.094 119.215 402.094 120.032V125.106C402.094 125.922 401.865 126.564 401.408 127.03C400.95 127.497 400.32 127.73 399.52 127.73H344.762C343.961 127.73 343.332 127.497 342.874 127.03C342.416 126.564 342.188 125.922 342.188 125.106V7.87841C342.188 7.06186 342.416 6.42036 342.874 5.95376C343.332 5.48716 343.961 5.25391 344.762 5.25391H350.427C351.228 5.25391 351.857 5.48716 352.315 5.95376C352.773 6.42036 353.002 7.06186 353.002 7.87841V117.407H399.52Z" fill="black"/>
<path d="M490.435 41.9841C491.236 41.9841 491.865 42.2173 492.323 42.6839C492.781 43.1505 493.01 43.792 493.01 44.6085V125.093C493.01 125.91 492.781 126.551 492.323 127.018C491.865 127.484 491.236 127.718 490.435 127.718H485.8C484.313 127.718 483.454 126.843 483.226 125.093L482.367 113.72C479.049 118.736 474.757 122.702 469.493 125.618C464.229 128.418 458.279 129.817 451.641 129.817C443.745 129.817 436.651 127.834 430.357 123.868C424.063 119.903 419.142 114.537 415.594 107.772C412.047 100.89 410.273 93.3076 410.273 85.0256C410.273 76.7441 412.047 69.2206 415.594 62.4551C419.142 55.5731 424.063 50.1491 430.357 46.1832C436.651 42.2173 443.745 40.2344 451.641 40.2344C458.393 40.2344 464.401 41.6924 469.665 44.6085C474.929 47.408 479.22 51.3741 482.539 56.5061L483.226 44.6085C483.454 42.8589 484.313 41.9841 485.8 41.9841H490.435ZM452.328 120.194C460.11 120.194 466.861 117.57 472.583 112.321C478.305 107.072 481.91 100.423 483.397 92.3741L483.74 85.0256L483.397 77.5021C481.91 69.4536 478.305 62.8051 472.583 57.5561C466.861 52.3071 460.11 49.6826 452.328 49.6826C446.263 49.6826 440.77 51.1991 435.849 54.2316C430.929 57.2646 427.095 61.4636 424.349 66.8291C421.602 72.1951 420.229 78.2021 420.229 84.8506C420.229 91.4996 421.602 97.5651 424.349 103.047C427.095 108.413 430.929 112.612 435.849 115.645C440.77 118.678 446.263 120.194 452.328 120.194Z" fill="black"/>
<path d="M550.55 40.2423C558.445 40.2423 565.54 42.2252 571.835 46.1911C578.125 50.157 583.05 55.581 586.595 62.463C590.145 69.2285 591.915 76.752 591.915 85.0335C591.915 93.3155 590.145 100.898 586.595 107.78C583.05 114.545 578.125 119.91 571.835 123.876C565.54 127.842 558.445 129.825 550.55 129.825C543.91 129.825 537.96 128.426 532.695 125.626C527.435 122.71 523.14 118.744 519.825 113.728L518.965 125.101C518.735 126.851 517.875 127.725 516.39 127.725H511.755C510.955 127.725 510.325 127.492 509.865 127.025C509.41 126.559 509.18 125.918 509.18 125.101V2.6245C509.18 1.80798 509.41 1.16644 509.865 0.699865C510.325 0.233289 510.955 0 511.755 0H516.905C517.705 0 518.335 0.233289 518.795 0.699865C519.25 1.16644 519.48 1.80798 519.48 2.6245V54.2395L519.65 56.514C522.97 51.382 527.26 47.4159 532.525 44.6164C537.79 41.7003 543.795 40.2423 550.55 40.2423ZM549.86 120.202C555.925 120.202 561.42 118.686 566.34 115.653C571.26 112.62 575.095 108.421 577.84 103.055C580.59 97.573 581.96 91.5075 581.96 84.8585C581.96 78.21 580.59 72.203 577.84 66.837C575.095 61.4715 571.26 57.2725 566.34 54.2395C561.42 51.207 555.925 49.6905 549.86 49.6905C542.08 49.6905 535.33 52.315 529.605 57.564C523.885 62.813 520.28 69.4615 518.795 77.51L518.45 85.0335L518.795 92.382C520.28 100.431 523.885 107.079 529.605 112.328C535.33 117.577 542.08 120.202 549.86 120.202Z" fill="black"/>
<path d="M612.282 62.8043C612.282 67.0033 613.942 70.2693 617.262 72.6023C620.692 74.9353 625.902 77.3848 632.882 79.9508C638.832 82.1673 643.582 84.2083 647.127 86.0748C650.677 87.9413 653.707 90.5653 656.227 93.9483C658.742 97.2143 660.002 101.413 660.002 106.546C660.002 111.095 658.687 115.177 656.052 118.793C653.422 122.293 649.932 125.034 645.582 127.017C641.237 129 636.657 129.991 631.852 129.991C625.442 129.991 619.492 128.592 613.997 125.792C608.507 122.993 604.102 119.61 600.782 115.644C600.212 114.828 599.922 114.244 599.922 113.894C599.922 113.544 600.152 113.02 600.612 112.32L603.702 108.82C604.272 108.12 604.732 107.771 605.072 107.771C605.532 107.771 606.217 108.237 607.132 109.17C609.652 111.97 613.082 114.594 617.432 117.044C621.782 119.377 626.532 120.543 631.677 120.543C637.287 120.543 641.752 119.318 645.067 116.869C648.387 114.303 650.047 110.862 650.047 106.546C650.047 103.28 649.072 100.539 647.127 98.3223C645.182 95.9893 642.782 94.1233 639.917 92.7233C637.057 91.3238 633.222 89.6908 628.417 87.8243C622.812 85.7248 618.232 83.8003 614.687 82.0503C611.252 80.1843 608.337 77.7348 605.932 74.7018C603.527 71.5523 602.327 67.5868 602.327 62.8043C602.327 58.4883 603.472 54.6393 605.762 51.2563C608.162 47.7571 611.367 45.016 615.372 43.033C619.492 41.05 624.012 40.0586 628.932 40.0586C633.397 40.0586 638.032 41.225 642.837 43.5579C647.757 45.7741 651.932 48.9235 655.367 53.0063C655.827 53.4728 656.052 53.9978 656.052 54.5808C656.052 55.1638 655.767 55.8638 655.197 56.6803L653.307 59.1298C652.852 59.8298 652.277 60.1798 651.592 60.1798C651.017 60.1798 650.332 59.7713 649.532 58.9548C645.982 55.5723 642.607 53.1228 639.402 51.6063C636.202 50.0898 632.537 49.3318 628.417 49.3318C624.412 49.3318 620.692 50.4398 617.262 52.6563C613.942 54.7558 612.282 58.1383 612.282 62.8043Z" fill="black"/>
</g>
<defs>
<clipPath id="clip0_6749_15417">
<rect width="660" height="130" fill="white"/>
</clipPath>
</defs>
</svg>
