<svg width="884" height="195" viewBox="0 0 884 195" fill="none" xmlns="http://www.w3.org/2000/svg">
<mask id="mask0_6739_17421" style="mask-type:luminance" maskUnits="userSpaceOnUse" x="4" y="3" width="317" height="189">
<path d="M4.26562 3.50391H320.231V191.484H4.26562V3.50391Z" fill="white"/>
</mask>
<g mask="url(#mask0_6739_17421)">
<path d="M161.77 91.7434C162.092 91.8569 162.443 91.8569 162.764 91.7434L189.824 82.2729C190.121 82.1731 190.379 81.9826 190.561 81.7284C190.744 81.4741 190.842 81.1689 190.842 80.8559C190.842 80.5428 190.744 80.2376 190.561 79.9834C190.379 79.7291 190.121 79.5387 189.824 79.4389L162.264 69.7994L150.512 65.6849C150.215 65.5851 149.957 65.3946 149.775 65.1404C149.592 64.8861 149.493 64.5809 149.493 64.2679C149.493 63.9548 149.592 63.6496 149.775 63.3954C149.957 63.1411 150.215 62.9507 150.512 62.8509L177.571 53.3869C177.891 53.2749 178.24 53.2749 178.559 53.3869L193.867 58.7364L253.004 79.4389C253.298 79.5401 253.554 79.7308 253.735 79.9842C253.916 80.2377 254.013 80.5413 254.013 80.8526C254.013 81.164 253.916 81.4676 253.735 81.721C253.554 81.9745 253.298 82.1651 253.004 82.2664L162.764 113.856C162.443 113.97 162.092 113.97 161.77 113.856L112.116 96.4884C111.89 96.408 111.648 96.3833 111.41 96.4163C111.172 96.4493 110.946 96.5392 110.75 96.6781C110.555 96.8171 110.395 97.0012 110.286 97.2148C110.176 97.4284 110.12 97.6653 110.121 97.9054V133.096C110.121 133.409 110.218 133.714 110.4 133.968C110.582 134.222 110.839 134.413 111.135 134.513L161.776 151.94C162.092 152.049 162.436 152.049 162.751 151.94L223.474 130.912C223.7 130.833 223.942 130.81 224.179 130.843C224.416 130.877 224.641 130.967 224.836 131.106C225.031 131.245 225.189 131.428 225.299 131.641C225.408 131.854 225.464 132.09 225.463 132.329V157.198C225.465 157.509 225.369 157.813 225.189 158.067C225.01 158.321 224.756 158.513 224.462 158.615L162.764 180.208C162.443 180.322 162.092 180.322 161.77 180.208L84.2769 153.084C83.9822 152.982 83.7266 152.791 83.546 152.537C83.3653 152.283 83.2686 151.979 83.2694 151.667V87.4469C83.2688 87.1362 83.1715 86.8335 82.9909 86.5807C82.8104 86.3279 82.5556 86.1377 82.2619 86.0364L8.33091 60.1534C8.03416 60.0536 7.77623 59.8631 7.59351 59.6089C7.41079 59.3546 7.3125 59.0495 7.3125 58.7364C7.3125 58.4233 7.41079 58.1181 7.59351 57.8639C7.77623 57.6096 8.03416 57.4192 8.33091 57.3194L161.77 3.61637C162.092 3.50288 162.443 3.50288 162.764 3.61637L316.203 57.3194C316.5 57.4192 316.758 57.6096 316.941 57.8639C317.124 58.1181 317.222 58.4233 317.222 58.7364C317.222 59.0495 317.124 59.3546 316.941 59.6089C316.758 59.8631 316.5 60.0536 316.203 60.1534L289.144 69.6239C288.824 69.7358 288.476 69.7358 288.156 69.6239L162.764 25.7359C162.443 25.6224 162.092 25.6224 161.77 25.7359L71.5304 57.3194C71.2337 57.4192 70.9757 57.6096 70.793 57.8639C70.6103 58.1181 70.512 58.4233 70.512 58.7364C70.512 59.0495 70.6103 59.3546 70.793 59.6089C70.9757 59.8631 71.2337 60.0536 71.5304 60.1534L161.77 91.7434Z" fill="#1B0E0E"/>
<path d="M286.654 92.6378C286.881 92.555 287.124 92.5282 287.363 92.5596C287.602 92.5911 287.829 92.6799 288.027 92.8184C288.224 92.957 288.385 93.1412 288.496 93.3553C288.606 93.5695 288.664 93.8073 288.663 94.0483V179.328C288.662 179.638 288.566 179.94 288.387 180.193C288.207 180.446 287.954 180.636 287.662 180.739L263.755 189.208C263.529 189.29 263.286 189.316 263.048 189.284C262.81 189.251 262.583 189.162 262.387 189.024C262.19 188.886 262.03 188.702 261.92 188.489C261.809 188.275 261.752 188.038 261.753 187.798L261.727 102.596C261.725 102.286 261.82 101.983 261.998 101.729C262.176 101.475 262.429 101.283 262.721 101.179L286.654 92.6378Z" fill="#1B0E0E"/>
</g>
<path d="M394.355 61.3412V44.8572H436.351C436.351 60.9772 433.056 72.4497 423.286 81.4847C414.745 89.4147 404.976 91.7417 394.595 91.7417C379.944 91.7417 369.934 86.3662 363.343 79.6517C357.233 73.5482 351.617 63.6617 351.617 50.2262C351.617 37.2912 356.752 26.6637 363.831 19.7022C370.545 12.9877 381.043 7.74219 395.453 7.74219C403.019 7.74219 411.203 9.45169 417.423 13.2347C423.774 17.1412 429.026 23.6152 431.957 29.9592L411.807 38.2662C410.588 35.0835 408.574 32.2662 405.957 30.0827C402.785 27.4042 398.746 25.9717 394.595 26.0527C389.59 26.0527 384.462 27.8857 380.679 31.6687C375.914 36.4332 373.594 43.9992 373.594 50.3497C373.594 57.7987 376.285 63.9022 380.068 67.9322C383.974 72.0857 388.739 74.1592 394.966 74.1592C398.625 74.1592 402.896 73.5482 406.685 70.3762C408.635 68.7837 410.956 65.8587 411.69 61.3412H394.355ZM443.729 9.56869H476.697C482.8 9.56869 490.607 10.5437 496.593 16.7772C501.234 21.5352 503.548 28.6202 503.548 35.0877C503.548 42.0427 501.111 48.1527 497.081 52.0592C493.909 55.1142 489.638 56.9407 485.849 57.6752L511.368 91.0072H485.121L464.854 59.7487V91.0072H443.729V9.56869ZM464.854 25.9292V46.0792H468.884C472.056 46.0792 476.573 45.2212 479.134 42.7837C480.72 41.1912 481.819 38.5067 481.819 35.9457C481.819 33.5017 480.844 30.8107 479.011 29.1077C477.061 27.1577 473.518 25.9292 468.877 25.9292H464.854ZM560.443 9.56869V27.5217H535.288V41.0742H559.097V59.0142H535.294V73.0542H560.449V91.0072H514.169V9.56869H560.443ZM614.068 9.56869V27.5217H588.919V41.0742H612.729V59.0142H588.919V73.0542H614.074V91.0072H567.794V9.56869H614.068ZM650.981 91.0072H621.439V9.56869H649.155C657.332 9.56869 671.008 10.6737 681.505 20.8072C691.028 29.9592 692.861 41.6852 692.861 50.4732C692.861 61.2177 690.176 70.7402 682.24 78.6767C675.766 85.1442 664.904 91.0072 650.981 91.0072ZM642.557 27.5217V73.0607H646.834C651.963 73.0607 659.165 72.5732 664.657 67.1977C667.342 64.6367 670.884 59.5082 670.884 50.4732C670.884 42.9007 668.564 36.4332 664.534 32.6502C659.529 28.0092 652.938 27.5152 647.686 27.5152L642.557 27.5217ZM409.981 188.507L404.976 174.831H375.427L369.934 188.507H347.594L378.846 107.069H401.921L432.568 188.507H409.981ZM381.29 158.718H399.36L390.201 132.347L381.29 158.718ZM491.244 161.279V186.304C482.82 189.359 478.179 190.334 472.927 190.334C458.763 190.334 448.142 184.724 441.428 178.127C433.613 170.22 429.189 159.577 429.097 148.461C429.097 136.865 434.102 125.873 441.428 118.431C445.462 114.386 450.258 111.18 455.539 109C460.819 106.82 466.479 105.709 472.192 105.73C476.105 105.73 482.449 106.341 491.237 109.883V135.155C484.406 126.731 476.352 126.237 472.803 126.237C466.7 126.237 462.059 128.07 458.152 131.613C453.147 136.254 451.067 142.598 451.067 148.337C451.067 153.953 453.394 160.18 457.665 164.21C461.207 167.506 466.823 169.826 472.81 169.826C475.982 169.826 483.795 169.462 491.244 161.279ZM553.254 188.507L548.242 174.831H518.693L513.201 188.507H490.867L522.119 107.069H545.194L575.835 188.507H553.254ZM524.556 158.718H542.626L533.468 132.347L524.556 158.718ZM608.673 188.507H579.124V107.069H606.84C615.023 107.069 628.699 108.174 639.197 118.307C648.719 127.459 650.552 139.185 650.552 147.973C650.552 158.718 647.868 168.24 639.931 176.177C633.457 182.644 622.589 188.507 608.673 188.507ZM600.249 125.022V170.561H604.519C609.654 170.561 616.856 170.073 622.349 164.698C625.033 162.137 628.576 157.008 628.576 147.973C628.576 140.401 626.255 133.933 622.225 130.15C617.22 125.509 610.629 125.015 605.377 125.015L600.249 125.022ZM704.19 107.069V125.022H679.035V138.574H702.845V156.514H679.035V170.554H704.19V188.507H657.917V107.069H704.19ZM728.884 188.507H707.882L721.675 107.069H742.553L759.037 150.534L776.496 107.069H797.621L809.828 188.507H788.71L782.723 141.623L763.067 188.507H754.643L735.839 141.623L728.884 188.507ZM831.922 188.507V149.442L802.496 107.075H827.768L843.154 129.292L857.928 107.069H883.564L853.164 149.436V188.507H831.922Z" fill="#1B0E0E"/>
</svg>
