<svg width="192" height="18" viewBox="0 0 192 18" fill="none" xmlns="http://www.w3.org/2000/svg">
<g clip-path="url(#clip0_4767_9381)">
<path d="M145.568 0H136.579C133.125 0 130.327 2.80566 130.327 6.26958V11.7303C130.327 15.1943 133.125 18 136.579 18H145.781V17.9906C149.135 17.8777 151.822 15.1222 151.822 11.7304V6.26961C151.822 2.80566 149.024 0 145.568 0ZM144.599 15.0094H137.548V2.99061H144.599V15.0094ZM45.7162 0H36.7274C33.2726 0 30.4744 2.80566 30.4744 6.26958V11.7303C30.4744 15.1943 33.2726 18 36.7274 18H45.9288V17.9906C49.2836 17.8777 51.9692 15.1222 51.9692 11.7304V6.26961C51.9692 2.80566 49.171 0 45.7162 0ZM44.747 15.0094H37.6966V2.99061H44.747V15.0094ZM96.0253 3.13479H96.0285L90.8071 12.2006V0H87.1897C84.9542 0 82.8907 1.19436 81.7745 3.13479L74.2083 16.2727L70.8785 10.4922C73.2704 10.4639 75.2026 8.51097 75.2026 6.10656V4.38871C75.2026 1.96551 73.2423 0 70.8254 0H53.7077V18H60.9299V10.4953H62.5432L66.8641 18H76.5501L83.5848 5.78056V18H90.8071V17.9937L97.8106 5.83073V18H105.033V0H101.44C99.205 0 97.1415 1.19436 96.0253 3.13479ZM67.9803 7.50469H60.9299V2.99061H67.9803V7.50469ZM121.322 0H128.544V18H121.322V10.4953H114.272V18H107.049V0H114.272V7.50471H121.322V0ZM160.826 15.0094H170.15V18H159.857C156.401 18 153.603 15.1943 153.603 11.7303V0H160.826V15.0094ZM179.228 2.99058V7.50469H189.111V10.4953H179.228V15.0094H191.715V18H172.006V0H191.715V2.99061L179.228 2.99058ZM31.8219 0L23.2614 14.8652C22.1453 16.8056 20.0818 18 17.8463 18H14.2289V5.79937L9.00754 14.8652C7.89138 16.8056 5.82786 18 3.59238 18H0V0H7.22543V12.1693L14.2289 0.00625738V0H21.4511V12.2194L28.4858 0H31.8219Z" fill="black"/>
</g>
<defs>
<clipPath id="clip0_4767_9381">
<rect width="191.715" height="18" fill="white"/>
</clipPath>
</defs>
</svg>
