<svg width="136" height="48" viewBox="0 0 136 48" fill="none" xmlns="http://www.w3.org/2000/svg">
<path d="M25.5699 31.5533V14.7731H29.0871V18.0003H29.2484C29.7326 16.2899 31.1844 14.7731 33.8627 14.7731H34.7986V18.1616H33.411C30.6355 18.1616 29.0871 19.0975 29.0871 20.84V31.5533H25.5699Z" fill="black"/>
<path d="M44.5955 38.3395C39.1096 38.3395 36.9796 36.8554 36.9796 34.3057C36.9796 32.4661 38.0768 31.4661 39.8515 31.0785V30.7236C38.6251 30.336 37.9475 29.4008 37.9475 28.1417C37.9475 26.3993 39.303 25.5604 40.9164 25.173V25.0438C38.9483 24.1079 37.8512 22.3332 37.8512 20.074C37.8512 16.6533 40.2711 14.3304 44.5312 14.3304C45.6604 14.3304 46.6933 14.4917 47.5644 14.8465V14.3947C47.5644 12.91 48.274 12.0068 49.7587 12.0068H52.34V14.8465H48.9193V15.524C50.4363 16.5247 51.2749 18.138 51.2749 20.074C51.2749 23.4626 48.8222 25.7533 44.5628 25.7533C43.756 25.7533 42.9817 25.6563 42.3685 25.495C41.5296 25.7856 40.7551 26.3339 40.7551 27.1731C40.7551 28.077 41.626 28.4316 43.1107 28.4316H47.2411C51.3715 28.4316 53.1139 30.1743 53.1139 33.0789C53.1139 36.5638 50.629 38.3385 44.5949 38.3385L44.5955 38.3395ZM46.7572 31.5631H41.0777C40.3032 32.0148 39.9162 32.6923 39.9162 33.4989C39.9162 34.8546 40.9164 35.7905 43.5304 35.7905H45.7247C48.468 35.7905 49.8231 35.016 49.8231 33.4669C49.8231 32.3054 49.0485 31.5631 46.7576 31.5631H46.7572ZM47.8221 20.3657V19.7204C47.8221 17.8165 46.6285 16.8807 44.5628 16.8807C42.4971 16.8807 41.3034 17.8165 41.3034 19.7204V20.3657C41.3034 22.2695 42.4971 23.2054 44.5628 23.2054C46.6285 23.2054 47.8221 22.2695 47.8221 20.3657Z" fill="black"/>
<path d="M55.2217 22.7853C55.2217 17.4285 58.2547 14.0078 62.9339 14.0078C67.6132 14.0078 70.6464 17.4285 70.6464 22.7853C70.6464 28.1419 67.6132 31.5627 62.9339 31.5627C58.2547 31.5627 55.2217 28.1419 55.2217 22.7853ZM66.9357 24.2051V21.3654C66.9357 18.3965 65.3223 16.9124 62.9346 16.9124C60.5467 16.9124 58.9335 18.3965 58.9335 21.3654V24.2051C58.9335 27.174 60.5467 28.6581 62.9346 28.6581C65.3223 28.6581 66.9357 27.174 66.9357 24.2051Z" fill="black"/>
<path d="M74.9008 31.5509V14.7705H78.418V17.5459H78.5793C79.2889 15.7385 80.7093 14.3835 83.2906 14.3835C86.7114 14.3835 88.7444 16.7714 88.7444 20.9017V31.5509H85.2273V21.3536C85.2273 18.7395 84.2265 17.4167 82.0648 17.4167C80.2254 17.4167 78.4186 18.3525 78.4186 20.3207V31.5509H74.9015H74.9008Z" fill="black"/>
<path d="M92.9511 14.7731H96.4683V31.5533H92.9511V14.7731Z" fill="black"/>
<path d="M114.282 31.1751C112.442 31.1751 111.474 30.0136 111.249 28.3675H111.087C110.442 30.4655 108.635 31.5627 106.182 31.5627C102.729 31.5627 100.761 29.5939 100.761 26.5607C100.761 23.237 103.246 21.5268 107.925 21.5268H110.958V20.1069C110.958 18.0738 109.861 16.8796 107.505 16.8796C105.536 16.8796 104.343 17.8476 103.504 19.171L101.406 17.2672C102.503 15.3955 104.472 14.0078 107.731 14.0078C112.055 14.0078 114.475 16.1378 114.475 19.8806V28.3032H116.25V31.1751H114.281H114.282ZM110.958 26.2058V23.7859H107.989C105.536 23.7859 104.343 24.5927 104.343 26.0445V26.6257C104.343 28.1098 105.44 28.8841 107.182 28.8841C109.345 28.8841 110.958 27.8513 110.958 26.2058Z" fill="black"/>
<path d="M128.607 28.2893H119.594V31.1806H128.607V28.2893Z" fill="black"/>
<path d="M16.0793 18.5006H8.93701V21.3919H16.0793V18.5006Z" fill="black"/>
<path d="M19.8071 28.2913H8.93701V31.1826H19.8071V28.2913Z" fill="black"/>
<path d="M19.8421 8.71191H8.93701V11.6033H19.8421V8.71191Z" fill="black"/>
<path d="M96.4683 8.71191H92.9511V11.6033H96.4683V8.71191Z" fill="black"/>
</svg>
