<svg width="186" height="18" viewBox="0 0 186 18" fill="none" xmlns="http://www.w3.org/2000/svg">
<g clip-path="url(#clip0_4307_2289)">
<mask id="mask0_4307_2289" style="mask-type:luminance" maskUnits="userSpaceOnUse" x="0" y="0" width="28" height="18">
<path d="M27.1305 0H0V18H27.1305V0Z" fill="white"/>
</mask>
<g mask="url(#mask0_4307_2289)">
<path fill-rule="evenodd" clip-rule="evenodd" d="M13.6236 12.9534C13.7488 12.7685 13.7635 12.5244 13.6457 12.332L6.49812 0.237159C6.39507 0.0596195 6.21104 -0.0439453 6.00494 -0.0439453H0.984695C0.54303 -0.0439453 0.26331 0.436891 0.491504 0.82156L9.8842 16.9333C10.0903 17.2957 10.6129 17.3179 10.8485 16.9702L13.6236 12.9534ZM4.94495 16.6818C5.17314 17.0664 4.89342 17.5546 4.45175 17.5546H4.4444H1.00678C0.690252 17.5546 0.432615 17.2957 0.432615 16.9776V11.1484C0.432615 10.5566 1.20553 10.3495 1.49997 10.8525L4.94495 16.6818Z" fill="black"/>
<path d="M27.0796 16.8445C27.3004 17.2291 27.028 17.71 26.5864 17.71H21.5956C21.3895 17.71 21.2055 17.599 21.1024 17.4214L11.4227 0.82156C11.2018 0.436891 11.4742 -0.0439453 11.9158 -0.0439453H16.9287C17.1348 -0.0439453 17.3188 0.0670169 17.4219 0.244557L27.0796 16.8445Z" fill="black"/>
</g>
<mask id="mask1_4307_2289" style="mask-type:luminance" maskUnits="userSpaceOnUse" x="43" y="0" width="142" height="18">
<path d="M184.977 0.692139H43.7462V17.3075H184.977V0.692139Z" fill="white"/>
</mask>
<g mask="url(#mask1_4307_2289)">
<path d="M43.3535 16.9993H46.0089V6.42009L52.1849 16.9993H54.4446L60.6206 6.42009V16.9993H63.276V1.00049H60.6675L53.3249 13.6196L45.962 1.00049H43.3535V16.9993Z" fill="black"/>
<path d="M69.4571 16.9993H79.7367V14.3929H72.1125V10.2998H79.7367V7.69334H72.1125V3.60696H79.7367V1.00049H69.4571V16.9993Z" fill="black"/>
<path d="M89.9006 16.9993H92.556V3.60696H98.7117V1.00049H83.7246V3.60696H89.9006V16.9993Z" fill="black"/>
<path d="M114.594 16.9993H117.511L109.933 1.00049H107.345L99.7675 16.9993H102.678L103.985 14.2129H113.259L114.587 16.9993H114.594ZM105.226 11.6064L108.626 4.40691L112.025 11.6064H105.219H105.226Z" fill="black"/>
<path d="M122.109 16.9993H124.765V11.973H128.191C131.457 11.973 133.811 9.66652 133.811 6.48677C133.811 3.30699 131.457 1.00049 128.191 1.00049H122.109V16.9993ZM124.765 9.36656V3.60696H128.191C129.915 3.60696 131.149 4.82021 131.149 6.48677C131.149 8.15331 129.915 9.36656 128.191 9.36656H124.765Z" fill="black"/>
<path d="M138.832 16.9993H149.253V14.3929H141.488V1.00049H138.832V16.9993Z" fill="black"/>
<path d="M153.92 16.9993H164.199V14.3929H156.576V10.2998H164.199V7.69334H156.576V3.60696H164.199V1.00049H153.92V16.9993Z" fill="black"/>
<path d="M168.363 16.9993H171.791L176.685 11.0798L181.554 16.9993H184.98L178.382 8.99991L184.98 1.00049H181.58L176.685 6.92006L171.791 1.00049H168.363L174.962 8.99991L168.363 16.9993Z" fill="black"/>
</g>
</g>
<defs>
<clipPath id="clip0_4307_2289">
<rect width="186" height="18" fill="white"/>
</clipPath>
</defs>
</svg>
