<svg width="122" height="18" viewBox="0 0 122 18" fill="none" xmlns="http://www.w3.org/2000/svg">
<g clip-path="url(#clip0_4299_2165)">
<path d="M20.3494 14.1919L17.0269 17.7544C16.955 17.8317 16.868 17.8935 16.7712 17.9357C16.6744 17.978 16.57 17.9999 16.4644 18H0.714371C0.639253 17.9999 0.565775 17.978 0.502936 17.9368C0.4401 17.8957 0.39063 17.8371 0.360583 17.7682C0.330536 17.6994 0.321217 17.6233 0.333768 17.5492C0.34632 17.4752 0.380193 17.4063 0.431246 17.3512L3.75 13.7887C3.82186 13.7114 3.90888 13.6496 4.00567 13.6073C4.10244 13.5651 4.2069 13.5432 4.3125 13.5431H20.0625C20.1382 13.5415 20.2129 13.5624 20.2768 13.6032C20.3407 13.6439 20.3914 13.7026 20.4219 13.7719C20.4527 13.8413 20.4621 13.9182 20.4491 13.9929C20.4362 14.0676 20.4015 14.1368 20.3494 14.1919ZM17.0269 7.01623C16.9547 6.93921 16.8676 6.87771 16.7709 6.83546C16.6742 6.79324 16.5699 6.77117 16.4644 6.77063H0.714371C0.639253 6.77066 0.565775 6.7926 0.502936 6.83378C0.4401 6.87493 0.39063 6.93353 0.360583 7.00238C0.330536 7.07123 0.321217 7.14733 0.333768 7.22139C0.34632 7.29546 0.380193 7.36427 0.431246 7.41937L3.75 10.9838C3.82213 11.0608 3.90922 11.1223 4.00593 11.1645C4.10265 11.2067 4.20697 11.2288 4.3125 11.2294H20.0625C20.1375 11.229 20.2106 11.2067 20.2732 11.1655C20.3359 11.1242 20.385 11.0655 20.4148 10.9968C20.4446 10.928 20.4538 10.852 20.4411 10.7781C20.4285 10.7042 20.3947 10.6356 20.3437 10.5806L17.0269 7.01623ZM0.714371 4.45686H16.4644C16.57 4.45676 16.6744 4.43488 16.7712 4.39262C16.868 4.35037 16.955 4.28861 17.0269 4.21123L20.3494 0.648741C20.4015 0.593713 20.4362 0.524486 20.4491 0.449769C20.4621 0.375053 20.4527 0.298183 20.4219 0.228834C20.3914 0.159486 20.3407 0.100756 20.2768 0.0600366C20.2129 0.0193164 20.1382 -0.00157523 20.0625 -9.57728e-06H4.3125C4.2069 0.00010158 4.10244 0.0219688 4.00567 0.0642287C3.90888 0.106488 3.82186 0.168234 3.75 0.245616L0.431246 3.80811C0.380193 3.86321 0.34632 3.93203 0.333768 4.00609C0.321217 4.08015 0.330536 4.15626 0.360583 4.22511C0.39063 4.29396 0.4401 4.35255 0.502936 4.39371C0.565775 4.43488 0.639253 4.45682 0.714371 4.45686Z" fill="url(#paint0_linear_4299_2165)"/>
<path d="M39.5513 7.61254H31.125V4.83754H41.7412V2.06254H31.0969C30.7331 2.06057 30.3728 2.13025 30.036 2.26759C29.6993 2.40495 29.3927 2.60728 29.1343 2.86305C28.8757 3.11882 28.6701 3.42302 28.5291 3.75825C28.3881 4.0935 28.3144 4.45324 28.3125 4.81692V7.62942C28.314 7.99341 28.3871 8.35356 28.5279 8.68922C28.6688 9.0249 28.8742 9.32953 29.1328 9.5857C29.3916 9.84188 29.6981 10.0445 30.0351 10.1821C30.372 10.3197 30.7329 10.3895 31.0969 10.3875H39.5344V13.1625H28.5131V15.9375H39.5513C39.915 15.9395 40.2754 15.8698 40.6121 15.7325C40.9489 15.5951 41.2554 15.3928 41.5138 15.137C41.7724 14.8813 41.9781 14.5771 42.1191 14.2418C42.2601 13.9066 42.3337 13.5468 42.3356 13.1832V10.3707C42.3341 10.0067 42.261 9.64654 42.1202 9.31086C41.9794 8.97518 41.7739 8.67055 41.5153 8.41438C41.2566 8.15822 40.95 7.95555 40.6131 7.81797C40.2761 7.68038 39.9152 7.61057 39.5513 7.61254Z" fill="#171717"/>
<path d="M55.875 2.0625H47.4169C47.0526 2.05954 46.6912 2.12848 46.3536 2.26539C46.0161 2.40231 45.7088 2.60447 45.4494 2.86035C45.1899 3.11621 44.9837 3.42073 44.8423 3.75647C44.7007 4.09221 44.6269 4.45256 44.625 4.81687V13.1831C44.6269 13.5474 44.7007 13.9078 44.8423 14.2435C44.9837 14.5793 45.1899 14.8838 45.4494 15.1396C45.7088 15.3955 46.0161 15.5977 46.3536 15.7346C46.6912 15.8715 47.0526 15.9405 47.4169 15.9375H55.875C56.2388 15.9395 56.5991 15.8698 56.9359 15.7325C57.2726 15.5951 57.5792 15.3928 57.8376 15.137C58.0961 14.8812 58.3018 14.577 58.4428 14.2418C58.5838 13.9065 58.6575 13.5468 58.6594 13.1831V4.81687C58.6575 4.4532 58.5838 4.09346 58.4428 3.75821C58.3018 3.42298 58.0961 3.11878 57.8376 2.86301C57.5792 2.60724 57.2726 2.40491 56.9359 2.26755C56.5991 2.13021 56.2388 2.06053 55.875 2.0625ZM55.8544 13.1625H47.4375V4.8375H55.8506L55.8544 13.1625Z" fill="#171717"/>
<path d="M85.5 2.06252H77.25C76.8862 2.06055 76.5259 2.13023 76.1891 2.26757C75.8524 2.40493 75.5458 2.60727 75.2874 2.86303C75.0289 3.1188 74.8232 3.423 74.6822 3.75823C74.5412 4.09348 74.4675 4.45322 74.4656 4.8169V15.9375H77.2781V11.3794H85.4906V15.9375H88.3031V4.8169C88.3013 4.45163 88.227 4.09035 88.0849 3.75387C87.9426 3.4174 87.7354 3.11237 87.4748 2.85634C87.2143 2.60033 86.9057 2.39839 86.5667 2.26215C86.2277 2.12592 85.8652 2.05808 85.5 2.06252ZM85.4794 8.6044H77.2669V4.83752H85.4794V8.6044Z" fill="#171717"/>
<path d="M118.341 2.06254H110.091C109.727 2.06057 109.366 2.13025 109.03 2.26759C108.693 2.40495 108.387 2.60728 108.128 2.86305C107.869 3.11882 107.664 3.42302 107.523 3.75825C107.382 4.0935 107.308 4.45324 107.306 4.81692V15.9375H110.119V11.3794H118.312V15.9375H121.125V4.81692C121.123 4.45324 121.049 4.0935 120.908 3.75825C120.767 3.42302 120.562 3.11882 120.303 2.86305C120.045 2.60728 119.738 2.40495 119.401 2.26759C119.065 2.13025 118.704 2.06057 118.341 2.06254ZM118.312 8.60442H110.1V4.83754H118.312V8.60442Z" fill="#171717"/>
<path d="M102 13.1625H100.875L96.8531 3.22502C96.7153 2.88218 96.4781 2.58835 96.1721 2.38124C95.8661 2.17411 95.5052 2.06312 95.1356 2.06252H92.64C92.3974 2.06129 92.157 2.10784 91.9326 2.19951C91.7079 2.2912 91.5038 2.4262 91.3313 2.59682C91.1589 2.76747 91.0219 2.97036 90.9279 3.19397C90.834 3.41757 90.7851 3.65749 90.7838 3.90002V15.9375H93.5963V4.83752H94.7213L98.7413 14.775C98.8813 15.1172 99.1204 15.4098 99.4277 15.6156C99.7348 15.8213 100.097 15.9308 100.466 15.93H102.962C103.205 15.9313 103.445 15.8847 103.669 15.793C103.894 15.7014 104.098 15.5663 104.271 15.3957C104.443 15.2251 104.58 15.0222 104.674 14.7986C104.768 14.575 104.817 14.3351 104.818 14.0925V2.06252H102V13.1625Z" fill="#171717"/>
<path d="M63.9563 2.0625H61.1438V13.1831C61.1456 13.5476 61.2197 13.9081 61.3613 14.244C61.5028 14.5798 61.7093 14.8844 61.9688 15.1403C62.2283 15.3962 62.5359 15.5983 62.8736 15.7351C63.2115 15.872 63.573 15.9407 63.9375 15.9375H72.375V13.1625H63.9563V2.0625Z" fill="#171717"/>
</g>
<defs>
<linearGradient id="paint0_linear_4299_2165" x1="2.02687" y1="18.4294" x2="18.5419" y2="-0.189384" gradientUnits="userSpaceOnUse">
<stop offset="0.08" stop-color="#9945FF"/>
<stop offset="0.3" stop-color="#8752F3"/>
<stop offset="0.5" stop-color="#5497D5"/>
<stop offset="0.6" stop-color="#43B4CA"/>
<stop offset="0.72" stop-color="#28E0B9"/>
<stop offset="0.97" stop-color="#19FB9B"/>
</linearGradient>
<clipPath id="clip0_4299_2165">
<rect width="121.125" height="18" fill="white"/>
</clipPath>
</defs>
</svg>
