<svg width="145" height="28" viewBox="0 0 145 28" fill="none" xmlns="http://www.w3.org/2000/svg">
<path d="M13.5251 0C9.61935 0 0 9.7077 0 13.6496C0 17.5916 9.61935 27.2994 13.5251 27.2994C17.4309 27.2994 27.0504 17.5914 27.0504 13.6496C27.0504 9.70787 17.431 0 13.5251 0ZM11.4174 21.4549C9.77043 21.002 5.34228 13.1847 5.79117 11.5225C6.24005 9.86027 13.9858 5.39145 15.6329 5.84446C17.2799 6.2974 21.7081 14.1145 21.2592 15.7768C20.8103 17.4391 13.0644 21.908 11.4174 21.4549Z" fill="#6E54FF"/>
<path d="M45.9525 16.6751V16.6701L38.2675 2.36519C38.1162 2.08362 37.6981 2.15105 37.6414 2.46618L33.8141 23.7114C33.7766 23.9196 33.9351 24.1112 34.1448 24.1112H37.1059C37.2684 24.1112 37.4076 23.9939 37.4366 23.8326L39.6654 11.4364L45.6562 22.9626C45.7821 23.2048 46.1256 23.2048 46.2515 22.9626L52.2423 11.4364L54.4711 23.8326C54.5001 23.9939 54.6393 24.1112 54.8018 24.1112H57.7629C57.9726 24.1112 58.1311 23.9196 58.0936 23.7114L54.2663 2.46618C54.2095 2.15105 53.7915 2.08362 53.6402 2.36519L45.9525 16.6751Z" fill="black"/>
<path d="M70.5471 2.76562C64.4511 2.76562 59.6758 7.54637 59.6758 13.6507C59.6758 19.755 64.4511 24.5384 70.5471 24.5384C76.6272 24.5384 81.3907 19.7563 81.3907 13.6507C81.3907 7.54503 76.6272 2.76562 70.5471 2.76562ZM70.5471 20.8936C66.5718 20.8936 63.4573 17.7118 63.4573 13.6507C63.4573 9.58955 66.5718 6.41037 70.5471 6.41037C74.5065 6.41037 77.6092 9.59088 77.6092 13.6507C77.6092 17.7104 74.5065 20.8936 70.5471 20.8936Z" fill="black"/>
<path d="M98.1459 16.1471L85.3987 2.30041C85.1908 2.0746 84.8164 2.22304 84.8164 2.53127V23.7719C84.8164 23.9592 84.9669 24.111 85.1525 24.111H88.2341C88.4197 24.111 88.5702 23.9592 88.5702 23.7719V11.1296L101.289 25.0025C101.497 25.229 101.872 25.0807 101.872 24.7721V3.53147C101.872 3.34414 101.722 3.19228 101.536 3.19228H98.4819C98.2963 3.19228 98.1459 3.34414 98.1459 3.53147V16.1471Z" fill="black"/>
<path d="M105.141 24.111H108.45C108.581 24.111 108.7 24.0341 108.755 23.914L111.234 18.4962H119.161L121.584 23.9114C121.638 24.0329 121.758 24.111 121.89 24.111H125.48C125.728 24.111 125.891 23.8495 125.783 23.6242L115.613 2.38497C115.491 2.12949 115.13 2.12949 115.008 2.38497L104.839 23.6242C104.731 23.8495 104.893 24.111 105.141 24.111ZM112.788 15.1348L115.251 9.73949L117.669 15.1348H112.788Z" fill="black"/>
<path d="M133.812 3.19336H128.727C128.541 3.19336 128.391 3.34522 128.391 3.53254V23.7729C128.391 23.9602 128.541 24.1121 128.727 24.1121H133.812C140.116 24.1121 144.033 20.1042 144.033 13.6514C144.033 7.1986 140.116 3.19336 133.812 3.19336ZM133.812 20.5232H132.172V6.75431H133.812C137.904 6.75431 140.252 9.26838 140.252 13.6514C140.252 18.0185 137.904 20.5232 133.812 20.5232Z" fill="black"/>
</svg>
