<svg width="1281" height="166" viewBox="0 0 1281 166" fill="none" xmlns="http://www.w3.org/2000/svg">
<g clip-path="url(#clip0_6731_15556)">
<path fill-rule="evenodd" clip-rule="evenodd" d="M170.538 0.21875H0V21.0239H170.538V0.21875ZM153.667 37.174H16.8346V57.9791H153.667V37.174ZM74.861 74.1355H95.641V165.497H74.861V74.1355ZM54.0817 74.1355H33.3015V165.497H54.0817V74.1355ZM116.439 74.1355H137.219V165.497H116.439V74.1355Z" fill="black"/>
<mask id="mask0_6731_15556" style="mask-type:luminance" maskUnits="userSpaceOnUse" x="224" y="29" width="1057" height="108">
<path d="M1280.91 29.1211H224V136.592H1280.91V29.1211Z" fill="white"/>
</mask>
<g mask="url(#mask0_6731_15556)">
<path d="M279.415 46.813C258.359 46.813 242.398 59.0988 242.398 81.9755C242.398 104.852 258.901 118.833 281.107 118.833C297.288 118.833 311.997 109.513 314.84 92.6854C319.596 94.8037 324.251 96.922 329.126 98.8201C326.164 126.56 301.198 136.203 278.89 136.203C246.85 136.186 224 113.207 224 81.9589C224 50.7105 247.273 29.9688 279.736 29.9688C303.635 29.9688 324.573 40.6616 329.549 63.742L314.417 69.5714C309.763 53.7947 293.361 46.6943 279.415 46.6943V46.796V46.813Z" fill="black"/>
<path d="M344.359 83.2295C344.359 50.1849 365.415 29.1211 397.133 29.1211C428.852 29.1211 450.551 50.5069 450.551 82.1786C450.551 113.851 429.394 136.287 397.557 136.287C365.72 136.287 344.258 115.003 344.258 83.2295H344.359ZM397.235 45.5248C375.757 45.5248 362.115 59.1832 362.115 81.7383C362.115 104.293 375.757 120.07 397.54 120.07C419.324 120.07 432.965 106.412 432.965 83.8566C432.965 61.3014 419.001 45.5248 397.219 45.5248H397.235Z" fill="black"/>
<path d="M559.585 132.898H473.18V32.9336H490.105V116.375H559.585V132.898Z" fill="black"/>
<path d="M565.734 83.2295C565.734 50.1849 586.773 29.1211 618.61 29.1211C650.448 29.1211 672.028 50.5069 672.028 82.1786C672.028 113.851 650.871 136.287 619.033 136.287C587.196 136.287 565.734 115.003 565.734 83.2295ZM618.61 45.5248C597.149 45.5248 583.49 59.1832 583.49 81.7383C583.49 104.293 597.131 120.07 618.915 120.07C640.698 120.07 654.34 106.412 654.34 83.8566C654.34 61.3014 640.377 45.5248 618.593 45.5248H618.61Z" fill="black"/>
<path d="M793.526 101.345C793.526 128.662 765.822 136.61 743.72 136.61C726.895 136.61 697.493 134.17 691.789 107.175L706.802 99.9725C713.149 116.699 728.906 118.935 741.925 118.935C753.668 118.935 774.927 116.495 774.927 102.735C774.927 77.0111 692.33 105.48 692.33 62.1834C692.33 38.7811 719.936 29.5625 742.041 29.5625C764.143 29.5625 787.946 36.9678 791.327 59.4212L777.263 65.0303C773.031 49.9993 756.855 45.2206 742.041 45.2206C728.077 45.2206 712.32 50.7279 712.32 60.5735C712.32 84.2978 793.648 59.0992 793.648 101.447L793.548 101.345H793.526Z" fill="black"/>
<path d="M911.05 101.345C911.05 128.662 883.238 136.61 861.237 136.61C844.434 136.61 815.015 134.17 809.312 107.175L824.321 99.9725C830.672 116.699 846.43 118.935 859.442 118.935C871.193 118.935 892.451 116.495 892.451 102.735C892.451 77.0111 809.853 105.48 809.853 62.1834C809.853 38.7811 837.456 29.5625 859.565 29.5625C881.667 29.5625 905.463 36.9678 908.851 59.4212L894.787 65.0303C890.555 49.9993 874.372 45.2206 859.565 45.2206C845.601 45.2206 829.843 50.7279 829.843 60.5735C829.843 84.2978 911.172 59.0992 911.172 101.447L911.064 101.345H911.05Z" fill="black"/>
<path d="M1026.11 132.898H932.711V32.9336H1023.25V49.7779H949.536V72.9596H1010.77V90.1096H949.536V116.375H1026.11V132.898Z" fill="black"/>
<path d="M1045.27 95.9383V32.9336H1062.19V92.0243C1062.19 109.597 1072.35 119.341 1093.71 119.341C1115.07 119.341 1125.23 109.597 1125.23 92.0243V32.9336H1142.15V95.9383C1142.15 120.086 1123.96 136.49 1093.71 136.49C1063.46 136.49 1045.27 120.07 1045.27 95.9383Z" fill="black"/>
<path d="M1224.33 103.141L1259.45 32.9336H1280.91V132.898H1263.98V63.1143C1257.11 76.027 1235.33 120.086 1228.44 133H1220.3L1184.87 63.1143V132.796H1167.95V32.9336H1189.3C1196.17 46.1684 1217.66 90.0078 1224.43 103.141H1224.33Z" fill="black"/>
</g>
</g>
<defs>
<clipPath id="clip0_6731_15556">
<rect width="1281" height="166" fill="white"/>
</clipPath>
</defs>
</svg>
