<svg width="900" height="360" viewBox="0 0 900 360" fill="none" xmlns="http://www.w3.org/2000/svg">
<path d="M368.182 117.37H417.072C427.502 117.37 436.925 119.859 445.34 124.837C453.873 129.696 460.57 136.748 465.429 145.993C470.407 155.238 472.896 166.083 472.896 178.527C472.896 191.802 470.467 203.239 465.607 212.84C460.748 222.321 454.051 229.551 445.518 234.529C437.103 239.389 427.621 241.818 417.072 241.818H368.182V117.37ZM414.583 220.662C424.184 220.662 432.125 217.106 438.406 209.995C444.688 202.884 447.829 192.395 447.829 178.527C447.829 169.994 446.347 162.705 443.384 156.66C440.421 150.615 436.391 146.112 431.295 143.149C426.317 140.067 420.747 138.526 414.583 138.526H392.894V220.662H414.583Z" fill="black"/>
<path d="M527.924 171.416C522.946 171.416 518.976 173.49 516.013 177.638C513.05 181.787 511.568 186.646 511.568 192.217V241.818H488.634V152.215H511.568V163.949C513.346 160.156 515.776 157.253 518.857 155.238C521.939 153.223 525.554 152.215 529.702 152.215H540.725V171.416H527.924Z" fill="black"/>
<path d="M553.22 152.215H576.154V241.818H553.22V152.215ZM577.22 115.77V139.237H552.509V115.77H577.22Z" fill="black"/>
<path d="M604.637 171.416H587.925V152.215H604.637V139.948C604.637 131.415 606.77 124.896 611.037 120.392C615.304 115.888 621.407 113.636 629.348 113.636H651.216V132.837H636.993C633.793 132.837 631.423 133.667 629.882 135.326C628.341 136.867 627.571 139.474 627.571 143.149V152.215H652.994V171.416H627.571V241.818H604.637V171.416Z" fill="black"/>
<path d="M697.199 120.926V152.215H721.378V171.416H697.199V212.84C697.199 219.358 700.162 222.618 706.088 222.618H720.844V241.818H699.333C691.273 241.818 685.051 239.685 680.665 235.418C676.399 231.033 674.265 224.336 674.265 215.329V171.416H657.553V152.215H674.265V130.526L697.199 120.926Z" fill="black"/>
<path d="M289.302 239.134C289.302 245.683 286.853 251.422 282.925 255.816C282.907 255.836 282.895 255.86 282.889 255.886L282.799 256.318C282.776 256.426 282.873 256.521 282.981 256.496C294.404 253.843 303.701 244.159 303.701 231.398V165.953C303.701 146.607 292.895 128.731 275.354 119.058L204.526 80L190.496 87.9387L260.955 126.793C278.497 136.466 289.302 154.343 289.302 173.689V239.134Z" fill="black"/>
<path d="M269.504 250.308V184.863C269.504 165.517 258.699 147.64 241.157 137.967L170.698 99.1126L184.728 91.1739L255.556 130.232C273.097 139.905 283.903 157.781 283.903 177.127V242.572C283.903 255.333 274.606 265.017 263.183 267.67C263.076 267.695 262.979 267.6 263.001 267.491L263.092 267.06C263.097 267.034 263.109 267.01 263.127 266.99C267.055 262.596 269.504 256.857 269.504 250.308Z" fill="black"/>
<path fill-rule="evenodd" clip-rule="evenodd" d="M150 110.82L164.213 102.777L235.041 141.835C252.582 151.508 263.388 169.385 263.388 188.731V254.498L263.386 254.497C263.145 274.159 240.793 286.378 222.892 276.507L158.699 241.108L150 236.434V110.82ZM248.989 196.671V234.664L201.295 208.363V139.106L220.642 149.775C238.184 159.448 248.989 177.325 248.989 196.671ZM183.296 129.181L190.496 133.151V214.314L191.251 214.719L248.989 246.558V253.908L183.389 217.734L183.296 217.786V129.181ZM171.598 122.73V224.029L171.936 224.214L171.598 224.405L248.901 267.034C248.255 270.434 244.194 272.374 240.89 270.552L164.398 228.371V118.76L171.598 122.73Z" fill="black"/>
</svg>
