<svg width="88" height="33" viewBox="0 0 88 33" fill="none" xmlns="http://www.w3.org/2000/svg">
<g clip-path="url(#clip0_6397_15259)">
<path d="M48.7135 23.7104C49.7532 23.7104 50.6611 23.5194 51.4376 23.1372C52.2273 22.7415 52.8461 22.2025 53.2933 21.5202C53.7409 20.8241 53.9647 20.0326 53.9647 19.1456C53.9647 17.0986 52.7868 15.6794 50.431 14.8879L47.6081 13.9462C46.7128 13.6324 46.2657 13.1138 46.2657 12.3905C46.2657 11.8992 46.4564 11.5035 46.8379 11.2033C47.2198 10.8894 47.72 10.7325 48.3384 10.7325C49.0492 10.7325 49.6807 10.9372 50.2335 11.3466C50.7862 11.7423 51.2007 12.295 51.4771 13.0046L53.9647 11.8378C53.5565 10.6369 52.8461 9.69532 51.8327 9.01299C50.8324 8.31698 49.6676 7.96899 48.3384 7.96899C47.338 7.96899 46.4496 8.16004 45.6731 8.54214C44.91 8.92428 44.3112 9.45647 43.8769 10.1388C43.4557 10.8212 43.2452 11.6126 43.2452 12.5133C43.2452 14.5876 44.4231 16.0274 46.779 16.8325L49.6613 17.8151C50.5297 18.1153 50.9638 18.6202 50.9638 19.3299C50.9638 19.8212 50.773 20.2169 50.3916 20.5171C50.0228 20.8037 49.5294 20.947 48.911 20.947C48.1214 20.947 47.3974 20.7082 46.7391 20.2305C46.0944 19.7529 45.5879 19.0979 45.2193 18.2654L42.7122 19.4322C43.0017 20.3056 43.436 21.063 44.0151 21.7044C44.6073 22.3458 45.3048 22.8439 46.1076 23.1987C46.9235 23.5399 47.792 23.7104 48.7135 23.7104Z" fill="black"/>
<path d="M61.1201 23.5876C61.6072 23.5876 62.0675 23.5535 62.5019 23.4852V20.8651C62.2256 20.906 61.9954 20.9265 61.811 20.9265C60.5869 20.9265 59.9749 20.3602 59.9749 19.2275V14.9492H62.5019V12.2881H59.9749V9.74988H57.0138V10.5687C57.0138 11.715 56.4416 12.2881 55.2963 12.2881H55.1975V14.9492H57.0138V19.4322C57.0138 20.7423 57.3694 21.7658 58.0798 22.5027C58.8037 23.2259 59.8172 23.5876 61.1201 23.5876Z" fill="black"/>
<path d="M69.429 23.7104C70.5344 23.7104 71.5016 23.4647 72.3312 22.9735C73.1602 22.4685 73.7392 21.8067 74.0681 20.9879L71.6992 19.8211C71.4885 20.2032 71.1927 20.5034 70.8107 20.7218C70.4424 20.9401 69.9948 21.0493 69.4684 21.0493C68.7449 21.0493 68.1523 20.8378 67.692 20.4147C67.2312 19.9917 66.9612 19.4322 66.8824 18.7362H74.4233C74.4763 18.5861 74.5089 18.4086 74.5221 18.204C74.5483 17.9856 74.5615 17.7673 74.5615 17.5489C74.5615 16.5118 74.3513 15.5838 73.9299 14.765C73.5222 13.9325 72.9233 13.2707 72.1336 12.7794C71.344 12.2881 70.3767 12.0425 69.2314 12.0425C68.2053 12.0425 67.2838 12.295 66.4679 12.7999C65.6519 13.3048 65.0005 13.994 64.5134 14.8673C64.0396 15.7407 63.8026 16.7369 63.8026 17.856C63.8026 18.934 64.0332 19.9166 64.494 20.8037C64.9542 21.6907 65.6057 22.4003 66.4479 22.9325C67.2906 23.4511 68.2841 23.7104 69.429 23.7104ZM69.2314 14.4989C69.8371 14.4989 70.3373 14.6831 70.7319 15.0515C71.127 15.42 71.3571 15.8977 71.4228 16.4845H66.9417C67.0863 15.8431 67.3563 15.3518 67.7509 15.0106C68.1591 14.6695 68.6524 14.4989 69.2314 14.4989Z" fill="black"/>
<path d="M76.3052 27.5587H79.2663V22.605C79.6482 22.9735 80.1021 23.2532 80.6286 23.4443C81.1681 23.6217 81.7408 23.7104 82.3461 23.7104C83.3989 23.7104 84.3399 23.4511 85.169 22.9325C85.998 22.414 86.6495 21.7112 87.1234 20.8241C87.6104 19.9371 87.8537 18.9545 87.8537 17.8764C87.8537 16.7847 87.6104 15.8022 87.1234 14.9287C86.6364 14.0417 85.9786 13.3389 85.1495 12.8204C84.32 12.3018 83.3921 12.0425 82.366 12.0425C80.9312 12.0425 79.8326 12.5133 79.0692 13.4549V12.2881H76.3052V27.5587ZM81.9909 20.9469C81.1881 20.9469 80.5298 20.6672 80.0165 20.1076C79.5163 19.5345 79.2663 18.7907 79.2663 17.8764C79.2663 16.9758 79.5163 16.2388 80.0165 15.6656C80.5298 15.0925 81.1881 14.8059 81.9909 14.8059C82.8068 14.8059 83.4778 15.0993 84.0042 15.6861C84.5306 16.2593 84.7939 16.9894 84.7939 17.8764C84.7939 18.7771 84.5306 19.514 84.0042 20.0872C83.4778 20.6604 82.8068 20.9469 81.9909 20.9469Z" fill="black"/>
<path d="M0.0140327 8.05972L13.887 0.0494385L13.8865 16.069L0.0134277 24.0792L0.0140327 8.05972Z" fill="#118AB2"/>
<path d="M13.8884 0.0343018L27.7621 8.04353L23.1376 10.7133L9.26392 2.70405L13.8884 0.0343018Z" fill="#00F8B7"/>
<path d="M23.1273 10.7083L23.1275 16.0481L9.25445 8.03784L9.25427 2.698L23.1273 10.7083Z" fill="#09BD8E"/>
<path d="M9.24494 8.0459L23.1185 16.0552L18.494 18.7249L4.62036 10.7157L9.24494 8.0459Z" fill="#FFE3A3"/>
<path d="M18.5492 18.7526L18.5493 24.0924L4.67633 16.0822L4.67615 10.7423L18.5492 18.7526Z" fill="#FFBB1D"/>
<path d="M4.63417 16.0573L18.5078 24.0665L13.8833 26.7363L0.00964355 18.727L4.63417 16.0573Z" fill="#FF965E"/>
<path d="M13.873 26.7315L13.8732 32.0713L0.000201433 24.061L0 18.7212L13.873 26.7315Z" fill="#D94C00"/>
<path d="M23.1332 10.71L27.7575 8.03992L27.7569 24.0594L23.1326 26.7295L23.1332 10.71Z" fill="#06D6A0"/>
<path d="M18.4992 18.7217L23.1235 16.0516L23.1231 26.7313L18.4988 29.4014L18.4992 18.7217Z" fill="#FFD166"/>
<path d="M13.8652 26.7331L18.4895 24.063L18.4893 29.4028L13.865 32.0729L13.8652 26.7331Z" fill="#F3722C"/>
</g>
<defs>
<clipPath id="clip0_6397_15259">
<rect width="87.8904" height="32.0755" fill="white"/>
</clipPath>
</defs>
</svg>
