<svg width="527" height="155" viewBox="0 0 527 155" fill="none" xmlns="http://www.w3.org/2000/svg">
<g clip-path="url(#clip0_6694_15851)">
<path d="M108.639 53.4732C108.639 66.4965 103.908 78.4331 96.0492 87.7046C93.7541 90.4217 91.1782 92.9055 88.3833 95.1218L11.032 148.495C6.38702 151.7 0 148.429 0 142.845V53.4732C0 40.355 4.80116 28.3408 12.7739 19.0347C22.7354 7.39137 37.647 0 54.3197 0C84.3185 0 108.639 23.9422 108.639 53.4732Z" fill="url(#paint0_linear_6694_15851)"/>
<path d="M108.656 124.542C108.656 117.275 106.023 110.614 101.65 105.441C100.373 103.925 98.9393 102.539 97.3841 101.302L53.7229 71.0905C51.4008 69.4837 48.2031 71.119 48.2031 73.9134V124.542C48.2031 131.862 50.8747 138.566 55.3112 143.759C60.8544 150.257 69.1521 154.381 78.4293 154.381C95.1221 154.381 108.656 141.021 108.656 124.542Z" fill="url(#paint1_linear_6694_15851)" fill-opacity="0.8"/>
<path d="M190.638 90.8022V125.224H176V30.3074H213.852C222.301 30.3074 229.427 33.2668 235.264 39.1939L235.27 39.2001C241.197 45.0374 244.157 52.163 244.157 60.6119C244.157 66.6225 242.41 72.1351 238.907 77.1645C235.494 82.1041 231.008 85.6938 225.44 87.9392L224.826 88.1868L225.16 88.758L246.477 125.224H230.512L210.367 90.5151L210.202 90.2304H209.873H191.21H190.638V90.8022ZM191.21 43.9845H190.638V44.5563V76.6676V77.2394H191.21H213.852C218.221 77.2394 221.938 75.6172 224.972 72.3941C228.005 69.1715 229.519 65.2325 229.519 60.6119C229.519 55.9916 228.005 52.0524 224.972 48.8302C221.938 45.6069 218.221 43.9845 213.852 43.9845H191.21ZM281.22 127.008C271.957 127.008 264.055 123.598 257.481 116.756C250.908 109.822 247.621 101.411 247.621 91.4883C247.621 81.4723 250.91 73.0631 257.48 66.2228C264.053 59.3791 271.956 55.9692 281.22 55.9692C291.487 55.9692 299.311 59.7399 304.772 67.2606L305.806 68.6849V66.9244V57.7529H319.483V125.224H305.806V115.915V114.138L304.77 115.582C299.307 123.193 291.484 127.008 281.22 127.008ZM299.464 107.674L299.468 107.67C303.698 103.346 305.806 97.9386 305.806 91.4883C305.806 85.0397 303.698 79.6758 299.466 75.4423C295.235 71.119 289.916 68.9599 283.552 68.9599C277.188 68.9599 271.87 71.119 267.639 75.4423C263.407 79.6758 261.299 85.0397 261.299 91.4883C261.299 97.9386 263.408 103.346 267.637 107.67L267.641 107.674C271.873 111.906 277.191 114.017 283.552 114.017C289.914 114.017 295.232 111.906 299.464 107.674ZM334.304 31.2378L334.313 31.2278C336.036 29.4199 338.127 28.5234 340.624 28.5234C343.12 28.5234 345.212 29.4199 346.934 31.2278L346.944 31.2378C348.667 32.9615 349.521 35.0122 349.521 37.4204C349.521 39.8204 348.627 41.9191 346.806 43.7403C345.082 45.464 343.032 46.3174 340.624 46.3174C338.219 46.3174 336.121 45.4662 334.304 43.7402C332.578 41.9234 331.727 39.825 331.727 37.4204C331.727 35.0122 332.58 32.9615 334.304 31.2378ZM375.374 89.0182V125.224H361.697V57.7529H375.374V65.9638V67.9273L376.428 66.2708C380.788 59.4202 387.678 55.9692 397.217 55.9692C404.951 55.9692 411.153 58.4362 415.88 63.3416C420.601 68.2412 422.993 74.9923 422.993 83.6663V125.224H409.316V85.1758C409.316 79.9514 407.914 75.8528 405.031 72.9699C402.156 70.0949 398.246 68.6855 393.374 68.6855C388.029 68.6855 383.666 70.3785 380.342 73.7961C376.993 77.1473 375.374 82.262 375.374 89.0182ZM516.881 42.6591C512.201 41.9872 507.313 41.6516 502.22 41.6516C496.68 41.6516 492.46 42.6638 489.661 44.7869C486.804 46.9542 485.455 50.6927 485.455 55.8091V57.1814V57.7529H486.027H523.056V125.224H509.379V71.4529V70.8811H508.807H486.027H485.455V71.4529V125.224H471.778V71.4529V70.8811H471.206H461.349V57.7529H471.206H471.778V57.1814V55.8091C471.778 46.6282 474.331 39.8427 479.342 35.3414C484.365 30.8296 491.956 28.5234 502.22 28.5234C506.886 28.5234 511.773 29.0795 516.881 30.1947V42.6591ZM333.785 125.224V57.7529H347.462V125.224H333.785ZM451.194 124.019C449.289 125.925 447.009 126.87 444.326 126.87C441.642 126.87 439.362 125.925 437.457 124.019C435.551 122.113 434.605 119.834 434.605 117.15C434.605 114.46 435.51 112.18 437.324 110.277C439.225 108.378 441.547 107.43 444.326 107.43C447.009 107.43 449.289 108.375 451.194 110.282C453.1 112.188 454.046 114.467 454.046 117.15C454.046 119.834 453.1 122.113 451.194 124.019Z" fill="#1C1D1F" stroke="white" stroke-width="1.14357"/>
</g>
<defs>
<linearGradient id="paint0_linear_6694_15851" x1="0" y1="77.1911" x2="108.639" y2="77.1911" gradientUnits="userSpaceOnUse">
<stop stop-color="#2EC9FF"/>
<stop offset="1" stop-color="#2FA8FF"/>
</linearGradient>
<linearGradient id="paint1_linear_6694_15851" x1="83.4639" y1="-0.00145194" x2="15.0356" y2="128.576" gradientUnits="userSpaceOnUse">
<stop stop-color="#5ECCFF"/>
<stop offset="1" stop-color="#0B92FA"/>
</linearGradient>
<clipPath id="clip0_6694_15851">
<rect width="526.043" height="154.382" fill="white"/>
</clipPath>
</defs>
</svg>
