<svg width="400" height="305" viewBox="0 0 400 305" fill="none" xmlns="http://www.w3.org/2000/svg">
<g clip-path="url(#clip0_6694_15927)">
<path d="M311.375 46.7516H394.731V78.9498C394.731 122.61 359.448 157.9 315.782 157.9H311.37L311.375 46.7516ZM192.735 0H311.375V303.877H297.264C211.259 303.877 194.062 243.893 194.062 190.529L192.735 0ZM0 68.8031C0 123.052 38.8116 142.898 82.0351 149.517H0V304.762H78.9498C158.335 304.762 167.598 269.478 167.598 235.959C167.598 194.941 139.37 166.276 95.7095 155.245H167.598V0H88.6483C9.26242 0 0 35.2835 0 68.8031Z" fill="black"/>
</g>
<defs>
<clipPath id="clip0_6694_15927">
<rect width="400" height="304.762" fill="white"/>
</clipPath>
</defs>
</svg>
