<svg xmlns="http://www.w3.org/2000/svg" viewBox="0 0 166 40" fill="none" class="injected-svg" data-src="/svg/logo.svg" xmlns:xlink="http://www.w3.org/1999/xlink" role="img">
<g clip-path="url(#clip0_6411_14455-1)">
<path d="M17.8796 0C8.00661 0 0.00299835 7.98375 0.00299835 17.8322C0.00299835 22.9686 2.18004 27.5978 5.66389 30.8517L3.61558 39.6977C4.46601 39.8954 5.35232 40 6.26311 40C10.0021 40 13.3285 38.238 15.4534 35.501C16.2462 35.6089 17.0564 35.6644 17.8796 35.6644C27.5604 35.6644 35.444 27.9883 35.7471 18.4049L17.8796 18.4048V18.3775C14.0451 18.3775 10.9367 15.2768 10.9367 11.4519C10.9367 7.62694 14.0451 4.52622 17.8796 4.52622C21.714 4.52622 24.8224 7.62694 24.8224 11.4519C24.8224 12.6024 24.5412 13.6873 24.0436 14.6421C27.2477 14.6421 28.9998 13.5125 29.2998 11.2531C30.12 13.4942 32.177 14.6239 35.4709 14.642C33.9633 6.31583 26.6609 0 17.8796 0Z" fill="#00D89A"></path>
<mask id="mask0_6411_14455-2" style="mask-type:luminance" maskUnits="userSpaceOnUse" x="0" y="0" width="36" height="40">
<path d="M17.881 0C8.00807 0 0.0044632 7.98375 0.0044632 17.8322C0.0044632 22.9686 2.1815 27.5978 5.66536 30.8517L3.61704 39.6977C4.46747 39.8954 5.35378 40 6.26457 40C10.0035 40 13.33 38.238 15.4548 35.501C16.2477 35.6089 17.0578 35.6644 17.881 35.6644C27.5619 35.6644 35.4454 27.9883 35.7485 18.4049L17.881 18.4048V18.3775C14.0466 18.3775 10.9381 15.2768 10.9381 11.4519C10.9381 7.62694 14.0466 4.52622 17.881 4.52622C21.7155 4.52622 24.8239 7.62694 24.8239 11.4519C24.8239 12.6024 24.5427 13.6873 24.045 14.6421C27.2492 14.6421 29.0012 13.5125 29.3012 11.2531C30.1214 13.4942 32.1784 14.6239 35.4723 14.642C33.9648 6.31583 26.6623 0 17.881 0Z" fill="white"></path>
</mask>
<g mask="url(#mask0_6411_14455-2)">
<path d="M11.1831 31.6564C1.09885 31.6564 -7.07609 23.5017 -7.07609 13.4425C-7.07609 3.38317 1.09885 -4.77148 11.1831 -4.77148C21.2674 -4.77148 29.4424 3.38317 29.4424 13.4425C29.4424 23.5017 21.2674 31.6564 11.1831 31.6564Z" fill="#00FFD6"></path>
</g>
<path d="M67.5556 27.4951L64.9961 24.4273H52.2394C51.7925 24.4273 51.3727 24.3387 50.98 24.1614C50.5873 23.9842 50.2453 23.7422 49.9542 23.4354C49.663 23.1286 49.4328 22.7775 49.2635 22.3821C49.1185 22.0434 49.0356 21.6846 49.0148 21.3058C49.0113 21.2424 49.0096 19.4482 49.0096 19.3838C49.0096 19.3723 49.0141 17.583 49.0225 17.514C49.054 17.2543 49.1411 16.6845 49.2534 16.4161C49.4159 16.0275 49.6325 15.6832 49.9034 15.3833C50.1742 15.0833 50.4992 14.8379 50.8784 14.647C51.2576 14.4561 51.6571 14.3539 52.0769 14.3402H67.5556L64.9961 11.2725H51.4269C50.6279 11.327 49.8797 11.5349 49.1823 11.8962C48.4848 12.2576 47.8754 12.7279 47.3541 13.3074C46.8327 13.8869 46.423 14.5516 46.1251 15.3015C45.8457 16.0047 45.6973 16.7508 45.6799 17.514C45.6788 17.5646 45.6782 19.3329 45.6782 19.3838C45.6782 19.4376 45.6789 21.2216 45.6802 21.2751C45.699 22.0489 45.8541 22.7928 46.1454 23.507C46.4569 24.2705 46.8835 24.9454 47.4252 25.5317C47.9668 26.118 48.6033 26.585 49.3346 26.9326C50.0659 27.2803 50.8446 27.4678 51.6706 27.4951H67.5556Z" fill="white"></path>
<path d="M91.9003 27.5175L89.3408 24.7565H73.3699V20.6631H89.3408V17.9021H73.3699V13.9905H91.9003L89.3408 11.25H70.0386V27.5175H91.9003Z" fill="white"></path>
<path d="M103.778 27.5117V13.9905H96.659L94.3839 11.25H113.966L116.261 13.9905H107.13V27.5117H103.778Z" fill="white"></path>
<path d="M134.629 27.4956C135.468 27.4683 136.25 27.2808 136.975 26.9331C137.699 26.5855 138.332 26.1185 138.874 25.5322C139.416 24.9459 139.842 24.271 140.154 23.5075C140.465 22.7439 140.621 21.9395 140.621 21.0941V11.2705H137.33V21.4214C137.33 21.8713 137.246 22.2906 137.076 22.6792C136.907 23.0677 136.677 23.4018 136.386 23.6813C136.095 23.9608 135.753 24.1824 135.36 24.346C134.967 24.5096 134.547 24.5914 134.1 24.5914H125.285C124.838 24.5914 124.418 24.5096 124.025 24.346C123.632 24.1824 123.29 23.9608 122.999 23.6813C122.708 23.4018 122.478 23.0677 122.309 22.6792C122.139 22.2906 122.055 21.8713 122.055 21.4214V11.25H118.744V21.0941C118.744 21.9395 118.899 22.7439 119.211 23.5075C119.522 24.271 119.949 24.9459 120.491 25.5322C121.032 26.1185 121.669 26.5855 122.4 26.9331C123.131 27.2808 123.91 27.4683 124.736 27.4956H134.629Z" fill="white"></path>
<path d="M160.858 27.5038C161.386 27.4629 161.901 27.33 162.402 27.105C162.903 26.88 163.346 26.5869 163.732 26.2256C164.118 25.8643 164.426 25.445 164.656 24.9678C164.852 24.5629 164.964 24.1562 164.994 23.7134C164.999 23.6343 165.002 22.4024 165.002 22.3197C165.002 22.2282 164.999 21.4155 164.993 21.3242C164.965 20.857 164.862 20.3762 164.687 19.9828C164.477 19.5124 164.193 19.1068 163.834 18.7659C163.475 18.4251 163.055 18.1592 162.574 17.9683C162.094 17.7774 161.576 17.6752 161.02 17.6616H147.309C147.052 17.6616 146.831 17.5832 146.649 17.4264C146.502 17.3009 146.415 17.2382 146.385 17.0473C146.378 16.9996 146.374 16.0999 146.374 16.0481C146.374 15.9935 146.378 15.1634 146.386 15.113C146.415 14.9245 146.5 14.7332 146.639 14.6041C146.815 14.4405 147.024 14.3519 147.268 14.3382H163.783L161.223 11.25H146.923C146.395 11.2773 145.897 11.4034 145.43 11.6284C144.963 11.8533 144.556 12.1499 144.211 12.518C143.866 12.8861 143.595 13.3122 143.399 13.7962C143.226 14.2222 143.129 14.6395 143.108 15.113C143.105 15.1775 143.104 15.9827 143.104 16.0481C143.104 16.1285 143.106 16.969 143.11 17.0473C143.135 17.5003 143.231 18.0142 143.399 18.3978C143.595 18.8478 143.862 19.2432 144.201 19.584C144.539 19.9249 144.939 20.1942 145.399 20.3919C145.86 20.5896 146.354 20.7089 146.882 20.7498H160.858C161.102 20.7634 161.311 20.852 161.487 21.0156C161.6 21.1206 161.677 21.2007 161.718 21.3242C161.74 21.3932 161.752 22.2316 161.752 22.3197C161.752 22.3913 161.745 23.6429 161.731 23.7134C161.694 23.8979 161.61 24.0571 161.477 24.1804C161.295 24.3508 161.074 24.4361 160.817 24.4361H143.165L145.916 27.5038H160.858Z" fill="white"></path>
</g>
<defs>
<clipPath id="clip0_6411_14455-1">
<rect width="165.2" height="40" fill="white"></rect>
</clipPath>
</defs>
</svg>