<svg width="28" height="24" viewBox="0 0 28 24" fill="none" xmlns="http://www.w3.org/2000/svg">
<path d="M24.8571 0H2.57143C1.15127 0 0 1.15127 0 2.57143C0 3.99159 1.15127 5.14286 2.57143 5.14286H24.8571C26.2773 5.14286 27.4286 3.99159 27.4286 2.57143C27.4286 1.15127 26.2773 0 24.8571 0Z" fill="url(#paint0_linear_6122_18506)"/>
<path d="M24.8571 0H2.57143C1.15127 0 0 1.15127 0 2.57143C0 3.99159 1.15127 5.14286 2.57143 5.14286H24.8571C26.2773 5.14286 27.4286 3.99159 27.4286 2.57143C27.4286 1.15127 26.2773 0 24.8571 0Z" fill="white" fill-opacity="0.3"/>
<path d="M24.8571 9.42773H2.57143C1.15127 9.42773 0 10.579 0 11.9992C0 13.4193 1.15127 14.5706 2.57143 14.5706H24.8571C26.2773 14.5706 27.4286 13.4193 27.4286 11.9992C27.4286 10.579 26.2773 9.42773 24.8571 9.42773Z" fill="url(#paint1_linear_6122_18506)"/>
<path d="M24.8571 9.42773H2.57143C1.15127 9.42773 0 10.579 0 11.9992C0 13.4193 1.15127 14.5706 2.57143 14.5706H24.8571C26.2773 14.5706 27.4286 13.4193 27.4286 11.9992C27.4286 10.579 26.2773 9.42773 24.8571 9.42773Z" fill="white" fill-opacity="0.3"/>
<path d="M24.8571 18.8574H2.57143C1.15127 18.8574 0 20.0087 0 21.4289C0 22.849 1.15127 24.0003 2.57143 24.0003H24.8571C26.2773 24.0003 27.4286 22.849 27.4286 21.4289C27.4286 20.0087 26.2773 18.8574 24.8571 18.8574Z" fill="url(#paint2_linear_6122_18506)"/>
<path d="M24.8571 18.8574H2.57143C1.15127 18.8574 0 20.0087 0 21.4289C0 22.849 1.15127 24.0003 2.57143 24.0003H24.8571C26.2773 24.0003 27.4286 22.849 27.4286 21.4289C27.4286 20.0087 26.2773 18.8574 24.8571 18.8574Z" fill="white" fill-opacity="0.3"/>
<defs>
<linearGradient id="paint0_linear_6122_18506" x1="-3.42857" y1="-1.71429" x2="30.8571" y2="25.7143" gradientUnits="userSpaceOnUse">
<stop stop-color="#00F0FF"/>
<stop offset="0.5" stop-color="#009EFD"/>
<stop offset="1" stop-color="#7000FF"/>
</linearGradient>
<linearGradient id="paint1_linear_6122_18506" x1="-3.42857" y1="-1.71512" x2="30.8571" y2="25.7134" gradientUnits="userSpaceOnUse">
<stop stop-color="#00F0FF"/>
<stop offset="0.5" stop-color="#009EFD"/>
<stop offset="1" stop-color="#7000FF"/>
</linearGradient>
<linearGradient id="paint2_linear_6122_18506" x1="-3.42857" y1="-1.71401" x2="30.8571" y2="25.7146" gradientUnits="userSpaceOnUse">
<stop stop-color="#00F0FF"/>
<stop offset="0.5" stop-color="#009EFD"/>
<stop offset="1" stop-color="#7000FF"/>
</linearGradient>
</defs>
</svg>
