<svg xmlns="http://www.w3.org/2000/svg" viewBox="0 0 256 256" width="20" height="20">
<path fill="#7a4ba0" opacity="0.25" d="M225.86,114.49,205.18,128l20.68,13.51a8,8,0,0,1,2.42,11.49l-15.65,21a8,8,0,0,1-9.6,3l-23.68-9.85L176.78,193a8,8,0,0,1-7.27,8.49l-26.21,2.36L132,228.42a8,8,0,0,1-11.7,0l-11.27-24.61-26.21-2.36A8,8,0,0,1,75.45,193l-2.57-25.84-23.68,9.85a8,8,0,0,1-9.6-3l-15.65-21a8,8,0,0,1,2.42-11.49L46.65,128,26,114.49a8,8,0,0,1-2.42-11.49l15.65-21a8,8,0,0,1,9.6-3l23.68,9.85L75.45,63a8,8,0,0,1,7.27-8.49l26.21-2.36L120.2,27.58a8,8,0,0,1,11.7,0l11.27,24.61,26.21,2.36a8,8,0,0,1,7.27,8.49l-2.57,25.84,23.68-9.85a8,8,0,0,1,9.6,3l15.65,21A8,8,0,0,1,225.86,114.49Z"/>
<path fill="#7a4ba0" d="M225.86,114.49,205.18,128l20.68,13.51a8,8,0,0,1,2.42,11.49l-15.65,21a8,8,0,0,1-9.6,3l-23.68-9.85L176.78,193a8,8,0,0,1-7.27,8.49l-26.21,2.36L132,228.42a8,8,0,0,1-11.7,0l-11.27-24.61-26.21-2.36A8,8,0,0,1,75.45,193l-2.57-25.84-23.68,9.85a8,8,0,0,1-9.6-3l-15.65-21a8,8,0,0,1,2.42-11.49L46.65,128,26,114.49a8,8,0,0,1-2.42-11.49l15.65-21a8,8,0,0,1,9.6-3l23.68,9.85L75.45,63a8,8,0,0,1,7.27-8.49l26.21-2.36L120.2,27.58a8,8,0,0,1,11.7,0l11.27,24.61,26.21,2.36a8,8,0,0,1,7.27,8.49l-2.57,25.84,23.68-9.85a8,8,0,0,1,9.6,3l15.65,21A8,8,0,0,1,225.86,114.49ZM173.66,98.34a8,8,0,0,0-11.32-11.32L112,137.37,93.66,119a8,8,0,0,0-11.32,11.31l24,24a8,8,0,0,0,11.32,0Z"/>
</svg>
