<svg width="64" height="64" viewBox="0 0 64 64" fill="none" xmlns="http://www.w3.org/2000/svg">
<path d="M31.9852 63.9704C49.6501 63.9704 63.9704 49.6501 63.9704 31.9852C63.9704 14.3203 49.6501 0 31.9852 0C14.3203 0 0 14.3203 0 31.9852C0 49.6501 14.3203 63.9704 31.9852 63.9704Z" fill="url(#paint0_linear_1_2142)"/>
<mask id="mask0_1_2142" style="mask-type:alpha" maskUnits="userSpaceOnUse" x="0" y="0" width="64" height="64">
<path d="M31.9852 63.9704C49.6501 63.9704 63.9704 49.6501 63.9704 31.9852C63.9704 14.3203 49.6501 0 31.9852 0C14.3203 0 0 14.3203 0 31.9852C0 49.6501 14.3203 63.9704 31.9852 63.9704Z" fill="#D9D9D9"/>
</mask>
<g mask="url(#mask0_1_2142)">
<path d="M37.9646 26.9105C19.1048 15.9428 0.977439 22.464 -5.72881 27.0339V77.0549H83.139V25.3048C75.9393 30.2864 56.8244 37.878 37.9646 26.9105Z" fill="url(#paint1_linear_1_2142)"/>
<path d="M32.7756 31.3448C52.7924 19.7383 72.032 26.6395 79.1495 31.4754V84.4103H-15.1703V29.6455C-7.52868 34.9172 12.7588 42.9512 32.7756 31.3448Z" fill="url(#paint2_linear_1_2142)"/>
<path d="M58.6199 52.1443C35.749 38.9053 13.7662 46.7773 5.63372 52.2934V112.675H113.402V50.2063C104.671 56.2194 81.4907 65.3836 58.6199 52.1443Z" fill="url(#paint3_linear_1_2142)"/>
<path fill-rule="evenodd" clip-rule="evenodd" d="M31.9852 59.9003C47.4025 59.9003 59.9003 47.4024 59.9003 31.9852C59.9003 16.5679 47.4025 4.07001 31.9852 4.07001C16.5679 4.07001 4.07001 16.5679 4.07001 31.9852C4.07001 47.4024 16.5679 59.9003 31.9852 59.9003ZM31.9852 64.406C49.8904 64.406 64.4058 49.8906 64.4058 31.9852C64.4058 14.0799 49.8904 -0.435425 31.9852 -0.435425C14.0799 -0.435425 -0.435425 14.0799 -0.435425 31.9852C-0.435425 49.8906 14.0799 64.406 31.9852 64.406Z" fill="white"/>
</g>
<defs>
<linearGradient id="paint0_linear_1_2142" x1="23.8306" y1="9.56036" x2="31.9852" y2="63.9704" gradientUnits="userSpaceOnUse">
<stop stop-color="#DFDCF2"/>
<stop offset="0.286458" stop-color="white"/>
</linearGradient>
<linearGradient id="paint1_linear_1_2142" x1="38.7052" y1="20.8992" x2="38.7052" y2="77.0549" gradientUnits="userSpaceOnUse">
<stop stop-color="#3311FF"/>
<stop offset="1"/>
</linearGradient>
<linearGradient id="paint2_linear_1_2142" x1="31.9896" y1="24.9833" x2="31.9896" y2="84.4103" gradientUnits="userSpaceOnUse">
<stop stop-color="#A12CFF"/>
<stop offset="1"/>
</linearGradient>
<linearGradient id="paint3_linear_1_2142" x1="59.518" y1="44.8882" x2="59.518" y2="112.675" gradientUnits="userSpaceOnUse">
<stop stop-color="#F606FF"/>
<stop offset="1"/>
</linearGradient>
</defs>
</svg>





