<svg width="1028" height="323" viewBox="0 0 1028 323" fill="none" xmlns="http://www.w3.org/2000/svg">
<g filter="url(#filter0_d_710_611)">
<circle cx="161.068" cy="161.068" r="100.068" fill="url(#paint0_linear_710_611)"/>
<mask id="mask0_710_611" style="mask-type:alpha" maskUnits="userSpaceOnUse" x="61" y="61" width="201" height="201">
<circle cx="161.068" cy="161.068" r="100.068" fill="#D9D9D9"/>
</mask>
<g mask="url(#mask0_710_611)">
<path d="M179.775 145.191C120.771 110.878 64.0583 131.281 43.0774 145.578V302.072H321.107V140.168C298.582 155.753 238.779 179.504 179.775 145.191Z" fill="url(#paint1_linear_710_611)"/>
<path d="M163.541 159.064C226.165 122.752 286.357 144.343 308.625 159.473V325.084H13.5382V153.748C37.4457 170.241 100.917 195.376 163.541 159.064Z" fill="url(#paint2_linear_710_611)"/>
<path d="M244.396 224.137C172.843 182.718 104.069 207.345 78.6257 224.604V413.511H415.787V218.074C388.47 236.887 315.95 265.557 244.396 224.137Z" fill="url(#paint3_linear_710_611)"/>
<path fill-rule="evenodd" clip-rule="evenodd" d="M161.068 249.765C210.054 249.765 249.765 210.054 249.765 161.068C249.765 112.082 210.054 72.3714 161.068 72.3714C112.082 72.3714 72.3714 112.082 72.3714 161.068C72.3714 210.054 112.082 249.765 161.068 249.765ZM161.068 261.136C216.334 261.136 261.136 216.334 261.136 161.068C261.136 105.802 216.334 61 161.068 61C105.802 61 61 105.802 61 161.068C61 216.334 105.802 261.136 161.068 261.136Z" fill="white"/>
</g>
</g>
<path d="M355.41 215.708V129.821H324.366V106.539H414.05V129.821H383.006V215.708H355.41Z" fill="black"/>
<path d="M467.523 215.708H439.928V106.539H492.014C505.696 106.539 515.642 109.643 521.851 115.852C528.175 121.945 531.337 130.971 531.337 142.928C531.337 151.897 529.095 159.6 524.611 166.039C520.126 172.362 514.205 176.329 506.846 177.939L506.674 178.456C509.548 180.296 512.71 183.342 516.16 187.597C519.609 191.851 523.001 196.507 526.335 201.566C529.785 206.51 532.832 211.167 535.476 215.536V215.708H503.397L484.77 188.114C483.16 185.699 481.838 183.975 480.803 182.94C479.883 181.905 478.733 181.273 477.354 181.043C476.089 180.813 474.019 180.698 471.145 180.698H467.523V215.708ZM487.53 128.959H467.523V158.278H487.53C493.279 158.278 497.245 157.128 499.43 154.828C501.73 152.529 502.879 148.792 502.879 143.618C502.879 138.444 501.73 134.708 499.43 132.408C497.245 130.109 493.279 128.959 487.53 128.959Z" fill="black"/>
<path d="M592.483 215.708H564.888V106.539H592.483V215.708Z" fill="black"/>
<path d="M649.446 215.708V129.821H618.401V106.539H708.086V129.821H677.041V215.708H649.446Z" fill="black"/>
<path d="M730.513 161.037C730.513 147.125 732.066 136.087 735.17 127.924C738.39 119.761 743.851 113.897 751.555 110.333C759.373 106.768 770.239 104.986 784.152 104.986C794.615 104.986 803.296 105.964 810.195 107.918C817.094 109.873 822.555 113.035 826.579 117.404C830.604 121.773 833.421 127.579 835.03 134.823C836.755 141.951 837.618 150.689 837.618 161.037C837.618 171.5 836.755 180.353 835.03 187.597C833.421 194.725 830.604 200.474 826.579 204.843C822.555 209.212 817.094 212.374 810.195 214.328C803.296 216.283 794.615 217.26 784.152 217.26C773.688 217.26 765.008 216.283 758.109 214.328C751.21 212.374 745.748 209.212 741.724 204.843C737.7 200.474 734.825 194.725 733.1 187.597C731.376 180.353 730.513 171.5 730.513 161.037ZM784.152 193.115C791.51 193.115 797.03 192.196 800.709 190.356C804.388 188.516 806.86 185.297 808.125 180.698C809.39 175.984 810.022 169.43 810.022 161.037C810.022 152.759 809.39 146.32 808.125 141.721C806.86 137.122 804.388 133.903 800.709 132.063C797.03 130.109 791.51 129.131 784.152 129.131C776.908 129.131 771.389 130.109 767.595 132.063C763.915 133.903 761.386 137.122 760.006 141.721C758.741 146.32 758.109 152.759 758.109 161.037C758.109 169.43 758.741 175.984 760.006 180.698C761.386 185.297 763.915 188.516 767.595 190.356C771.389 192.196 776.908 193.115 784.152 193.115Z" fill="black"/>
<path d="M939.405 106.539H967V215.708H939.577L908.533 169.488C906.118 165.809 904.106 162.704 902.496 160.175C900.886 157.645 899.392 155.116 898.012 152.586C896.632 150.057 895.08 147.068 893.355 143.618L892.838 144.308C894.447 149.827 895.425 155.001 895.77 159.83C896.115 164.544 896.287 169.143 896.287 173.627V215.708H868.692V106.539H896.115L927.159 152.759C929.574 156.323 931.586 159.427 933.196 162.072C934.806 164.601 936.3 167.131 937.68 169.66C939.06 172.19 940.612 175.179 942.337 178.628L942.854 177.939C941.704 173.11 940.842 168.453 940.267 163.969C939.692 159.37 939.405 154.828 939.405 150.344V106.539Z" fill="black"/>
<defs>
<filter id="filter0_d_710_611" x="17" y="28" width="288.136" height="288.137" filterUnits="userSpaceOnUse" color-interpolation-filters="sRGB">
<feFlood flood-opacity="0" result="BackgroundImageFix"/>
<feColorMatrix in="SourceAlpha" type="matrix" values="0 0 0 0 0 0 0 0 0 0 0 0 0 0 0 0 0 0 127 0" result="hardAlpha"/>
<feOffset dy="11"/>
<feGaussianBlur stdDeviation="22"/>
<feComposite in2="hardAlpha" operator="out"/>
<feColorMatrix type="matrix" values="0 0 0 0 0 0 0 0 0 0 0 0 0 0 0 0 0 0 0.2 0"/>
<feBlend mode="normal" in2="BackgroundImageFix" result="effect1_dropShadow_710_611"/>
<feBlend mode="normal" in="SourceGraphic" in2="effect1_dropShadow_710_611" result="shape"/>
</filter>
<linearGradient id="paint0_linear_710_611" x1="135.556" y1="90.9104" x2="161.068" y2="261.136" gradientUnits="userSpaceOnUse">
<stop stop-color="#DFDCF2"/>
<stop offset="0.286458" stop-color="white"/>
</linearGradient>
<linearGradient id="paint1_linear_710_611" x1="182.092" y1="126.385" x2="182.092" y2="302.072" gradientUnits="userSpaceOnUse">
<stop stop-color="#3311FF"/>
<stop offset="1"/>
</linearGradient>
<linearGradient id="paint2_linear_710_611" x1="161.082" y1="139.162" x2="161.082" y2="325.084" gradientUnits="userSpaceOnUse">
<stop stop-color="#A12CFF"/>
<stop offset="1"/>
</linearGradient>
<linearGradient id="paint3_linear_710_611" x1="247.206" y1="201.436" x2="247.206" y2="413.511" gradientUnits="userSpaceOnUse">
<stop stop-color="#F606FF"/>
<stop offset="1"/>
</linearGradient>
</defs>
</svg>
