<svg xmlns="http://www.w3.org/2000/svg" viewBox="0 0 256 256" width="24" height="24" fill="#7a4ba0"><path opacity="0.3" d="M224,128a96,96,0,0,1-94.71,96H128A95.38,95.38,0,0,1,62.1,197.8a8,8,0,0,1,.66-11.94l27.7-22.51A8,8,0,0,1,103.21,166l3.83,12.22a8,8,0,0,0,12.49,4l36.13-25.85A8,8,0,0,0,158.4,144L153.7,128a96,96,0,0,1,70.3,0Z"/><path d="M197.67,186.37a8,8,0,0,1,0,11.29C196.58,198.73,170.82,224,128,224c-37.39,0-64.53-22.4-80-39.85V208a8,8,0,0,1-16,0V160a8,8,0,0,1,8-8H88a8,8,0,0,1,0,16H55.44C67.76,183.35,93,208,128,208c36,0,58.14-21.46,58.36-21.68A8,8,0,0,1,197.67,186.37ZM216,40a8,8,0,0,0-8,8V71.85C192.53,54.4,165.39,32,128,32,85.18,32,59.42,57.27,58.34,58.34a8,8,0,0,0,11.32,11.32C69.86,69.46,92,48,128,48c35,0,60.24,24.65,72.56,40H168a8,8,0,0,0,0,16h48a8,8,0,0,0,8-8V48A8,8,0,0,0,216,40Z"/></svg>
