<svg xmlns="http://www.w3.org/2000/svg" viewBox="0 0 256 256" width="24" height="24" fill="#7a4ba0"><path opacity="0.2" d="M128,71.65,32,128l96,56.35,96-56.35Z"/><path d="M223.68,66.15,135.68,18.5a15.88,15.88,0,0,0-15.36,0L32.32,66.15A16,16,0,0,0,24,80.17v95.66a16,16,0,0,0,8.32,14L120.32,237.5a15.88,15.88,0,0,0,15.36,0l88-47.65a16,16,0,0,0,8.32-14V80.17A16,16,0,0,0,223.68,66.15ZM128,32.5l79.79,43.36L128,119.21,48.21,75.86Zm-88,57.05,80,43.49v85.86L40,175.83Zm96,129.35V133l80-43.48v86.32Z"/></svg>
