<svg xmlns="http://www.w3.org/2000/svg" viewBox="0 0 256 256" width="24" height="24" fill="#7a4ba0"><path opacity="0.2" d="M224,128c0,17.67-43,32-96,32S32,145.67,32,128V72c0-17.67,43-32,96-32s96,14.33,96,32Z"/><path d="M128,24C74.17,24,32,45.07,32,72V184c0,26.93,42.17,48,96,48s96-21.07,96-48V72C224,45.07,181.83,24,128,24Zm80,104c0,7.91-12.42,16.39-32.62,21.91-25.41,7-58.36,7-83.18-.07C72.32,144.27,48,135.62,48,128V99.36c19.66,11.21,49.45,16.64,80,16.64s60.34-5.43,80-16.64Zm-32.5,68a225.84,225.84,0,0,1-95,0c-20-5.66-32.5-14.32-32.5-22.32V155.33A157.93,157.93,0,0,0,128,168.5a158,158,0,0,0,80-13.17V172C208,180.39,194.69,189.47,175.5,196ZM48,72c0-7.83,12.41-16.21,32.5-21.92a225.84,225.84,0,0,1,95,0C194.69,55.79,208,64.87,208,72c0,8.39-13.31,17.47-32.5,24-25.41,7.05-58.36,7.05-95,0C60.41,89.47,48,80.39,48,72Z"/></svg>
