<svg xmlns="http://www.w3.org/2000/svg" viewBox="0 0 256 256" width="24" height="24" fill="#7a4ba0"><path opacity="0.3" d="M232,88V168a8,8,0,0,1-8,8H32a8,8,0,0,1-8-8V88a8,8,0,0,1,8-8H224A8,8,0,0,1,232,88Z"/><path d="M152,120H136V56h8a32,32,0,0,1,32,32,8,8,0,0,0,16,0,48.05,48.05,0,0,0-48-48h-8V24a8,8,0,0,0-16,0V40H104a48,48,0,0,0,0,96h16v64H96a32,32,0,0,1-32-32,8,8,0,0,0-16,0,48.05,48.05,0,0,0,48,48h24v16a8,8,0,0,0,16,0V216h16a48,48,0,0,0,0-96ZM104,120a32,32,0,0,1,0-64h16v64Zm48,80H136V136h16a32,32,0,0,1,0,64Z"/></svg>
