<svg xmlns="http://www.w3.org/2000/svg" viewBox="0 0 256 256" width="24" height="24" fill="#7a4ba0"><path opacity="0.3" d="M216,91.31V208a8,8,0,0,1-8,8H48a8,8,0,0,1-8-8V48a8,8,0,0,1,8-8H164.69a8,8,0,0,1,5.65,2.34l43.32,43.32A8,8,0,0,1,216,91.31Z"/><path d="M219.31,80,176,36.69A15.86,15.86,0,0,0,164.69,32H48A16,16,0,0,0,32,48V208a16,16,0,0,0,16,16H208a16,16,0,0,0,16-16V91.31A15.86,15.86,0,0,0,219.31,80ZM208,208H48V48H76V96a8,8,0,0,0,8,8h96a8,8,0,0,0,8-8V48h.69L208,75.31ZM92,88V48h32V88Z"/></svg>
