<svg xmlns="http://www.w3.org/2000/svg" viewBox="0 0 256 256" width="24" height="24" fill="#7a4ba0"><path opacity="0.2" d="M208,32H48A16,16,0,0,0,32,48V208a16,16,0,0,0,16,16H208a16,16,0,0,0,16-16V48A16,16,0,0,0,208,32ZM84,80A16,16,0,1,1,68,96,16,16,0,0,1,84,80Z"/><path d="M208,24H48A24,24,0,0,0,24,48V208a24,24,0,0,0,24,24H208a24,24,0,0,0,24-24V48A24,24,0,0,0,208,24Zm8,184a8,8,0,0,1-2.34,5.66L141.66,141.66a8,8,0,0,0-11.32,0L120,152,90.34,122.34a8,8,0,0,0-11.32,0L40,161.37V48a8,8,0,0,1,8-8H208a8,8,0,0,1,8,8ZM84,72A24,24,0,1,0,108,96,24,24,0,0,0,84,72Zm0,32a8,8,0,1,1,8-8A8,8,0,0,1,84,104Z"/></svg>
