<svg xmlns="http://www.w3.org/2000/svg" viewBox="0 0 256 256" width="24" height="24" fill="#7a4ba0"><path opacity="0.2" d="M213.85,125.46l-112,120a8,8,0,0,1-13.69-7.46l21.14-79.32L45,131.59a8,8,0,0,1-3-13L154,2.54a8,8,0,0,1,13.69,7.46L146.61,89.32,210.95,112A8,8,0,0,1,213.85,125.46Z"/><path d="M215.79,118.17a8,8,0,0,0-5-5.66L153.18,90.9l14.66-73.33a8,8,0,0,0-13.69-7.45l-112,120a8,8,0,0,0,3,13l57.63,21.6L88.16,238.07a8,8,0,0,0,13.69,7.45l112-120A8,8,0,0,0,215.79,118.17ZM109.37,214l10.47-52.38a8,8,0,0,0-5-9.06L62,132.71l84.62-90.66L136.16,94.43a8,8,0,0,0,5,9.06l52.8,19.8Z"/></svg>
