<svg xmlns="http://www.w3.org/2000/svg" viewBox="0 0 256 256" width="24" height="24" fill="#7a4ba0"><path opacity="0.3" d="M223.4,44.6,159.27,236.78A8,8,0,0,1,144.43,237l-43.92-92.7L184.91,46.7a4,4,0,0,1,4.4-1.39l-149.31-41A8,8,0,0,0,29.43,15.05L221.6,79.18A8,8,0,0,1,223.4,44.6Z"/><path d="M227.32,28.68a16,16,0,0,0-15.66-4.08l-.15,0L19.57,82.84a16,16,0,0,0-2.42,29.84l85.62,40.55,40.55,85.62A15.86,15.86,0,0,0,157.74,248q.69,0,1.38-.06a15.88,15.88,0,0,0,14-11.51l58.2-191.94c0-.05,0-.1,0-.15A16,16,0,0,0,227.32,28.68ZM157.83,231.85l-.05.14L118.42,148.9l47.24-47.25a8,8,0,0,0-11.31-11.31L107.1,137.58,24,98.22l.14,0L216,40Z"/></svg>
