<svg xmlns="http://www.w3.org/2000/svg" viewBox="0 0 256 256" width="24" height="24"><path fill="#7a4ba0" opacity="0.25" d="M232,96v96a16,16,0,0,1-16,16H40a16,16,0,0,1-16-16V96A16,16,0,0,1,40,80H216A16,16,0,0,1,232,96ZM72,144a16,16,0,1,0,16-16A16,16,0,0,0,72,144Zm96,0a16,16,0,1,0,16-16A16,16,0,0,0,168,144Z"/><path fill="#7a4ba0" d="M200,48H136V32a8,8,0,0,0-16,0V48H56A32,32,0,0,0,24,80V192a32,32,0,0,0,32,32H200a32,32,0,0,0,32-32V80A32,32,0,0,0,200,48ZM72,128a16,16,0,1,1,16,16A16,16,0,0,1,72,128Zm96,32H88a8,8,0,0,1,0-16h80a8,8,0,0,1,0,16Zm16-16a16,16,0,1,1,16-16A16,16,0,0,1,184,144Z"/></svg>
