<svg xmlns="http://www.w3.org/2000/svg" viewBox="0 0 256 256" width="24" height="24" fill="#7a4ba0"><path d="M227.32,28.68a16,16,0,0,0-11.06-4.66l-.21,0c-37.4,1.31-72.42,21-95.86,42.5L107.43,86.66H88a16,16,0,0,0-11.32,4.69L40.49,127.51a16,16,0,0,0,2.92,25l36.18,21,14.85,14.85,21,36.18A16,16,0,0,0,128.49,231a16.17,16.17,0,0,0,2.84-.26,16,16,0,0,0,10.69-7.81L165.34,178c5-7.49,7.61-14.83,7.61-22.83V147.6a8,8,0,0,1,0-.91L195.32,124a16,16,0,0,0,4.66-11.31V92.39C221.74,69,232,33.55,232,33.55L232,33.34l-.05-.21A16,16,0,0,0,227.32,28.68Z"/></svg>
