<svg xmlns="http://www.w3.org/2000/svg" viewBox="0 0 256 256" width="24" height="24" fill="#7a4ba0"><path opacity="0.2" d="M224,160c0,40-32,40-32,40H64s32,0,32-40V56a8,8,0,0,1,8-8H216a8,8,0,0,1,8,8Z"/><path d="M216,40H104A16,16,0,0,0,88,56V96H40a8,8,0,0,0-8,8v56a40,40,0,0,0,40,40H192a40,40,0,0,0,40-40V56A16,16,0,0,0,216,40ZM72,184a24,24,0,0,1-24-24V112H88v48A24,24,0,0,1,72,184Zm144-24a24,24,0,0,1-48,0V104a8,8,0,0,0-8-8H104V56H216Zm-96-64h32a8,8,0,0,1,0,16H120a8,8,0,0,1,0-16Zm0,32h32a8,8,0,0,1,0,16H120a8,8,0,0,1,0-16Z"/></svg>
