<svg xmlns="http://www.w3.org/2000/svg" viewBox="0 0 256 256" width="24" height="24" fill="#7a4ba0"><path opacity="0.2" d="M216,56V120c0,82.7-72,104-87.21,107.83a7.83,7.83,0,0,1-3.58,0C110,224,40,202.74,40,120V56a8,8,0,0,1,8-8H208A8,8,0,0,1,216,56Z"/><path d="M208,40H48A16,16,0,0,0,32,56v58.77c0,89.61,75.82,119.34,91,124.39a15.53,15.53,0,0,0,10,0c15.2-5.05,91-34.78,91-124.39V56A16,16,0,0,0,208,40Zm0,74.79c0,78.42-66.35,104.62-80,109.18-13.53-4.51-80-30.69-80-109.18V56l160,0ZM82.34,141.66a8,8,0,0,1,11.32-11.32L112,148.69l50.34-50.35a8,8,0,0,1,11.32,11.32l-56,56a8,8,0,0,1-11.32,0Z"/></svg>
