<svg xmlns="http://www.w3.org/2000/svg" viewBox="0 0 256 256" width="24" height="24" fill="#7a4ba0"><path opacity="0.3" d="M232,96v16a32,32,0,0,1-64,0,32,32,0,0,1-64,0,32,32,0,0,1-64,0,32,32,0,0,1-64,0V96L48,32H208Z"/><path d="M239.5,89.71l-32-64A8,8,0,0,0,200.41,21H55.59a8,8,0,0,0-7.16,4.42l-32,64A8.11,8.11,0,0,0,16,93v19a40,40,0,0,0,16,32v72a16,16,0,0,0,16,16H208a16,16,0,0,0,16-16V144a40,40,0,0,0,16-32V93A8.11,8.11,0,0,0,239.5,89.71ZM60.53,37H195.47l24,48H36.53Zm67.47,144H56V152a39.86,39.86,0,0,0,32-16,39.93,39.93,0,0,0,40,16Zm80,0h-64V152a39.86,39.86,0,0,0,32-16,39.93,39.93,0,0,0,40,16Z"/></svg>
