<svg xmlns="http://www.w3.org/2000/svg" viewBox="0 0 256 256" width="24" height="24" fill="#7a4ba0"><path opacity="0.2" d="M224,176v32a8,8,0,0,1-8,8H176a8,8,0,0,1-8-8V176a8,8,0,0,1,8-8h40A8,8,0,0,1,224,176ZM80,168H40a8,8,0,0,0-8,8v32a8,8,0,0,0,8,8H80a8,8,0,0,0,8-8V176A8,8,0,0,0,80,168Zm88-128H88a8,8,0,0,0-8,8V80a8,8,0,0,0,8,8h80a8,8,0,0,0,8-8V48A8,8,0,0,0,168,40Z"/><path d="M216,160H192v-8a16,16,0,0,0-16-16H136V96h32a16,16,0,0,0,16-16V40a16,16,0,0,0-16-16H88A16,16,0,0,0,72,40V80A16,16,0,0,0,88,96h32v40H80a16,16,0,0,0-16,16v8H40A16,16,0,0,0,24,176v32a16,16,0,0,0,16,16H80a16,16,0,0,0,16-16V176a16,16,0,0,0-16-16V152h96v8a16,16,0,0,0,16,16h-8v32a16,16,0,0,0,16,16h40a16,16,0,0,0,16-16V176A16,16,0,0,0,216,160ZM88,40h80V80H88ZM80,208H40V176H80Zm136,0H176V176h40Z"/></svg>
