<svg xmlns="http://www.w3.org/2000/svg" viewBox="0 0 256 256" width="24" height="24" fill="#7a4ba0"><path opacity="0.2" d="M216,72H56a8,8,0,0,1-8-8h0a8,8,0,0,1,8-8H192a8,8,0,0,0,0-16H56A24,24,0,0,0,32,64V192a24,24,0,0,0,24,24H216a8,8,0,0,0,8-8V80A8,8,0,0,0,216,72Zm-32,80a16,16,0,1,1,16-16A16,16,0,0,1,184,152Z"/><path d="M216,64H56a8,8,0,0,1,0-16H192a8,8,0,0,0,0-16H56A24,24,0,0,0,32,56V192a24,24,0,0,0,24,24H216a16,16,0,0,0,16-16V80A16,16,0,0,0,216,64Zm0,136H56a8,8,0,0,1-8-8V77.87A23.92,23.92,0,0,0,56,80H216ZM160,136a24,24,0,1,1,24,24A24,24,0,0,1,160,136Zm32,0a8,8,0,1,0-8,8A8,8,0,0,0,192,136Z"/></svg>
